G04 #@! TF.GenerationSoftware,KiCad,Pcbnew,(5.99.0-296-g10468236c)*
G04 #@! TF.CreationDate,2020-04-10T19:10:07+02:00*
G04 #@! TF.ProjectId,kimkong,6b696d6b-6f6e-4672-9e6b-696361645f70,rev?*
G04 #@! TF.SameCoordinates,Original*
G04 #@! TF.FileFunction,Paste,Bot*
G04 #@! TF.FilePolarity,Positive*
%FSLAX46Y46*%
G04 Gerber Fmt 4.6, Leading zero omitted, Abs format (unit mm)*
G04 Created by KiCad (PCBNEW (5.99.0-296-g10468236c)) date 2020-04-10 19:10:07*
%MOMM*%
%LPD*%
G04 APERTURE LIST*
%ADD10R,0.800000X1.600000*%
%ADD11R,0.650000X0.750000*%
%ADD12R,1.100000X1.000000*%
%ADD13R,1.000000X1.100000*%
%ADD14R,1.500000X1.300000*%
%ADD15R,1.600000X1.800000*%
%ADD16R,2.000000X2.500000*%
%ADD17R,1.000000X1.400000*%
%ADD18R,1.803000X1.600000*%
%ADD19R,1.800000X1.600000*%
%ADD20R,1.300000X1.500000*%
%ADD21R,0.650000X0.500000*%
%ADD22R,1.000000X1.000000*%
%ADD23R,0.700000X0.400000*%
%ADD24R,0.762000X1.524000*%
%ADD25R,0.700000X1.000000*%
%ADD26R,0.400000X0.700000*%
%ADD27R,1.900000X2.400000*%
%ADD28R,0.350000X0.800000*%
%ADD29R,0.990600X0.304800*%
%ADD30R,0.800000X0.400000*%
%ADD31R,0.400000X0.800000*%
%ADD32R,0.700000X1.750000*%
%ADD33R,0.800000X1.500000*%
%ADD34R,1.000000X1.500000*%
%ADD35R,1.500000X1.000000*%
G04 APERTURE END LIST*
D10*
X186528600Y-76583600D03*
X183128600Y-76583600D03*
D11*
X177761400Y-78188000D03*
X177761400Y-76788000D03*
X176761400Y-78188000D03*
X176761400Y-76788000D03*
D12*
X139211100Y-99761100D03*
X140911100Y-99761100D03*
D13*
X155142350Y-122994850D03*
X155142350Y-121294850D03*
D14*
X165461100Y-115633600D03*
X165461100Y-113733600D03*
D13*
X154348600Y-101722350D03*
X154348600Y-100022350D03*
X163397350Y-113674850D03*
X163397350Y-115374850D03*
X160222350Y-96212350D03*
X160222350Y-97912350D03*
X158158600Y-96212350D03*
X158158600Y-97912350D03*
X153078600Y-122994850D03*
X153078600Y-121294850D03*
X159213600Y-99602350D03*
X160913600Y-99602350D03*
X160913600Y-101666100D03*
X159213600Y-101666100D03*
X157738600Y-99602350D03*
X156038600Y-99602350D03*
X156038600Y-101666100D03*
X157738600Y-101666100D03*
D15*
X180513600Y-113096100D03*
X177713600Y-113096100D03*
D13*
X170858600Y-88116100D03*
X170858600Y-89816100D03*
X173398600Y-114422350D03*
X173398600Y-112722350D03*
X174248600Y-116429850D03*
X172548600Y-116429850D03*
D16*
X154094850Y-132781100D03*
X158094850Y-132781100D03*
D12*
X127463600Y-127383600D03*
X129163600Y-127383600D03*
X113391100Y-111452350D03*
X113391100Y-113152350D03*
D13*
X114558600Y-114842350D03*
X112858600Y-114842350D03*
D12*
X115454850Y-113152350D03*
X115454850Y-111452350D03*
D13*
X124764850Y-131669850D03*
X126464850Y-131669850D03*
X160007350Y-131669850D03*
X161707350Y-131669850D03*
D12*
X119106100Y-85847350D03*
X119106100Y-84147350D03*
X115716100Y-85949850D03*
X117416100Y-85949850D03*
G36*
X117342521Y-78169704D02*
G01*
X116564704Y-78947521D01*
X115857597Y-78240414D01*
X116635414Y-77462597D01*
X117342521Y-78169704D01*
G37*
G36*
X118544603Y-79371786D02*
G01*
X117766786Y-80149603D01*
X117059679Y-79442496D01*
X117837496Y-78664679D01*
X118544603Y-79371786D01*
G37*
D13*
X160007350Y-133733600D03*
X161707350Y-133733600D03*
D17*
X122439850Y-86891100D03*
X123389850Y-84691100D03*
X121489850Y-84691100D03*
D18*
X183717350Y-102611850D03*
X183717350Y-99767850D03*
D19*
X181653600Y-99789850D03*
X181653600Y-102589850D03*
D20*
X176312350Y-91823600D03*
X174612350Y-91823600D03*
D13*
X137997350Y-105896100D03*
X137997350Y-107596100D03*
X143927350Y-99761100D03*
X142227350Y-99761100D03*
X141704850Y-104364850D03*
X140004850Y-104364850D03*
X152284850Y-99546100D03*
X152284850Y-101246100D03*
D12*
X139052350Y-114842350D03*
X140752350Y-114842350D03*
X142022350Y-111984850D03*
X140322350Y-111984850D03*
X113391100Y-77479850D03*
X113391100Y-79179850D03*
D13*
X109366100Y-77853600D03*
X111066100Y-77853600D03*
G36*
X113106163Y-82476772D02*
G01*
X112646544Y-82017153D01*
X113000097Y-81663600D01*
X113459716Y-82123219D01*
X113106163Y-82476772D01*
G37*
G36*
X113671849Y-81911087D02*
G01*
X113212230Y-81451468D01*
X113565783Y-81097915D01*
X114025402Y-81557534D01*
X113671849Y-81911087D01*
G37*
G36*
X114237534Y-81345402D02*
G01*
X113777915Y-80885783D01*
X114131468Y-80532230D01*
X114591087Y-80991849D01*
X114237534Y-81345402D01*
G37*
G36*
X114803219Y-80779716D02*
G01*
X114343600Y-80320097D01*
X114697153Y-79966544D01*
X115156772Y-80426163D01*
X114803219Y-80779716D01*
G37*
G36*
X115687103Y-81663600D02*
G01*
X115227484Y-81203981D01*
X115581037Y-80850428D01*
X116040656Y-81310047D01*
X115687103Y-81663600D01*
G37*
G36*
X115121417Y-82229285D02*
G01*
X114661798Y-81769666D01*
X115015351Y-81416113D01*
X115474970Y-81875732D01*
X115121417Y-82229285D01*
G37*
G36*
X114555732Y-82794970D02*
G01*
X114096113Y-82335351D01*
X114449666Y-81981798D01*
X114909285Y-82441417D01*
X114555732Y-82794970D01*
G37*
G36*
X113990047Y-83360656D02*
G01*
X113530428Y-82901037D01*
X113883981Y-82547484D01*
X114343600Y-83007103D01*
X113990047Y-83360656D01*
G37*
D12*
X114343600Y-92197350D03*
X114343600Y-90497350D03*
D13*
X141807350Y-129821100D03*
X141807350Y-128121100D03*
X116407350Y-107801100D03*
X116407350Y-109501100D03*
X129844850Y-123573600D03*
X131544850Y-123573600D03*
D12*
X130479850Y-125637350D03*
X132179850Y-125637350D03*
D13*
X125876100Y-123573600D03*
X127576100Y-123573600D03*
D12*
X125399850Y-121509850D03*
X127099850Y-121509850D03*
X133869850Y-126963600D03*
X133869850Y-125263600D03*
D13*
X154292350Y-115953600D03*
X155992350Y-115953600D03*
X154292350Y-118176100D03*
X155992350Y-118176100D03*
D12*
X146411100Y-100816100D03*
X146411100Y-102516100D03*
D13*
X144347350Y-105691100D03*
X144347350Y-103991100D03*
D21*
X114651100Y-93639850D03*
X114651100Y-94439850D03*
X114651100Y-95239850D03*
X114651100Y-96039850D03*
X113401100Y-96039850D03*
X113401100Y-95239850D03*
X113401100Y-94439850D03*
X113401100Y-93639850D03*
X114651100Y-96973600D03*
X114651100Y-97773600D03*
X114651100Y-98573600D03*
X114651100Y-99373600D03*
X113401100Y-99373600D03*
X113401100Y-98573600D03*
X113401100Y-97773600D03*
X113401100Y-96973600D03*
G36*
X135773454Y-85547103D02*
G01*
X135066347Y-84839996D01*
X135844164Y-84062179D01*
X136551271Y-84769286D01*
X135773454Y-85547103D01*
G37*
G36*
X136975536Y-84345021D02*
G01*
X136268429Y-83637914D01*
X137046246Y-82860097D01*
X137753353Y-83567204D01*
X136975536Y-84345021D01*
G37*
G36*
X144658606Y-84522269D02*
G01*
X143867332Y-85286393D01*
X143172674Y-84567053D01*
X143963948Y-83802929D01*
X144658606Y-84522269D01*
G37*
G36*
X145839526Y-85745147D02*
G01*
X145048252Y-86509271D01*
X144353594Y-85789931D01*
X145144868Y-85025807D01*
X145839526Y-85745147D01*
G37*
G36*
X147857179Y-92936246D02*
G01*
X148634996Y-92158429D01*
X149342103Y-92865536D01*
X148564286Y-93643353D01*
X147857179Y-92936246D01*
G37*
G36*
X146655097Y-91734164D02*
G01*
X147432914Y-90956347D01*
X148140021Y-91663454D01*
X147362204Y-92441271D01*
X146655097Y-91734164D01*
G37*
G36*
X145226347Y-93092204D02*
G01*
X145933454Y-92385097D01*
X146711271Y-93162914D01*
X146004164Y-93870021D01*
X145226347Y-93092204D01*
G37*
G36*
X146428429Y-94294286D02*
G01*
X147135536Y-93587179D01*
X147913353Y-94364996D01*
X147206246Y-95072103D01*
X146428429Y-94294286D01*
G37*
G36*
X135299996Y-86726271D02*
G01*
X134522179Y-85948454D01*
X135229286Y-85241347D01*
X136007103Y-86019164D01*
X135299996Y-86726271D01*
G37*
G36*
X134097914Y-87928353D02*
G01*
X133320097Y-87150536D01*
X134027204Y-86443429D01*
X134805021Y-87221246D01*
X134097914Y-87928353D01*
G37*
G36*
X133871246Y-83812597D02*
G01*
X134578353Y-84519704D01*
X133800536Y-85297521D01*
X133093429Y-84590414D01*
X133871246Y-83812597D01*
G37*
G36*
X132669164Y-85014679D02*
G01*
X133376271Y-85721786D01*
X132598454Y-86499603D01*
X131891347Y-85792496D01*
X132669164Y-85014679D01*
G37*
G36*
X135157179Y-93729996D02*
G01*
X135934996Y-92952179D01*
X136642103Y-93659286D01*
X135864286Y-94437103D01*
X135157179Y-93729996D01*
G37*
G36*
X133955097Y-92527914D02*
G01*
X134732914Y-91750097D01*
X135440021Y-92457204D01*
X134662204Y-93235021D01*
X133955097Y-92527914D01*
G37*
G36*
X141685475Y-83939296D02*
G01*
X142080606Y-84334427D01*
X141182581Y-85232452D01*
X140787450Y-84837321D01*
X141685475Y-83939296D01*
G37*
G36*
X142251160Y-84504982D02*
G01*
X142646291Y-84900113D01*
X141748266Y-85798138D01*
X141353135Y-85403007D01*
X142251160Y-84504982D01*
G37*
G36*
X142816845Y-85070667D02*
G01*
X143211976Y-85465798D01*
X142313951Y-86363823D01*
X141918820Y-85968692D01*
X142816845Y-85070667D01*
G37*
G36*
X143382531Y-85636353D02*
G01*
X143777662Y-86031484D01*
X142879637Y-86929509D01*
X142484506Y-86534378D01*
X143382531Y-85636353D01*
G37*
G36*
X143948216Y-86202038D02*
G01*
X144343347Y-86597169D01*
X143445322Y-87495194D01*
X143050191Y-87100063D01*
X143948216Y-86202038D01*
G37*
G36*
X144513902Y-86767724D02*
G01*
X144909033Y-87162855D01*
X144011008Y-88060880D01*
X143615877Y-87665749D01*
X144513902Y-86767724D01*
G37*
G36*
X145079587Y-87333409D02*
G01*
X145474718Y-87728540D01*
X144576693Y-88626565D01*
X144181562Y-88231434D01*
X145079587Y-87333409D01*
G37*
G36*
X145645273Y-87899094D02*
G01*
X146040404Y-88294225D01*
X145142379Y-89192250D01*
X144747248Y-88797119D01*
X145645273Y-87899094D01*
G37*
G36*
X145142379Y-90009950D02*
G01*
X146040404Y-90907975D01*
X145645273Y-91303106D01*
X144747248Y-90405081D01*
X145142379Y-90009950D01*
G37*
G36*
X144576693Y-90575635D02*
G01*
X145474718Y-91473660D01*
X145079587Y-91868791D01*
X144181562Y-90970766D01*
X144576693Y-90575635D01*
G37*
G36*
X144011008Y-91141320D02*
G01*
X144909033Y-92039345D01*
X144513902Y-92434476D01*
X143615877Y-91536451D01*
X144011008Y-91141320D01*
G37*
G36*
X143445322Y-91707006D02*
G01*
X144343347Y-92605031D01*
X143948216Y-93000162D01*
X143050191Y-92102137D01*
X143445322Y-91707006D01*
G37*
G36*
X142879637Y-92272691D02*
G01*
X143777662Y-93170716D01*
X143382531Y-93565847D01*
X142484506Y-92667822D01*
X142879637Y-92272691D01*
G37*
G36*
X142313951Y-92838377D02*
G01*
X143211976Y-93736402D01*
X142816845Y-94131533D01*
X141918820Y-93233508D01*
X142313951Y-92838377D01*
G37*
G36*
X141748266Y-93404062D02*
G01*
X142646291Y-94302087D01*
X142251160Y-94697218D01*
X141353135Y-93799193D01*
X141748266Y-93404062D01*
G37*
G36*
X141182581Y-93969748D02*
G01*
X142080606Y-94867773D01*
X141685475Y-95262904D01*
X140787450Y-94364879D01*
X141182581Y-93969748D01*
G37*
G36*
X139574619Y-93969748D02*
G01*
X139969750Y-94364879D01*
X139071725Y-95262904D01*
X138676594Y-94867773D01*
X139574619Y-93969748D01*
G37*
G36*
X139008934Y-93404062D02*
G01*
X139404065Y-93799193D01*
X138506040Y-94697218D01*
X138110909Y-94302087D01*
X139008934Y-93404062D01*
G37*
G36*
X138443249Y-92838377D02*
G01*
X138838380Y-93233508D01*
X137940355Y-94131533D01*
X137545224Y-93736402D01*
X138443249Y-92838377D01*
G37*
G36*
X137877563Y-92272691D02*
G01*
X138272694Y-92667822D01*
X137374669Y-93565847D01*
X136979538Y-93170716D01*
X137877563Y-92272691D01*
G37*
G36*
X137311878Y-91707006D02*
G01*
X137707009Y-92102137D01*
X136808984Y-93000162D01*
X136413853Y-92605031D01*
X137311878Y-91707006D01*
G37*
G36*
X136746192Y-91141320D02*
G01*
X137141323Y-91536451D01*
X136243298Y-92434476D01*
X135848167Y-92039345D01*
X136746192Y-91141320D01*
G37*
G36*
X136180507Y-90575635D02*
G01*
X136575638Y-90970766D01*
X135677613Y-91868791D01*
X135282482Y-91473660D01*
X136180507Y-90575635D01*
G37*
G36*
X135614821Y-90009950D02*
G01*
X136009952Y-90405081D01*
X135111927Y-91303106D01*
X134716796Y-90907975D01*
X135614821Y-90009950D01*
G37*
G36*
X135111927Y-87899094D02*
G01*
X136009952Y-88797119D01*
X135614821Y-89192250D01*
X134716796Y-88294225D01*
X135111927Y-87899094D01*
G37*
G36*
X135677613Y-87333409D02*
G01*
X136575638Y-88231434D01*
X136180507Y-88626565D01*
X135282482Y-87728540D01*
X135677613Y-87333409D01*
G37*
G36*
X136243298Y-86767724D02*
G01*
X137141323Y-87665749D01*
X136746192Y-88060880D01*
X135848167Y-87162855D01*
X136243298Y-86767724D01*
G37*
G36*
X136808984Y-86202038D02*
G01*
X137707009Y-87100063D01*
X137311878Y-87495194D01*
X136413853Y-86597169D01*
X136808984Y-86202038D01*
G37*
G36*
X137374669Y-85636353D02*
G01*
X138272694Y-86534378D01*
X137877563Y-86929509D01*
X136979538Y-86031484D01*
X137374669Y-85636353D01*
G37*
G36*
X137940355Y-85070667D02*
G01*
X138838380Y-85968692D01*
X138443249Y-86363823D01*
X137545224Y-85465798D01*
X137940355Y-85070667D01*
G37*
G36*
X138506040Y-84504982D02*
G01*
X139404065Y-85403007D01*
X139008934Y-85798138D01*
X138110909Y-84900113D01*
X138506040Y-84504982D01*
G37*
G36*
X139071725Y-83939296D02*
G01*
X139969750Y-84837321D01*
X139574619Y-85232452D01*
X138676594Y-84334427D01*
X139071725Y-83939296D01*
G37*
D13*
X139006100Y-96427350D03*
X137306100Y-96427350D03*
X135989850Y-97379850D03*
X134289850Y-97379850D03*
X132599850Y-97912350D03*
X132599850Y-96212350D03*
D12*
X137679850Y-129073600D03*
X137679850Y-130773600D03*
G36*
X176433574Y-80793555D02*
G01*
X176574996Y-80934977D01*
X176150732Y-81359241D01*
X176009310Y-81217819D01*
X176433574Y-80793555D01*
G37*
G36*
X176716417Y-81076397D02*
G01*
X176857839Y-81217819D01*
X176433575Y-81642083D01*
X176292153Y-81500661D01*
X176716417Y-81076397D01*
G37*
G36*
X176999260Y-81359240D02*
G01*
X177140682Y-81500662D01*
X176716418Y-81924926D01*
X176574996Y-81783504D01*
X176999260Y-81359240D01*
G37*
G36*
X177282103Y-81642083D02*
G01*
X177423525Y-81783505D01*
X176999261Y-82207769D01*
X176857839Y-82066347D01*
X177282103Y-81642083D01*
G37*
G36*
X177564945Y-81924925D02*
G01*
X177706367Y-82066347D01*
X177282103Y-82490611D01*
X177140681Y-82349189D01*
X177564945Y-81924925D01*
G37*
G36*
X177847788Y-82207768D02*
G01*
X177989210Y-82349190D01*
X177564946Y-82773454D01*
X177423524Y-82632032D01*
X177847788Y-82207768D01*
G37*
G36*
X178130631Y-82490611D02*
G01*
X178272053Y-82632033D01*
X177847789Y-83056297D01*
X177706367Y-82914875D01*
X178130631Y-82490611D01*
G37*
G36*
X178413473Y-82773454D02*
G01*
X178554895Y-82914876D01*
X178130631Y-83339140D01*
X177989209Y-83197718D01*
X178413473Y-82773454D01*
G37*
G36*
X178554895Y-83904824D02*
G01*
X178413473Y-84046246D01*
X177989209Y-83621982D01*
X178130631Y-83480560D01*
X178554895Y-83904824D01*
G37*
G36*
X178272053Y-84187667D02*
G01*
X178130631Y-84329089D01*
X177706367Y-83904825D01*
X177847789Y-83763403D01*
X178272053Y-84187667D01*
G37*
G36*
X177989210Y-84470510D02*
G01*
X177847788Y-84611932D01*
X177423524Y-84187668D01*
X177564946Y-84046246D01*
X177989210Y-84470510D01*
G37*
G36*
X177706367Y-84753353D02*
G01*
X177564945Y-84894775D01*
X177140681Y-84470511D01*
X177282103Y-84329089D01*
X177706367Y-84753353D01*
G37*
G36*
X177423525Y-85036195D02*
G01*
X177282103Y-85177617D01*
X176857839Y-84753353D01*
X176999261Y-84611931D01*
X177423525Y-85036195D01*
G37*
G36*
X177140682Y-85319038D02*
G01*
X176999260Y-85460460D01*
X176574996Y-85036196D01*
X176716418Y-84894774D01*
X177140682Y-85319038D01*
G37*
G36*
X176857839Y-85601881D02*
G01*
X176716417Y-85743303D01*
X176292153Y-85319039D01*
X176433575Y-85177617D01*
X176857839Y-85601881D01*
G37*
G36*
X176574996Y-85884723D02*
G01*
X176433574Y-86026145D01*
X176009310Y-85601881D01*
X176150732Y-85460459D01*
X176574996Y-85884723D01*
G37*
G36*
X175443626Y-86026145D02*
G01*
X175302204Y-85884723D01*
X175726468Y-85460459D01*
X175867890Y-85601881D01*
X175443626Y-86026145D01*
G37*
G36*
X175160783Y-85743303D02*
G01*
X175019361Y-85601881D01*
X175443625Y-85177617D01*
X175585047Y-85319039D01*
X175160783Y-85743303D01*
G37*
G36*
X174877940Y-85460460D02*
G01*
X174736518Y-85319038D01*
X175160782Y-84894774D01*
X175302204Y-85036196D01*
X174877940Y-85460460D01*
G37*
G36*
X174595097Y-85177617D02*
G01*
X174453675Y-85036195D01*
X174877939Y-84611931D01*
X175019361Y-84753353D01*
X174595097Y-85177617D01*
G37*
G36*
X174312255Y-84894775D02*
G01*
X174170833Y-84753353D01*
X174595097Y-84329089D01*
X174736519Y-84470511D01*
X174312255Y-84894775D01*
G37*
G36*
X174029412Y-84611932D02*
G01*
X173887990Y-84470510D01*
X174312254Y-84046246D01*
X174453676Y-84187668D01*
X174029412Y-84611932D01*
G37*
G36*
X173746569Y-84329089D02*
G01*
X173605147Y-84187667D01*
X174029411Y-83763403D01*
X174170833Y-83904825D01*
X173746569Y-84329089D01*
G37*
G36*
X173463727Y-84046246D02*
G01*
X173322305Y-83904824D01*
X173746569Y-83480560D01*
X173887991Y-83621982D01*
X173463727Y-84046246D01*
G37*
G36*
X173322305Y-82914876D02*
G01*
X173463727Y-82773454D01*
X173887991Y-83197718D01*
X173746569Y-83339140D01*
X173322305Y-82914876D01*
G37*
G36*
X173605147Y-82632033D02*
G01*
X173746569Y-82490611D01*
X174170833Y-82914875D01*
X174029411Y-83056297D01*
X173605147Y-82632033D01*
G37*
G36*
X173887990Y-82349190D02*
G01*
X174029412Y-82207768D01*
X174453676Y-82632032D01*
X174312254Y-82773454D01*
X173887990Y-82349190D01*
G37*
G36*
X174170833Y-82066347D02*
G01*
X174312255Y-81924925D01*
X174736519Y-82349189D01*
X174595097Y-82490611D01*
X174170833Y-82066347D01*
G37*
G36*
X174453675Y-81783505D02*
G01*
X174595097Y-81642083D01*
X175019361Y-82066347D01*
X174877939Y-82207769D01*
X174453675Y-81783505D01*
G37*
G36*
X174736518Y-81500662D02*
G01*
X174877940Y-81359240D01*
X175302204Y-81783504D01*
X175160782Y-81924926D01*
X174736518Y-81500662D01*
G37*
G36*
X175019361Y-81217819D02*
G01*
X175160783Y-81076397D01*
X175585047Y-81500661D01*
X175443625Y-81642083D01*
X175019361Y-81217819D01*
G37*
G36*
X175302204Y-80934977D02*
G01*
X175443626Y-80793555D01*
X175867890Y-81217819D01*
X175726468Y-81359241D01*
X175302204Y-80934977D01*
G37*
G36*
X175938600Y-81500662D02*
G01*
X177847788Y-83409850D01*
X175938600Y-85319038D01*
X174029412Y-83409850D01*
X175938600Y-81500662D01*
G37*
D13*
X179748600Y-83988600D03*
X179748600Y-85688600D03*
X173239850Y-86846100D03*
X173239850Y-88546100D03*
G36*
X174107103Y-85316246D02*
G01*
X173399996Y-86023353D01*
X172622179Y-85245536D01*
X173329286Y-84538429D01*
X174107103Y-85316246D01*
G37*
G36*
X172905021Y-84114164D02*
G01*
X172197914Y-84821271D01*
X171420097Y-84043454D01*
X172127204Y-83336347D01*
X172905021Y-84114164D01*
G37*
X180701100Y-80178600D03*
X180701100Y-81878600D03*
D22*
X180701100Y-78536100D03*
X180701100Y-76536100D03*
X182764850Y-80504850D03*
X182764850Y-82504850D03*
D12*
X179169850Y-89283600D03*
X177469850Y-89283600D03*
D13*
X118471100Y-127916100D03*
X118471100Y-126216100D03*
X176097350Y-105849850D03*
X176097350Y-104149850D03*
D12*
X168636100Y-95418600D03*
X168636100Y-97118600D03*
X168636100Y-98434850D03*
X168636100Y-100134850D03*
D23*
X125036100Y-126733600D03*
X125036100Y-127383600D03*
X125036100Y-128033600D03*
X123336100Y-128033600D03*
X123336100Y-126733600D03*
D12*
X123653600Y-125319850D03*
X125353600Y-125319850D03*
D24*
X161651100Y-104510900D03*
X160381100Y-104510900D03*
X159111100Y-104510900D03*
X157841100Y-104510900D03*
X156571100Y-104510900D03*
X155301100Y-104510900D03*
X154031100Y-104510900D03*
X152761100Y-104510900D03*
X150221100Y-104536300D03*
X151491100Y-104510900D03*
X150221100Y-114061300D03*
X151491100Y-114061300D03*
X152761100Y-114061300D03*
X154031100Y-114061300D03*
X155301100Y-114061300D03*
X156571100Y-114061300D03*
X157841100Y-114061300D03*
X159111100Y-114061300D03*
X160381100Y-114061300D03*
X161651100Y-114061300D03*
D13*
X113017350Y-107539850D03*
X114717350Y-107539850D03*
X127417350Y-129447350D03*
X125717350Y-129447350D03*
D25*
X138949850Y-121339850D03*
X139899850Y-119139850D03*
X137999850Y-119139850D03*
D12*
X141966100Y-118913600D03*
X141966100Y-120613600D03*
D26*
X145761100Y-104149850D03*
X146411100Y-104149850D03*
X147061100Y-104149850D03*
X147061100Y-105849850D03*
X145761100Y-105849850D03*
D12*
X147998600Y-114739850D03*
X147998600Y-113039850D03*
D13*
X150856100Y-121089850D03*
X150856100Y-119389850D03*
X148316100Y-121089850D03*
X148316100Y-119389850D03*
D27*
X147853600Y-116906100D03*
X151953600Y-116906100D03*
D28*
X141951100Y-106689850D03*
X143251100Y-106689850D03*
X143251100Y-108389850D03*
X142601100Y-108389850D03*
X141951100Y-108389850D03*
D12*
X140219850Y-108118600D03*
X140219850Y-109818600D03*
D13*
X141909850Y-109921100D03*
X143609850Y-109921100D03*
X134607350Y-102459850D03*
X136307350Y-102459850D03*
X137623600Y-102301100D03*
X139323600Y-102301100D03*
X118209850Y-92458600D03*
X116509850Y-92458600D03*
D12*
X116566100Y-90768600D03*
X116566100Y-89068600D03*
G36*
X121488746Y-90377521D02*
G01*
X120710929Y-89599704D01*
X121418036Y-88892597D01*
X122195853Y-89670414D01*
X121488746Y-90377521D01*
G37*
G36*
X120286664Y-91579603D02*
G01*
X119508847Y-90801786D01*
X120215954Y-90094679D01*
X120993771Y-90872496D01*
X120286664Y-91579603D01*
G37*
X118629850Y-89339850D03*
X118629850Y-87639850D03*
D13*
X124129850Y-98491100D03*
X125829850Y-98491100D03*
X129798600Y-101348600D03*
X128098600Y-101348600D03*
X127146100Y-97221100D03*
X128846100Y-97221100D03*
X128846100Y-99443600D03*
X127146100Y-99443600D03*
D12*
X139743600Y-129073600D03*
X139743600Y-130773600D03*
D13*
X131432350Y-128653600D03*
X133132350Y-128653600D03*
X123607350Y-123256100D03*
X121907350Y-123256100D03*
G36*
X127068187Y-93637445D02*
G01*
X127768647Y-94337905D01*
X127553121Y-94553431D01*
X126852661Y-93852971D01*
X127068187Y-93637445D01*
G37*
G36*
X126608568Y-94097064D02*
G01*
X127309028Y-94797524D01*
X127093502Y-95013050D01*
X126393042Y-94312590D01*
X126608568Y-94097064D01*
G37*
G36*
X126148949Y-94556684D02*
G01*
X126849409Y-95257144D01*
X126633883Y-95472670D01*
X125933423Y-94772210D01*
X126148949Y-94556684D01*
G37*
G36*
X125689329Y-95016303D02*
G01*
X126389789Y-95716763D01*
X126174263Y-95932289D01*
X125473803Y-95231829D01*
X125689329Y-95016303D01*
G37*
G36*
X125229710Y-95475923D02*
G01*
X125930170Y-96176383D01*
X125714644Y-96391909D01*
X125014184Y-95691449D01*
X125229710Y-95475923D01*
G37*
G36*
X124770090Y-95935542D02*
G01*
X125470550Y-96636002D01*
X125255024Y-96851528D01*
X124554564Y-96151068D01*
X124770090Y-95935542D01*
G37*
G36*
X124310471Y-96395161D02*
G01*
X125010931Y-97095621D01*
X124795405Y-97311147D01*
X124094945Y-96610687D01*
X124310471Y-96395161D01*
G37*
G36*
X120184079Y-92268769D02*
G01*
X120884539Y-92969229D01*
X120669013Y-93184755D01*
X119968553Y-92484295D01*
X120184079Y-92268769D01*
G37*
G36*
X120643698Y-91809150D02*
G01*
X121344158Y-92509610D01*
X121128632Y-92725136D01*
X120428172Y-92024676D01*
X120643698Y-91809150D01*
G37*
G36*
X121103317Y-91349530D02*
G01*
X121803777Y-92049990D01*
X121588251Y-92265516D01*
X120887791Y-91565056D01*
X121103317Y-91349530D01*
G37*
G36*
X121562937Y-90889911D02*
G01*
X122263397Y-91590371D01*
X122047871Y-91805897D01*
X121347411Y-91105437D01*
X121562937Y-90889911D01*
G37*
G36*
X122022556Y-90430291D02*
G01*
X122723016Y-91130751D01*
X122507490Y-91346277D01*
X121807030Y-90645817D01*
X122022556Y-90430291D01*
G37*
G36*
X122482176Y-89970672D02*
G01*
X123182636Y-90671132D01*
X122967110Y-90886658D01*
X122266650Y-90186198D01*
X122482176Y-89970672D01*
G37*
G36*
X122941795Y-89511053D02*
G01*
X123642255Y-90211513D01*
X123426729Y-90427039D01*
X122726269Y-89726579D01*
X122941795Y-89511053D01*
G37*
X116304850Y-103412350D03*
X114604850Y-103412350D03*
X114717350Y-105476100D03*
X113017350Y-105476100D03*
X116304850Y-101031100D03*
X114604850Y-101031100D03*
D12*
X112914850Y-101292350D03*
X112914850Y-102992350D03*
D13*
X124923600Y-105634850D03*
X126623600Y-105634850D03*
D12*
X129583600Y-105691100D03*
X129583600Y-103991100D03*
X125456100Y-100181100D03*
X125456100Y-101881100D03*
D13*
X127893600Y-103571100D03*
X126193600Y-103571100D03*
D29*
X123611400Y-99716100D03*
X123611400Y-100366100D03*
X123611400Y-101016100D03*
X123611400Y-101666100D03*
X123611400Y-102316100D03*
X123611400Y-102966100D03*
X123611400Y-103616100D03*
X117775800Y-103616100D03*
X117775800Y-102966100D03*
X117775800Y-102316100D03*
X117775800Y-101666100D03*
X117775800Y-101016100D03*
X117775800Y-100366100D03*
X117775800Y-99716100D03*
D13*
X113017350Y-109603600D03*
X114717350Y-109603600D03*
D12*
X134187350Y-116644850D03*
X134187350Y-114944850D03*
X132123600Y-114944850D03*
X132123600Y-116644850D03*
D13*
X134766100Y-123573600D03*
X136466100Y-123573600D03*
X137782350Y-123573600D03*
X139482350Y-123573600D03*
D12*
X128789850Y-118549850D03*
X128789850Y-116849850D03*
D13*
X126623600Y-117382350D03*
X124923600Y-117382350D03*
D12*
X128789850Y-121566100D03*
X128789850Y-119866100D03*
D13*
X127099850Y-119446100D03*
X125399850Y-119446100D03*
D29*
X130475800Y-122031100D03*
X130475800Y-121381100D03*
X130475800Y-120731100D03*
X130475800Y-120081100D03*
X130475800Y-119431100D03*
X130475800Y-118781100D03*
X130475800Y-118131100D03*
X136311400Y-118131100D03*
X136311400Y-118781100D03*
X136311400Y-119431100D03*
X136311400Y-120081100D03*
X136311400Y-120731100D03*
X136311400Y-121381100D03*
X136311400Y-122031100D03*
D12*
X118471100Y-109501100D03*
X118471100Y-107801100D03*
D28*
X120073600Y-112993600D03*
X118773600Y-112993600D03*
X118773600Y-111293600D03*
X119423600Y-111293600D03*
X120073600Y-111293600D03*
D13*
X121431100Y-112937350D03*
X123131100Y-112937350D03*
X123131100Y-110873600D03*
X121431100Y-110873600D03*
D30*
X145293600Y-109142350D03*
X145293600Y-108492350D03*
X145293600Y-107842350D03*
X146893600Y-107842350D03*
X146893600Y-108492350D03*
X146893600Y-109142350D03*
D31*
X120043600Y-107692350D03*
X120693600Y-107692350D03*
X121343600Y-107692350D03*
X121343600Y-109292350D03*
X120693600Y-109292350D03*
X120043600Y-109292350D03*
D12*
X122542350Y-108174850D03*
X124242350Y-108174850D03*
D32*
X172366100Y-130506100D03*
X173466100Y-130506100D03*
X176766100Y-130506100D03*
X177866100Y-130506100D03*
X174566100Y-130506100D03*
X175666100Y-130506100D03*
X178966100Y-130506100D03*
X180066100Y-130506100D03*
D20*
X181266100Y-130356100D03*
X169816100Y-130356100D03*
D33*
X181516100Y-122756100D03*
X169566100Y-122106100D03*
D34*
X169816100Y-119706100D03*
D35*
X181166100Y-121256100D03*
D12*
X168001100Y-117961100D03*
X168001100Y-119661100D03*
M02*
