M48
; DRILL file {KiCad (5.99.0-296-g10468236c)} date Friday, 10 April 2020 at 19:10:10
; FORMAT={3:3/ absolute / metric / keep zeros}
; #@! TF.CreationDate,2020-04-10T19:10:10+02:00
; #@! TF.GenerationSoftware,Kicad,Pcbnew,(5.99.0-296-g10468236c)
FMAT,2
METRIC
T1C0.305
T2C1.016
T3C3.200
%
G90
G05
T1
X105700Y-111500
X106565Y-077536
X106724Y-079600
X106724Y-092300
X107041Y-076266
X108311Y-075949
X112756Y-100237
X112777Y-093393
X112915Y-104047
X113550Y-121669
X113550Y-122304
X114026Y-102301
X114185Y-121669
X114185Y-122304
X114344Y-089442
X114661Y-083569
X114661Y-085950
X115137Y-102301
X115455Y-079600
X115455Y-088649
X115455Y-089760
X115455Y-131987
X115772Y-082457
X115772Y-083410
X115772Y-114842
X115931Y-080076
X116407Y-106587
X116884Y-094046
X116884Y-095316
X116884Y-096427
X117042Y-080870
X117042Y-082140
X117042Y-084680
X117042Y-087220
X117201Y-098650
X117995Y-125002
X118471Y-106587
X118471Y-129447
X118630Y-120875
X118789Y-090871
X118789Y-114049
X118947Y-101666
X119265Y-093252
X119424Y-091665
X119582Y-098809
X119900Y-087696
X120535Y-094205
X120535Y-095475
X120535Y-097221
X120535Y-126272
X120694Y-106587
X120694Y-127701
X121964Y-125161
X121964Y-134369
X122281Y-109445
X122440Y-101666
X122440Y-124685
X122440Y-126749
X122440Y-128336
X122440Y-129447
X122599Y-092141
X123075Y-094364
X123392Y-129924
X123710Y-117382
X124186Y-129130
X124821Y-094364
X124821Y-123574
X125139Y-103571
X125297Y-108175
X126250Y-126907
X126885Y-101825
X127044Y-100555
X127361Y-126114
X127679Y-105635
X128155Y-088490
X128790Y-112937
X129107Y-095157
X129107Y-096110
X129266Y-102777
X130219Y-083092
X130219Y-083727
X130219Y-127384
X130377Y-117065
X130854Y-083092
X130854Y-083727
X130854Y-115001
X130854Y-116112
X131012Y-090077
X131171Y-091189
X131489Y-107381
X131806Y-094999
X131965Y-120081
X132021Y-126964
X132124Y-107381
X132124Y-117859
X132600Y-099126
X133552Y-124050
X133711Y-095316
X133711Y-101349
X133870Y-091506
X134346Y-128654
X134664Y-101349
X134981Y-095634
X134981Y-120081
X134981Y-121034
X135775Y-101349
X136251Y-125479
X136251Y-128019
X136569Y-112461
X136569Y-113414
X136886Y-088807
X137045Y-094205
X137204Y-128019
X137521Y-125479
X137839Y-076266
X137839Y-089919
X137839Y-094999
X137839Y-122304
X137997Y-087696
X137997Y-100555
X138474Y-087220
X138632Y-091347
X139109Y-106270
X139109Y-107381
X139109Y-108651
X139109Y-111032
X139109Y-111985
X139109Y-127066
X139426Y-103254
X139426Y-113731
X139585Y-090712
X139585Y-101031
X139585Y-122462
X139744Y-088966
X140061Y-106270
X140061Y-127066
X140220Y-128019
X140379Y-121510
X140537Y-113731
X140696Y-088966
X140855Y-101984
X140855Y-106746
X140855Y-110874
X141172Y-101031
X141172Y-122780
X141490Y-102619
X141966Y-126590
X142125Y-091506
X142601Y-090077
X142601Y-101190
X142760Y-087855
X142919Y-104365
X143077Y-111985
X143236Y-105476
X143554Y-095951
X143554Y-101190
X143712Y-128654
X144189Y-107540
X144189Y-112779
X144347Y-102936
X144347Y-108492
X144347Y-128812
X144506Y-101190
X144665Y-109921
X144824Y-097221
X144824Y-112144
X145300Y-094840
X145459Y-127225
X145459Y-128177
X145776Y-089760
X145776Y-122939
X145776Y-125002
X146094Y-109921
X146411Y-134369
X146729Y-123097
X146729Y-124209
X147046Y-109921
X147522Y-103254
X147522Y-125479
X148157Y-102460
X148475Y-097380
X148634Y-101031
X148659Y-107563
X148792Y-076266
X149110Y-113414
X149269Y-112144
X149427Y-121192
X149745Y-101666
X150221Y-112144
X150221Y-124367
X150856Y-108651
X150856Y-110874
X150856Y-122145
X151332Y-107857
X151332Y-109445
X151491Y-093252
X151650Y-110397
X151967Y-121034
X151967Y-121986
X151967Y-122939
X151991Y-102381
X152126Y-112144
X153396Y-098809
X153396Y-100872
X153555Y-129447
X153555Y-130082
X154190Y-129447
X154190Y-130082
X154349Y-098809
X154349Y-102777
X154507Y-125955
X154825Y-129447
X154825Y-130082
X155301Y-102810
X155777Y-125955
X155936Y-095316
X155936Y-096586
X156254Y-090871
X156412Y-098174
X157841Y-094046
X157841Y-131829
X157841Y-132464
X157841Y-133099
X157841Y-133734
X158159Y-087696
X158476Y-131829
X158476Y-132464
X158476Y-133099
X158476Y-133734
X159111Y-116906
X159270Y-127701
X160381Y-114207
X160381Y-116906
X161651Y-102936
X161651Y-116906
X163239Y-083886
X163397Y-116906
X163874Y-083886
X164032Y-102619
X165144Y-116906
X165620Y-088649
X165779Y-116906
X166890Y-111985
X166890Y-132464
X166890Y-133099
X167049Y-085632
X167525Y-120875
X167525Y-121510
X167525Y-122145
X167525Y-122780
X167525Y-123415
X167525Y-132464
X167525Y-133099
X167842Y-082934
X167842Y-111032
X168001Y-106429
X168001Y-107699
X168160Y-113731
X168160Y-120875
X168160Y-121510
X168160Y-122145
X168160Y-122780
X168160Y-123415
X168477Y-110397
X168636Y-085474
X168636Y-105794
X168636Y-107064
X168636Y-109445
X168795Y-111667
X168795Y-114366
X168954Y-101349
X168954Y-102619
X169747Y-096269
X169747Y-097380
X169747Y-098332
X169906Y-134369
X171017Y-094522
X171017Y-095792
X171335Y-129289
X171811Y-106746
X172129Y-085474
X172129Y-086426
X172129Y-087379
X172129Y-088490
X172129Y-111350
X172129Y-112302
X172287Y-113255
X172287Y-114207
X172287Y-115160
X172287Y-120875
X172287Y-121510
X172446Y-093094
X172446Y-094046
X172922Y-120875
X172922Y-121510
X173081Y-092141
X173081Y-093094
X173557Y-107699
X173557Y-120875
X173557Y-121510
X174261Y-076588
X174351Y-087061
X174351Y-087696
X174351Y-088331
X174351Y-088966
X174351Y-089601
X174351Y-112779
X174351Y-113414
X174351Y-114049
X174351Y-114684
X174351Y-115319
X174986Y-087061
X174986Y-087696
X174986Y-088331
X174986Y-088966
X174986Y-089601
X174986Y-112779
X174986Y-113414
X174986Y-114049
X174986Y-114684
X174986Y-115319
X175304Y-082775
X175304Y-084045
X175621Y-087061
X175621Y-087696
X175621Y-088331
X175621Y-088966
X175621Y-089601
X175621Y-112779
X175621Y-113414
X175621Y-114049
X175621Y-114684
X175621Y-115319
X175939Y-083410
X175939Y-099444
X175939Y-100237
X175939Y-101031
X175939Y-101825
X175939Y-102619
X176061Y-079288
X176097Y-107222
X176150Y-075690
X176200Y-122800
X176256Y-087061
X176256Y-087696
X176256Y-088331
X176256Y-088966
X176256Y-089601
X176256Y-112779
X176256Y-113414
X176256Y-114049
X176256Y-114684
X176256Y-115319
X176574Y-082775
X176574Y-084045
X176732Y-099444
X176732Y-100237
X176732Y-101031
X176732Y-101825
X176732Y-102619
X176800Y-122200
X176800Y-122800
X176800Y-123400
X177400Y-122800
X177526Y-092141
X177526Y-099444
X177526Y-100237
X177526Y-101031
X177526Y-101825
X177526Y-102619
X177526Y-118335
X177526Y-118970
X178320Y-099444
X178320Y-100237
X178320Y-101031
X178320Y-101825
X178320Y-102619
X178320Y-134369
X178479Y-118335
X178479Y-118970
X178479Y-126749
X178479Y-127384
X178479Y-128019
X178479Y-128654
X178955Y-134369
X179053Y-079312
X179114Y-099444
X179114Y-100237
X179114Y-101031
X179114Y-101825
X179114Y-102619
X179114Y-126749
X179114Y-127384
X179114Y-128019
X179114Y-128654
X179272Y-080552
X180066Y-105635
X180066Y-106270
X181971Y-090554
X181971Y-111509
X181971Y-112144
X181971Y-113096
X181971Y-113731
X181971Y-118652
X181971Y-119764
X182606Y-089919
X182606Y-118652
X182606Y-119764
X182606Y-122621
X182924Y-085791
X182924Y-086426
X183241Y-089284
X183400Y-108334
X183400Y-108969
X183400Y-114049
X183400Y-115636
X183559Y-127384
X183559Y-129447
X183876Y-086109
X183876Y-086744
X183876Y-114842
X184035Y-116271
X184194Y-089919
X184511Y-091982
X184511Y-092617
X184670Y-108334
X184670Y-108969
X186734Y-132146
X186734Y-132781
X186734Y-133416
X187369Y-132146
X187369Y-132781
X187369Y-133416
X188004Y-132146
X188004Y-132781
X188004Y-133416
T2
X186231Y-080874
X186231Y-083414
X186231Y-085954
X186231Y-088494
X186231Y-091034
X186231Y-093574
X186231Y-096114
X186231Y-098654
X186231Y-101194
X186231Y-103734
X186231Y-106274
X186231Y-108814
X186231Y-111354
X186231Y-113894
X186231Y-116434
X186231Y-118974
X186231Y-121514
X186231Y-124054
X186231Y-126594
X186231Y-129134
X188771Y-080874
X188771Y-083414
X188771Y-085954
X188771Y-088494
X188771Y-091034
X188771Y-093574
X188771Y-096114
X188771Y-098654
X188771Y-101194
X188771Y-103734
X188771Y-106274
X188771Y-108814
X188771Y-111354
X188771Y-113894
X188771Y-116434
X188771Y-118974
X188771Y-121514
X188771Y-124054
X188771Y-126594
X188771Y-129134
X120371Y-078734
X120371Y-081274
X122911Y-078734
X122911Y-081274
X125451Y-078734
X125451Y-081274
X127991Y-078734
X127991Y-081274
X130531Y-078734
X130531Y-081274
X133071Y-078734
X133071Y-081274
X135611Y-078734
X135611Y-081274
X138151Y-078734
X138151Y-081274
X140691Y-078734
X140691Y-081274
X143231Y-078734
X143231Y-081274
X145771Y-078734
X145771Y-081274
X148311Y-078734
X148311Y-081274
X150851Y-078734
X150851Y-081274
X153391Y-078734
X153391Y-081274
X155931Y-078734
X155931Y-081274
X158471Y-078734
X158471Y-081274
X161011Y-078734
X161011Y-081274
X163551Y-078734
X163551Y-081274
X166091Y-078734
X166091Y-081274
X168631Y-078734
X168631Y-081274
X162731Y-118924
X162731Y-121464
X162731Y-124004
X162731Y-126544
X162731Y-129084
X165271Y-118924
X165271Y-121464
X165271Y-124004
X165271Y-126544
X165271Y-129084
X162731Y-090924
X162731Y-093464
X162731Y-096004
X162731Y-098544
X162731Y-101084
X165271Y-090924
X165271Y-093464
X165271Y-096004
X165271Y-098544
X165271Y-101084
X108231Y-080874
X108231Y-083414
X108231Y-085954
X108231Y-088494
X108231Y-091034
X108231Y-093574
X108231Y-096114
X108231Y-098654
X108231Y-101194
X108231Y-103734
X108231Y-106274
X108231Y-108814
X108231Y-111354
X108231Y-113894
X108231Y-116434
X108231Y-118974
X108231Y-121514
X108231Y-124054
X108231Y-126594
X108231Y-129134
X110771Y-080874
X110771Y-083414
X110771Y-085954
X110771Y-088494
X110771Y-091034
X110771Y-093574
X110771Y-096114
X110771Y-098654
X110771Y-101194
X110771Y-103734
X110771Y-106274
X110771Y-108814
X110771Y-111354
X110771Y-113894
X110771Y-116434
X110771Y-118974
X110771Y-121514
X110771Y-124054
X110771Y-126594
X110771Y-129134
T3
X149501Y-088504
X149501Y-131004
T0
M30
