G04 #@! TF.GenerationSoftware,KiCad,Pcbnew,(5.99.0-296-g10468236c)*
G04 #@! TF.CreationDate,2020-04-10T19:10:07+02:00*
G04 #@! TF.ProjectId,kimkong,6b696d6b-6f6e-4672-9e6b-696361645f70,rev?*
G04 #@! TF.SameCoordinates,Original*
G04 #@! TF.FileFunction,Legend,Top*
G04 #@! TF.FilePolarity,Positive*
%FSLAX46Y46*%
G04 Gerber Fmt 4.6, Leading zero omitted, Abs format (unit mm)*
G04 Created by KiCad (PCBNEW (5.99.0-296-g10468236c)) date 2020-04-10 19:10:07*
%MOMM*%
%LPD*%
G04 APERTURE LIST*
%ADD10C,1.500000*%
%ADD11C,0.200000*%
%ADD12C,0.127000*%
%ADD13C,0.100000*%
%ADD14C,0.150000*%
%ADD15C,0.250000*%
%ADD16C,0.203200*%
%ADD17C,0.125000*%
%ADD18C,0.063400*%
%ADD19C,0.152400*%
%ADD20C,0.179600*%
%ADD21C,0.101600*%
%ADD22C,2.000000*%
%ADD23R,1.203200X2.403200*%
%ADD24R,2.603200X3.003200*%
%ADD25R,1.983200X2.363200*%
%ADD26R,1.602000X0.802000*%
%ADD27R,1.602000X1.102000*%
%ADD28R,0.902000X2.102000*%
%ADD29R,5.203200X5.203200*%
%ADD30R,1.903200X0.583200*%
%ADD31R,2.403200X0.838200*%
%ADD32R,0.792000X1.452000*%
%ADD33R,1.203200X1.303200*%
%ADD34R,1.303200X1.203200*%
%ADD35R,1.003200X0.603200*%
%ADD36R,1.203200X0.603200*%
%ADD37R,1.503200X1.703200*%
%ADD38R,1.703200X1.503200*%
%ADD39R,1.403200X1.403200*%
%ADD40R,1.403200X3.003200*%
%ADD41R,1.203200X1.603200*%
%ADD42R,1.603200X1.203200*%
%ADD43R,1.803200X2.006200*%
%ADD44R,0.893200X1.193200*%
%ADD45R,1.053200X1.403200*%
%ADD46R,2.603200X2.103200*%
%ADD47R,2.403200X0.803200*%
%ADD48R,1.953200X0.853200*%
%ADD49R,0.853200X0.703200*%
%ADD50R,0.853200X1.953200*%
%ADD51R,1.103200X0.503200*%
%ADD52R,0.503200X1.103200*%
%ADD53R,8.003200X4.603200*%
%ADD54R,0.853200X1.553200*%
%ADD55R,0.603200X0.903200*%
%ADD56R,0.903200X0.603200*%
%ADD57R,1.003200X0.553200*%
G04 APERTURE END LIST*
D10*
X168014285Y-129796428D02*
X162014285Y-129796428D01*
X168014285Y-126367857D02*
X164585714Y-128939285D01*
X162014285Y-126367857D02*
X165442857Y-129796428D01*
X168014285Y-123796428D02*
X162014285Y-123796428D01*
X168014285Y-120939285D02*
X162014285Y-120939285D01*
X166300000Y-118939285D01*
X162014285Y-116939285D01*
X168014285Y-116939285D01*
X168014285Y-109510714D02*
X162014285Y-109510714D01*
X168014285Y-106082142D02*
X164585714Y-108653571D01*
X162014285Y-106082142D02*
X165442857Y-109510714D01*
X162014285Y-102367857D02*
X162014285Y-101225000D01*
X162300000Y-100653571D01*
X162871428Y-100082142D01*
X164014285Y-99796428D01*
X166014285Y-99796428D01*
X167157142Y-100082142D01*
X167728571Y-100653571D01*
X168014285Y-101225000D01*
X168014285Y-102367857D01*
X167728571Y-102939285D01*
X167157142Y-103510714D01*
X166014285Y-103796428D01*
X164014285Y-103796428D01*
X162871428Y-103510714D01*
X162300000Y-102939285D01*
X162014285Y-102367857D01*
X168014285Y-97225000D02*
X162014285Y-97225000D01*
X168014285Y-93796428D01*
X162014285Y-93796428D01*
X162300000Y-87796428D02*
X162014285Y-88367857D01*
X162014285Y-89225000D01*
X162300000Y-90082142D01*
X162871428Y-90653571D01*
X163442857Y-90939285D01*
X164585714Y-91225000D01*
X165442857Y-91225000D01*
X166585714Y-90939285D01*
X167157142Y-90653571D01*
X167728571Y-90082142D01*
X168014285Y-89225000D01*
X168014285Y-88653571D01*
X167728571Y-87796428D01*
X167442857Y-87510714D01*
X165442857Y-87510714D01*
X165442857Y-88653571D01*
D11*
X177653600Y-129951100D02*
X177653600Y-125451100D01*
X177653600Y-125451100D02*
X172953600Y-125451100D01*
X172953600Y-125451100D02*
X172953600Y-129951100D01*
X172953600Y-129951100D02*
X177653600Y-129951100D01*
G36*
X160706100Y-134881100D02*
G01*
X159606100Y-134881100D01*
X159606100Y-130681100D01*
X160706100Y-130681100D01*
X160706100Y-134881100D01*
G37*
X160706100Y-130681100D02*
X160706100Y-134881100D01*
X153706100Y-130681100D02*
X160706100Y-130681100D01*
X153706100Y-134881100D02*
X153706100Y-130681100D01*
X160706100Y-134881100D02*
X153706100Y-134881100D01*
X167383600Y-134701100D02*
X162903600Y-134701100D01*
X162903600Y-134701100D02*
X162903600Y-130861100D01*
X162903600Y-130861100D02*
X167383600Y-130861100D01*
G36*
X164508600Y-134686100D02*
G01*
X163873600Y-134686100D01*
X163873600Y-130876100D01*
X164508600Y-130876100D01*
X164508600Y-134686100D01*
G37*
X164508600Y-132781100D02*
X165778600Y-134051100D01*
D12*
X165778600Y-134051100D02*
X165778600Y-131511100D01*
D11*
X165778600Y-131511100D02*
X164508600Y-132781100D01*
X175500000Y-120400000D02*
X178100000Y-120400000D01*
X179400000Y-125200000D02*
X175500000Y-125200000D01*
X178090000Y-124310000D02*
X177300000Y-125100000D01*
D13*
X177300000Y-125100000D02*
X175490000Y-125100000D01*
D11*
X171493600Y-82751100D02*
X171493600Y-93911100D01*
X171493600Y-93911100D02*
X179113600Y-93911100D01*
X179113600Y-93911100D02*
X179113600Y-82751100D01*
X179113600Y-82751100D02*
X171493600Y-82751100D01*
X172563600Y-83886100D02*
G75*
G03X172563600Y-83886100I-300000J0D01*
G01*
D13*
X159365350Y-84291100D02*
G75*
G03X159365350Y-84291100I-360500J0D01*
G01*
D11*
X162087450Y-83632400D02*
X158104850Y-83632400D01*
X162087450Y-87949800D02*
X162087450Y-83632400D01*
X158104850Y-87949800D02*
X162087450Y-87949800D01*
X158104850Y-83632400D02*
X158104850Y-87949800D01*
X157363550Y-88408500D02*
X162446150Y-88408500D01*
D13*
X162446150Y-88408500D02*
G75*
G03X162546150Y-88308500I0J100000D01*
G01*
X157363550Y-88408500D02*
G75*
G02X157263550Y-88308500I0J100000D01*
G01*
X162546150Y-83273702D02*
G75*
G03X162446150Y-83173700I-99901J101D01*
G01*
D11*
X155142350Y-83173700D02*
X162446150Y-83173700D01*
D13*
X157363550Y-83173700D02*
G75*
G03X157263550Y-83273700I0J-100000D01*
G01*
G36*
X141943161Y-99133202D02*
G01*
X141957005Y-99217874D01*
X141890747Y-99381167D01*
X141834299Y-99401932D01*
X141725438Y-99302546D01*
X141711594Y-99217874D01*
X141777851Y-99054582D01*
X141834299Y-99033816D01*
X141943161Y-99133202D01*
G37*
G36*
X119130250Y-99495308D02*
G01*
X119133816Y-99524638D01*
X119040440Y-99643777D01*
X119011111Y-99647343D01*
X118891971Y-99553967D01*
X118888405Y-99524638D01*
X118981781Y-99405498D01*
X119011111Y-99401932D01*
X119130250Y-99495308D01*
G37*
G36*
X141916103Y-99688245D02*
G01*
X141930788Y-99833867D01*
X141916103Y-99851852D01*
X141843155Y-99835008D01*
X141834299Y-99770048D01*
X141879195Y-99669048D01*
X141916103Y-99688245D01*
G37*
G36*
X118752709Y-99746838D02*
G01*
X118765700Y-99831401D01*
X118690343Y-100000629D01*
X118520929Y-99970306D01*
X118482724Y-99936991D01*
X118457908Y-99784032D01*
X118582276Y-99660012D01*
X118650237Y-99647343D01*
X118752709Y-99746838D01*
G37*
G36*
X119011111Y-100076812D02*
G01*
X118949758Y-100138164D01*
X118888405Y-100076812D01*
X118949758Y-100015459D01*
X119011111Y-100076812D01*
G37*
G36*
X118347775Y-100074945D02*
G01*
X118336232Y-100138164D01*
X118179358Y-100256189D01*
X118144932Y-100260870D01*
X118032773Y-100167277D01*
X118029468Y-100138164D01*
X118129346Y-100030476D01*
X118220768Y-100015459D01*
X118347775Y-100074945D01*
G37*
G36*
X118752709Y-100360365D02*
G01*
X118765700Y-100444928D01*
X118690343Y-100614156D01*
X118520929Y-100583833D01*
X118482724Y-100550518D01*
X118457908Y-100397559D01*
X118582276Y-100273538D01*
X118650237Y-100260870D01*
X118752709Y-100360365D01*
G37*
G36*
X117892919Y-100360256D02*
G01*
X117906763Y-100444928D01*
X117840506Y-100608220D01*
X117784058Y-100628985D01*
X117675196Y-100529599D01*
X117661352Y-100444928D01*
X117727610Y-100281635D01*
X117784058Y-100260870D01*
X117892919Y-100360256D01*
G37*
G36*
X142407644Y-100706108D02*
G01*
X142424307Y-100742488D01*
X142365075Y-100854375D01*
X142263768Y-100874396D01*
X142111052Y-100812135D01*
X142103228Y-100742488D01*
X142229907Y-100615713D01*
X142263768Y-100610580D01*
X142407644Y-100706108D01*
G37*
G36*
X118357402Y-100706108D02*
G01*
X118374066Y-100742488D01*
X118314833Y-100854375D01*
X118213526Y-100874396D01*
X118060811Y-100812135D01*
X118052987Y-100742488D01*
X118179666Y-100615713D01*
X118213526Y-100610580D01*
X118357402Y-100706108D01*
G37*
G36*
X117452179Y-100718180D02*
G01*
X117477294Y-100751691D01*
X117449477Y-100856739D01*
X117361831Y-100874396D01*
X117193944Y-100810332D01*
X117170531Y-100751691D01*
X117258600Y-100632498D01*
X117285995Y-100628985D01*
X117452179Y-100718180D01*
G37*
G36*
X116555598Y-100723922D02*
G01*
X116557005Y-100751691D01*
X116462675Y-100869681D01*
X116427058Y-100874396D01*
X116353773Y-100799222D01*
X116372947Y-100751691D01*
X116483210Y-100634632D01*
X116502894Y-100628985D01*
X116555598Y-100723922D01*
G37*
G36*
X144528822Y-100963469D02*
G01*
X144533816Y-100997101D01*
X144491951Y-101116617D01*
X144479705Y-101119807D01*
X144374943Y-101033823D01*
X144349758Y-100997101D01*
X144359487Y-100884031D01*
X144403869Y-100874396D01*
X144528822Y-100963469D01*
G37*
G36*
X143671313Y-100967772D02*
G01*
X143674879Y-100997101D01*
X143581503Y-101116241D01*
X143552174Y-101119807D01*
X143433034Y-101026431D01*
X143429468Y-100997101D01*
X143522844Y-100877962D01*
X143552174Y-100874396D01*
X143671313Y-100967772D01*
G37*
G36*
X142812376Y-100967772D02*
G01*
X142815942Y-100997101D01*
X142722566Y-101116241D01*
X142693236Y-101119807D01*
X142574097Y-101026431D01*
X142570531Y-100997101D01*
X142663907Y-100877962D01*
X142693236Y-100874396D01*
X142812376Y-100967772D01*
G37*
G36*
X118751856Y-100973782D02*
G01*
X118765700Y-101058454D01*
X118699443Y-101221747D01*
X118642995Y-101242512D01*
X118534133Y-101143126D01*
X118520290Y-101058454D01*
X118586547Y-100895162D01*
X118642995Y-100874396D01*
X118751856Y-100973782D01*
G37*
G36*
X117892919Y-100973782D02*
G01*
X117906763Y-101058454D01*
X117840506Y-101221747D01*
X117784058Y-101242512D01*
X117675196Y-101143126D01*
X117661352Y-101058454D01*
X117727610Y-100895162D01*
X117784058Y-100874396D01*
X117892919Y-100973782D01*
G37*
G36*
X117005646Y-101072275D02*
G01*
X116986473Y-101119807D01*
X116876209Y-101236866D01*
X116856526Y-101242512D01*
X116803822Y-101147576D01*
X116802415Y-101119807D01*
X116896745Y-101001817D01*
X116932362Y-100997101D01*
X117005646Y-101072275D01*
G37*
G36*
X116185323Y-101090477D02*
G01*
X116188889Y-101119807D01*
X116095513Y-101238946D01*
X116066183Y-101242512D01*
X115947044Y-101149136D01*
X115943478Y-101119807D01*
X116036854Y-101000667D01*
X116066183Y-100997101D01*
X116185323Y-101090477D01*
G37*
G36*
X144861030Y-101160709D02*
G01*
X144875716Y-101306331D01*
X144861030Y-101324316D01*
X144788082Y-101307472D01*
X144779227Y-101242512D01*
X144824123Y-101141512D01*
X144861030Y-101160709D01*
G37*
G36*
X144042995Y-101181159D02*
G01*
X144160054Y-101291423D01*
X144165700Y-101311106D01*
X144070764Y-101363811D01*
X144042995Y-101365217D01*
X143925005Y-101270887D01*
X143920290Y-101235270D01*
X143995463Y-101161986D01*
X144042995Y-101181159D01*
G37*
G36*
X143211300Y-101199881D02*
G01*
X143238933Y-101232032D01*
X143226689Y-101392460D01*
X143194538Y-101420093D01*
X143034110Y-101407848D01*
X143006477Y-101375698D01*
X143018721Y-101215269D01*
X143050872Y-101187637D01*
X143211300Y-101199881D01*
G37*
G36*
X142436760Y-101268067D02*
G01*
X142421720Y-101382181D01*
X142354138Y-101474548D01*
X142273946Y-101381686D01*
X142228921Y-101201041D01*
X142251481Y-101152545D01*
X142372784Y-101132395D01*
X142436760Y-101268067D01*
G37*
G36*
X118357402Y-101319635D02*
G01*
X118374066Y-101356014D01*
X118314833Y-101467902D01*
X118213526Y-101487923D01*
X118060811Y-101425662D01*
X118052987Y-101356014D01*
X118179666Y-101229240D01*
X118213526Y-101224106D01*
X118357402Y-101319635D01*
G37*
G36*
X117424420Y-101309105D02*
G01*
X117533224Y-101427559D01*
X117409300Y-101485523D01*
X117347347Y-101487923D01*
X117220967Y-101427551D01*
X117233121Y-101363216D01*
X117380176Y-101292431D01*
X117424420Y-101309105D01*
G37*
G36*
X116516103Y-101283414D02*
G01*
X116530788Y-101429036D01*
X116516103Y-101447021D01*
X116443155Y-101430177D01*
X116434299Y-101365217D01*
X116479195Y-101264217D01*
X116516103Y-101283414D01*
G37*
G36*
X115698067Y-101426570D02*
G01*
X115636715Y-101487923D01*
X115575362Y-101426570D01*
X115636715Y-101365217D01*
X115698067Y-101426570D01*
G37*
G36*
X144528822Y-101576996D02*
G01*
X144533816Y-101610628D01*
X144491951Y-101730143D01*
X144479705Y-101733333D01*
X144374943Y-101647349D01*
X144349758Y-101610628D01*
X144359487Y-101497557D01*
X144403869Y-101487923D01*
X144528822Y-101576996D01*
G37*
G36*
X143671313Y-101581298D02*
G01*
X143674879Y-101610628D01*
X143581503Y-101729768D01*
X143552174Y-101733333D01*
X143433034Y-101639958D01*
X143429468Y-101610628D01*
X143522844Y-101491488D01*
X143552174Y-101487923D01*
X143671313Y-101581298D01*
G37*
G36*
X142812376Y-101581298D02*
G01*
X142815942Y-101610628D01*
X142722566Y-101729768D01*
X142693236Y-101733333D01*
X142574097Y-101639958D01*
X142570531Y-101610628D01*
X142663907Y-101491488D01*
X142693236Y-101487923D01*
X142812376Y-101581298D01*
G37*
G36*
X118604111Y-101587621D02*
G01*
X118618739Y-101779394D01*
X118594424Y-101822806D01*
X118538653Y-101786211D01*
X118529977Y-101661755D01*
X118559944Y-101530825D01*
X118604111Y-101587621D01*
G37*
G36*
X117889106Y-101577093D02*
G01*
X117906763Y-101664739D01*
X117842699Y-101832626D01*
X117784058Y-101856039D01*
X117664865Y-101767970D01*
X117661352Y-101740575D01*
X117750547Y-101574391D01*
X117784058Y-101549275D01*
X117889106Y-101577093D01*
G37*
G36*
X117042832Y-101699701D02*
G01*
X117047826Y-101733333D01*
X117005961Y-101852848D01*
X116993715Y-101856039D01*
X116888953Y-101770055D01*
X116863768Y-101733333D01*
X116873497Y-101620262D01*
X116917879Y-101610628D01*
X117042832Y-101699701D01*
G37*
G36*
X116183895Y-101699701D02*
G01*
X116188889Y-101733333D01*
X116147023Y-101852848D01*
X116134778Y-101856039D01*
X116030016Y-101770055D01*
X116004831Y-101733333D01*
X116014559Y-101620262D01*
X116058942Y-101610628D01*
X116183895Y-101699701D01*
G37*
G36*
X144861030Y-101774235D02*
G01*
X144875716Y-101919858D01*
X144861030Y-101937842D01*
X144788082Y-101920998D01*
X144779227Y-101856039D01*
X144824123Y-101755038D01*
X144861030Y-101774235D01*
G37*
G36*
X144162134Y-101826709D02*
G01*
X144165700Y-101856039D01*
X144072325Y-101975178D01*
X144042995Y-101978744D01*
X143923855Y-101885368D01*
X143920290Y-101856039D01*
X144013665Y-101736899D01*
X144042995Y-101733333D01*
X144162134Y-101826709D01*
G37*
G36*
X143303197Y-101826709D02*
G01*
X143306763Y-101856039D01*
X143213387Y-101975178D01*
X143184058Y-101978744D01*
X143064918Y-101885368D01*
X143061352Y-101856039D01*
X143154728Y-101736899D01*
X143184058Y-101733333D01*
X143303197Y-101826709D01*
G37*
G36*
X118319117Y-101818473D02*
G01*
X118395084Y-101987439D01*
X118316511Y-102097185D01*
X118282121Y-102101449D01*
X118114753Y-102012737D01*
X118096061Y-101987223D01*
X118101925Y-101841570D01*
X118231647Y-101778168D01*
X118319117Y-101818473D01*
G37*
G36*
X117535081Y-101949414D02*
G01*
X117538647Y-101978744D01*
X117445271Y-102097884D01*
X117415942Y-102101449D01*
X117296802Y-102008074D01*
X117293236Y-101978744D01*
X117386612Y-101859604D01*
X117415942Y-101856039D01*
X117535081Y-101949414D01*
G37*
G36*
X116557005Y-101917391D02*
G01*
X116674063Y-102027655D01*
X116679710Y-102047338D01*
X116584774Y-102100042D01*
X116557005Y-102101449D01*
X116439015Y-102007119D01*
X116434299Y-101971502D01*
X116509473Y-101898218D01*
X116557005Y-101917391D01*
G37*
G36*
X115698067Y-102040097D02*
G01*
X115636715Y-102101449D01*
X115575362Y-102040097D01*
X115636715Y-101978744D01*
X115698067Y-102040097D01*
G37*
G36*
X144528822Y-102190522D02*
G01*
X144533816Y-102224155D01*
X144491951Y-102343670D01*
X144479705Y-102346860D01*
X144374943Y-102260876D01*
X144349758Y-102224155D01*
X144359487Y-102111084D01*
X144403869Y-102101449D01*
X144528822Y-102190522D01*
G37*
G36*
X143669885Y-102190522D02*
G01*
X143674879Y-102224155D01*
X143633014Y-102343670D01*
X143620768Y-102346860D01*
X143516006Y-102260876D01*
X143490821Y-102224155D01*
X143500550Y-102111084D01*
X143544932Y-102101449D01*
X143669885Y-102190522D01*
G37*
G36*
X142917881Y-102167707D02*
G01*
X142938647Y-102224155D01*
X142839261Y-102333016D01*
X142754589Y-102346860D01*
X142591297Y-102280603D01*
X142570531Y-102224155D01*
X142669917Y-102115293D01*
X142754589Y-102101449D01*
X142917881Y-102167707D01*
G37*
G36*
X117919500Y-102187809D02*
G01*
X117979901Y-102341575D01*
X117925933Y-102396365D01*
X117759725Y-102385516D01*
X117718897Y-102340698D01*
X117690278Y-102166498D01*
X117808976Y-102119581D01*
X117919500Y-102187809D01*
G37*
G36*
X117042832Y-102313228D02*
G01*
X117047826Y-102346860D01*
X117005961Y-102466375D01*
X116993715Y-102469565D01*
X116888953Y-102383581D01*
X116863768Y-102346860D01*
X116873497Y-102233789D01*
X116917879Y-102224155D01*
X117042832Y-102313228D01*
G37*
G36*
X116183895Y-102313228D02*
G01*
X116188889Y-102346860D01*
X116147023Y-102466375D01*
X116134778Y-102469565D01*
X116030016Y-102383581D01*
X116004831Y-102346860D01*
X116014559Y-102233789D01*
X116058942Y-102224155D01*
X116183895Y-102313228D01*
G37*
G36*
X144861030Y-102387762D02*
G01*
X144875716Y-102533384D01*
X144861030Y-102551369D01*
X144788082Y-102534525D01*
X144779227Y-102469565D01*
X144824123Y-102368565D01*
X144861030Y-102387762D01*
G37*
G36*
X144162134Y-102440236D02*
G01*
X144165700Y-102469565D01*
X144072325Y-102588705D01*
X144042995Y-102592271D01*
X143923855Y-102498895D01*
X143920290Y-102469565D01*
X144013665Y-102350426D01*
X144042995Y-102346860D01*
X144162134Y-102440236D01*
G37*
G36*
X143303197Y-102440236D02*
G01*
X143306763Y-102469565D01*
X143213387Y-102588705D01*
X143184058Y-102592271D01*
X143064918Y-102498895D01*
X143061352Y-102469565D01*
X143154728Y-102350426D01*
X143184058Y-102346860D01*
X143303197Y-102440236D01*
G37*
G36*
X118319117Y-102431999D02*
G01*
X118395084Y-102600966D01*
X118316511Y-102710711D01*
X118282121Y-102714976D01*
X118114753Y-102626264D01*
X118096061Y-102600749D01*
X118101925Y-102455096D01*
X118231647Y-102391694D01*
X118319117Y-102431999D01*
G37*
G36*
X117535081Y-102562941D02*
G01*
X117538647Y-102592271D01*
X117445271Y-102711410D01*
X117415942Y-102714976D01*
X117296802Y-102621600D01*
X117293236Y-102592271D01*
X117386612Y-102473131D01*
X117415942Y-102469565D01*
X117535081Y-102562941D01*
G37*
G36*
X116557005Y-102530918D02*
G01*
X116674063Y-102641182D01*
X116679710Y-102660865D01*
X116584774Y-102713569D01*
X116557005Y-102714976D01*
X116439015Y-102620646D01*
X116434299Y-102585029D01*
X116509473Y-102511745D01*
X116557005Y-102530918D01*
G37*
G36*
X115779871Y-102633172D02*
G01*
X115763027Y-102706120D01*
X115698067Y-102714976D01*
X115597067Y-102670080D01*
X115616264Y-102633172D01*
X115761886Y-102618487D01*
X115779871Y-102633172D01*
G37*
G36*
X144533816Y-102776328D02*
G01*
X144472463Y-102837681D01*
X144411111Y-102776328D01*
X144472463Y-102714976D01*
X144533816Y-102776328D01*
G37*
G36*
X143746059Y-102772692D02*
G01*
X143736232Y-102837681D01*
X143631275Y-102954612D01*
X143613526Y-102960386D01*
X143515970Y-102874805D01*
X143490821Y-102837681D01*
X143519959Y-102733726D01*
X143613526Y-102714976D01*
X143746059Y-102772692D01*
G37*
G36*
X142935081Y-102808351D02*
G01*
X142938647Y-102837681D01*
X142845271Y-102956821D01*
X142815942Y-102960386D01*
X142696802Y-102867011D01*
X142693236Y-102837681D01*
X142786612Y-102718542D01*
X142815942Y-102714976D01*
X142935081Y-102808351D01*
G37*
G36*
X117915242Y-102781569D02*
G01*
X118024045Y-102900023D01*
X117900121Y-102957986D01*
X117838169Y-102960386D01*
X117711788Y-102900015D01*
X117723942Y-102835680D01*
X117870998Y-102764894D01*
X117915242Y-102781569D01*
G37*
G36*
X117075068Y-102795050D02*
G01*
X117102701Y-102827201D01*
X117090457Y-102987629D01*
X117058306Y-103015262D01*
X116897878Y-103003017D01*
X116870245Y-102970867D01*
X116882489Y-102810439D01*
X116914640Y-102782806D01*
X117075068Y-102795050D01*
G37*
G36*
X116183895Y-102926754D02*
G01*
X116188889Y-102960386D01*
X116147023Y-103079902D01*
X116134778Y-103083092D01*
X116030016Y-102997108D01*
X116004831Y-102960386D01*
X116014559Y-102847316D01*
X116058942Y-102837681D01*
X116183895Y-102926754D01*
G37*
G36*
X145019644Y-103049460D02*
G01*
X145024637Y-103083092D01*
X144982772Y-103202607D01*
X144970526Y-103205797D01*
X144865764Y-103119813D01*
X144840579Y-103083092D01*
X144850308Y-102970021D01*
X144894690Y-102960386D01*
X145019644Y-103049460D01*
G37*
G36*
X144162134Y-103053762D02*
G01*
X144165700Y-103083092D01*
X144072325Y-103202231D01*
X144042995Y-103205797D01*
X143923855Y-103112421D01*
X143920290Y-103083092D01*
X144013665Y-102963952D01*
X144042995Y-102960386D01*
X144162134Y-103053762D01*
G37*
G36*
X143303197Y-103053762D02*
G01*
X143306763Y-103083092D01*
X143213387Y-103202231D01*
X143184058Y-103205797D01*
X143064918Y-103112421D01*
X143061352Y-103083092D01*
X143154728Y-102963952D01*
X143184058Y-102960386D01*
X143303197Y-103053762D01*
G37*
G36*
X118394072Y-103048455D02*
G01*
X118397584Y-103075850D01*
X118308390Y-103242034D01*
X118274879Y-103267150D01*
X118169831Y-103239332D01*
X118152174Y-103151686D01*
X118216238Y-102983799D01*
X118274879Y-102960386D01*
X118394072Y-103048455D01*
G37*
G36*
X117535081Y-103176467D02*
G01*
X117538647Y-103205797D01*
X117445271Y-103324937D01*
X117415942Y-103328502D01*
X117296802Y-103235127D01*
X117293236Y-103205797D01*
X117386612Y-103086657D01*
X117415942Y-103083092D01*
X117535081Y-103176467D01*
G37*
G36*
X116676144Y-103176467D02*
G01*
X116679710Y-103205797D01*
X116586334Y-103324937D01*
X116557005Y-103328502D01*
X116437865Y-103235127D01*
X116434299Y-103205797D01*
X116527675Y-103086657D01*
X116557005Y-103083092D01*
X116676144Y-103176467D01*
G37*
G36*
X115779871Y-103246699D02*
G01*
X115763027Y-103319647D01*
X115698067Y-103328502D01*
X115597067Y-103283606D01*
X115616264Y-103246699D01*
X115761886Y-103232013D01*
X115779871Y-103246699D01*
G37*
G36*
X144615620Y-103369404D02*
G01*
X144598776Y-103442352D01*
X144533816Y-103451208D01*
X144432816Y-103406312D01*
X144452013Y-103369404D01*
X144597635Y-103354719D01*
X144615620Y-103369404D01*
G37*
G36*
X142938647Y-103389855D02*
G01*
X142877294Y-103451208D01*
X142815942Y-103389855D01*
X142877294Y-103328502D01*
X142938647Y-103389855D01*
G37*
G36*
X143746059Y-103386218D02*
G01*
X143736232Y-103451208D01*
X143631275Y-103568139D01*
X143613526Y-103573913D01*
X143515970Y-103488331D01*
X143490821Y-103451208D01*
X143519959Y-103347252D01*
X143613526Y-103328502D01*
X143746059Y-103386218D01*
G37*
G36*
X116188889Y-103512560D02*
G01*
X116127536Y-103573913D01*
X116066183Y-103512560D01*
X116127536Y-103451208D01*
X116188889Y-103512560D01*
G37*
G36*
X145024637Y-103635266D02*
G01*
X144963285Y-103696618D01*
X144901932Y-103635266D01*
X144963285Y-103573913D01*
X145024637Y-103635266D01*
G37*
G36*
X117919500Y-103414862D02*
G01*
X117979901Y-103568628D01*
X117925933Y-103623418D01*
X117759725Y-103612569D01*
X117718897Y-103567751D01*
X117690278Y-103393551D01*
X117808976Y-103346634D01*
X117919500Y-103414862D01*
G37*
G36*
X117075068Y-103408577D02*
G01*
X117102701Y-103440727D01*
X117090457Y-103601156D01*
X117058306Y-103628789D01*
X116897878Y-103616544D01*
X116870245Y-103584393D01*
X116882489Y-103423965D01*
X116914640Y-103396332D01*
X117075068Y-103408577D01*
G37*
G36*
X144162134Y-103667289D02*
G01*
X144165700Y-103696618D01*
X144072325Y-103815758D01*
X144042995Y-103819324D01*
X143923855Y-103725948D01*
X143920290Y-103696618D01*
X144013665Y-103577479D01*
X144042995Y-103573913D01*
X144162134Y-103667289D01*
G37*
G36*
X143303197Y-103667289D02*
G01*
X143306763Y-103696618D01*
X143213387Y-103815758D01*
X143184058Y-103819324D01*
X143064918Y-103725948D01*
X143061352Y-103696618D01*
X143154728Y-103577479D01*
X143184058Y-103573913D01*
X143303197Y-103667289D01*
G37*
G36*
X118274879Y-103757971D02*
G01*
X118213526Y-103819324D01*
X118152174Y-103757971D01*
X118213526Y-103696618D01*
X118274879Y-103757971D01*
G37*
G36*
X137595264Y-102296172D02*
G01*
X138347225Y-102433305D01*
X138978142Y-102652170D01*
X139437291Y-102953889D01*
X139475319Y-102992383D01*
X139740366Y-103274512D01*
X138425255Y-103282348D01*
X137491033Y-103320578D01*
X136592958Y-103434403D01*
X135699864Y-103616106D01*
X135143481Y-103743499D01*
X134679170Y-103847565D01*
X134356376Y-103917376D01*
X134225208Y-103942029D01*
X134094010Y-103879009D01*
X133836443Y-103719626D01*
X133695621Y-103625909D01*
X133417027Y-103416251D01*
X133321444Y-103270119D01*
X133375748Y-103134798D01*
X133382113Y-103126997D01*
X133795136Y-102797270D01*
X134391458Y-102542551D01*
X135120356Y-102363961D01*
X135931106Y-102262621D01*
X136772983Y-102239651D01*
X137595264Y-102296172D01*
G37*
G36*
X117535081Y-103789994D02*
G01*
X117538647Y-103819324D01*
X117445271Y-103938463D01*
X117415942Y-103942029D01*
X117296802Y-103848653D01*
X117293236Y-103819324D01*
X117386612Y-103700184D01*
X117415942Y-103696618D01*
X117535081Y-103789994D01*
G37*
G36*
X116676144Y-103789994D02*
G01*
X116679710Y-103819324D01*
X116586334Y-103938463D01*
X116557005Y-103942029D01*
X116437865Y-103848653D01*
X116434299Y-103819324D01*
X116527675Y-103700184D01*
X116557005Y-103696618D01*
X116676144Y-103789994D01*
G37*
G36*
X115779871Y-103860225D02*
G01*
X115763027Y-103933174D01*
X115698067Y-103942029D01*
X115597067Y-103897133D01*
X115616264Y-103860225D01*
X115761886Y-103845540D01*
X115779871Y-103860225D01*
G37*
G36*
X144533816Y-103880676D02*
G01*
X144650875Y-103990940D01*
X144656521Y-104010623D01*
X144561585Y-104063327D01*
X144533816Y-104064734D01*
X144415826Y-103970404D01*
X144411111Y-103934787D01*
X144486285Y-103861503D01*
X144533816Y-103880676D01*
G37*
G36*
X143676880Y-103881913D02*
G01*
X143747666Y-104028969D01*
X143730991Y-104073213D01*
X143612537Y-104182016D01*
X143554574Y-104058092D01*
X143552174Y-103996140D01*
X143612545Y-103869759D01*
X143676880Y-103881913D01*
G37*
G36*
X125073705Y-102596969D02*
G01*
X125863889Y-102743278D01*
X126522596Y-102999332D01*
X126731472Y-103117058D01*
X127150866Y-103373984D01*
X126680351Y-103780712D01*
X126423069Y-103993170D01*
X126209971Y-104114242D01*
X125974474Y-104151535D01*
X125649998Y-104112650D01*
X125169961Y-104005192D01*
X125023671Y-103969914D01*
X124372178Y-103861437D01*
X123487187Y-103793700D01*
X122404761Y-103767501D01*
X120583436Y-103757971D01*
X121026900Y-103374626D01*
X121640367Y-102990737D01*
X122446669Y-102721975D01*
X123418131Y-102575759D01*
X124103381Y-102549905D01*
X125073705Y-102596969D01*
G37*
G36*
X118006056Y-104006093D02*
G01*
X118029468Y-104064734D01*
X117941399Y-104183927D01*
X117914005Y-104187440D01*
X117747820Y-104098245D01*
X117722705Y-104064734D01*
X117750522Y-103959686D01*
X117838169Y-103942029D01*
X118006056Y-104006093D01*
G37*
G36*
X117047826Y-104003382D02*
G01*
X117164885Y-104113646D01*
X117170531Y-104133329D01*
X117075595Y-104186033D01*
X117047826Y-104187440D01*
X116929836Y-104093110D01*
X116925120Y-104057493D01*
X117000294Y-103984209D01*
X117047826Y-104003382D01*
G37*
G36*
X116270692Y-104105636D02*
G01*
X116253848Y-104178584D01*
X116188889Y-104187440D01*
X116087888Y-104142544D01*
X116107085Y-104105636D01*
X116252708Y-104090951D01*
X116270692Y-104105636D01*
G37*
G36*
X145019644Y-104276513D02*
G01*
X145024637Y-104310145D01*
X144982772Y-104429660D01*
X144970526Y-104432850D01*
X144865764Y-104346866D01*
X144840579Y-104310145D01*
X144850308Y-104197074D01*
X144894690Y-104187440D01*
X145019644Y-104276513D01*
G37*
G36*
X144162134Y-104280815D02*
G01*
X144165700Y-104310145D01*
X144072325Y-104429285D01*
X144042995Y-104432850D01*
X143923855Y-104339475D01*
X143920290Y-104310145D01*
X144013665Y-104191005D01*
X144042995Y-104187440D01*
X144162134Y-104280815D01*
G37*
G36*
X143303197Y-104280815D02*
G01*
X143306763Y-104310145D01*
X143213387Y-104429285D01*
X143184058Y-104432850D01*
X143064918Y-104339475D01*
X143061352Y-104310145D01*
X143154728Y-104191005D01*
X143184058Y-104187440D01*
X143303197Y-104280815D01*
G37*
G36*
X117535081Y-104403521D02*
G01*
X117538647Y-104432850D01*
X117445271Y-104551990D01*
X117415942Y-104555556D01*
X117296802Y-104462180D01*
X117293236Y-104432850D01*
X117386612Y-104313711D01*
X117415942Y-104310145D01*
X117535081Y-104403521D01*
G37*
G36*
X116674716Y-104399218D02*
G01*
X116679710Y-104432850D01*
X116637845Y-104552365D01*
X116625599Y-104555556D01*
X116520837Y-104469572D01*
X116495652Y-104432850D01*
X116505381Y-104319779D01*
X116549763Y-104310145D01*
X116674716Y-104399218D01*
G37*
G36*
X115779871Y-104351047D02*
G01*
X115794556Y-104496669D01*
X115779871Y-104514654D01*
X115706923Y-104497810D01*
X115698067Y-104432850D01*
X115742963Y-104331850D01*
X115779871Y-104351047D01*
G37*
G36*
X144615620Y-104596457D02*
G01*
X144598776Y-104669405D01*
X144533816Y-104678261D01*
X144432816Y-104633365D01*
X144452013Y-104596457D01*
X144597635Y-104581772D01*
X144615620Y-104596457D01*
G37*
G36*
X143676880Y-104495440D02*
G01*
X143747666Y-104642495D01*
X143730991Y-104686740D01*
X143612537Y-104795543D01*
X143554574Y-104671619D01*
X143552174Y-104609667D01*
X143612545Y-104483286D01*
X143676880Y-104495440D01*
G37*
G36*
X118025903Y-104648931D02*
G01*
X118029468Y-104678261D01*
X117936093Y-104797400D01*
X117906763Y-104800966D01*
X117787623Y-104707591D01*
X117784058Y-104678261D01*
X117877433Y-104559121D01*
X117906763Y-104555556D01*
X118025903Y-104648931D01*
G37*
G36*
X117047826Y-104616908D02*
G01*
X117164885Y-104727172D01*
X117170531Y-104746855D01*
X117075595Y-104799559D01*
X117047826Y-104800966D01*
X116929836Y-104706636D01*
X116925120Y-104671019D01*
X117000294Y-104597735D01*
X117047826Y-104616908D01*
G37*
G36*
X116270692Y-104719163D02*
G01*
X116253848Y-104792111D01*
X116188889Y-104800966D01*
X116087888Y-104756070D01*
X116107085Y-104719163D01*
X116252708Y-104704477D01*
X116270692Y-104719163D01*
G37*
G36*
X144983736Y-104841868D02*
G01*
X144998421Y-104987490D01*
X144983736Y-105005475D01*
X144910787Y-104988631D01*
X144901932Y-104923671D01*
X144946828Y-104822671D01*
X144983736Y-104841868D01*
G37*
G36*
X144124798Y-104841868D02*
G01*
X144139484Y-104987490D01*
X144124798Y-105005475D01*
X144051850Y-104988631D01*
X144042995Y-104923671D01*
X144087891Y-104822671D01*
X144124798Y-104841868D01*
G37*
G36*
X143265861Y-104841868D02*
G01*
X143280547Y-104987490D01*
X143265861Y-105005475D01*
X143192913Y-104988631D01*
X143184058Y-104923671D01*
X143228954Y-104822671D01*
X143265861Y-104841868D01*
G37*
G36*
X117533653Y-105012745D02*
G01*
X117538647Y-105046377D01*
X117496782Y-105165892D01*
X117484536Y-105169082D01*
X117379774Y-105083098D01*
X117354589Y-105046377D01*
X117364318Y-104933306D01*
X117408700Y-104923671D01*
X117533653Y-105012745D01*
G37*
G36*
X116674716Y-105012745D02*
G01*
X116679710Y-105046377D01*
X116637845Y-105165892D01*
X116625599Y-105169082D01*
X116520837Y-105083098D01*
X116495652Y-105046377D01*
X116505381Y-104933306D01*
X116549763Y-104923671D01*
X116674716Y-105012745D01*
G37*
G36*
X115779871Y-104964573D02*
G01*
X115794556Y-105110196D01*
X115779871Y-105128180D01*
X115706923Y-105111337D01*
X115698067Y-105046377D01*
X115742963Y-104945376D01*
X115779871Y-104964573D01*
G37*
G36*
X144615620Y-105209984D02*
G01*
X144598776Y-105282932D01*
X144533816Y-105291787D01*
X144432816Y-105246891D01*
X144452013Y-105209984D01*
X144597635Y-105195298D01*
X144615620Y-105209984D01*
G37*
G36*
X143674879Y-105107729D02*
G01*
X143791938Y-105217993D01*
X143797584Y-105237676D01*
X143702648Y-105290381D01*
X143674879Y-105291787D01*
X143556889Y-105197457D01*
X143552174Y-105161840D01*
X143627347Y-105088556D01*
X143674879Y-105107729D01*
G37*
G36*
X117166965Y-105262458D02*
G01*
X117170531Y-105291787D01*
X117077155Y-105410927D01*
X117047826Y-105414493D01*
X116928686Y-105321117D01*
X116925120Y-105291787D01*
X117018496Y-105172648D01*
X117047826Y-105169082D01*
X117166965Y-105262458D01*
G37*
G36*
X116270692Y-105332689D02*
G01*
X116253848Y-105405637D01*
X116188889Y-105414493D01*
X116087888Y-105369597D01*
X116107085Y-105332689D01*
X116252708Y-105318004D01*
X116270692Y-105332689D01*
G37*
G36*
X145024637Y-105475845D02*
G01*
X144963285Y-105537198D01*
X144901932Y-105475845D01*
X144963285Y-105414493D01*
X145024637Y-105475845D01*
G37*
G36*
X144246226Y-105489667D02*
G01*
X144227053Y-105537198D01*
X144116789Y-105654257D01*
X144097106Y-105659903D01*
X144044402Y-105564967D01*
X144042995Y-105537198D01*
X144137325Y-105419208D01*
X144172942Y-105414493D01*
X144246226Y-105489667D01*
G37*
G36*
X117565890Y-105494567D02*
G01*
X117593523Y-105526718D01*
X117581278Y-105687146D01*
X117549127Y-105714779D01*
X117388699Y-105702534D01*
X117361066Y-105670384D01*
X117373311Y-105509955D01*
X117405461Y-105482323D01*
X117565890Y-105494567D01*
G37*
G36*
X116674716Y-105626271D02*
G01*
X116679710Y-105659903D01*
X116637845Y-105779418D01*
X116625599Y-105782609D01*
X116520837Y-105696625D01*
X116495652Y-105659903D01*
X116505381Y-105546832D01*
X116549763Y-105537198D01*
X116674716Y-105626271D01*
G37*
G36*
X115779871Y-105578100D02*
G01*
X115794556Y-105723722D01*
X115779871Y-105741707D01*
X115706923Y-105724863D01*
X115698067Y-105659903D01*
X115742963Y-105558903D01*
X115779871Y-105578100D01*
G37*
G36*
X144655115Y-105754839D02*
G01*
X144656521Y-105782609D01*
X144562191Y-105900599D01*
X144526574Y-105905314D01*
X144453290Y-105830140D01*
X144472463Y-105782609D01*
X144582727Y-105665550D01*
X144602410Y-105659903D01*
X144655115Y-105754839D01*
G37*
G36*
X117166965Y-105875984D02*
G01*
X117170531Y-105905314D01*
X117077155Y-106024454D01*
X117047826Y-106028019D01*
X116928686Y-105934644D01*
X116925120Y-105905314D01*
X117018496Y-105786174D01*
X117047826Y-105782609D01*
X117166965Y-105875984D01*
G37*
G36*
X116270692Y-105946216D02*
G01*
X116253848Y-106019164D01*
X116188889Y-106028019D01*
X116087888Y-105983123D01*
X116107085Y-105946216D01*
X116252708Y-105931530D01*
X116270692Y-105946216D01*
G37*
G36*
X145106441Y-106068921D02*
G01*
X145089597Y-106141869D01*
X145024637Y-106150725D01*
X144923637Y-106105829D01*
X144942834Y-106068921D01*
X145088456Y-106054236D01*
X145106441Y-106068921D01*
G37*
G36*
X116760236Y-106225899D02*
G01*
X116741062Y-106273430D01*
X116630799Y-106390489D01*
X116611115Y-106396135D01*
X116558411Y-106301199D01*
X116557005Y-106273430D01*
X116651335Y-106155440D01*
X116686952Y-106150725D01*
X116760236Y-106225899D01*
G37*
G36*
X115779871Y-106191626D02*
G01*
X115794556Y-106337249D01*
X115779871Y-106355233D01*
X115706923Y-106338390D01*
X115698067Y-106273430D01*
X115742963Y-106172430D01*
X115779871Y-106191626D01*
G37*
G36*
X116270692Y-106559742D02*
G01*
X116253848Y-106632691D01*
X116188889Y-106641546D01*
X116087888Y-106596650D01*
X116107085Y-106559742D01*
X116252708Y-106545057D01*
X116270692Y-106559742D01*
G37*
G36*
X115820773Y-106825604D02*
G01*
X115759420Y-106886957D01*
X115698067Y-106825604D01*
X115759420Y-106764251D01*
X115820773Y-106825604D01*
G37*
G36*
X144615620Y-106927858D02*
G01*
X144630305Y-107073481D01*
X144615620Y-107091465D01*
X144542671Y-107074622D01*
X144533816Y-107009662D01*
X144578712Y-106908661D01*
X144615620Y-106927858D01*
G37*
G36*
X145106441Y-107295974D02*
G01*
X145089597Y-107368922D01*
X145024637Y-107377778D01*
X144923637Y-107332882D01*
X144942834Y-107295974D01*
X145088456Y-107281289D01*
X145106441Y-107295974D01*
G37*
G36*
X116760236Y-107452952D02*
G01*
X116741062Y-107500483D01*
X116630799Y-107617542D01*
X116611115Y-107623188D01*
X116558411Y-107528252D01*
X116557005Y-107500483D01*
X116651335Y-107382493D01*
X116686952Y-107377778D01*
X116760236Y-107452952D01*
G37*
G36*
X117129629Y-107664090D02*
G01*
X117144315Y-107809713D01*
X117129629Y-107827697D01*
X117056681Y-107810854D01*
X117047826Y-107745894D01*
X117092722Y-107644893D01*
X117129629Y-107664090D01*
G37*
G36*
X116270692Y-107664090D02*
G01*
X116285378Y-107809713D01*
X116270692Y-107827697D01*
X116197744Y-107810854D01*
X116188889Y-107745894D01*
X116233785Y-107644893D01*
X116270692Y-107664090D01*
G37*
G36*
X116679710Y-108052657D02*
G01*
X116618357Y-108114010D01*
X116557005Y-108052657D01*
X116618357Y-107991304D01*
X116679710Y-108052657D01*
G37*
G36*
X115902576Y-108032206D02*
G01*
X115885732Y-108105154D01*
X115820773Y-108114010D01*
X115719772Y-108069114D01*
X115738969Y-108032206D01*
X115884592Y-108017521D01*
X115902576Y-108032206D01*
G37*
G36*
X125443903Y-104421930D02*
G01*
X126713462Y-104579343D01*
X127843161Y-104829411D01*
X128409323Y-105015725D01*
X128829984Y-105146673D01*
X129263679Y-105206730D01*
X129808971Y-105206955D01*
X130019512Y-105196407D01*
X130510955Y-105183574D01*
X130925070Y-105200977D01*
X131186564Y-105244771D01*
X131216088Y-105257540D01*
X131444868Y-105296534D01*
X131821649Y-105222038D01*
X132182711Y-105103127D01*
X133237717Y-104807804D01*
X134466873Y-104608773D01*
X135817980Y-104507500D01*
X137238837Y-104505450D01*
X138677246Y-104604088D01*
X140081007Y-104804881D01*
X140423188Y-104871786D01*
X140914689Y-104985919D01*
X141433469Y-105126388D01*
X141925025Y-105275776D01*
X142334852Y-105416666D01*
X142608445Y-105531641D01*
X142693236Y-105597194D01*
X142642676Y-105788483D01*
X142518093Y-106071866D01*
X142360137Y-106371368D01*
X142209455Y-106611014D01*
X142106696Y-106714828D01*
X142096207Y-106713095D01*
X142020299Y-106787348D01*
X141927629Y-107046804D01*
X141843337Y-107410794D01*
X141522103Y-108711415D01*
X141089902Y-109817407D01*
X140551826Y-110721260D01*
X139912967Y-111415462D01*
X139178419Y-111892499D01*
X138681489Y-112074743D01*
X137982920Y-112216805D01*
X137170185Y-112309429D01*
X136346136Y-112345898D01*
X135613624Y-112319495D01*
X135374711Y-112290667D01*
X134454805Y-112047834D01*
X133597294Y-111630417D01*
X132856865Y-111073194D01*
X132288207Y-110410940D01*
X132202587Y-110273539D01*
X131911953Y-109621967D01*
X131691301Y-108811830D01*
X131559031Y-107924494D01*
X131528867Y-107294513D01*
X131502446Y-106729997D01*
X131407046Y-106350936D01*
X131214283Y-106100758D01*
X130895771Y-105922889D01*
X130827090Y-105895777D01*
X130450403Y-105845796D01*
X129997605Y-105908749D01*
X129576910Y-106058882D01*
X129306466Y-106257665D01*
X129176820Y-106558844D01*
X129081011Y-107097590D01*
X129036712Y-107582907D01*
X128910093Y-108630789D01*
X128677268Y-109491658D01*
X128322694Y-110206551D01*
X127830829Y-110816506D01*
X127800556Y-110846764D01*
X126968047Y-111501688D01*
X126006494Y-111953913D01*
X124931616Y-112198909D01*
X123759134Y-112232141D01*
X123193090Y-112175311D01*
X122445344Y-112056921D01*
X121880551Y-111926742D01*
X121436418Y-111764026D01*
X121050651Y-111548030D01*
X120824113Y-111386374D01*
X120161590Y-110740952D01*
X119612045Y-109895264D01*
X119171609Y-108841737D01*
X118836411Y-107572803D01*
X118811595Y-107449414D01*
X118696134Y-106921768D01*
X118595697Y-106608944D01*
X118499139Y-106481756D01*
X118441810Y-106481039D01*
X118295113Y-106463015D01*
X118274879Y-106403336D01*
X118224691Y-106213680D01*
X118098173Y-105901422D01*
X118030314Y-105755384D01*
X117896782Y-105442322D01*
X117839459Y-105230810D01*
X117846256Y-105188687D01*
X117904337Y-105216941D01*
X117906763Y-105248061D01*
X118013583Y-105265318D01*
X118299563Y-105210668D01*
X118712981Y-105095396D01*
X118937573Y-105023161D01*
X120075275Y-104717954D01*
X121350169Y-104505183D01*
X122706846Y-104384893D01*
X124089894Y-104357128D01*
X125443903Y-104421930D01*
G37*
G36*
X126759503Y-113091658D02*
G01*
X126676401Y-113344298D01*
X126525350Y-114002723D01*
X126570723Y-114550790D01*
X126804217Y-114968859D01*
X127217532Y-115237295D01*
X127508454Y-115312468D01*
X127809335Y-115344692D01*
X127939874Y-115292275D01*
X127968592Y-115126897D01*
X127968599Y-115122282D01*
X128077346Y-114865127D01*
X128348824Y-114661522D01*
X128700886Y-114548828D01*
X129051389Y-114564405D01*
X129131049Y-114593584D01*
X129371763Y-114787742D01*
X129441062Y-114978559D01*
X129552240Y-115243466D01*
X129861360Y-115415608D01*
X130322609Y-115474450D01*
X130702708Y-115436824D01*
X130942745Y-115292356D01*
X131110116Y-115046860D01*
X131361466Y-114812474D01*
X131715266Y-114736564D01*
X132094577Y-114810136D01*
X132422462Y-115024195D01*
X132562676Y-115216662D01*
X132781812Y-115470472D01*
X133041801Y-115523520D01*
X133313864Y-115410367D01*
X133569220Y-115165577D01*
X133779091Y-114823713D01*
X133914699Y-114419336D01*
X133947263Y-113987009D01*
X133877495Y-113637625D01*
X133816641Y-113402346D01*
X133839661Y-113319430D01*
X133851173Y-113324486D01*
X133922026Y-113454617D01*
X134048027Y-113765577D01*
X134212416Y-114208105D01*
X134398436Y-114732941D01*
X134589328Y-115290823D01*
X134768334Y-115832491D01*
X134918695Y-116308684D01*
X135023653Y-116670141D01*
X135066451Y-116867600D01*
X135063724Y-116888772D01*
X134989510Y-116810103D01*
X134830493Y-116562441D01*
X134616760Y-116193647D01*
X134544062Y-116062145D01*
X134068099Y-115191821D01*
X133748542Y-115567108D01*
X133267035Y-115999782D01*
X132766608Y-116199874D01*
X132264683Y-116163133D01*
X131941841Y-116007600D01*
X131660344Y-115875504D01*
X131370885Y-115897156D01*
X131240603Y-115938393D01*
X130447893Y-116093389D01*
X129519947Y-116049810D01*
X129415273Y-116033888D01*
X128801657Y-116011145D01*
X128258802Y-116137868D01*
X127893944Y-116249450D01*
X127645557Y-116269179D01*
X127401773Y-116195130D01*
X127242677Y-116120391D01*
X126857041Y-115835194D01*
X126543801Y-115435025D01*
X126539021Y-115426486D01*
X126272982Y-114947175D01*
X125777166Y-115917307D01*
X125559065Y-116330476D01*
X125388635Y-116627561D01*
X125290424Y-116767050D01*
X125276071Y-116764734D01*
X125315159Y-116569579D01*
X125428172Y-116198041D01*
X125597127Y-115701290D01*
X125804045Y-115130497D01*
X126030943Y-114536830D01*
X126245975Y-114004622D01*
X126446928Y-113543924D01*
X126613127Y-113200236D01*
X126730201Y-112995600D01*
X126783782Y-112952060D01*
X126759503Y-113091658D01*
G37*
G36*
X131631196Y-119050293D02*
G01*
X131854239Y-119111813D01*
X132099433Y-119241824D01*
X132397983Y-119462809D01*
X132781097Y-119797251D01*
X133279979Y-120267631D01*
X133766425Y-120740302D01*
X134224882Y-121196136D01*
X134531863Y-121526495D01*
X134716642Y-121771902D01*
X134808493Y-121972880D01*
X134836690Y-122169951D01*
X134837230Y-122222562D01*
X134834364Y-122654589D01*
X134499790Y-122045277D01*
X134026067Y-121418699D01*
X133588650Y-121080536D01*
X133012082Y-120725106D01*
X127267266Y-120691304D01*
X126666966Y-121235125D01*
X126299489Y-121597949D01*
X125968257Y-121975446D01*
X125791208Y-122216767D01*
X125623927Y-122468036D01*
X125525810Y-122587175D01*
X125515121Y-122584832D01*
X125547082Y-122437892D01*
X125630209Y-122131868D01*
X125711519Y-121851615D01*
X125916807Y-121383242D01*
X126249987Y-120866131D01*
X126669973Y-120342771D01*
X127135684Y-119855650D01*
X127606035Y-119447255D01*
X128039943Y-119160074D01*
X128396325Y-119036595D01*
X128435227Y-119034783D01*
X128727252Y-119071502D01*
X129137563Y-119165501D01*
X129400003Y-119241376D01*
X129790579Y-119354717D01*
X130049326Y-119386045D01*
X130275716Y-119335360D01*
X130488622Y-119241376D01*
X130919607Y-119098955D01*
X131374538Y-119035043D01*
X131399096Y-119034783D01*
X131631196Y-119050293D01*
G37*
G36*
X127778660Y-123442272D02*
G01*
X128296043Y-123600709D01*
X128643478Y-123741450D01*
X129377965Y-123960300D01*
X130209040Y-124048450D01*
X131056243Y-124008851D01*
X131839114Y-123844455D01*
X132402989Y-123603538D01*
X132714640Y-123484141D01*
X132950919Y-123498557D01*
X133055540Y-123629471D01*
X133014786Y-123791759D01*
X132846270Y-124031767D01*
X132601844Y-124303739D01*
X132350046Y-124539405D01*
X132159412Y-124670495D01*
X132123847Y-124679227D01*
X132012649Y-124730187D01*
X132095263Y-124862091D01*
X132347348Y-125043470D01*
X132450898Y-125102029D01*
X132697696Y-125267637D01*
X132771760Y-125392112D01*
X132751537Y-125417047D01*
X132575703Y-125454683D01*
X132212624Y-125484616D01*
X131707606Y-125506810D01*
X131105958Y-125521226D01*
X130452984Y-125527830D01*
X129793994Y-125526583D01*
X129174293Y-125517449D01*
X128639188Y-125500392D01*
X128233987Y-125475375D01*
X128003996Y-125442360D01*
X127968599Y-125420925D01*
X128064090Y-125276080D01*
X128299170Y-125089376D01*
X128352139Y-125055902D01*
X128735678Y-124822657D01*
X128241032Y-124570308D01*
X127864156Y-124329988D01*
X127542183Y-124041011D01*
X127326282Y-123758638D01*
X127267618Y-123538128D01*
X127271714Y-123523450D01*
X127431692Y-123415641D01*
X127778660Y-123442272D01*
G37*
G36*
X126598905Y-129722973D02*
G01*
X126345068Y-129607719D01*
X125983296Y-129404719D01*
X125566590Y-129148736D01*
X125147948Y-128874537D01*
X124780368Y-128616885D01*
X124516851Y-128410547D01*
X124410394Y-128290286D01*
X124410145Y-128287243D01*
X124508845Y-128310582D01*
X124771835Y-128430777D01*
X125149450Y-128624479D01*
X125299758Y-128705460D01*
X125966714Y-129054048D01*
X126471930Y-129276776D01*
X126857205Y-129384894D01*
X127164334Y-129389653D01*
X127435115Y-129302303D01*
X127463734Y-129287938D01*
X128028276Y-129087725D01*
X128762320Y-128961037D01*
X129601220Y-128907907D01*
X130480331Y-128928364D01*
X131335007Y-129022440D01*
X132100605Y-129190165D01*
X132388077Y-129285598D01*
X133103657Y-129499845D01*
X133736128Y-129550545D01*
X134381071Y-129442368D01*
X134554257Y-129391424D01*
X135300232Y-129044600D01*
X135723538Y-128703998D01*
X135977735Y-128473441D01*
X136147105Y-128365110D01*
X136189855Y-128382944D01*
X136107030Y-128537128D01*
X135890524Y-128798188D01*
X135606024Y-129090946D01*
X135015834Y-129543031D01*
X134335979Y-129878470D01*
X133654248Y-130058386D01*
X133376617Y-130078261D01*
X133018374Y-130194854D01*
X132784064Y-130432099D01*
X132371082Y-130809433D01*
X131784664Y-131106050D01*
X131087561Y-131307887D01*
X130342524Y-131400881D01*
X129612303Y-131370969D01*
X129104068Y-131256800D01*
X128675812Y-131079043D01*
X128195048Y-130823411D01*
X127735439Y-130535312D01*
X127370649Y-130260152D01*
X127198055Y-130081935D01*
X126985442Y-129904633D01*
X126864177Y-129845065D01*
X127477777Y-129845065D01*
X127584147Y-129963563D01*
X127864087Y-130134219D01*
X128258847Y-130330116D01*
X128709678Y-130524335D01*
X129157827Y-130689959D01*
X129544545Y-130800070D01*
X129577060Y-130806889D01*
X130204336Y-130866585D01*
X130909551Y-130832448D01*
X131571332Y-130714756D01*
X131890678Y-130610937D01*
X132239654Y-130438757D01*
X132517962Y-130253382D01*
X132534947Y-130238562D01*
X132684008Y-130078732D01*
X132645046Y-129970070D01*
X132539438Y-129890958D01*
X132219156Y-129746996D01*
X131743044Y-129632036D01*
X131154124Y-129546467D01*
X130495417Y-129490679D01*
X129809945Y-129465062D01*
X129140730Y-129470007D01*
X128530795Y-129505903D01*
X128023160Y-129573141D01*
X127660848Y-129672111D01*
X127486880Y-129803202D01*
X127477777Y-129845065D01*
X126864177Y-129845065D01*
X126657374Y-129743480D01*
X126598905Y-129722973D01*
G37*
G36*
X112960757Y-114371981D02*
G01*
X113734782Y-114371981D01*
X113779678Y-114472981D01*
X113816586Y-114453784D01*
X113831271Y-114308162D01*
X113816586Y-114290177D01*
X113743638Y-114307021D01*
X113734782Y-114371981D01*
X112960757Y-114371981D01*
X112946949Y-114310628D01*
X112804353Y-113636312D01*
X112659895Y-112869029D01*
X112602017Y-112531401D01*
X114039750Y-112531401D01*
X114039813Y-112847751D01*
X114090847Y-113313217D01*
X114178638Y-113852477D01*
X114288973Y-114390204D01*
X114407640Y-114851074D01*
X114520424Y-115159763D01*
X114543339Y-115200242D01*
X114745797Y-115407973D01*
X114920186Y-115476328D01*
X115014498Y-115448519D01*
X115064502Y-115334283D01*
X115075167Y-115087412D01*
X115051463Y-114661697D01*
X115033096Y-114426367D01*
X114968403Y-113832407D01*
X114881907Y-113437717D01*
X114762427Y-113196387D01*
X114722437Y-113150939D01*
X114552543Y-112880957D01*
X114428405Y-112510978D01*
X114416613Y-112449840D01*
X114332016Y-112068952D01*
X114238167Y-111816444D01*
X114154941Y-111725143D01*
X114102211Y-111827874D01*
X114094552Y-111917874D01*
X114066435Y-112299689D01*
X114039750Y-112531401D01*
X112602017Y-112531401D01*
X112519789Y-112051734D01*
X112390250Y-111227384D01*
X112376775Y-111133155D01*
X114117338Y-111133155D01*
X114161848Y-111240035D01*
X114338567Y-111220033D01*
X114428056Y-111196674D01*
X114626006Y-111125470D01*
X114735663Y-111001792D01*
X114789038Y-110758853D01*
X114815094Y-110389111D01*
X114852410Y-109674568D01*
X114549292Y-110034803D01*
X114316794Y-110407719D01*
X114166657Y-110820353D01*
X114162255Y-110842366D01*
X114117338Y-111133155D01*
X112376775Y-111133155D01*
X112277493Y-110438934D01*
X112187731Y-109729339D01*
X112127180Y-109141555D01*
X112121096Y-109039116D01*
X112887737Y-109039116D01*
X112888405Y-109061035D01*
X112901526Y-109263210D01*
X112930073Y-109253192D01*
X112991369Y-109017915D01*
X113001283Y-108975899D01*
X113146652Y-108618544D01*
X113360534Y-108339941D01*
X113370433Y-108331697D01*
X113750858Y-108137710D01*
X114129410Y-108183932D01*
X114487707Y-108436766D01*
X114824592Y-108759522D01*
X114766096Y-108287899D01*
X114634619Y-107863756D01*
X114395229Y-107619904D01*
X114087122Y-107540204D01*
X113749496Y-107608517D01*
X113421548Y-107808704D01*
X113142474Y-108124626D01*
X112951471Y-108540143D01*
X112887737Y-109039116D01*
X112121096Y-109039116D01*
X112102054Y-108718539D01*
X112110874Y-108531496D01*
X112334248Y-107898563D01*
X112721312Y-107367920D01*
X113226097Y-106981772D01*
X113802630Y-106782320D01*
X114035904Y-106764251D01*
X114605906Y-106764251D01*
X114541025Y-106058696D01*
X114510608Y-105656284D01*
X114481341Y-105173032D01*
X115369354Y-105173032D01*
X115378331Y-105985772D01*
X115397763Y-106590821D01*
X115427241Y-106976218D01*
X115466356Y-107130001D01*
X115472536Y-107132367D01*
X115630486Y-107074470D01*
X115937986Y-106921289D01*
X116334022Y-106703587D01*
X116412890Y-106658251D01*
X116962639Y-106339619D01*
X117337809Y-106131352D01*
X117578681Y-106025231D01*
X117725534Y-106013035D01*
X117818648Y-106086545D01*
X117898303Y-106237541D01*
X117948244Y-106344932D01*
X118066843Y-106642754D01*
X118053861Y-106790813D01*
X117998666Y-106825863D01*
X117781515Y-106908330D01*
X117477294Y-107029997D01*
X117184080Y-107139128D01*
X116988653Y-107193361D01*
X116986473Y-107193614D01*
X116806100Y-107228666D01*
X116473413Y-107304579D01*
X116205743Y-107369251D01*
X115812969Y-107455014D01*
X115588553Y-107465817D01*
X115466995Y-107401096D01*
X115438020Y-107362656D01*
X115413468Y-107435612D01*
X115396054Y-107716817D01*
X115385366Y-108169226D01*
X115380993Y-108755795D01*
X115382522Y-109439477D01*
X115389543Y-110183228D01*
X115401644Y-110950003D01*
X115418413Y-111702756D01*
X115439438Y-112404442D01*
X115464308Y-113018017D01*
X115492612Y-113506434D01*
X115508400Y-113697101D01*
X115536732Y-114060305D01*
X115570169Y-114596687D01*
X115604549Y-115234189D01*
X115635712Y-115900756D01*
X115635928Y-115905797D01*
X115709434Y-117464014D01*
X115787793Y-118797609D01*
X115873178Y-119927354D01*
X115967757Y-120874023D01*
X116073702Y-121658389D01*
X116193183Y-122301226D01*
X116328370Y-122823306D01*
X116373149Y-122961948D01*
X116896206Y-124230068D01*
X117599385Y-125531243D01*
X118438304Y-126799401D01*
X119368583Y-127968472D01*
X120345842Y-128972386D01*
X120507117Y-129116345D01*
X122105707Y-130376376D01*
X123763028Y-131421632D01*
X125465070Y-132247484D01*
X127197822Y-132849304D01*
X128947273Y-133222462D01*
X130699411Y-133362330D01*
X132440225Y-133264279D01*
X132873441Y-133201818D01*
X134437692Y-132854123D01*
X135960680Y-132334812D01*
X137414903Y-131662931D01*
X138772856Y-130857524D01*
X140007037Y-129937638D01*
X141089943Y-128922317D01*
X141994070Y-127830605D01*
X142691915Y-126681550D01*
X142881379Y-126271613D01*
X143288186Y-125155698D01*
X143656267Y-123828327D01*
X143980325Y-122321168D01*
X144255063Y-120665888D01*
X144475183Y-118894155D01*
X144635389Y-117037636D01*
X144645262Y-116843339D01*
X145258571Y-116843339D01*
X145260672Y-117039714D01*
X145260738Y-117040821D01*
X145350490Y-117179957D01*
X145570003Y-117141458D01*
X145886548Y-116931605D01*
X145903411Y-116917506D01*
X146083658Y-116718959D01*
X146230212Y-116431584D01*
X146366370Y-115999404D01*
X146477675Y-115537681D01*
X146596304Y-115019402D01*
X146703312Y-114570830D01*
X146781895Y-114261674D01*
X146803089Y-114187923D01*
X146813021Y-114095476D01*
X146723548Y-114213671D01*
X146692559Y-114265622D01*
X146382392Y-114563754D01*
X146088068Y-114666814D01*
X145710513Y-114783044D01*
X145467471Y-114991986D01*
X145331360Y-115339537D01*
X145274602Y-115871594D01*
X145269794Y-116028502D01*
X145261843Y-116480359D01*
X145258571Y-116843339D01*
X144645262Y-116843339D01*
X144726741Y-115239876D01*
X144754127Y-114586971D01*
X144795158Y-113816918D01*
X144801732Y-113709131D01*
X145392753Y-113709131D01*
X145407943Y-114040582D01*
X145488444Y-114203333D01*
X145686650Y-114225210D01*
X146054957Y-114134036D01*
X146143395Y-114107756D01*
X146336903Y-114045873D01*
X146480147Y-113969393D01*
X146584299Y-113842194D01*
X146660536Y-113628159D01*
X146720032Y-113291169D01*
X146773961Y-112795105D01*
X146833498Y-112103848D01*
X146858874Y-111795169D01*
X146906116Y-111174791D01*
X146924643Y-110739316D01*
X146910222Y-110429461D01*
X146858623Y-110185944D01*
X146765614Y-109949482D01*
X146720223Y-109852672D01*
X146495076Y-109454294D01*
X146283707Y-109268697D01*
X146044158Y-109269668D01*
X145893163Y-109335931D01*
X145697644Y-109569045D01*
X145632073Y-109948302D01*
X145694903Y-110412636D01*
X145884586Y-110900980D01*
X145935105Y-110991894D01*
X146155377Y-111510003D01*
X146270696Y-112069920D01*
X146272545Y-112094456D01*
X146285622Y-112457842D01*
X146230405Y-112667925D01*
X146061137Y-112815777D01*
X145852898Y-112929657D01*
X145563155Y-113103291D01*
X145430162Y-113288308D01*
X145393805Y-113586542D01*
X145392753Y-113709131D01*
X144801732Y-113709131D01*
X144846658Y-112972593D01*
X144905450Y-112096877D01*
X144968357Y-111232647D01*
X145032205Y-110422781D01*
X145093816Y-109710158D01*
X145150014Y-109137657D01*
X145197624Y-108748154D01*
X145215299Y-108644492D01*
X145366728Y-108418793D01*
X145687086Y-108182629D01*
X146104200Y-107971314D01*
X146545897Y-107820161D01*
X146940001Y-107764482D01*
X147006849Y-107767919D01*
X147262949Y-107812295D01*
X147398684Y-107928393D01*
X147473473Y-108187257D01*
X147501581Y-108359420D01*
X147541304Y-108805664D01*
X147550797Y-109342957D01*
X147539936Y-109647826D01*
X147520971Y-109982261D01*
X147521088Y-110112884D01*
X147544978Y-110028984D01*
X147597329Y-109719848D01*
X147647380Y-109402415D01*
X147719676Y-108894799D01*
X147741883Y-108551969D01*
X147710266Y-108297716D01*
X147621087Y-108055834D01*
X147576771Y-107962423D01*
X147353366Y-107612014D01*
X147089046Y-107334657D01*
X147040088Y-107299122D01*
X146821536Y-107177157D01*
X146634439Y-107167846D01*
X146370240Y-107274417D01*
X146274758Y-107321891D01*
X145839205Y-107517032D01*
X145569882Y-107565521D01*
X145432506Y-107462206D01*
X145392795Y-107201935D01*
X145392753Y-107189322D01*
X145377231Y-106942787D01*
X145286513Y-106818805D01*
X145054369Y-106764508D01*
X144835715Y-106744659D01*
X144474935Y-106742001D01*
X144215982Y-106787060D01*
X144160836Y-106818198D01*
X144056659Y-106858823D01*
X144042995Y-106797622D01*
X143932304Y-106708009D01*
X143646750Y-106622055D01*
X143369290Y-106575031D01*
X142986663Y-106520229D01*
X142795388Y-106455734D01*
X142742821Y-106345558D01*
X142773025Y-106167409D01*
X142848772Y-105906263D01*
X142904782Y-105782609D01*
X143082764Y-105724174D01*
X143379861Y-105722248D01*
X143678534Y-105768358D01*
X143858937Y-105851372D01*
X144046076Y-105966559D01*
X144371449Y-106094802D01*
X144515912Y-106139357D01*
X144880536Y-106246442D01*
X145160273Y-106334942D01*
X145221428Y-106356648D01*
X145297803Y-106348554D01*
X145342430Y-106227807D01*
X145358862Y-105957277D01*
X145350652Y-105499829D01*
X145336763Y-105151519D01*
X145312172Y-104489973D01*
X145289405Y-103695076D01*
X145271387Y-102878882D01*
X145262661Y-102312507D01*
X145244469Y-100744337D01*
X143978178Y-100761019D01*
X143334380Y-100762773D01*
X142897574Y-100742656D01*
X142629732Y-100692632D01*
X142492824Y-100604668D01*
X142448824Y-100470728D01*
X142447826Y-100437686D01*
X142349445Y-100281326D01*
X142263768Y-100260870D01*
X142096796Y-100197072D01*
X142136323Y-100022176D01*
X142233091Y-99901957D01*
X142324940Y-99756339D01*
X142233091Y-99683132D01*
X142129553Y-99534553D01*
X142080355Y-99246348D01*
X142079710Y-99207649D01*
X142050772Y-98915964D01*
X141938574Y-98800447D01*
X141834299Y-98788406D01*
X141625837Y-98723756D01*
X141608078Y-98580240D01*
X141709081Y-98483196D01*
X141746444Y-98338022D01*
X141659636Y-98103267D01*
X141491339Y-97869310D01*
X141371573Y-97768545D01*
X141270820Y-97619761D01*
X141285219Y-97556347D01*
X141280205Y-97351940D01*
X141124318Y-97042920D01*
X140857831Y-96678588D01*
X140521018Y-96308245D01*
X140154152Y-95981192D01*
X139813842Y-95755159D01*
X139504630Y-95631701D01*
X139055195Y-95496996D01*
X138602420Y-95388956D01*
X137501097Y-95076956D01*
X136476589Y-94599234D01*
X135658413Y-94074474D01*
X135220751Y-93790030D01*
X134771137Y-93565872D01*
X134266629Y-93390988D01*
X133664290Y-93254369D01*
X132921178Y-93145004D01*
X131994356Y-93051881D01*
X131520821Y-93013487D01*
X130217236Y-92947005D01*
X128942439Y-92945839D01*
X127755507Y-93007650D01*
X126715517Y-93130102D01*
X126224967Y-93223029D01*
X125732909Y-93373742D01*
X125047094Y-93647416D01*
X124182326Y-94037674D01*
X123153406Y-94538137D01*
X123034629Y-94597735D01*
X122255388Y-94990954D01*
X121663656Y-95295692D01*
X121227506Y-95533352D01*
X120915011Y-95725334D01*
X120694244Y-95893042D01*
X120533278Y-96057876D01*
X120400185Y-96241238D01*
X120271938Y-96449662D01*
X120020019Y-96908551D01*
X119741436Y-97473660D01*
X119498946Y-98016969D01*
X119243648Y-98587487D01*
X119012926Y-98980403D01*
X118762044Y-99253532D01*
X118446264Y-99464690D01*
X118332503Y-99524438D01*
X118050989Y-99695150D01*
X117875344Y-99853001D01*
X117872841Y-99856781D01*
X117692784Y-99950965D01*
X117596755Y-99935882D01*
X117442896Y-99959273D01*
X117415942Y-100069062D01*
X117325482Y-100226346D01*
X117201207Y-100235572D01*
X117035091Y-100277023D01*
X117022528Y-100414251D01*
X116986748Y-100592617D01*
X116867808Y-100620872D01*
X116781964Y-100507335D01*
X116665939Y-100502424D01*
X116402345Y-100608126D01*
X116066183Y-100791222D01*
X115391304Y-101196761D01*
X115371239Y-104164564D01*
X115369354Y-105173032D01*
X114481341Y-105173032D01*
X114476026Y-105085287D01*
X114441577Y-104422385D01*
X114412107Y-103757971D01*
X114391355Y-103270205D01*
X114360143Y-102575776D01*
X114320280Y-101713123D01*
X114273577Y-100720688D01*
X114221843Y-99636910D01*
X114166890Y-98500230D01*
X114110527Y-97349088D01*
X114105867Y-97254589D01*
X114049215Y-96106310D01*
X113993244Y-94971347D01*
X113939829Y-93887761D01*
X113890844Y-92893614D01*
X113848166Y-92026969D01*
X113813669Y-91325887D01*
X113803106Y-91110876D01*
X116249873Y-91110876D01*
X116415131Y-91229908D01*
X116740741Y-91406058D01*
X117192221Y-91624182D01*
X117735089Y-91869136D01*
X118334861Y-92125777D01*
X118957056Y-92378961D01*
X119567190Y-92613544D01*
X120130780Y-92814382D01*
X120606280Y-92964319D01*
X121038152Y-93081802D01*
X121258415Y-93122603D01*
X121288779Y-93086120D01*
X121150954Y-92971753D01*
X121120335Y-92950096D01*
X121054835Y-92911522D01*
X138214492Y-92911522D01*
X138521256Y-92828217D01*
X138791941Y-92734892D01*
X139192723Y-92574405D01*
X139585879Y-92404060D01*
X139961762Y-92218805D01*
X140412166Y-91972901D01*
X140888451Y-91696123D01*
X141341976Y-91418246D01*
X141724101Y-91169046D01*
X141986186Y-90978298D01*
X142079710Y-90877443D01*
X141980750Y-90850941D01*
X141711381Y-90928092D01*
X141312867Y-91088366D01*
X140826473Y-91311237D01*
X140293463Y-91576177D01*
X139755103Y-91862658D01*
X139252656Y-92150153D01*
X138827388Y-92418134D01*
X138520563Y-92646075D01*
X138515367Y-92650562D01*
X138214492Y-92911522D01*
X121054835Y-92911522D01*
X120777238Y-92748043D01*
X120274507Y-92500837D01*
X119659745Y-92227025D01*
X118980552Y-91945151D01*
X118284531Y-91673761D01*
X117619284Y-91431401D01*
X117032413Y-91236615D01*
X116571519Y-91107950D01*
X116284204Y-91063951D01*
X116279450Y-91064105D01*
X116249873Y-91110876D01*
X113803106Y-91110876D01*
X113789229Y-90828429D01*
X113787587Y-90794947D01*
X113715133Y-89317375D01*
X117231884Y-89317375D01*
X117496832Y-89511950D01*
X117949385Y-89812227D01*
X118573506Y-90181328D01*
X119315643Y-90590374D01*
X120122239Y-91010486D01*
X120939740Y-91412787D01*
X121526570Y-91684897D01*
X122242987Y-92003767D01*
X122754447Y-92222952D01*
X123077729Y-92347930D01*
X123229612Y-92384178D01*
X123226876Y-92337175D01*
X123086299Y-92212399D01*
X123046258Y-92181022D01*
X122661689Y-91919841D01*
X122102319Y-91587779D01*
X121417863Y-91209911D01*
X120658035Y-90811313D01*
X119872551Y-90417062D01*
X119111124Y-90052233D01*
X118423470Y-89741903D01*
X117859303Y-89511147D01*
X117538647Y-89402999D01*
X117231884Y-89317375D01*
X113715133Y-89317375D01*
X113711511Y-89243516D01*
X114031716Y-89085837D01*
X119072463Y-89085837D01*
X119440579Y-89392694D01*
X119841786Y-89702326D01*
X120364161Y-90069248D01*
X120968964Y-90470023D01*
X121617454Y-90881215D01*
X122270892Y-91279385D01*
X122890536Y-91641097D01*
X123437648Y-91942914D01*
X123873486Y-92161398D01*
X124159310Y-92273112D01*
X124217542Y-92282669D01*
X124182397Y-92215924D01*
X123988902Y-92036218D01*
X123675021Y-91777856D01*
X123554212Y-91683287D01*
X123012731Y-91290342D01*
X122351995Y-90850448D01*
X121633611Y-90400915D01*
X120919189Y-89979049D01*
X120270337Y-89622160D01*
X119748664Y-89367555D01*
X119685990Y-89340824D01*
X119072463Y-89085837D01*
X114031716Y-89085837D01*
X114304583Y-88951469D01*
X121035748Y-88951469D01*
X121894686Y-89763107D01*
X122278968Y-90104121D01*
X122753376Y-90492087D01*
X123277183Y-90897525D01*
X123809664Y-91290952D01*
X124310092Y-91642888D01*
X124737742Y-91923853D01*
X125051888Y-92104366D01*
X125201359Y-92156749D01*
X125181387Y-92079343D01*
X125163908Y-92058712D01*
X135146860Y-92058712D01*
X135298411Y-91984390D01*
X136312560Y-91984390D01*
X136415343Y-91984480D01*
X136706926Y-91875648D01*
X137162157Y-91669188D01*
X137755885Y-91376392D01*
X138335809Y-91075912D01*
X138851213Y-90792838D01*
X139419959Y-90462322D01*
X140005763Y-90107684D01*
X140572340Y-89752242D01*
X141083406Y-89419315D01*
X141502677Y-89132223D01*
X141793867Y-88914284D01*
X141920692Y-88788816D01*
X141920666Y-88772036D01*
X141779751Y-88791203D01*
X141465100Y-88920769D01*
X141011076Y-89141049D01*
X140452041Y-89432361D01*
X139822358Y-89775021D01*
X139156391Y-90149347D01*
X138488502Y-90535654D01*
X137853053Y-90914260D01*
X137284409Y-91265481D01*
X136816932Y-91569634D01*
X136484984Y-91807037D01*
X136322929Y-91958004D01*
X136312560Y-91984390D01*
X135298411Y-91984390D01*
X135699034Y-91787922D01*
X136015912Y-91614531D01*
X136475185Y-91340261D01*
X137016296Y-91002211D01*
X137578689Y-90637479D01*
X137600966Y-90622730D01*
X138177205Y-90227642D01*
X138741369Y-89817756D01*
X139227775Y-89442142D01*
X139564251Y-89155948D01*
X140090258Y-88665217D01*
X142079710Y-88665217D01*
X142141062Y-88726570D01*
X142202415Y-88665217D01*
X142141062Y-88603865D01*
X142079710Y-88665217D01*
X140090258Y-88665217D01*
X140177777Y-88583568D01*
X139441546Y-88979197D01*
X138435049Y-89572135D01*
X137354538Y-90300185D01*
X136279819Y-91107238D01*
X135514976Y-91739809D01*
X135146860Y-92058712D01*
X125163908Y-92058712D01*
X125011934Y-91879335D01*
X124727564Y-91596456D01*
X124655555Y-91529388D01*
X124009723Y-90966979D01*
X123296162Y-90399472D01*
X122583026Y-89877753D01*
X121938463Y-89452707D01*
X121649275Y-89284746D01*
X121035748Y-88951469D01*
X114304583Y-88951469D01*
X114879153Y-88668533D01*
X122879644Y-88668533D01*
X123175676Y-89084272D01*
X123470940Y-89461034D01*
X123861052Y-89905476D01*
X124310155Y-90382650D01*
X124782392Y-90857611D01*
X125241905Y-91295412D01*
X125652839Y-91661106D01*
X125979336Y-91919747D01*
X126185540Y-92036388D01*
X126208015Y-92039614D01*
X126175066Y-91950099D01*
X126168825Y-91940116D01*
X134295921Y-91940116D01*
X134396856Y-91916917D01*
X134659035Y-91751715D01*
X134736240Y-91698728D01*
X135170633Y-91387030D01*
X135622284Y-91046519D01*
X135760386Y-90938072D01*
X136443912Y-90373484D01*
X137062794Y-89825917D01*
X137574820Y-89334480D01*
X137937779Y-88938280D01*
X137989832Y-88872517D01*
X138138916Y-88672605D01*
X138190460Y-88576041D01*
X138120071Y-88591367D01*
X137903354Y-88727124D01*
X137515914Y-88991853D01*
X137379204Y-89086319D01*
X136911871Y-89430891D01*
X136386023Y-89853129D01*
X135843321Y-90315552D01*
X135325422Y-90780674D01*
X134873986Y-91211014D01*
X134530670Y-91569085D01*
X134337134Y-91817406D01*
X134330288Y-91829681D01*
X134295921Y-91940116D01*
X126168825Y-91940116D01*
X126030129Y-91718290D01*
X125859556Y-91471993D01*
X125558568Y-91103355D01*
X125124552Y-90636201D01*
X124615070Y-90126621D01*
X124087681Y-89630705D01*
X123599945Y-89204543D01*
X123262112Y-88940874D01*
X122879644Y-88668533D01*
X114879153Y-88668533D01*
X115135069Y-88542512D01*
X124873132Y-88542512D01*
X125062144Y-88996192D01*
X125241574Y-89355983D01*
X125504597Y-89795459D01*
X125821632Y-90274823D01*
X126163095Y-90754282D01*
X126499402Y-91194042D01*
X126800972Y-91554308D01*
X127038220Y-91795286D01*
X127181564Y-91877181D01*
X127198079Y-91869392D01*
X127173397Y-91742101D01*
X127053025Y-91470500D01*
X126922401Y-91221946D01*
X126651845Y-90775054D01*
X126304566Y-90257221D01*
X125926020Y-89730647D01*
X125561666Y-89257532D01*
X125256962Y-88900076D01*
X125140006Y-88783093D01*
X124914732Y-88580013D01*
X126892652Y-88580013D01*
X126896713Y-88812052D01*
X126987883Y-89195839D01*
X127145258Y-89681048D01*
X127347933Y-90217351D01*
X127575001Y-90754420D01*
X127805559Y-91241927D01*
X128018700Y-91629545D01*
X128193520Y-91866947D01*
X128278738Y-91916908D01*
X128276432Y-91889596D01*
X133307585Y-91889596D01*
X133347338Y-91916908D01*
X133472590Y-91832586D01*
X133726877Y-91603165D01*
X134072869Y-91263966D01*
X134462037Y-90862152D01*
X134923591Y-90354812D01*
X135379640Y-89819735D01*
X135768314Y-89331173D01*
X135970119Y-89052249D01*
X136479786Y-88297101D01*
X135813323Y-88861271D01*
X135420266Y-89220293D01*
X134997099Y-89650469D01*
X134570281Y-90119010D01*
X134166275Y-90593127D01*
X133811541Y-91040033D01*
X133532541Y-91426939D01*
X133355735Y-91721056D01*
X133307585Y-91889596D01*
X128276432Y-91889596D01*
X128269640Y-91809169D01*
X128210891Y-91529344D01*
X128133588Y-91211353D01*
X128019367Y-90844496D01*
X127850017Y-90397894D01*
X127647185Y-89917449D01*
X127432516Y-89449061D01*
X127227659Y-89038630D01*
X127224663Y-89033333D01*
X128718897Y-89033333D01*
X128736866Y-89533880D01*
X128794769Y-90086793D01*
X128881950Y-90638763D01*
X128987752Y-91136481D01*
X129101520Y-91526638D01*
X129212599Y-91755925D01*
X129270759Y-91794203D01*
X129282770Y-91745503D01*
X132350985Y-91745503D01*
X132462653Y-91698201D01*
X132689538Y-91445682D01*
X133025717Y-90987218D01*
X133208417Y-90717529D01*
X133651249Y-90030633D01*
X133976121Y-89473732D01*
X134217564Y-88984540D01*
X134355904Y-88647782D01*
X134426865Y-88432106D01*
X134386109Y-88406881D01*
X134291952Y-88477815D01*
X134090405Y-88694139D01*
X133806696Y-89059360D01*
X133484119Y-89511454D01*
X133165964Y-89988397D01*
X132895522Y-90428165D01*
X132766507Y-90663359D01*
X132496989Y-91227355D01*
X132360456Y-91588312D01*
X132350985Y-91745503D01*
X129282770Y-91745503D01*
X129298657Y-91681095D01*
X129304045Y-91378085D01*
X129286941Y-90939649D01*
X129285034Y-90911146D01*
X130196322Y-90911146D01*
X130199371Y-91299335D01*
X130226640Y-91548477D01*
X130280928Y-91607694D01*
X130284716Y-91604464D01*
X130313718Y-91548792D01*
X131288453Y-91548792D01*
X131308578Y-91687519D01*
X131376840Y-91653222D01*
X131514931Y-91425504D01*
X131609650Y-91246773D01*
X131843696Y-90753849D01*
X132066532Y-90217148D01*
X132141295Y-90012895D01*
X132288324Y-89525974D01*
X132409292Y-89023997D01*
X132442941Y-88842451D01*
X132529522Y-88297101D01*
X132310491Y-88598319D01*
X132161671Y-88869816D01*
X131975575Y-89303096D01*
X131775180Y-89831822D01*
X131583464Y-90389663D01*
X131423405Y-90910283D01*
X131317982Y-91327349D01*
X131288453Y-91548792D01*
X130313718Y-91548792D01*
X130381062Y-91419520D01*
X130485457Y-91077505D01*
X130550211Y-90781416D01*
X130610372Y-90295762D01*
X130643488Y-89697165D01*
X130642695Y-89130575D01*
X130606763Y-88174396D01*
X130446413Y-88665217D01*
X130370347Y-88985475D01*
X130304505Y-89421075D01*
X130251688Y-89921138D01*
X130214694Y-90434788D01*
X130196322Y-90911146D01*
X129285034Y-90911146D01*
X129270386Y-90692297D01*
X129203758Y-90087231D01*
X129102032Y-89475262D01*
X128984758Y-88969745D01*
X128958269Y-88882393D01*
X128729335Y-88174396D01*
X128718897Y-89033333D01*
X127224663Y-89033333D01*
X127054259Y-88732058D01*
X126933963Y-88575245D01*
X126892652Y-88580013D01*
X124914732Y-88580013D01*
X124873132Y-88542512D01*
X115135069Y-88542512D01*
X115226287Y-88497594D01*
X117081332Y-87720813D01*
X119051211Y-87160843D01*
X120777941Y-86860185D01*
X121144401Y-86824080D01*
X121644785Y-86793287D01*
X122293220Y-86767567D01*
X123103833Y-86746682D01*
X124090751Y-86730391D01*
X125268102Y-86718456D01*
X126650012Y-86710637D01*
X128250609Y-86706696D01*
X129870531Y-86706256D01*
X131499104Y-86707838D01*
X132903377Y-86710993D01*
X134104458Y-86716218D01*
X135123454Y-86724011D01*
X135981473Y-86734869D01*
X136699624Y-86749291D01*
X137299014Y-86767774D01*
X137800751Y-86790816D01*
X138225943Y-86818915D01*
X138595699Y-86852568D01*
X138931125Y-86892274D01*
X139167250Y-86925487D01*
X140837520Y-87240680D01*
X142300031Y-87661734D01*
X143572145Y-88196814D01*
X144671228Y-88854079D01*
X145614644Y-89641693D01*
X146127327Y-90197054D01*
X146646970Y-90817710D01*
X146571215Y-92072865D01*
X146547758Y-92507374D01*
X146516418Y-93158106D01*
X146478397Y-93996041D01*
X146434895Y-94992161D01*
X146387113Y-96117446D01*
X146336252Y-97342876D01*
X146283513Y-98639432D01*
X146230097Y-99978094D01*
X146177205Y-101329844D01*
X146126037Y-102665662D01*
X146077794Y-103956528D01*
X146064821Y-104310145D01*
X145986397Y-106457488D01*
X146593374Y-106416081D01*
X146993814Y-106410977D01*
X147277943Y-106491972D01*
X147570878Y-106701140D01*
X147653540Y-106772579D01*
X148167816Y-107326022D01*
X148460853Y-107913710D01*
X148555738Y-108592945D01*
X148537770Y-108967352D01*
X148457867Y-109648545D01*
X148336360Y-110474189D01*
X148182108Y-111399817D01*
X148003972Y-112380962D01*
X147810813Y-113373158D01*
X147611491Y-114331937D01*
X147414866Y-115212833D01*
X147229800Y-115971380D01*
X147065152Y-116563110D01*
X146965606Y-116857328D01*
X146744335Y-117213521D01*
X146390821Y-117578268D01*
X145993304Y-117871840D01*
X145697266Y-118003317D01*
X145468122Y-118117273D01*
X145392753Y-118244216D01*
X145372559Y-118544641D01*
X145317030Y-119035249D01*
X145233743Y-119664594D01*
X145130277Y-120381231D01*
X145014211Y-121133712D01*
X144893122Y-121870592D01*
X144774589Y-122540424D01*
X144710711Y-122874334D01*
X144348004Y-124450878D01*
X143919733Y-125821899D01*
X143409325Y-127022347D01*
X142800206Y-128087169D01*
X142075804Y-129051315D01*
X141471667Y-129704661D01*
X140063501Y-130944680D01*
X138506827Y-132007257D01*
X136834156Y-132875396D01*
X135078000Y-133532102D01*
X133360377Y-133944927D01*
X132595017Y-134040696D01*
X131673457Y-134095917D01*
X130678644Y-134110705D01*
X129693524Y-134085178D01*
X128801045Y-134019450D01*
X128208040Y-133937737D01*
X126766854Y-133580049D01*
X125265500Y-133029832D01*
X123754319Y-132313681D01*
X122283649Y-131458188D01*
X120903830Y-130489947D01*
X119665203Y-129435552D01*
X119639388Y-129411081D01*
X118451789Y-128144781D01*
X117393577Y-126739327D01*
X116495826Y-125244233D01*
X115789610Y-123709014D01*
X115458802Y-122749474D01*
X115367774Y-122352789D01*
X115270234Y-121777214D01*
X115174120Y-121088843D01*
X115087369Y-120353773D01*
X115017917Y-119638098D01*
X114973703Y-119007912D01*
X114961835Y-118611116D01*
X114868795Y-118466091D01*
X114629655Y-118245754D01*
X114416678Y-118084235D01*
X113984682Y-117724064D01*
X113690432Y-117320472D01*
X113489724Y-116798552D01*
X113383149Y-116332790D01*
X113300633Y-115926111D01*
X113181016Y-115365444D01*
X113130918Y-115137490D01*
X113996441Y-115137490D01*
X114006673Y-115288704D01*
X114066768Y-115624459D01*
X114165680Y-116112509D01*
X114294238Y-116639467D01*
X114436051Y-116988692D01*
X114620956Y-117227304D01*
X114687177Y-117285622D01*
X114984864Y-117501020D01*
X115145567Y-117523453D01*
X115193678Y-117337909D01*
X115162572Y-116993019D01*
X115114495Y-116580700D01*
X115087024Y-116225813D01*
X115084541Y-116135728D01*
X115006940Y-115892232D01*
X114741715Y-115706201D01*
X114667604Y-115673530D01*
X114351058Y-115495960D01*
X114132620Y-115294067D01*
X114119161Y-115273091D01*
X114034471Y-115141919D01*
X113996441Y-115137490D01*
X113130918Y-115137490D01*
X113054817Y-114791224D01*
X113867175Y-114791224D01*
X113889735Y-114950374D01*
X113931622Y-114952275D01*
X113960914Y-114788047D01*
X113941309Y-114717089D01*
X113886824Y-114670611D01*
X113867175Y-114791224D01*
X113054817Y-114791224D01*
X113042650Y-114735865D01*
X112960757Y-114371981D01*
G37*
D14*
X133876100Y-132939850D02*
X140126100Y-132939850D01*
X140696100Y-126429850D02*
X140696100Y-132359850D01*
X133746100Y-125319850D02*
X139756100Y-125319850D01*
X133076100Y-125979850D02*
X133076100Y-132159850D01*
X139776100Y-125339850D02*
X140696100Y-126419850D01*
X140116100Y-132939850D02*
G75*
G03X140696100Y-132359850I0J580000D01*
G01*
X133076100Y-132119850D02*
G75*
G03X133856100Y-132939850I800000J-20000D01*
G01*
X133766100Y-125319850D02*
G75*
G03X133086100Y-125979850I-10000J-670000D01*
G01*
X132626100Y-132479850D02*
X132636100Y-125869850D01*
X140116100Y-133389850D02*
X133566100Y-133389850D01*
X141146100Y-125849850D02*
X141146100Y-132469850D01*
X133656100Y-124869850D02*
X140266100Y-124869850D01*
X132626100Y-132509850D02*
G75*
G03X133586100Y-133389850I920000J40000D01*
G01*
X141146100Y-125829850D02*
G75*
G03X140266100Y-124869850I-920000J40000D01*
G01*
X140134100Y-133393850D02*
G75*
G03X141150100Y-132377850I0J1016000D01*
G01*
X133648100Y-124865850D02*
G75*
G03X132632100Y-125881850I0J-1016000D01*
G01*
X137522496Y-129129850D02*
G75*
G03X137522496Y-129129850I-636396J0D01*
G01*
X139007420Y-129129850D02*
G75*
G03X139007420Y-129129850I-2121320J0D01*
G01*
D15*
X132568100Y-106746100D02*
X132568100Y-104206100D01*
X131044100Y-106746100D02*
X131044100Y-104206100D01*
X131044100Y-108016100D02*
X131044100Y-110556100D01*
X132568100Y-108016100D02*
X132568100Y-110556100D01*
X145141100Y-124240350D02*
X142601100Y-124240350D01*
X145141100Y-125764350D02*
X142601100Y-125764350D01*
X155904350Y-125161100D02*
X155904350Y-122621100D01*
X154380350Y-125161100D02*
X154380350Y-122621100D01*
X155904350Y-121351100D02*
X155904350Y-118811100D01*
X154380350Y-121351100D02*
X154380350Y-118811100D01*
X145141100Y-122176600D02*
X142601100Y-122176600D01*
X145141100Y-123700600D02*
X142601100Y-123700600D01*
D14*
X143537350Y-126524850D02*
G75*
G03X143537350Y-126524850I-75000J0D01*
G01*
D16*
X142505850Y-126224850D02*
X144262350Y-126224850D01*
X144262350Y-128224850D02*
X143162350Y-128224850D01*
D15*
X147300100Y-119319100D02*
X152443600Y-119319100D01*
D11*
X149138600Y-119986100D02*
G75*
G03X149138600Y-119986100I-100000J0D01*
G01*
D16*
X152428600Y-119319100D02*
X152428600Y-124386100D01*
X148648600Y-124386100D02*
X148648600Y-119319100D01*
X152428600Y-124386100D02*
X148648600Y-124386100D01*
D15*
X157714100Y-105317350D02*
X160508100Y-105317350D01*
X157714100Y-103412350D02*
X160508100Y-103412350D01*
X148220850Y-126304100D02*
X150633850Y-126304100D01*
X150506850Y-124653100D02*
X150633850Y-124653100D01*
X148220850Y-124653100D02*
X150506850Y-124653100D01*
X153650100Y-124653100D02*
X151237100Y-124653100D01*
X151364100Y-126304100D02*
X151237100Y-126304100D01*
X153650100Y-126304100D02*
X151364100Y-126304100D01*
X161365350Y-129225100D02*
X161365350Y-126812100D01*
X159714350Y-126939100D02*
X159714350Y-126812100D01*
X159714350Y-129225100D02*
X159714350Y-126939100D01*
X154602600Y-126716850D02*
X152189600Y-126716850D01*
X152316600Y-128367850D02*
X152189600Y-128367850D01*
X154602600Y-128367850D02*
X152316600Y-128367850D01*
D11*
X171493600Y-108468600D02*
X171493600Y-119628600D01*
X171493600Y-119628600D02*
X179113600Y-119628600D01*
X179113600Y-119628600D02*
X179113600Y-108468600D01*
X179113600Y-108468600D02*
X171493600Y-108468600D01*
X172563600Y-109603600D02*
G75*
G03X172563600Y-109603600I-300000J0D01*
G01*
D15*
X114248350Y-129320350D02*
X114248350Y-126399350D01*
X112216350Y-129320350D02*
X112216350Y-126399350D01*
X180447100Y-128209100D02*
X182860100Y-128209100D01*
X182733100Y-126558100D02*
X182860100Y-126558100D01*
X180447100Y-126558100D02*
X182733100Y-126558100D01*
X180129600Y-123859350D02*
X183495100Y-123859350D01*
X183558600Y-125510350D02*
X183558600Y-123859350D01*
X180129600Y-125510350D02*
X183558600Y-125510350D01*
D17*
X181991100Y-125084850D02*
G75*
G03X181991100Y-125084850I-62500J0D01*
G01*
D18*
X181678600Y-124509850D02*
X181828600Y-124659850D01*
X181503600Y-124684850D02*
X181678600Y-124509850D01*
X181653600Y-124834850D02*
X181503600Y-124684850D01*
X181828600Y-124659850D02*
X181653600Y-124834850D01*
D15*
X111740100Y-130336350D02*
X107422100Y-130336350D01*
X111740100Y-133638350D02*
X107422100Y-133638350D01*
G36*
X181793600Y-134881100D02*
G01*
X180693600Y-134881100D01*
X180693600Y-130681100D01*
X181793600Y-130681100D01*
X181793600Y-134881100D01*
G37*
D11*
X180693600Y-134881100D02*
X180693600Y-130681100D01*
X187693600Y-134881100D02*
X180693600Y-134881100D01*
X187693600Y-130681100D02*
X187693600Y-134881100D01*
X180693600Y-130681100D02*
X187693600Y-130681100D01*
D15*
X118344100Y-78901350D02*
X118344100Y-76488350D01*
X116693100Y-76615350D02*
X116693100Y-76488350D01*
X116693100Y-78901350D02*
X116693100Y-76615350D01*
X116280350Y-78901350D02*
X116280350Y-76488350D01*
X114629350Y-76615350D02*
X114629350Y-76488350D01*
X114629350Y-78901350D02*
X114629350Y-76615350D01*
D19*
X114178500Y-77701200D02*
X114178500Y-78514000D01*
X114178500Y-78514000D02*
X113619700Y-78514000D01*
X111333700Y-78514000D02*
X111333700Y-77701200D01*
X111892500Y-78514000D02*
X111333700Y-78514000D01*
X109098500Y-78958500D02*
X108285700Y-78958500D01*
X108285700Y-78958500D02*
X108285700Y-78399700D01*
X108285700Y-76113700D02*
X109098500Y-76113700D01*
X108285700Y-76672500D02*
X108285700Y-76113700D01*
D15*
X156761600Y-120017600D02*
X160825600Y-120017600D01*
X156761600Y-117604600D02*
X160825600Y-117604600D01*
X156761600Y-122240100D02*
X160825600Y-122240100D01*
X156761600Y-119827100D02*
X160825600Y-119827100D01*
X156761600Y-124462600D02*
X160825600Y-124462600D01*
X156761600Y-122049600D02*
X160825600Y-122049600D01*
X156761600Y-126685100D02*
X160825600Y-126685100D01*
X156761600Y-124272100D02*
X160825600Y-124272100D01*
X114565850Y-127732850D02*
X116978850Y-127732850D01*
X116851850Y-126081850D02*
X116978850Y-126081850D01*
X114565850Y-126081850D02*
X116851850Y-126081850D01*
X116534350Y-128240850D02*
X116534350Y-130653850D01*
X118185350Y-130526850D02*
X118185350Y-130653850D01*
X118185350Y-128240850D02*
X118185350Y-130526850D01*
X116121600Y-130653850D02*
X116121600Y-128240850D01*
X114470600Y-128367850D02*
X114470600Y-128240850D01*
X114470600Y-130653850D02*
X114470600Y-128367850D01*
X119624060Y-121660509D02*
X117828009Y-123456560D01*
X120701691Y-122738140D02*
X118905640Y-124534191D01*
X119415509Y-132104390D02*
X121211560Y-133900441D01*
X120493140Y-131026759D02*
X122289191Y-132822810D01*
X125233850Y-133066850D02*
X122820850Y-133066850D01*
X122947850Y-134717850D02*
X122820850Y-134717850D01*
X125233850Y-134717850D02*
X122947850Y-134717850D01*
X116153350Y-132812850D02*
X118566350Y-132812850D01*
X118439350Y-131161850D02*
X118566350Y-131161850D01*
X116153350Y-131161850D02*
X118439350Y-131161850D01*
X129170850Y-134717850D02*
X131583850Y-134717850D01*
X131456850Y-133066850D02*
X131583850Y-133066850D01*
X129170850Y-133066850D02*
X131456850Y-133066850D01*
X129107350Y-132590600D02*
X131647350Y-132590600D01*
X129107350Y-131066600D02*
X131647350Y-131066600D01*
X121756758Y-119438009D02*
X120050509Y-121144258D01*
X121307745Y-122221888D02*
X121217942Y-122311691D01*
X122924191Y-120605442D02*
X121307745Y-122221888D01*
X119699390Y-120882941D02*
X121495441Y-119086890D01*
X118621759Y-119805310D02*
X120417810Y-118009259D01*
X126083009Y-121716692D02*
X127789258Y-123422941D01*
X128866888Y-122165705D02*
X128956691Y-122255508D01*
X127250442Y-120549259D02*
X128866888Y-122165705D01*
D19*
X124186100Y-122109281D02*
X129142919Y-127066100D01*
X129142919Y-127066100D02*
X124186100Y-132022919D01*
X124186100Y-132022919D02*
X119480304Y-127317123D01*
X119480304Y-126815077D02*
X124186100Y-122109281D01*
X119480304Y-126815077D02*
X119480304Y-127317123D01*
X120665829Y-127066100D02*
G75*
G03X120665829Y-127066100I-359200J0D01*
G01*
D20*
X168979900Y-132209600D02*
G75*
G03X168979900Y-132209600I-89800J0D01*
G01*
D16*
X168385100Y-133543100D02*
X168382100Y-131078600D01*
X171306100Y-131078600D02*
X171306100Y-132578600D01*
D15*
X171684100Y-130241100D02*
X171684100Y-132781100D01*
X173208100Y-130241100D02*
X173208100Y-132781100D01*
X177811850Y-131257100D02*
X177811850Y-133670100D01*
X179462850Y-133543100D02*
X179462850Y-133670100D01*
X179462850Y-131257100D02*
X179462850Y-133543100D01*
X175335350Y-132717600D02*
X175335350Y-130304600D01*
X173684350Y-130431600D02*
X173684350Y-130304600D01*
X173684350Y-132717600D02*
X173684350Y-130431600D01*
X177335600Y-132781100D02*
X177335600Y-130241100D01*
X175811600Y-132781100D02*
X175811600Y-130241100D01*
X168953600Y-122113100D02*
X171493600Y-122113100D01*
X168953600Y-120589100D02*
X171493600Y-120589100D01*
X169588600Y-125129350D02*
X172128600Y-125129350D01*
X169588600Y-123605350D02*
X172128600Y-123605350D01*
X182923600Y-128685350D02*
X180383600Y-128685350D01*
X182923600Y-130209350D02*
X180383600Y-130209350D01*
D11*
X169082350Y-126901100D02*
X170482350Y-126901100D01*
X170482350Y-126901100D02*
X171282350Y-126901100D01*
X171282350Y-126901100D02*
X171682350Y-126901100D01*
D12*
X171682350Y-126901100D02*
X171682350Y-128501100D01*
D11*
X171682350Y-128501100D02*
X171282350Y-128501100D01*
X171282350Y-128501100D02*
X170482350Y-128501100D01*
X170482350Y-128501100D02*
X169082350Y-128501100D01*
D12*
X169082350Y-128501100D02*
X169082350Y-126901100D01*
X171282350Y-126901100D02*
X171282350Y-127701100D01*
X171282350Y-127701100D02*
X171282350Y-128501100D01*
D11*
X170482350Y-126901100D02*
X171282350Y-127701100D01*
D12*
X170482350Y-126901100D02*
X170482350Y-128501100D01*
D11*
X170482350Y-128501100D02*
X171282350Y-127701100D01*
D15*
X184638100Y-100872350D02*
X184638100Y-98332350D01*
X183114100Y-100872350D02*
X183114100Y-98332350D01*
X168890100Y-87823100D02*
X166477100Y-87823100D01*
X166604100Y-89474100D02*
X166477100Y-89474100D01*
X168890100Y-89474100D02*
X166604100Y-89474100D01*
D14*
X159888600Y-100807350D02*
G75*
G03X159888600Y-100807350I-75000J0D01*
G01*
D16*
X158857100Y-100507350D02*
X160613600Y-100507350D01*
X160613600Y-102507350D02*
X159513600Y-102507350D01*
D15*
X148220850Y-96300350D02*
X150633850Y-96300350D01*
X150506850Y-94649350D02*
X150633850Y-94649350D01*
X148220850Y-94649350D02*
X150506850Y-94649350D01*
X152729350Y-97221100D02*
X152729350Y-94681100D01*
X151205350Y-97221100D02*
X151205350Y-94681100D01*
D16*
X155488600Y-98351100D02*
X155488600Y-93551100D01*
X155488600Y-93551100D02*
X158788600Y-93551100D01*
X153142100Y-93551100D02*
X155488600Y-93551100D01*
X154988600Y-98351100D02*
X154988600Y-93551100D01*
X155488600Y-98351100D02*
X154988600Y-98351100D01*
X158788600Y-98351100D02*
X155488600Y-98351100D01*
D15*
X154666100Y-115032850D02*
X152126100Y-115032850D01*
X154666100Y-116556850D02*
X152126100Y-116556850D01*
X154348600Y-102110600D02*
X156888600Y-102110600D01*
X154348600Y-100586600D02*
X156888600Y-100586600D01*
X153872350Y-115128100D02*
X156412350Y-115128100D01*
X153872350Y-113604100D02*
X156412350Y-113604100D01*
D16*
X117013600Y-85454850D02*
X117013600Y-90254850D01*
X113713600Y-90254850D02*
X113713600Y-85454850D01*
X117013600Y-90254850D02*
X113713600Y-90254850D01*
X117513600Y-90254850D02*
X117013600Y-90254850D01*
X117513600Y-85454850D02*
X117513600Y-90254850D01*
X117013600Y-85454850D02*
X117513600Y-85454850D01*
X113713600Y-85454850D02*
X117013600Y-85454850D01*
X117013600Y-80374850D02*
X117013600Y-85174850D01*
X113713600Y-85174850D02*
X113713600Y-80374850D01*
X117013600Y-85174850D02*
X113713600Y-85174850D01*
X117513600Y-85174850D02*
X117013600Y-85174850D01*
X117513600Y-80374850D02*
X117513600Y-85174850D01*
X117013600Y-80374850D02*
X117513600Y-80374850D01*
X113713600Y-80374850D02*
X117013600Y-80374850D01*
D15*
X122598600Y-86299100D02*
X120058600Y-86299100D01*
X122598600Y-82806600D02*
X122598600Y-86299100D01*
X120058600Y-82806600D02*
X122598600Y-82806600D01*
X120058600Y-86235600D02*
X120058600Y-82806600D01*
D16*
X117219850Y-122751100D02*
X112419850Y-122751100D01*
X112419850Y-119451100D02*
X117219850Y-119451100D01*
X112419850Y-122751100D02*
X112419850Y-119451100D01*
X112419850Y-123251100D02*
X112419850Y-122751100D01*
X117219850Y-123251100D02*
X112419850Y-123251100D01*
X117219850Y-122751100D02*
X117219850Y-123251100D01*
X117219850Y-119451100D02*
X117219850Y-122751100D01*
D15*
X125741850Y-101189850D02*
X125741850Y-98649850D01*
X124217850Y-101189850D02*
X124217850Y-98649850D01*
X113391100Y-96871850D02*
X115931100Y-96871850D01*
X113391100Y-95347850D02*
X115931100Y-95347850D01*
X117931350Y-91156850D02*
X115518350Y-91156850D01*
X115645350Y-92807850D02*
X115518350Y-92807850D01*
X117931350Y-92807850D02*
X115645350Y-92807850D01*
X144601350Y-133066850D02*
X142188350Y-133066850D01*
X142315350Y-134717850D02*
X142188350Y-134717850D01*
X144601350Y-134717850D02*
X142315350Y-134717850D01*
X142188350Y-130590350D02*
X144601350Y-130590350D01*
X144474350Y-128939350D02*
X144601350Y-128939350D01*
X142188350Y-128939350D02*
X144474350Y-128939350D01*
X123709850Y-98681600D02*
X121169850Y-98681600D01*
X123709850Y-100205600D02*
X121169850Y-100205600D01*
X113391100Y-98935600D02*
X115931100Y-98935600D01*
X113391100Y-97411600D02*
X115931100Y-97411600D01*
X113391100Y-94808100D02*
X115931100Y-94808100D01*
X113391100Y-93284100D02*
X115931100Y-93284100D01*
X123868600Y-94712850D02*
X121328600Y-94712850D01*
X123868600Y-96236850D02*
X121328600Y-96236850D01*
X113391100Y-100999350D02*
X115931100Y-100999350D01*
X113391100Y-99475350D02*
X115931100Y-99475350D01*
X123709850Y-96617850D02*
X121169850Y-96617850D01*
X123709850Y-98141850D02*
X121169850Y-98141850D01*
X144664850Y-131066600D02*
X142124850Y-131066600D01*
X144664850Y-132590600D02*
X142124850Y-132590600D01*
X146061850Y-95062100D02*
X146061850Y-97475100D01*
X147712850Y-97348100D02*
X147712850Y-97475100D01*
X147712850Y-95062100D02*
X147712850Y-97348100D01*
D14*
X118613600Y-96521100D02*
G75*
G03X118613600Y-96521100I-75000J0D01*
G01*
D16*
X117582100Y-96221100D02*
X119338600Y-96221100D01*
X119338600Y-98221100D02*
X118238600Y-98221100D01*
D14*
X118613600Y-93981100D02*
G75*
G03X118613600Y-93981100I-75000J0D01*
G01*
D16*
X117582100Y-93681100D02*
X119338600Y-93681100D01*
X119338600Y-95681100D02*
X118238600Y-95681100D01*
X139058600Y-114439850D02*
X151858600Y-114439850D01*
X152358600Y-113939850D02*
X152358600Y-101139850D01*
X151858600Y-100639850D02*
X139058600Y-100639850D01*
X139058600Y-100639850D02*
X138558600Y-101139850D01*
X138558600Y-101139850D02*
X138558600Y-113939850D01*
X151858600Y-100639850D02*
X152358600Y-101139850D01*
X151858600Y-114439850D02*
X152358600Y-113939850D01*
X139058600Y-114439850D02*
X138558600Y-113939850D01*
X140058600Y-101639850D02*
G75*
G03X140058600Y-101639850I-500000J0D01*
G01*
D15*
X136719259Y-93210640D02*
X138515310Y-95006691D01*
X137796890Y-92133009D02*
X139592941Y-93929060D01*
X142442350Y-89728100D02*
X144982350Y-89728100D01*
X142442350Y-88204100D02*
X144982350Y-88204100D01*
X139791692Y-93260441D02*
X141497941Y-91554192D01*
X140240705Y-90476562D02*
X140330508Y-90386759D01*
X138624259Y-92093008D02*
X140240705Y-90476562D01*
X142505850Y-77091600D02*
X144918850Y-77091600D01*
X144791850Y-75440600D02*
X144918850Y-75440600D01*
X142505850Y-75440600D02*
X144791850Y-75440600D01*
X135568008Y-88640509D02*
X133861759Y-90346758D01*
X135118995Y-91424388D02*
X135029192Y-91514191D01*
X136735441Y-89807942D02*
X135118995Y-91424388D01*
X136996758Y-90069259D02*
X135290509Y-91775508D01*
X136547745Y-92853138D02*
X136457942Y-92942941D01*
X138164191Y-91236692D02*
X136547745Y-92853138D01*
X145712600Y-90204350D02*
X143299600Y-90204350D01*
X143426600Y-91855350D02*
X143299600Y-91855350D01*
X145712600Y-91855350D02*
X143426600Y-91855350D01*
X131869600Y-89791600D02*
X134282600Y-89791600D01*
X134155600Y-88140600D02*
X134282600Y-88140600D01*
X131869600Y-88140600D02*
X134155600Y-88140600D01*
X137013100Y-84108350D02*
X137013100Y-86521350D01*
X138664100Y-86394350D02*
X138664100Y-86521350D01*
X138664100Y-84108350D02*
X138664100Y-86394350D01*
X127488100Y-82997100D02*
X127488100Y-85410100D01*
X129139100Y-85283100D02*
X129139100Y-85410100D01*
X129139100Y-82997100D02*
X129139100Y-85283100D01*
D16*
X131676100Y-87714850D02*
X131676100Y-82914850D01*
X134976100Y-82914850D02*
X134976100Y-87714850D01*
X131676100Y-82914850D02*
X134976100Y-82914850D01*
X131176100Y-82914850D02*
X131676100Y-82914850D01*
X131176100Y-87714850D02*
X131176100Y-82914850D01*
X131676100Y-87714850D02*
X131176100Y-87714850D01*
X134976100Y-87714850D02*
X131676100Y-87714850D01*
D15*
X141220442Y-94689191D02*
X142926691Y-92982942D01*
X141669455Y-91905312D02*
X141759258Y-91815509D01*
X140053009Y-93521758D02*
X141669455Y-91905312D01*
X143277810Y-93244259D02*
X141481759Y-95040310D01*
X144355441Y-94321890D02*
X142559390Y-96117941D01*
X174798000Y-76136600D02*
X174798000Y-78676600D01*
X176322000Y-76136600D02*
X176322000Y-78676600D01*
X177973000Y-76136600D02*
X177973000Y-78676600D01*
X179497000Y-76136600D02*
X179497000Y-78676600D01*
X138632350Y-77028100D02*
X141172350Y-77028100D01*
X138632350Y-75504100D02*
X141172350Y-75504100D01*
X174337360Y-104790300D02*
G75*
G03X174337360Y-104790300I-697460J0D01*
G01*
X172446100Y-106111100D02*
X172446100Y-95951100D01*
X182606100Y-106111100D02*
X172446100Y-106111100D01*
X182606100Y-95951100D02*
X182606100Y-106111100D01*
X172446100Y-95951100D02*
X182606100Y-95951100D01*
D12*
X133441100Y-91738600D02*
X133441100Y-90638600D01*
X131361600Y-90638600D02*
X131361600Y-92458600D01*
X133441100Y-90638600D02*
X131361600Y-90638600D01*
D15*
X131329850Y-88204100D02*
X128789850Y-88204100D01*
X131329850Y-89728100D02*
X128789850Y-89728100D01*
X155110600Y-126812100D02*
X155110600Y-129225100D01*
X156761600Y-129098100D02*
X156761600Y-129225100D01*
X156761600Y-126812100D02*
X156761600Y-129098100D01*
X157174350Y-126812100D02*
X157174350Y-129225100D01*
X158825350Y-129098100D02*
X158825350Y-129225100D01*
X158825350Y-126812100D02*
X158825350Y-129098100D01*
X114915100Y-91156850D02*
X112502100Y-91156850D01*
X112629100Y-92807850D02*
X112502100Y-92807850D01*
X114915100Y-92807850D02*
X112629100Y-92807850D01*
X136576691Y-94474258D02*
X134870442Y-92768009D01*
X133792812Y-94025245D02*
X133703009Y-93935442D01*
X135409258Y-95641691D02*
X133792812Y-94025245D01*
D12*
X145384850Y-94252350D02*
X146484850Y-94252350D01*
X146484850Y-92172850D02*
X144664850Y-92172850D01*
X146484850Y-94252350D02*
X146484850Y-92172850D01*
D15*
X148157350Y-94014350D02*
X150697350Y-94014350D01*
X148157350Y-92490350D02*
X150697350Y-92490350D01*
D14*
X134379850Y-99269850D02*
G75*
G03X134379850Y-99269850I-75000J0D01*
G01*
D16*
X135004850Y-101019850D02*
X134004850Y-101019850D01*
X133298350Y-98819850D02*
X135004850Y-98819850D01*
D15*
X104945600Y-100300850D02*
X104945600Y-102713850D01*
X106596600Y-102586850D02*
X106596600Y-102713850D01*
X106596600Y-100300850D02*
X106596600Y-102586850D01*
X106596600Y-85727600D02*
X106596600Y-83314600D01*
X104945600Y-83441600D02*
X104945600Y-83314600D01*
X104945600Y-85727600D02*
X104945600Y-83441600D01*
X106596600Y-99380100D02*
X106596600Y-96967100D01*
X104945600Y-97094100D02*
X104945600Y-96967100D01*
X104945600Y-99380100D02*
X104945600Y-97094100D01*
X106596600Y-95570100D02*
X106596600Y-93157100D01*
X104945600Y-93284100D02*
X104945600Y-93157100D01*
X104945600Y-95570100D02*
X104945600Y-93284100D01*
X106525500Y-110706500D02*
X106525500Y-108293500D01*
X104874500Y-108420500D02*
X104874500Y-108293500D01*
X104874500Y-110706500D02*
X104874500Y-108420500D01*
X143966350Y-85918100D02*
X141553350Y-85918100D01*
X141680350Y-87569100D02*
X141553350Y-87569100D01*
X143966350Y-87569100D02*
X141680350Y-87569100D01*
X147935100Y-75440600D02*
X145522100Y-75440600D01*
X145649100Y-77091600D02*
X145522100Y-77091600D01*
X147935100Y-77091600D02*
X145649100Y-77091600D01*
X123709850Y-92490350D02*
X121169850Y-92490350D01*
X123709850Y-94014350D02*
X121169850Y-94014350D01*
X120693600Y-99792850D02*
X118153600Y-99792850D01*
X120693600Y-101316850D02*
X118153600Y-101316850D01*
X131647350Y-121954350D02*
X134187350Y-121954350D01*
X131647350Y-120430350D02*
X134187350Y-120430350D01*
X136092350Y-100205600D02*
X138632350Y-100205600D01*
X136092350Y-98681600D02*
X138632350Y-98681600D01*
X165175350Y-83251100D02*
X165175350Y-85791100D01*
X166699350Y-83251100D02*
X166699350Y-85791100D01*
X154253350Y-90426600D02*
X156666350Y-90426600D01*
X156539350Y-88775600D02*
X156666350Y-88775600D01*
X154253350Y-88775600D02*
X156539350Y-88775600D01*
X143601692Y-120565441D02*
X145307941Y-118859192D01*
X144050705Y-117781562D02*
X144140508Y-117691759D01*
X142434259Y-119398008D02*
X144050705Y-117781562D01*
D21*
X120778322Y-122238153D02*
X120778322Y-122319403D01*
X120697072Y-122481903D01*
X120615823Y-122563153D01*
X120453323Y-122644402D01*
X120290823Y-122644402D01*
X120168948Y-122603778D01*
X119965823Y-122481903D01*
X119843948Y-122360028D01*
X119722073Y-122156903D01*
X119681448Y-122035028D01*
X119681448Y-121872528D01*
X119762698Y-121710028D01*
X119843948Y-121628778D01*
X120006448Y-121547528D01*
X120087698Y-121547528D01*
X120412698Y-121222529D02*
X120412698Y-121141279D01*
X120453323Y-121019404D01*
X120656447Y-120816279D01*
X120778322Y-120775654D01*
X120859572Y-120775654D01*
X120981447Y-120816279D01*
X121062697Y-120897529D01*
X121143947Y-121060029D01*
X121143947Y-122035028D01*
X121672072Y-121506903D01*
X116131155Y-91785802D02*
X116016250Y-91728350D01*
X115901345Y-91613445D01*
X115728988Y-91441088D01*
X115614083Y-91383635D01*
X115499179Y-91383635D01*
X115556631Y-91670897D02*
X115441726Y-91613445D01*
X115326821Y-91498540D01*
X115269369Y-91268730D01*
X115269369Y-90866564D01*
X115326821Y-90636754D01*
X115441726Y-90521850D01*
X115556631Y-90464397D01*
X115786440Y-90464397D01*
X115901345Y-90521850D01*
X116016250Y-90636754D01*
X116073702Y-90866564D01*
X116073702Y-91268730D01*
X116016250Y-91498540D01*
X115901345Y-91613445D01*
X115786440Y-91670897D01*
X115556631Y-91670897D01*
X116475869Y-90464397D02*
X117222750Y-90464397D01*
X116820583Y-90924016D01*
X116992940Y-90924016D01*
X117107845Y-90981469D01*
X117165298Y-91038921D01*
X117222750Y-91153826D01*
X117222750Y-91441088D01*
X117165298Y-91555992D01*
X117107845Y-91613445D01*
X116992940Y-91670897D01*
X116648226Y-91670897D01*
X116533321Y-91613445D01*
X116475869Y-91555992D01*
X115068830Y-95302492D02*
X115011378Y-95359945D01*
X114839020Y-95417397D01*
X114724116Y-95417397D01*
X114551759Y-95359945D01*
X114436854Y-95245040D01*
X114379401Y-95130135D01*
X114321949Y-94900326D01*
X114321949Y-94727969D01*
X114379401Y-94498159D01*
X114436854Y-94383254D01*
X114551759Y-94268350D01*
X114724116Y-94210897D01*
X114839020Y-94210897D01*
X115011378Y-94268350D01*
X115068830Y-94325802D01*
X116102973Y-94613064D02*
X116102973Y-95417397D01*
X115815711Y-94153445D02*
X115528449Y-95015230D01*
X116275330Y-95015230D01*
X116677497Y-94325802D02*
X116734949Y-94268350D01*
X116849854Y-94210897D01*
X117137116Y-94210897D01*
X117252020Y-94268350D01*
X117309473Y-94325802D01*
X117366925Y-94440707D01*
X117366925Y-94555611D01*
X117309473Y-94727969D01*
X116620044Y-95417397D01*
X117366925Y-95417397D01*
X115914952Y-93766397D02*
X115512786Y-93191873D01*
X115225524Y-93766397D02*
X115225524Y-92559897D01*
X115685143Y-92559897D01*
X115800048Y-92617350D01*
X115857500Y-92674802D01*
X115914952Y-92789707D01*
X115914952Y-92962064D01*
X115857500Y-93076969D01*
X115800048Y-93134421D01*
X115685143Y-93191873D01*
X115225524Y-93191873D01*
X116949095Y-92559897D02*
X116719286Y-92559897D01*
X116604381Y-92617350D01*
X116546929Y-92674802D01*
X116432024Y-92847159D01*
X116374571Y-93076969D01*
X116374571Y-93536588D01*
X116432024Y-93651492D01*
X116489476Y-93708945D01*
X116604381Y-93766397D01*
X116834190Y-93766397D01*
X116949095Y-93708945D01*
X117006548Y-93651492D01*
X117064000Y-93536588D01*
X117064000Y-93249326D01*
X117006548Y-93134421D01*
X116949095Y-93076969D01*
X116834190Y-93019516D01*
X116604381Y-93019516D01*
X116489476Y-93076969D01*
X116432024Y-93134421D01*
X116374571Y-93249326D01*
X115068830Y-97366242D02*
X115011378Y-97423695D01*
X114839020Y-97481147D01*
X114724116Y-97481147D01*
X114551759Y-97423695D01*
X114436854Y-97308790D01*
X114379401Y-97193885D01*
X114321949Y-96964076D01*
X114321949Y-96791719D01*
X114379401Y-96561909D01*
X114436854Y-96447004D01*
X114551759Y-96332100D01*
X114724116Y-96274647D01*
X114839020Y-96274647D01*
X115011378Y-96332100D01*
X115068830Y-96389552D01*
X115470997Y-96274647D02*
X116217878Y-96274647D01*
X115815711Y-96734266D01*
X115988068Y-96734266D01*
X116102973Y-96791719D01*
X116160425Y-96849171D01*
X116217878Y-96964076D01*
X116217878Y-97251338D01*
X116160425Y-97366242D01*
X116102973Y-97423695D01*
X115988068Y-97481147D01*
X115643354Y-97481147D01*
X115528449Y-97423695D01*
X115470997Y-97366242D01*
X116792401Y-97481147D02*
X117022211Y-97481147D01*
X117137116Y-97423695D01*
X117194568Y-97366242D01*
X117309473Y-97193885D01*
X117366925Y-96964076D01*
X117366925Y-96504457D01*
X117309473Y-96389552D01*
X117252020Y-96332100D01*
X117137116Y-96274647D01*
X116907306Y-96274647D01*
X116792401Y-96332100D01*
X116734949Y-96389552D01*
X116677497Y-96504457D01*
X116677497Y-96791719D01*
X116734949Y-96906623D01*
X116792401Y-96964076D01*
X116907306Y-97021528D01*
X117137116Y-97021528D01*
X117252020Y-96964076D01*
X117309473Y-96906623D01*
X117366925Y-96791719D01*
X115068830Y-93238742D02*
X115011378Y-93296195D01*
X114839020Y-93353647D01*
X114724116Y-93353647D01*
X114551759Y-93296195D01*
X114436854Y-93181290D01*
X114379401Y-93066385D01*
X114321949Y-92836576D01*
X114321949Y-92664219D01*
X114379401Y-92434409D01*
X114436854Y-92319504D01*
X114551759Y-92204600D01*
X114724116Y-92147147D01*
X114839020Y-92147147D01*
X115011378Y-92204600D01*
X115068830Y-92262052D01*
X115470997Y-92147147D02*
X116275330Y-92147147D01*
X115758259Y-93353647D01*
X116620044Y-92147147D02*
X117366925Y-92147147D01*
X116964759Y-92606766D01*
X117137116Y-92606766D01*
X117252020Y-92664219D01*
X117309473Y-92721671D01*
X117366925Y-92836576D01*
X117366925Y-93123838D01*
X117309473Y-93238742D01*
X117252020Y-93296195D01*
X117137116Y-93353647D01*
X116792401Y-93353647D01*
X116677497Y-93296195D01*
X116620044Y-93238742D01*
X115068830Y-99429992D02*
X115011378Y-99487445D01*
X114839020Y-99544897D01*
X114724116Y-99544897D01*
X114551759Y-99487445D01*
X114436854Y-99372540D01*
X114379401Y-99257635D01*
X114321949Y-99027826D01*
X114321949Y-98855469D01*
X114379401Y-98625659D01*
X114436854Y-98510754D01*
X114551759Y-98395850D01*
X114724116Y-98338397D01*
X114839020Y-98338397D01*
X115011378Y-98395850D01*
X115068830Y-98453302D01*
X115758259Y-98855469D02*
X115643354Y-98798016D01*
X115585901Y-98740564D01*
X115528449Y-98625659D01*
X115528449Y-98568207D01*
X115585901Y-98453302D01*
X115643354Y-98395850D01*
X115758259Y-98338397D01*
X115988068Y-98338397D01*
X116102973Y-98395850D01*
X116160425Y-98453302D01*
X116217878Y-98568207D01*
X116217878Y-98625659D01*
X116160425Y-98740564D01*
X116102973Y-98798016D01*
X115988068Y-98855469D01*
X115758259Y-98855469D01*
X115643354Y-98912921D01*
X115585901Y-98970373D01*
X115528449Y-99085278D01*
X115528449Y-99315088D01*
X115585901Y-99429992D01*
X115643354Y-99487445D01*
X115758259Y-99544897D01*
X115988068Y-99544897D01*
X116102973Y-99487445D01*
X116160425Y-99429992D01*
X116217878Y-99315088D01*
X116217878Y-99085278D01*
X116160425Y-98970373D01*
X116102973Y-98912921D01*
X115988068Y-98855469D01*
X116964759Y-98338397D02*
X117079663Y-98338397D01*
X117194568Y-98395850D01*
X117252020Y-98453302D01*
X117309473Y-98568207D01*
X117366925Y-98798016D01*
X117366925Y-99085278D01*
X117309473Y-99315088D01*
X117252020Y-99429992D01*
X117194568Y-99487445D01*
X117079663Y-99544897D01*
X116964759Y-99544897D01*
X116849854Y-99487445D01*
X116792401Y-99429992D01*
X116734949Y-99315088D01*
X116677497Y-99085278D01*
X116677497Y-98798016D01*
X116734949Y-98568207D01*
X116792401Y-98453302D01*
X116849854Y-98395850D01*
X116964759Y-98338397D01*
X120296052Y-93934401D02*
X121502552Y-93934401D01*
X120410957Y-95198354D02*
X120353504Y-95140901D01*
X120296052Y-94968544D01*
X120296052Y-94853640D01*
X120353504Y-94681282D01*
X120468409Y-94566378D01*
X120583314Y-94508925D01*
X120813123Y-94451473D01*
X120985480Y-94451473D01*
X121215290Y-94508925D01*
X121330195Y-94566378D01*
X121445100Y-94681282D01*
X121502552Y-94853640D01*
X121502552Y-94968544D01*
X121445100Y-95140901D01*
X121387647Y-95198354D01*
X120296052Y-96347401D02*
X120296052Y-95657973D01*
X120296052Y-96002687D02*
X121502552Y-96002687D01*
X121330195Y-95887782D01*
X121215290Y-95772878D01*
X121157838Y-95657973D01*
X139015296Y-93287270D02*
X138934046Y-93287270D01*
X138771546Y-93206020D01*
X138690296Y-93124771D01*
X138609047Y-92962271D01*
X138609047Y-92799771D01*
X138649671Y-92677896D01*
X138771546Y-92474771D01*
X138893421Y-92352896D01*
X139096546Y-92231021D01*
X139218421Y-92190396D01*
X139380921Y-92190396D01*
X139543421Y-92271646D01*
X139624671Y-92352896D01*
X139705921Y-92515396D01*
X139705921Y-92596646D01*
X139746546Y-94181020D02*
X139259046Y-93693520D01*
X139502796Y-93937270D02*
X140355920Y-93084146D01*
X140152795Y-93124771D01*
X139990295Y-93124771D01*
X139868421Y-93084146D01*
X140884045Y-93612270D02*
X141412169Y-94140395D01*
X140802795Y-94181020D01*
X140924670Y-94302895D01*
X140965295Y-94424769D01*
X140965295Y-94506019D01*
X140924670Y-94627894D01*
X140721545Y-94831019D01*
X140599670Y-94871644D01*
X140518420Y-94871644D01*
X140396545Y-94831019D01*
X140152795Y-94587269D01*
X140112170Y-94465394D01*
X140112170Y-94384145D01*
X136893322Y-89299403D02*
X136202698Y-89177528D01*
X136405823Y-89786902D02*
X135552698Y-88933778D01*
X135877698Y-88608778D01*
X135999573Y-88568153D01*
X136080823Y-88568153D01*
X136202698Y-88608778D01*
X136324573Y-88730653D01*
X136365198Y-88852528D01*
X136365198Y-88933778D01*
X136324573Y-89055653D01*
X135999573Y-89380653D01*
X137705822Y-88486903D02*
X137218322Y-88974403D01*
X137462072Y-88730653D02*
X136608948Y-87877529D01*
X136649573Y-88080654D01*
X136649573Y-88243154D01*
X136608948Y-88365028D01*
X137705822Y-87511904D02*
X137583947Y-87552529D01*
X137502697Y-87552529D01*
X137380822Y-87511904D01*
X137340197Y-87471279D01*
X137299572Y-87349404D01*
X137299572Y-87268154D01*
X137340197Y-87146279D01*
X137502697Y-86983780D01*
X137624572Y-86943155D01*
X137705822Y-86943155D01*
X137827697Y-86983780D01*
X137868322Y-87024405D01*
X137908947Y-87146279D01*
X137908947Y-87227529D01*
X137868322Y-87349404D01*
X137705822Y-87511904D01*
X137665197Y-87633779D01*
X137665197Y-87715029D01*
X137705822Y-87836904D01*
X137868322Y-87999404D01*
X137990196Y-88040029D01*
X138071446Y-88040029D01*
X138193321Y-87999404D01*
X138355821Y-87836904D01*
X138396446Y-87715029D01*
X138396446Y-87633779D01*
X138355821Y-87511904D01*
X138193321Y-87349404D01*
X138071446Y-87308779D01*
X137990196Y-87308779D01*
X137868322Y-87349404D01*
X142547155Y-92813897D02*
X142144988Y-92239373D01*
X141857726Y-92813897D02*
X141857726Y-91607397D01*
X142317345Y-91607397D01*
X142432250Y-91664850D01*
X142489702Y-91722302D01*
X142547155Y-91837207D01*
X142547155Y-92009564D01*
X142489702Y-92124469D01*
X142432250Y-92181921D01*
X142317345Y-92239373D01*
X141857726Y-92239373D01*
X142949321Y-91607397D02*
X143696202Y-91607397D01*
X143294036Y-92067016D01*
X143466393Y-92067016D01*
X143581298Y-92124469D01*
X143638750Y-92181921D01*
X143696202Y-92296826D01*
X143696202Y-92584088D01*
X143638750Y-92698992D01*
X143581298Y-92756445D01*
X143466393Y-92813897D01*
X143121679Y-92813897D01*
X143006774Y-92756445D01*
X142949321Y-92698992D01*
X144443083Y-91607397D02*
X144557988Y-91607397D01*
X144672893Y-91664850D01*
X144730345Y-91722302D01*
X144787798Y-91837207D01*
X144845250Y-92067016D01*
X144845250Y-92354278D01*
X144787798Y-92584088D01*
X144730345Y-92698992D01*
X144672893Y-92756445D01*
X144557988Y-92813897D01*
X144443083Y-92813897D01*
X144328179Y-92756445D01*
X144270726Y-92698992D01*
X144213274Y-92584088D01*
X144155821Y-92354278D01*
X144155821Y-92067016D01*
X144213274Y-91837207D01*
X144270726Y-91722302D01*
X144328179Y-91664850D01*
X144443083Y-91607397D01*
X133483830Y-88273647D02*
X133081663Y-87699123D01*
X132794401Y-88273647D02*
X132794401Y-87067147D01*
X133254020Y-87067147D01*
X133368925Y-87124600D01*
X133426378Y-87182052D01*
X133483830Y-87296957D01*
X133483830Y-87469314D01*
X133426378Y-87584219D01*
X133368925Y-87641671D01*
X133254020Y-87699123D01*
X132794401Y-87699123D01*
X133885997Y-87067147D02*
X134632878Y-87067147D01*
X134230711Y-87526766D01*
X134403068Y-87526766D01*
X134517973Y-87584219D01*
X134575425Y-87641671D01*
X134632878Y-87756576D01*
X134632878Y-88043838D01*
X134575425Y-88158742D01*
X134517973Y-88216195D01*
X134403068Y-88273647D01*
X134058354Y-88273647D01*
X133943449Y-88216195D01*
X133885997Y-88158742D01*
X135092497Y-87182052D02*
X135149949Y-87124600D01*
X135264854Y-87067147D01*
X135552116Y-87067147D01*
X135667020Y-87124600D01*
X135724473Y-87182052D01*
X135781925Y-87296957D01*
X135781925Y-87411861D01*
X135724473Y-87584219D01*
X135035044Y-88273647D01*
X135781925Y-88273647D01*
X141288520Y-92474403D02*
X140597896Y-92352528D01*
X140801021Y-92961902D02*
X139947896Y-92108778D01*
X140272896Y-91783778D01*
X140394771Y-91743153D01*
X140476021Y-91743153D01*
X140597896Y-91783778D01*
X140719771Y-91905653D01*
X140760396Y-92027528D01*
X140760396Y-92108778D01*
X140719771Y-92230653D01*
X140394771Y-92555653D01*
X141451020Y-91174404D02*
X142019770Y-91743153D01*
X140922896Y-91052529D02*
X141329145Y-91865028D01*
X141857270Y-91336904D01*
X141654145Y-90565029D02*
X141654145Y-90483779D01*
X141694770Y-90361904D01*
X141897895Y-90158780D01*
X142019770Y-90118155D01*
X142101020Y-90118155D01*
X142222895Y-90158780D01*
X142304145Y-90240029D01*
X142385394Y-90402529D01*
X142385394Y-91377529D01*
X142913519Y-90849404D01*
X144432072Y-93821903D02*
X144432072Y-93903153D01*
X144350822Y-94065653D01*
X144269573Y-94146903D01*
X144107073Y-94228152D01*
X143944573Y-94228152D01*
X143822698Y-94187528D01*
X143619573Y-94065653D01*
X143497698Y-93943778D01*
X143375823Y-93740653D01*
X143335198Y-93618778D01*
X143335198Y-93456278D01*
X143416448Y-93293778D01*
X143497698Y-93212528D01*
X143660198Y-93131278D01*
X143741448Y-93131278D01*
X143944573Y-92765654D02*
X144472697Y-92237529D01*
X144513322Y-92846904D01*
X144635197Y-92725029D01*
X144757072Y-92684404D01*
X144838322Y-92684404D01*
X144960197Y-92725029D01*
X145163322Y-92928154D01*
X145203947Y-93050028D01*
X145203947Y-93131278D01*
X145163322Y-93253153D01*
X144919572Y-93496903D01*
X144797697Y-93537528D01*
X144716447Y-93537528D01*
X144878947Y-91993779D02*
X144878947Y-91912529D01*
X144919572Y-91790654D01*
X145122697Y-91587530D01*
X145244572Y-91546905D01*
X145325822Y-91546905D01*
X145447697Y-91587530D01*
X145528947Y-91668779D01*
X145610196Y-91831279D01*
X145610196Y-92806279D01*
X146138321Y-92278154D01*
X130254401Y-89861147D02*
X130254401Y-88654647D01*
X131518354Y-89746242D02*
X131460901Y-89803695D01*
X131288544Y-89861147D01*
X131173640Y-89861147D01*
X131001282Y-89803695D01*
X130886378Y-89688790D01*
X130828925Y-89573885D01*
X130771473Y-89344076D01*
X130771473Y-89171719D01*
X130828925Y-88941909D01*
X130886378Y-88827004D01*
X131001282Y-88712100D01*
X131173640Y-88654647D01*
X131288544Y-88654647D01*
X131460901Y-88712100D01*
X131518354Y-88769552D01*
X132667401Y-89861147D02*
X131977973Y-89861147D01*
X132322687Y-89861147D02*
X132322687Y-88654647D01*
X132207782Y-88827004D01*
X132092878Y-88941909D01*
X131977973Y-88999361D01*
X133816449Y-89861147D02*
X133127020Y-89861147D01*
X133471735Y-89861147D02*
X133471735Y-88654647D01*
X133356830Y-88827004D01*
X133241925Y-88941909D01*
X133127020Y-88999361D01*
X120480905Y-94921492D02*
X120423452Y-94978945D01*
X120251095Y-95036397D01*
X120136190Y-95036397D01*
X119963833Y-94978945D01*
X119848929Y-94864040D01*
X119791476Y-94749135D01*
X119734024Y-94519326D01*
X119734024Y-94346969D01*
X119791476Y-94117159D01*
X119848929Y-94002254D01*
X119963833Y-93887350D01*
X120136190Y-93829897D01*
X120251095Y-93829897D01*
X120423452Y-93887350D01*
X120480905Y-93944802D01*
X120940524Y-93944802D02*
X120997976Y-93887350D01*
X121112881Y-93829897D01*
X121400143Y-93829897D01*
X121515048Y-93887350D01*
X121572500Y-93944802D01*
X121629952Y-94059707D01*
X121629952Y-94174611D01*
X121572500Y-94346969D01*
X120883071Y-95036397D01*
X121629952Y-95036397D01*
X122089571Y-93944802D02*
X122147024Y-93887350D01*
X122261929Y-93829897D01*
X122549190Y-93829897D01*
X122664095Y-93887350D01*
X122721548Y-93944802D01*
X122779000Y-94059707D01*
X122779000Y-94174611D01*
X122721548Y-94346969D01*
X122032119Y-95036397D01*
X122779000Y-95036397D01*
%LPC*%
D22*
X151509975Y-131000000D02*
G75*
G03X151509975Y-131000000I-2009975J0D01*
G01*
X151509975Y-88500000D02*
G75*
G03X151509975Y-88500000I-2009975J0D01*
G01*
D23*
X173153600Y-127701100D03*
X177453600Y-127701100D03*
D24*
X154056100Y-132781100D03*
X160356100Y-132781100D03*
D25*
X167183600Y-132781100D03*
X163113600Y-132781100D03*
G36*
X176451000Y-123895294D02*
G01*
X175599000Y-123327294D01*
X175599000Y-122272706D01*
X176451000Y-121704706D01*
X176451000Y-123895294D01*
G37*
D26*
X174950000Y-124300000D03*
X174950000Y-121300000D03*
X178650000Y-124300000D03*
D27*
X178650000Y-122800000D03*
D26*
X178650000Y-121300000D03*
D27*
X174950000Y-122800000D03*
G36*
X177149000Y-121704706D02*
G01*
X178001000Y-122272706D01*
X178001000Y-123327294D01*
X177149000Y-123895294D01*
X177149000Y-121704706D01*
G37*
D28*
X176800000Y-122800000D03*
D29*
X175303600Y-88331100D03*
D30*
X180103600Y-83456100D03*
X180103600Y-84106100D03*
X180103600Y-84756100D03*
X180103600Y-85406100D03*
X180103600Y-86056100D03*
X180103600Y-86706100D03*
X180103600Y-87356100D03*
X180103600Y-88006100D03*
X180103600Y-88656100D03*
X180103600Y-89306100D03*
X180103600Y-89956100D03*
X180103600Y-90606100D03*
X180103600Y-91256100D03*
X180103600Y-91906100D03*
X180103600Y-92556100D03*
X180103600Y-93206100D03*
X170503600Y-93206100D03*
X170503600Y-92556100D03*
X170503600Y-91906100D03*
X170503600Y-91256100D03*
X170503600Y-90606100D03*
X170503600Y-89956100D03*
X170503600Y-89306100D03*
X170503600Y-88656100D03*
X170503600Y-88006100D03*
X170503600Y-87356100D03*
X170503600Y-86706100D03*
X170503600Y-86056100D03*
X170503600Y-85406100D03*
X170503600Y-84756100D03*
X170503600Y-84106100D03*
X170503600Y-83456100D03*
D31*
X163556150Y-83886100D03*
X163556150Y-85156100D03*
X163556150Y-86426100D03*
X163556150Y-87696100D03*
X156253550Y-87696100D03*
X156253550Y-86426100D03*
X156253550Y-85156100D03*
X156253550Y-83886100D03*
D32*
X134981100Y-124219850D03*
X138791100Y-124219850D03*
X136251100Y-124219850D03*
X137521100Y-124219850D03*
X134981100Y-134049850D03*
X136251100Y-134049850D03*
X137521100Y-134049850D03*
X138791100Y-134049850D03*
D33*
X131806100Y-106326100D03*
X131806100Y-104626100D03*
X131806100Y-108436100D03*
X131806100Y-110136100D03*
D34*
X144721100Y-125002350D03*
X143021100Y-125002350D03*
D33*
X155142350Y-124741100D03*
X155142350Y-123041100D03*
X155142350Y-120931100D03*
X155142350Y-119231100D03*
D34*
X144721100Y-122938600D03*
X143021100Y-122938600D03*
D35*
X142912350Y-126574850D03*
X142912350Y-127224850D03*
X142912350Y-127874850D03*
X144512350Y-127874850D03*
X144512350Y-127224850D03*
X144512350Y-126574850D03*
D36*
X147788600Y-119763100D03*
X147788600Y-120398100D03*
X147788600Y-121033100D03*
X147788600Y-121668100D03*
X147788600Y-122304100D03*
X147788600Y-122939100D03*
X147788600Y-123574100D03*
X147788600Y-124209100D03*
X153288600Y-124209100D03*
X153288600Y-123574100D03*
X153288600Y-122939100D03*
X153288600Y-122304100D03*
X153288600Y-121668100D03*
X153288600Y-121033100D03*
X153288600Y-120398100D03*
X153288600Y-119763100D03*
D37*
X158261100Y-104364850D03*
X159961100Y-104364850D03*
D33*
X150277350Y-125478600D03*
X148577350Y-125478600D03*
X151593600Y-125478600D03*
X153293600Y-125478600D03*
D34*
X160539850Y-127168600D03*
X160539850Y-128868600D03*
D33*
X152546100Y-127542350D03*
X154246100Y-127542350D03*
G36*
X109094700Y-128701801D02*
G01*
X109094700Y-129565400D01*
X108662899Y-129997200D01*
X107799300Y-129997200D01*
X107367500Y-129565399D01*
X107367500Y-128701800D01*
X107799301Y-128270000D01*
X108662900Y-128270000D01*
X109094700Y-128701801D01*
G37*
G36*
X111634700Y-128701801D02*
G01*
X111634700Y-129565400D01*
X111202899Y-129997200D01*
X110339300Y-129997200D01*
X109907500Y-129565399D01*
X109907500Y-128701800D01*
X110339301Y-128270000D01*
X111202900Y-128270000D01*
X111634700Y-128701801D01*
G37*
G36*
X109094700Y-126161801D02*
G01*
X109094700Y-127025400D01*
X108662899Y-127457200D01*
X107799300Y-127457200D01*
X107367500Y-127025399D01*
X107367500Y-126161800D01*
X107799301Y-125730000D01*
X108662900Y-125730000D01*
X109094700Y-126161801D01*
G37*
G36*
X111634700Y-126161801D02*
G01*
X111634700Y-127025400D01*
X111202899Y-127457200D01*
X110339300Y-127457200D01*
X109907500Y-127025399D01*
X109907500Y-126161800D01*
X110339301Y-125730000D01*
X111202900Y-125730000D01*
X111634700Y-126161801D01*
G37*
G36*
X109094700Y-123621801D02*
G01*
X109094700Y-124485400D01*
X108662899Y-124917200D01*
X107799300Y-124917200D01*
X107367500Y-124485399D01*
X107367500Y-123621800D01*
X107799301Y-123190000D01*
X108662900Y-123190000D01*
X109094700Y-123621801D01*
G37*
G36*
X111634700Y-123621801D02*
G01*
X111634700Y-124485400D01*
X111202899Y-124917200D01*
X110339300Y-124917200D01*
X109907500Y-124485399D01*
X109907500Y-123621800D01*
X110339301Y-123190000D01*
X111202900Y-123190000D01*
X111634700Y-123621801D01*
G37*
G36*
X109094700Y-121081801D02*
G01*
X109094700Y-121945400D01*
X108662899Y-122377200D01*
X107799300Y-122377200D01*
X107367500Y-121945399D01*
X107367500Y-121081800D01*
X107799301Y-120650000D01*
X108662900Y-120650000D01*
X109094700Y-121081801D01*
G37*
G36*
X111634700Y-121081801D02*
G01*
X111634700Y-121945400D01*
X111202899Y-122377200D01*
X110339300Y-122377200D01*
X109907500Y-121945399D01*
X109907500Y-121081800D01*
X110339301Y-120650000D01*
X111202900Y-120650000D01*
X111634700Y-121081801D01*
G37*
G36*
X109094700Y-118541801D02*
G01*
X109094700Y-119405400D01*
X108662899Y-119837200D01*
X107799300Y-119837200D01*
X107367500Y-119405399D01*
X107367500Y-118541800D01*
X107799301Y-118110000D01*
X108662900Y-118110000D01*
X109094700Y-118541801D01*
G37*
G36*
X111634700Y-118541801D02*
G01*
X111634700Y-119405400D01*
X111202899Y-119837200D01*
X110339300Y-119837200D01*
X109907500Y-119405399D01*
X109907500Y-118541800D01*
X110339301Y-118110000D01*
X111202900Y-118110000D01*
X111634700Y-118541801D01*
G37*
G36*
X109094700Y-116001801D02*
G01*
X109094700Y-116865400D01*
X108662899Y-117297200D01*
X107799300Y-117297200D01*
X107367500Y-116865399D01*
X107367500Y-116001800D01*
X107799301Y-115570000D01*
X108662900Y-115570000D01*
X109094700Y-116001801D01*
G37*
G36*
X111634700Y-116001801D02*
G01*
X111634700Y-116865400D01*
X111202899Y-117297200D01*
X110339300Y-117297200D01*
X109907500Y-116865399D01*
X109907500Y-116001800D01*
X110339301Y-115570000D01*
X111202900Y-115570000D01*
X111634700Y-116001801D01*
G37*
G36*
X109094700Y-113461801D02*
G01*
X109094700Y-114325400D01*
X108662899Y-114757200D01*
X107799300Y-114757200D01*
X107367500Y-114325399D01*
X107367500Y-113461800D01*
X107799301Y-113030000D01*
X108662900Y-113030000D01*
X109094700Y-113461801D01*
G37*
G36*
X111634700Y-113461801D02*
G01*
X111634700Y-114325400D01*
X111202899Y-114757200D01*
X110339300Y-114757200D01*
X109907500Y-114325399D01*
X109907500Y-113461800D01*
X110339301Y-113030000D01*
X111202900Y-113030000D01*
X111634700Y-113461801D01*
G37*
G36*
X109094700Y-110921801D02*
G01*
X109094700Y-111785400D01*
X108662899Y-112217200D01*
X107799300Y-112217200D01*
X107367500Y-111785399D01*
X107367500Y-110921800D01*
X107799301Y-110490000D01*
X108662900Y-110490000D01*
X109094700Y-110921801D01*
G37*
G36*
X111634700Y-110921801D02*
G01*
X111634700Y-111785400D01*
X111202899Y-112217200D01*
X110339300Y-112217200D01*
X109907500Y-111785399D01*
X109907500Y-110921800D01*
X110339301Y-110490000D01*
X111202900Y-110490000D01*
X111634700Y-110921801D01*
G37*
G36*
X109094700Y-108381801D02*
G01*
X109094700Y-109245400D01*
X108662899Y-109677200D01*
X107799300Y-109677200D01*
X107367500Y-109245399D01*
X107367500Y-108381800D01*
X107799301Y-107950000D01*
X108662900Y-107950000D01*
X109094700Y-108381801D01*
G37*
G36*
X111634700Y-108381801D02*
G01*
X111634700Y-109245400D01*
X111202899Y-109677200D01*
X110339300Y-109677200D01*
X109907500Y-109245399D01*
X109907500Y-108381800D01*
X110339301Y-107950000D01*
X111202900Y-107950000D01*
X111634700Y-108381801D01*
G37*
G36*
X109094700Y-105841801D02*
G01*
X109094700Y-106705400D01*
X108662899Y-107137200D01*
X107799300Y-107137200D01*
X107367500Y-106705399D01*
X107367500Y-105841800D01*
X107799301Y-105410000D01*
X108662900Y-105410000D01*
X109094700Y-105841801D01*
G37*
G36*
X111634700Y-105841801D02*
G01*
X111634700Y-106705400D01*
X111202899Y-107137200D01*
X110339300Y-107137200D01*
X109907500Y-106705399D01*
X109907500Y-105841800D01*
X110339301Y-105410000D01*
X111202900Y-105410000D01*
X111634700Y-105841801D01*
G37*
G36*
X109094700Y-103301801D02*
G01*
X109094700Y-104165400D01*
X108662899Y-104597200D01*
X107799300Y-104597200D01*
X107367500Y-104165399D01*
X107367500Y-103301800D01*
X107799301Y-102870000D01*
X108662900Y-102870000D01*
X109094700Y-103301801D01*
G37*
G36*
X111634700Y-103301801D02*
G01*
X111634700Y-104165400D01*
X111202899Y-104597200D01*
X110339300Y-104597200D01*
X109907500Y-104165399D01*
X109907500Y-103301800D01*
X110339301Y-102870000D01*
X111202900Y-102870000D01*
X111634700Y-103301801D01*
G37*
G36*
X109094700Y-100761801D02*
G01*
X109094700Y-101625400D01*
X108662899Y-102057200D01*
X107799300Y-102057200D01*
X107367500Y-101625399D01*
X107367500Y-100761800D01*
X107799301Y-100330000D01*
X108662900Y-100330000D01*
X109094700Y-100761801D01*
G37*
G36*
X111634700Y-100761801D02*
G01*
X111634700Y-101625400D01*
X111202899Y-102057200D01*
X110339300Y-102057200D01*
X109907500Y-101625399D01*
X109907500Y-100761800D01*
X110339301Y-100330000D01*
X111202900Y-100330000D01*
X111634700Y-100761801D01*
G37*
G36*
X109094700Y-98221801D02*
G01*
X109094700Y-99085400D01*
X108662899Y-99517200D01*
X107799300Y-99517200D01*
X107367500Y-99085399D01*
X107367500Y-98221800D01*
X107799301Y-97790000D01*
X108662900Y-97790000D01*
X109094700Y-98221801D01*
G37*
G36*
X111634700Y-98221801D02*
G01*
X111634700Y-99085400D01*
X111202899Y-99517200D01*
X110339300Y-99517200D01*
X109907500Y-99085399D01*
X109907500Y-98221800D01*
X110339301Y-97790000D01*
X111202900Y-97790000D01*
X111634700Y-98221801D01*
G37*
G36*
X109094700Y-95681801D02*
G01*
X109094700Y-96545400D01*
X108662899Y-96977200D01*
X107799300Y-96977200D01*
X107367500Y-96545399D01*
X107367500Y-95681800D01*
X107799301Y-95250000D01*
X108662900Y-95250000D01*
X109094700Y-95681801D01*
G37*
G36*
X111634700Y-95681801D02*
G01*
X111634700Y-96545400D01*
X111202899Y-96977200D01*
X110339300Y-96977200D01*
X109907500Y-96545399D01*
X109907500Y-95681800D01*
X110339301Y-95250000D01*
X111202900Y-95250000D01*
X111634700Y-95681801D01*
G37*
G36*
X109094700Y-93141801D02*
G01*
X109094700Y-94005400D01*
X108662899Y-94437200D01*
X107799300Y-94437200D01*
X107367500Y-94005399D01*
X107367500Y-93141800D01*
X107799301Y-92710000D01*
X108662900Y-92710000D01*
X109094700Y-93141801D01*
G37*
G36*
X111634700Y-93141801D02*
G01*
X111634700Y-94005400D01*
X111202899Y-94437200D01*
X110339300Y-94437200D01*
X109907500Y-94005399D01*
X109907500Y-93141800D01*
X110339301Y-92710000D01*
X111202900Y-92710000D01*
X111634700Y-93141801D01*
G37*
G36*
X109094700Y-90601801D02*
G01*
X109094700Y-91465400D01*
X108662899Y-91897200D01*
X107799300Y-91897200D01*
X107367500Y-91465399D01*
X107367500Y-90601800D01*
X107799301Y-90170000D01*
X108662900Y-90170000D01*
X109094700Y-90601801D01*
G37*
G36*
X111634700Y-90601801D02*
G01*
X111634700Y-91465400D01*
X111202899Y-91897200D01*
X110339300Y-91897200D01*
X109907500Y-91465399D01*
X109907500Y-90601800D01*
X110339301Y-90170000D01*
X111202900Y-90170000D01*
X111634700Y-90601801D01*
G37*
G36*
X109094700Y-88061801D02*
G01*
X109094700Y-88925400D01*
X108662899Y-89357200D01*
X107799300Y-89357200D01*
X107367500Y-88925399D01*
X107367500Y-88061800D01*
X107799301Y-87630000D01*
X108662900Y-87630000D01*
X109094700Y-88061801D01*
G37*
G36*
X111634700Y-88061801D02*
G01*
X111634700Y-88925400D01*
X111202899Y-89357200D01*
X110339300Y-89357200D01*
X109907500Y-88925399D01*
X109907500Y-88061800D01*
X110339301Y-87630000D01*
X111202900Y-87630000D01*
X111634700Y-88061801D01*
G37*
G36*
X109094700Y-85521801D02*
G01*
X109094700Y-86385400D01*
X108662899Y-86817200D01*
X107799300Y-86817200D01*
X107367500Y-86385399D01*
X107367500Y-85521800D01*
X107799301Y-85090000D01*
X108662900Y-85090000D01*
X109094700Y-85521801D01*
G37*
G36*
X111634700Y-85521801D02*
G01*
X111634700Y-86385400D01*
X111202899Y-86817200D01*
X110339300Y-86817200D01*
X109907500Y-86385399D01*
X109907500Y-85521800D01*
X110339301Y-85090000D01*
X111202900Y-85090000D01*
X111634700Y-85521801D01*
G37*
G36*
X109094700Y-82981801D02*
G01*
X109094700Y-83845400D01*
X108662899Y-84277200D01*
X107799300Y-84277200D01*
X107367500Y-83845399D01*
X107367500Y-82981800D01*
X107799301Y-82550000D01*
X108662900Y-82550000D01*
X109094700Y-82981801D01*
G37*
G36*
X111634700Y-82981801D02*
G01*
X111634700Y-83845400D01*
X111202899Y-84277200D01*
X110339300Y-84277200D01*
X109907500Y-83845399D01*
X109907500Y-82981800D01*
X110339301Y-82550000D01*
X111202900Y-82550000D01*
X111634700Y-82981801D01*
G37*
G36*
X109094700Y-80441801D02*
G01*
X109094700Y-81305400D01*
X108662899Y-81737200D01*
X107799300Y-81737200D01*
X107367500Y-81305399D01*
X107367500Y-80441800D01*
X107799301Y-80010000D01*
X108662900Y-80010000D01*
X109094700Y-80441801D01*
G37*
G36*
X111634700Y-80441801D02*
G01*
X111634700Y-81305400D01*
X111202899Y-81737200D01*
X110339300Y-81737200D01*
X109907500Y-81305399D01*
X109907500Y-80441800D01*
X110339301Y-80010000D01*
X111202900Y-80010000D01*
X111634700Y-80441801D01*
G37*
G36*
X168199301Y-80410000D02*
G01*
X169062900Y-80410000D01*
X169494700Y-80841801D01*
X169494700Y-81705400D01*
X169062899Y-82137200D01*
X168199300Y-82137200D01*
X167767500Y-81705399D01*
X167767500Y-80841800D01*
X168199301Y-80410000D01*
G37*
G36*
X168199301Y-77870000D02*
G01*
X169062900Y-77870000D01*
X169494700Y-78301801D01*
X169494700Y-79165400D01*
X169062899Y-79597200D01*
X168199300Y-79597200D01*
X167767500Y-79165399D01*
X167767500Y-78301800D01*
X168199301Y-77870000D01*
G37*
G36*
X165659301Y-80410000D02*
G01*
X166522900Y-80410000D01*
X166954700Y-80841801D01*
X166954700Y-81705400D01*
X166522899Y-82137200D01*
X165659300Y-82137200D01*
X165227500Y-81705399D01*
X165227500Y-80841800D01*
X165659301Y-80410000D01*
G37*
G36*
X165659301Y-77870000D02*
G01*
X166522900Y-77870000D01*
X166954700Y-78301801D01*
X166954700Y-79165400D01*
X166522899Y-79597200D01*
X165659300Y-79597200D01*
X165227500Y-79165399D01*
X165227500Y-78301800D01*
X165659301Y-77870000D01*
G37*
G36*
X163119301Y-80410000D02*
G01*
X163982900Y-80410000D01*
X164414700Y-80841801D01*
X164414700Y-81705400D01*
X163982899Y-82137200D01*
X163119300Y-82137200D01*
X162687500Y-81705399D01*
X162687500Y-80841800D01*
X163119301Y-80410000D01*
G37*
G36*
X163119301Y-77870000D02*
G01*
X163982900Y-77870000D01*
X164414700Y-78301801D01*
X164414700Y-79165400D01*
X163982899Y-79597200D01*
X163119300Y-79597200D01*
X162687500Y-79165399D01*
X162687500Y-78301800D01*
X163119301Y-77870000D01*
G37*
G36*
X160579301Y-80410000D02*
G01*
X161442900Y-80410000D01*
X161874700Y-80841801D01*
X161874700Y-81705400D01*
X161442899Y-82137200D01*
X160579300Y-82137200D01*
X160147500Y-81705399D01*
X160147500Y-80841800D01*
X160579301Y-80410000D01*
G37*
G36*
X160579301Y-77870000D02*
G01*
X161442900Y-77870000D01*
X161874700Y-78301801D01*
X161874700Y-79165400D01*
X161442899Y-79597200D01*
X160579300Y-79597200D01*
X160147500Y-79165399D01*
X160147500Y-78301800D01*
X160579301Y-77870000D01*
G37*
G36*
X158039301Y-80410000D02*
G01*
X158902900Y-80410000D01*
X159334700Y-80841801D01*
X159334700Y-81705400D01*
X158902899Y-82137200D01*
X158039300Y-82137200D01*
X157607500Y-81705399D01*
X157607500Y-80841800D01*
X158039301Y-80410000D01*
G37*
G36*
X158039301Y-77870000D02*
G01*
X158902900Y-77870000D01*
X159334700Y-78301801D01*
X159334700Y-79165400D01*
X158902899Y-79597200D01*
X158039300Y-79597200D01*
X157607500Y-79165399D01*
X157607500Y-78301800D01*
X158039301Y-77870000D01*
G37*
G36*
X155499301Y-80410000D02*
G01*
X156362900Y-80410000D01*
X156794700Y-80841801D01*
X156794700Y-81705400D01*
X156362899Y-82137200D01*
X155499300Y-82137200D01*
X155067500Y-81705399D01*
X155067500Y-80841800D01*
X155499301Y-80410000D01*
G37*
G36*
X155499301Y-77870000D02*
G01*
X156362900Y-77870000D01*
X156794700Y-78301801D01*
X156794700Y-79165400D01*
X156362899Y-79597200D01*
X155499300Y-79597200D01*
X155067500Y-79165399D01*
X155067500Y-78301800D01*
X155499301Y-77870000D01*
G37*
G36*
X152959301Y-80410000D02*
G01*
X153822900Y-80410000D01*
X154254700Y-80841801D01*
X154254700Y-81705400D01*
X153822899Y-82137200D01*
X152959300Y-82137200D01*
X152527500Y-81705399D01*
X152527500Y-80841800D01*
X152959301Y-80410000D01*
G37*
G36*
X152959301Y-77870000D02*
G01*
X153822900Y-77870000D01*
X154254700Y-78301801D01*
X154254700Y-79165400D01*
X153822899Y-79597200D01*
X152959300Y-79597200D01*
X152527500Y-79165399D01*
X152527500Y-78301800D01*
X152959301Y-77870000D01*
G37*
G36*
X150419301Y-80410000D02*
G01*
X151282900Y-80410000D01*
X151714700Y-80841801D01*
X151714700Y-81705400D01*
X151282899Y-82137200D01*
X150419300Y-82137200D01*
X149987500Y-81705399D01*
X149987500Y-80841800D01*
X150419301Y-80410000D01*
G37*
G36*
X150419301Y-77870000D02*
G01*
X151282900Y-77870000D01*
X151714700Y-78301801D01*
X151714700Y-79165400D01*
X151282899Y-79597200D01*
X150419300Y-79597200D01*
X149987500Y-79165399D01*
X149987500Y-78301800D01*
X150419301Y-77870000D01*
G37*
G36*
X147879301Y-80410000D02*
G01*
X148742900Y-80410000D01*
X149174700Y-80841801D01*
X149174700Y-81705400D01*
X148742899Y-82137200D01*
X147879300Y-82137200D01*
X147447500Y-81705399D01*
X147447500Y-80841800D01*
X147879301Y-80410000D01*
G37*
G36*
X147879301Y-77870000D02*
G01*
X148742900Y-77870000D01*
X149174700Y-78301801D01*
X149174700Y-79165400D01*
X148742899Y-79597200D01*
X147879300Y-79597200D01*
X147447500Y-79165399D01*
X147447500Y-78301800D01*
X147879301Y-77870000D01*
G37*
G36*
X145339301Y-80410000D02*
G01*
X146202900Y-80410000D01*
X146634700Y-80841801D01*
X146634700Y-81705400D01*
X146202899Y-82137200D01*
X145339300Y-82137200D01*
X144907500Y-81705399D01*
X144907500Y-80841800D01*
X145339301Y-80410000D01*
G37*
G36*
X145339301Y-77870000D02*
G01*
X146202900Y-77870000D01*
X146634700Y-78301801D01*
X146634700Y-79165400D01*
X146202899Y-79597200D01*
X145339300Y-79597200D01*
X144907500Y-79165399D01*
X144907500Y-78301800D01*
X145339301Y-77870000D01*
G37*
G36*
X142799301Y-80410000D02*
G01*
X143662900Y-80410000D01*
X144094700Y-80841801D01*
X144094700Y-81705400D01*
X143662899Y-82137200D01*
X142799300Y-82137200D01*
X142367500Y-81705399D01*
X142367500Y-80841800D01*
X142799301Y-80410000D01*
G37*
G36*
X142799301Y-77870000D02*
G01*
X143662900Y-77870000D01*
X144094700Y-78301801D01*
X144094700Y-79165400D01*
X143662899Y-79597200D01*
X142799300Y-79597200D01*
X142367500Y-79165399D01*
X142367500Y-78301800D01*
X142799301Y-77870000D01*
G37*
G36*
X140259301Y-80410000D02*
G01*
X141122900Y-80410000D01*
X141554700Y-80841801D01*
X141554700Y-81705400D01*
X141122899Y-82137200D01*
X140259300Y-82137200D01*
X139827500Y-81705399D01*
X139827500Y-80841800D01*
X140259301Y-80410000D01*
G37*
G36*
X140259301Y-77870000D02*
G01*
X141122900Y-77870000D01*
X141554700Y-78301801D01*
X141554700Y-79165400D01*
X141122899Y-79597200D01*
X140259300Y-79597200D01*
X139827500Y-79165399D01*
X139827500Y-78301800D01*
X140259301Y-77870000D01*
G37*
G36*
X137719301Y-80410000D02*
G01*
X138582900Y-80410000D01*
X139014700Y-80841801D01*
X139014700Y-81705400D01*
X138582899Y-82137200D01*
X137719300Y-82137200D01*
X137287500Y-81705399D01*
X137287500Y-80841800D01*
X137719301Y-80410000D01*
G37*
G36*
X137719301Y-77870000D02*
G01*
X138582900Y-77870000D01*
X139014700Y-78301801D01*
X139014700Y-79165400D01*
X138582899Y-79597200D01*
X137719300Y-79597200D01*
X137287500Y-79165399D01*
X137287500Y-78301800D01*
X137719301Y-77870000D01*
G37*
G36*
X135179301Y-80410000D02*
G01*
X136042900Y-80410000D01*
X136474700Y-80841801D01*
X136474700Y-81705400D01*
X136042899Y-82137200D01*
X135179300Y-82137200D01*
X134747500Y-81705399D01*
X134747500Y-80841800D01*
X135179301Y-80410000D01*
G37*
G36*
X135179301Y-77870000D02*
G01*
X136042900Y-77870000D01*
X136474700Y-78301801D01*
X136474700Y-79165400D01*
X136042899Y-79597200D01*
X135179300Y-79597200D01*
X134747500Y-79165399D01*
X134747500Y-78301800D01*
X135179301Y-77870000D01*
G37*
G36*
X132639301Y-80410000D02*
G01*
X133502900Y-80410000D01*
X133934700Y-80841801D01*
X133934700Y-81705400D01*
X133502899Y-82137200D01*
X132639300Y-82137200D01*
X132207500Y-81705399D01*
X132207500Y-80841800D01*
X132639301Y-80410000D01*
G37*
G36*
X132639301Y-77870000D02*
G01*
X133502900Y-77870000D01*
X133934700Y-78301801D01*
X133934700Y-79165400D01*
X133502899Y-79597200D01*
X132639300Y-79597200D01*
X132207500Y-79165399D01*
X132207500Y-78301800D01*
X132639301Y-77870000D01*
G37*
G36*
X130099301Y-80410000D02*
G01*
X130962900Y-80410000D01*
X131394700Y-80841801D01*
X131394700Y-81705400D01*
X130962899Y-82137200D01*
X130099300Y-82137200D01*
X129667500Y-81705399D01*
X129667500Y-80841800D01*
X130099301Y-80410000D01*
G37*
G36*
X130099301Y-77870000D02*
G01*
X130962900Y-77870000D01*
X131394700Y-78301801D01*
X131394700Y-79165400D01*
X130962899Y-79597200D01*
X130099300Y-79597200D01*
X129667500Y-79165399D01*
X129667500Y-78301800D01*
X130099301Y-77870000D01*
G37*
G36*
X127559301Y-80410000D02*
G01*
X128422900Y-80410000D01*
X128854700Y-80841801D01*
X128854700Y-81705400D01*
X128422899Y-82137200D01*
X127559300Y-82137200D01*
X127127500Y-81705399D01*
X127127500Y-80841800D01*
X127559301Y-80410000D01*
G37*
G36*
X127559301Y-77870000D02*
G01*
X128422900Y-77870000D01*
X128854700Y-78301801D01*
X128854700Y-79165400D01*
X128422899Y-79597200D01*
X127559300Y-79597200D01*
X127127500Y-79165399D01*
X127127500Y-78301800D01*
X127559301Y-77870000D01*
G37*
G36*
X125019301Y-80410000D02*
G01*
X125882900Y-80410000D01*
X126314700Y-80841801D01*
X126314700Y-81705400D01*
X125882899Y-82137200D01*
X125019300Y-82137200D01*
X124587500Y-81705399D01*
X124587500Y-80841800D01*
X125019301Y-80410000D01*
G37*
G36*
X125019301Y-77870000D02*
G01*
X125882900Y-77870000D01*
X126314700Y-78301801D01*
X126314700Y-79165400D01*
X125882899Y-79597200D01*
X125019300Y-79597200D01*
X124587500Y-79165399D01*
X124587500Y-78301800D01*
X125019301Y-77870000D01*
G37*
G36*
X122479301Y-80410000D02*
G01*
X123342900Y-80410000D01*
X123774700Y-80841801D01*
X123774700Y-81705400D01*
X123342899Y-82137200D01*
X122479300Y-82137200D01*
X122047500Y-81705399D01*
X122047500Y-80841800D01*
X122479301Y-80410000D01*
G37*
G36*
X122479301Y-77870000D02*
G01*
X123342900Y-77870000D01*
X123774700Y-78301801D01*
X123774700Y-79165400D01*
X123342899Y-79597200D01*
X122479300Y-79597200D01*
X122047500Y-79165399D01*
X122047500Y-78301800D01*
X122479301Y-77870000D01*
G37*
G36*
X119939301Y-80410000D02*
G01*
X120802900Y-80410000D01*
X121234700Y-80841801D01*
X121234700Y-81705400D01*
X120802899Y-82137200D01*
X119939300Y-82137200D01*
X119507500Y-81705399D01*
X119507500Y-80841800D01*
X119939301Y-80410000D01*
G37*
G36*
X119939301Y-77870000D02*
G01*
X120802900Y-77870000D01*
X121234700Y-78301801D01*
X121234700Y-79165400D01*
X120802899Y-79597200D01*
X119939300Y-79597200D01*
X119507500Y-79165399D01*
X119507500Y-78301800D01*
X119939301Y-77870000D01*
G37*
G36*
X187094700Y-128701801D02*
G01*
X187094700Y-129565400D01*
X186662899Y-129997200D01*
X185799300Y-129997200D01*
X185367500Y-129565399D01*
X185367500Y-128701800D01*
X185799301Y-128270000D01*
X186662900Y-128270000D01*
X187094700Y-128701801D01*
G37*
G36*
X189634700Y-128701801D02*
G01*
X189634700Y-129565400D01*
X189202899Y-129997200D01*
X188339300Y-129997200D01*
X187907500Y-129565399D01*
X187907500Y-128701800D01*
X188339301Y-128270000D01*
X189202900Y-128270000D01*
X189634700Y-128701801D01*
G37*
G36*
X187094700Y-126161801D02*
G01*
X187094700Y-127025400D01*
X186662899Y-127457200D01*
X185799300Y-127457200D01*
X185367500Y-127025399D01*
X185367500Y-126161800D01*
X185799301Y-125730000D01*
X186662900Y-125730000D01*
X187094700Y-126161801D01*
G37*
G36*
X189634700Y-126161801D02*
G01*
X189634700Y-127025400D01*
X189202899Y-127457200D01*
X188339300Y-127457200D01*
X187907500Y-127025399D01*
X187907500Y-126161800D01*
X188339301Y-125730000D01*
X189202900Y-125730000D01*
X189634700Y-126161801D01*
G37*
G36*
X187094700Y-123621801D02*
G01*
X187094700Y-124485400D01*
X186662899Y-124917200D01*
X185799300Y-124917200D01*
X185367500Y-124485399D01*
X185367500Y-123621800D01*
X185799301Y-123190000D01*
X186662900Y-123190000D01*
X187094700Y-123621801D01*
G37*
G36*
X189634700Y-123621801D02*
G01*
X189634700Y-124485400D01*
X189202899Y-124917200D01*
X188339300Y-124917200D01*
X187907500Y-124485399D01*
X187907500Y-123621800D01*
X188339301Y-123190000D01*
X189202900Y-123190000D01*
X189634700Y-123621801D01*
G37*
G36*
X187094700Y-121081801D02*
G01*
X187094700Y-121945400D01*
X186662899Y-122377200D01*
X185799300Y-122377200D01*
X185367500Y-121945399D01*
X185367500Y-121081800D01*
X185799301Y-120650000D01*
X186662900Y-120650000D01*
X187094700Y-121081801D01*
G37*
G36*
X189634700Y-121081801D02*
G01*
X189634700Y-121945400D01*
X189202899Y-122377200D01*
X188339300Y-122377200D01*
X187907500Y-121945399D01*
X187907500Y-121081800D01*
X188339301Y-120650000D01*
X189202900Y-120650000D01*
X189634700Y-121081801D01*
G37*
G36*
X187094700Y-118541801D02*
G01*
X187094700Y-119405400D01*
X186662899Y-119837200D01*
X185799300Y-119837200D01*
X185367500Y-119405399D01*
X185367500Y-118541800D01*
X185799301Y-118110000D01*
X186662900Y-118110000D01*
X187094700Y-118541801D01*
G37*
G36*
X189634700Y-118541801D02*
G01*
X189634700Y-119405400D01*
X189202899Y-119837200D01*
X188339300Y-119837200D01*
X187907500Y-119405399D01*
X187907500Y-118541800D01*
X188339301Y-118110000D01*
X189202900Y-118110000D01*
X189634700Y-118541801D01*
G37*
G36*
X187094700Y-116001801D02*
G01*
X187094700Y-116865400D01*
X186662899Y-117297200D01*
X185799300Y-117297200D01*
X185367500Y-116865399D01*
X185367500Y-116001800D01*
X185799301Y-115570000D01*
X186662900Y-115570000D01*
X187094700Y-116001801D01*
G37*
G36*
X189634700Y-116001801D02*
G01*
X189634700Y-116865400D01*
X189202899Y-117297200D01*
X188339300Y-117297200D01*
X187907500Y-116865399D01*
X187907500Y-116001800D01*
X188339301Y-115570000D01*
X189202900Y-115570000D01*
X189634700Y-116001801D01*
G37*
G36*
X187094700Y-113461801D02*
G01*
X187094700Y-114325400D01*
X186662899Y-114757200D01*
X185799300Y-114757200D01*
X185367500Y-114325399D01*
X185367500Y-113461800D01*
X185799301Y-113030000D01*
X186662900Y-113030000D01*
X187094700Y-113461801D01*
G37*
G36*
X189634700Y-113461801D02*
G01*
X189634700Y-114325400D01*
X189202899Y-114757200D01*
X188339300Y-114757200D01*
X187907500Y-114325399D01*
X187907500Y-113461800D01*
X188339301Y-113030000D01*
X189202900Y-113030000D01*
X189634700Y-113461801D01*
G37*
G36*
X187094700Y-110921801D02*
G01*
X187094700Y-111785400D01*
X186662899Y-112217200D01*
X185799300Y-112217200D01*
X185367500Y-111785399D01*
X185367500Y-110921800D01*
X185799301Y-110490000D01*
X186662900Y-110490000D01*
X187094700Y-110921801D01*
G37*
G36*
X189634700Y-110921801D02*
G01*
X189634700Y-111785400D01*
X189202899Y-112217200D01*
X188339300Y-112217200D01*
X187907500Y-111785399D01*
X187907500Y-110921800D01*
X188339301Y-110490000D01*
X189202900Y-110490000D01*
X189634700Y-110921801D01*
G37*
G36*
X187094700Y-108381801D02*
G01*
X187094700Y-109245400D01*
X186662899Y-109677200D01*
X185799300Y-109677200D01*
X185367500Y-109245399D01*
X185367500Y-108381800D01*
X185799301Y-107950000D01*
X186662900Y-107950000D01*
X187094700Y-108381801D01*
G37*
G36*
X189634700Y-108381801D02*
G01*
X189634700Y-109245400D01*
X189202899Y-109677200D01*
X188339300Y-109677200D01*
X187907500Y-109245399D01*
X187907500Y-108381800D01*
X188339301Y-107950000D01*
X189202900Y-107950000D01*
X189634700Y-108381801D01*
G37*
G36*
X187094700Y-105841801D02*
G01*
X187094700Y-106705400D01*
X186662899Y-107137200D01*
X185799300Y-107137200D01*
X185367500Y-106705399D01*
X185367500Y-105841800D01*
X185799301Y-105410000D01*
X186662900Y-105410000D01*
X187094700Y-105841801D01*
G37*
G36*
X189634700Y-105841801D02*
G01*
X189634700Y-106705400D01*
X189202899Y-107137200D01*
X188339300Y-107137200D01*
X187907500Y-106705399D01*
X187907500Y-105841800D01*
X188339301Y-105410000D01*
X189202900Y-105410000D01*
X189634700Y-105841801D01*
G37*
G36*
X187094700Y-103301801D02*
G01*
X187094700Y-104165400D01*
X186662899Y-104597200D01*
X185799300Y-104597200D01*
X185367500Y-104165399D01*
X185367500Y-103301800D01*
X185799301Y-102870000D01*
X186662900Y-102870000D01*
X187094700Y-103301801D01*
G37*
G36*
X189634700Y-103301801D02*
G01*
X189634700Y-104165400D01*
X189202899Y-104597200D01*
X188339300Y-104597200D01*
X187907500Y-104165399D01*
X187907500Y-103301800D01*
X188339301Y-102870000D01*
X189202900Y-102870000D01*
X189634700Y-103301801D01*
G37*
G36*
X187094700Y-100761801D02*
G01*
X187094700Y-101625400D01*
X186662899Y-102057200D01*
X185799300Y-102057200D01*
X185367500Y-101625399D01*
X185367500Y-100761800D01*
X185799301Y-100330000D01*
X186662900Y-100330000D01*
X187094700Y-100761801D01*
G37*
G36*
X189634700Y-100761801D02*
G01*
X189634700Y-101625400D01*
X189202899Y-102057200D01*
X188339300Y-102057200D01*
X187907500Y-101625399D01*
X187907500Y-100761800D01*
X188339301Y-100330000D01*
X189202900Y-100330000D01*
X189634700Y-100761801D01*
G37*
G36*
X187094700Y-98221801D02*
G01*
X187094700Y-99085400D01*
X186662899Y-99517200D01*
X185799300Y-99517200D01*
X185367500Y-99085399D01*
X185367500Y-98221800D01*
X185799301Y-97790000D01*
X186662900Y-97790000D01*
X187094700Y-98221801D01*
G37*
G36*
X189634700Y-98221801D02*
G01*
X189634700Y-99085400D01*
X189202899Y-99517200D01*
X188339300Y-99517200D01*
X187907500Y-99085399D01*
X187907500Y-98221800D01*
X188339301Y-97790000D01*
X189202900Y-97790000D01*
X189634700Y-98221801D01*
G37*
G36*
X187094700Y-95681801D02*
G01*
X187094700Y-96545400D01*
X186662899Y-96977200D01*
X185799300Y-96977200D01*
X185367500Y-96545399D01*
X185367500Y-95681800D01*
X185799301Y-95250000D01*
X186662900Y-95250000D01*
X187094700Y-95681801D01*
G37*
G36*
X189634700Y-95681801D02*
G01*
X189634700Y-96545400D01*
X189202899Y-96977200D01*
X188339300Y-96977200D01*
X187907500Y-96545399D01*
X187907500Y-95681800D01*
X188339301Y-95250000D01*
X189202900Y-95250000D01*
X189634700Y-95681801D01*
G37*
G36*
X187094700Y-93141801D02*
G01*
X187094700Y-94005400D01*
X186662899Y-94437200D01*
X185799300Y-94437200D01*
X185367500Y-94005399D01*
X185367500Y-93141800D01*
X185799301Y-92710000D01*
X186662900Y-92710000D01*
X187094700Y-93141801D01*
G37*
G36*
X189634700Y-93141801D02*
G01*
X189634700Y-94005400D01*
X189202899Y-94437200D01*
X188339300Y-94437200D01*
X187907500Y-94005399D01*
X187907500Y-93141800D01*
X188339301Y-92710000D01*
X189202900Y-92710000D01*
X189634700Y-93141801D01*
G37*
G36*
X187094700Y-90601801D02*
G01*
X187094700Y-91465400D01*
X186662899Y-91897200D01*
X185799300Y-91897200D01*
X185367500Y-91465399D01*
X185367500Y-90601800D01*
X185799301Y-90170000D01*
X186662900Y-90170000D01*
X187094700Y-90601801D01*
G37*
G36*
X189634700Y-90601801D02*
G01*
X189634700Y-91465400D01*
X189202899Y-91897200D01*
X188339300Y-91897200D01*
X187907500Y-91465399D01*
X187907500Y-90601800D01*
X188339301Y-90170000D01*
X189202900Y-90170000D01*
X189634700Y-90601801D01*
G37*
G36*
X187094700Y-88061801D02*
G01*
X187094700Y-88925400D01*
X186662899Y-89357200D01*
X185799300Y-89357200D01*
X185367500Y-88925399D01*
X185367500Y-88061800D01*
X185799301Y-87630000D01*
X186662900Y-87630000D01*
X187094700Y-88061801D01*
G37*
G36*
X189634700Y-88061801D02*
G01*
X189634700Y-88925400D01*
X189202899Y-89357200D01*
X188339300Y-89357200D01*
X187907500Y-88925399D01*
X187907500Y-88061800D01*
X188339301Y-87630000D01*
X189202900Y-87630000D01*
X189634700Y-88061801D01*
G37*
G36*
X187094700Y-85521801D02*
G01*
X187094700Y-86385400D01*
X186662899Y-86817200D01*
X185799300Y-86817200D01*
X185367500Y-86385399D01*
X185367500Y-85521800D01*
X185799301Y-85090000D01*
X186662900Y-85090000D01*
X187094700Y-85521801D01*
G37*
G36*
X189634700Y-85521801D02*
G01*
X189634700Y-86385400D01*
X189202899Y-86817200D01*
X188339300Y-86817200D01*
X187907500Y-86385399D01*
X187907500Y-85521800D01*
X188339301Y-85090000D01*
X189202900Y-85090000D01*
X189634700Y-85521801D01*
G37*
G36*
X187094700Y-82981801D02*
G01*
X187094700Y-83845400D01*
X186662899Y-84277200D01*
X185799300Y-84277200D01*
X185367500Y-83845399D01*
X185367500Y-82981800D01*
X185799301Y-82550000D01*
X186662900Y-82550000D01*
X187094700Y-82981801D01*
G37*
G36*
X189634700Y-82981801D02*
G01*
X189634700Y-83845400D01*
X189202899Y-84277200D01*
X188339300Y-84277200D01*
X187907500Y-83845399D01*
X187907500Y-82981800D01*
X188339301Y-82550000D01*
X189202900Y-82550000D01*
X189634700Y-82981801D01*
G37*
G36*
X187094700Y-80441801D02*
G01*
X187094700Y-81305400D01*
X186662899Y-81737200D01*
X185799300Y-81737200D01*
X185367500Y-81305399D01*
X185367500Y-80441800D01*
X185799301Y-80010000D01*
X186662900Y-80010000D01*
X187094700Y-80441801D01*
G37*
G36*
X189634700Y-80441801D02*
G01*
X189634700Y-81305400D01*
X189202899Y-81737200D01*
X188339300Y-81737200D01*
X187907500Y-81305399D01*
X187907500Y-80441800D01*
X188339301Y-80010000D01*
X189202900Y-80010000D01*
X189634700Y-80441801D01*
G37*
G36*
X163594700Y-100651801D02*
G01*
X163594700Y-101515400D01*
X163162899Y-101947200D01*
X162299300Y-101947200D01*
X161867500Y-101515399D01*
X161867500Y-100651800D01*
X162299301Y-100220000D01*
X163162900Y-100220000D01*
X163594700Y-100651801D01*
G37*
G36*
X166134700Y-100651801D02*
G01*
X166134700Y-101515400D01*
X165702899Y-101947200D01*
X164839300Y-101947200D01*
X164407500Y-101515399D01*
X164407500Y-100651800D01*
X164839301Y-100220000D01*
X165702900Y-100220000D01*
X166134700Y-100651801D01*
G37*
G36*
X163594700Y-98111801D02*
G01*
X163594700Y-98975400D01*
X163162899Y-99407200D01*
X162299300Y-99407200D01*
X161867500Y-98975399D01*
X161867500Y-98111800D01*
X162299301Y-97680000D01*
X163162900Y-97680000D01*
X163594700Y-98111801D01*
G37*
G36*
X166134700Y-98111801D02*
G01*
X166134700Y-98975400D01*
X165702899Y-99407200D01*
X164839300Y-99407200D01*
X164407500Y-98975399D01*
X164407500Y-98111800D01*
X164839301Y-97680000D01*
X165702900Y-97680000D01*
X166134700Y-98111801D01*
G37*
G36*
X163594700Y-95571801D02*
G01*
X163594700Y-96435400D01*
X163162899Y-96867200D01*
X162299300Y-96867200D01*
X161867500Y-96435399D01*
X161867500Y-95571800D01*
X162299301Y-95140000D01*
X163162900Y-95140000D01*
X163594700Y-95571801D01*
G37*
G36*
X166134700Y-95571801D02*
G01*
X166134700Y-96435400D01*
X165702899Y-96867200D01*
X164839300Y-96867200D01*
X164407500Y-96435399D01*
X164407500Y-95571800D01*
X164839301Y-95140000D01*
X165702900Y-95140000D01*
X166134700Y-95571801D01*
G37*
G36*
X163594700Y-93031801D02*
G01*
X163594700Y-93895400D01*
X163162899Y-94327200D01*
X162299300Y-94327200D01*
X161867500Y-93895399D01*
X161867500Y-93031800D01*
X162299301Y-92600000D01*
X163162900Y-92600000D01*
X163594700Y-93031801D01*
G37*
G36*
X166134700Y-93031801D02*
G01*
X166134700Y-93895400D01*
X165702899Y-94327200D01*
X164839300Y-94327200D01*
X164407500Y-93895399D01*
X164407500Y-93031800D01*
X164839301Y-92600000D01*
X165702900Y-92600000D01*
X166134700Y-93031801D01*
G37*
G36*
X163594700Y-90491801D02*
G01*
X163594700Y-91355400D01*
X163162899Y-91787200D01*
X162299300Y-91787200D01*
X161867500Y-91355399D01*
X161867500Y-90491800D01*
X162299301Y-90060000D01*
X163162900Y-90060000D01*
X163594700Y-90491801D01*
G37*
G36*
X166134700Y-90491801D02*
G01*
X166134700Y-91355400D01*
X165702899Y-91787200D01*
X164839300Y-91787200D01*
X164407500Y-91355399D01*
X164407500Y-90491800D01*
X164839301Y-90060000D01*
X165702900Y-90060000D01*
X166134700Y-90491801D01*
G37*
G36*
X163594700Y-128651801D02*
G01*
X163594700Y-129515400D01*
X163162899Y-129947200D01*
X162299300Y-129947200D01*
X161867500Y-129515399D01*
X161867500Y-128651800D01*
X162299301Y-128220000D01*
X163162900Y-128220000D01*
X163594700Y-128651801D01*
G37*
G36*
X166134700Y-128651801D02*
G01*
X166134700Y-129515400D01*
X165702899Y-129947200D01*
X164839300Y-129947200D01*
X164407500Y-129515399D01*
X164407500Y-128651800D01*
X164839301Y-128220000D01*
X165702900Y-128220000D01*
X166134700Y-128651801D01*
G37*
G36*
X163594700Y-126111801D02*
G01*
X163594700Y-126975400D01*
X163162899Y-127407200D01*
X162299300Y-127407200D01*
X161867500Y-126975399D01*
X161867500Y-126111800D01*
X162299301Y-125680000D01*
X163162900Y-125680000D01*
X163594700Y-126111801D01*
G37*
G36*
X166134700Y-126111801D02*
G01*
X166134700Y-126975400D01*
X165702899Y-127407200D01*
X164839300Y-127407200D01*
X164407500Y-126975399D01*
X164407500Y-126111800D01*
X164839301Y-125680000D01*
X165702900Y-125680000D01*
X166134700Y-126111801D01*
G37*
G36*
X163594700Y-123571801D02*
G01*
X163594700Y-124435400D01*
X163162899Y-124867200D01*
X162299300Y-124867200D01*
X161867500Y-124435399D01*
X161867500Y-123571800D01*
X162299301Y-123140000D01*
X163162900Y-123140000D01*
X163594700Y-123571801D01*
G37*
G36*
X166134700Y-123571801D02*
G01*
X166134700Y-124435400D01*
X165702899Y-124867200D01*
X164839300Y-124867200D01*
X164407500Y-124435399D01*
X164407500Y-123571800D01*
X164839301Y-123140000D01*
X165702900Y-123140000D01*
X166134700Y-123571801D01*
G37*
G36*
X163594700Y-121031801D02*
G01*
X163594700Y-121895400D01*
X163162899Y-122327200D01*
X162299300Y-122327200D01*
X161867500Y-121895399D01*
X161867500Y-121031800D01*
X162299301Y-120600000D01*
X163162900Y-120600000D01*
X163594700Y-121031801D01*
G37*
G36*
X166134700Y-121031801D02*
G01*
X166134700Y-121895400D01*
X165702899Y-122327200D01*
X164839300Y-122327200D01*
X164407500Y-121895399D01*
X164407500Y-121031800D01*
X164839301Y-120600000D01*
X165702900Y-120600000D01*
X166134700Y-121031801D01*
G37*
G36*
X163594700Y-118491801D02*
G01*
X163594700Y-119355400D01*
X163162899Y-119787200D01*
X162299300Y-119787200D01*
X161867500Y-119355399D01*
X161867500Y-118491800D01*
X162299301Y-118060000D01*
X163162900Y-118060000D01*
X163594700Y-118491801D01*
G37*
G36*
X166134700Y-118491801D02*
G01*
X166134700Y-119355400D01*
X165702899Y-119787200D01*
X164839300Y-119787200D01*
X164407500Y-119355399D01*
X164407500Y-118491800D01*
X164839301Y-118060000D01*
X165702900Y-118060000D01*
X166134700Y-118491801D01*
G37*
D29*
X175303600Y-114048600D03*
D30*
X180103600Y-109173600D03*
X180103600Y-109823600D03*
X180103600Y-110473600D03*
X180103600Y-111123600D03*
X180103600Y-111773600D03*
X180103600Y-112423600D03*
X180103600Y-113073600D03*
X180103600Y-113723600D03*
X180103600Y-114373600D03*
X180103600Y-115023600D03*
X180103600Y-115673600D03*
X180103600Y-116323600D03*
X180103600Y-116973600D03*
X180103600Y-117623600D03*
X180103600Y-118273600D03*
X180103600Y-118923600D03*
X170503600Y-118923600D03*
X170503600Y-118273600D03*
X170503600Y-117623600D03*
X170503600Y-116973600D03*
X170503600Y-116323600D03*
X170503600Y-115673600D03*
X170503600Y-115023600D03*
X170503600Y-114373600D03*
X170503600Y-113723600D03*
X170503600Y-113073600D03*
X170503600Y-112423600D03*
X170503600Y-111773600D03*
X170503600Y-111123600D03*
X170503600Y-110473600D03*
X170503600Y-109823600D03*
X170503600Y-109173600D03*
D38*
X113232350Y-128809850D03*
X113232350Y-126909850D03*
D33*
X182503600Y-127383600D03*
X180803600Y-127383600D03*
D39*
X182703600Y-124684850D03*
X180603600Y-124684850D03*
D40*
X111231100Y-131987350D03*
X107931100Y-131987350D03*
D24*
X187343600Y-132781100D03*
X181043600Y-132781100D03*
D34*
X117518600Y-76844850D03*
X117518600Y-78544850D03*
X115454850Y-76844850D03*
X115454850Y-78544850D03*
D41*
X112756100Y-78953600D03*
X111806100Y-76753600D03*
X113706100Y-76753600D03*
D42*
X107846100Y-77536100D03*
X110046100Y-76586100D03*
X110046100Y-78486100D03*
D43*
X160215600Y-118811100D03*
X157371600Y-118811100D03*
X160215600Y-121033600D03*
X157371600Y-121033600D03*
X160215600Y-123256100D03*
X157371600Y-123256100D03*
X160215600Y-125478600D03*
X157371600Y-125478600D03*
D33*
X116622350Y-126907350D03*
X114922350Y-126907350D03*
D34*
X117359850Y-130297350D03*
X117359850Y-128597350D03*
X115296100Y-128597350D03*
X115296100Y-130297350D03*
G36*
X119901246Y-121610163D02*
G01*
X120752037Y-122460954D01*
X119830536Y-123382455D01*
X118979745Y-122531664D01*
X119901246Y-121610163D01*
G37*
G36*
X118699164Y-122812245D02*
G01*
X119549955Y-123663036D01*
X118628454Y-124584537D01*
X117777663Y-123733746D01*
X118699164Y-122812245D01*
G37*
G36*
X119365163Y-131827204D02*
G01*
X120215954Y-130976413D01*
X121137455Y-131897914D01*
X120286664Y-132748705D01*
X119365163Y-131827204D01*
G37*
G36*
X120567245Y-133029286D02*
G01*
X121418036Y-132178495D01*
X122339537Y-133099996D01*
X121488746Y-133950787D01*
X120567245Y-133029286D01*
G37*
D33*
X123177350Y-133892350D03*
X124877350Y-133892350D03*
X118209850Y-131987350D03*
X116509850Y-131987350D03*
X131227350Y-133892350D03*
X129527350Y-133892350D03*
D34*
X129527350Y-131828600D03*
X131227350Y-131828600D03*
G36*
X120850954Y-120589745D02*
G01*
X121772455Y-121511246D01*
X120921664Y-122362037D01*
X120000163Y-121440536D01*
X120850954Y-120589745D01*
G37*
G36*
X122053036Y-119387663D02*
G01*
X122974537Y-120309164D01*
X122123746Y-121159955D01*
X121202245Y-120238454D01*
X122053036Y-119387663D01*
G37*
G36*
X119422204Y-120933287D02*
G01*
X118571413Y-120082496D01*
X119492914Y-119160995D01*
X120343705Y-120011786D01*
X119422204Y-120933287D01*
G37*
G36*
X120624286Y-119731205D02*
G01*
X119773495Y-118880414D01*
X120694996Y-117958913D01*
X121545787Y-118809704D01*
X120624286Y-119731205D01*
G37*
G36*
X127234745Y-122622496D02*
G01*
X128156246Y-121700995D01*
X129007037Y-122551786D01*
X128085536Y-123473287D01*
X127234745Y-122622496D01*
G37*
G36*
X126032663Y-121420414D02*
G01*
X126954164Y-120498913D01*
X127804955Y-121349704D01*
X126883454Y-122271205D01*
X126032663Y-121420414D01*
G37*
G36*
X118919427Y-128911791D02*
G01*
X118380611Y-128372975D01*
X119422321Y-127331265D01*
X119961137Y-127870081D01*
X118919427Y-128911791D01*
G37*
G36*
X119485113Y-129477476D02*
G01*
X118946297Y-128938660D01*
X119988007Y-127896950D01*
X120526823Y-128435766D01*
X119485113Y-129477476D01*
G37*
G36*
X120050798Y-130043161D02*
G01*
X119511982Y-129504345D01*
X120553692Y-128462635D01*
X121092508Y-129001451D01*
X120050798Y-130043161D01*
G37*
G36*
X120616484Y-130608847D02*
G01*
X120077668Y-130070031D01*
X121119378Y-129028321D01*
X121658194Y-129567137D01*
X120616484Y-130608847D01*
G37*
G36*
X121182169Y-131174532D02*
G01*
X120643353Y-130635716D01*
X121685063Y-129594006D01*
X122223879Y-130132822D01*
X121182169Y-131174532D01*
G37*
G36*
X121747855Y-131740218D02*
G01*
X121209039Y-131201402D01*
X122250749Y-130159692D01*
X122789565Y-130698508D01*
X121747855Y-131740218D01*
G37*
G36*
X122313540Y-132305903D02*
G01*
X121774724Y-131767087D01*
X122816434Y-130725377D01*
X123355250Y-131264193D01*
X122313540Y-132305903D01*
G37*
G36*
X122879225Y-132871589D02*
G01*
X122340409Y-132332773D01*
X123382119Y-131291063D01*
X123920935Y-131829879D01*
X122879225Y-132871589D01*
G37*
G36*
X125492975Y-132871589D02*
G01*
X124451265Y-131829879D01*
X124990081Y-131291063D01*
X126031791Y-132332773D01*
X125492975Y-132871589D01*
G37*
G36*
X126058660Y-132305903D02*
G01*
X125016950Y-131264193D01*
X125555766Y-130725377D01*
X126597476Y-131767087D01*
X126058660Y-132305903D01*
G37*
G36*
X126624345Y-131740218D02*
G01*
X125582635Y-130698508D01*
X126121451Y-130159692D01*
X127163161Y-131201402D01*
X126624345Y-131740218D01*
G37*
G36*
X127190031Y-131174532D02*
G01*
X126148321Y-130132822D01*
X126687137Y-129594006D01*
X127728847Y-130635716D01*
X127190031Y-131174532D01*
G37*
G36*
X127755716Y-130608847D02*
G01*
X126714006Y-129567137D01*
X127252822Y-129028321D01*
X128294532Y-130070031D01*
X127755716Y-130608847D01*
G37*
G36*
X128321402Y-130043161D02*
G01*
X127279692Y-129001451D01*
X127818508Y-128462635D01*
X128860218Y-129504345D01*
X128321402Y-130043161D01*
G37*
G36*
X128887087Y-129477476D02*
G01*
X127845377Y-128435766D01*
X128384193Y-127896950D01*
X129425903Y-128938660D01*
X128887087Y-129477476D01*
G37*
G36*
X129452773Y-128911791D02*
G01*
X128411063Y-127870081D01*
X128949879Y-127331265D01*
X129991589Y-128372975D01*
X129452773Y-128911791D01*
G37*
G36*
X128949879Y-126800935D02*
G01*
X128411063Y-126262119D01*
X129452773Y-125220409D01*
X129991589Y-125759225D01*
X128949879Y-126800935D01*
G37*
G36*
X128384193Y-126235250D02*
G01*
X127845377Y-125696434D01*
X128887087Y-124654724D01*
X129425903Y-125193540D01*
X128384193Y-126235250D01*
G37*
G36*
X127818508Y-125669565D02*
G01*
X127279692Y-125130749D01*
X128321402Y-124089039D01*
X128860218Y-124627855D01*
X127818508Y-125669565D01*
G37*
G36*
X127252822Y-125103879D02*
G01*
X126714006Y-124565063D01*
X127755716Y-123523353D01*
X128294532Y-124062169D01*
X127252822Y-125103879D01*
G37*
G36*
X126687137Y-124538194D02*
G01*
X126148321Y-123999378D01*
X127190031Y-122957668D01*
X127728847Y-123496484D01*
X126687137Y-124538194D01*
G37*
G36*
X126121451Y-123972508D02*
G01*
X125582635Y-123433692D01*
X126624345Y-122391982D01*
X127163161Y-122930798D01*
X126121451Y-123972508D01*
G37*
G36*
X125555766Y-123406823D02*
G01*
X125016950Y-122868007D01*
X126058660Y-121826297D01*
X126597476Y-122365113D01*
X125555766Y-123406823D01*
G37*
G36*
X124990081Y-122841137D02*
G01*
X124451265Y-122302321D01*
X125492975Y-121260611D01*
X126031791Y-121799427D01*
X124990081Y-122841137D01*
G37*
G36*
X123382119Y-122841137D02*
G01*
X122340409Y-121799427D01*
X122879225Y-121260611D01*
X123920935Y-122302321D01*
X123382119Y-122841137D01*
G37*
G36*
X122816434Y-123406823D02*
G01*
X121774724Y-122365113D01*
X122313540Y-121826297D01*
X123355250Y-122868007D01*
X122816434Y-123406823D01*
G37*
G36*
X122250749Y-123972508D02*
G01*
X121209039Y-122930798D01*
X121747855Y-122391982D01*
X122789565Y-123433692D01*
X122250749Y-123972508D01*
G37*
G36*
X121685063Y-124538194D02*
G01*
X120643353Y-123496484D01*
X121182169Y-122957668D01*
X122223879Y-123999378D01*
X121685063Y-124538194D01*
G37*
G36*
X121119378Y-125103879D02*
G01*
X120077668Y-124062169D01*
X120616484Y-123523353D01*
X121658194Y-124565063D01*
X121119378Y-125103879D01*
G37*
G36*
X120553692Y-125669565D02*
G01*
X119511982Y-124627855D01*
X120050798Y-124089039D01*
X121092508Y-125130749D01*
X120553692Y-125669565D01*
G37*
G36*
X119988007Y-126235250D02*
G01*
X118946297Y-125193540D01*
X119485113Y-124654724D01*
X120526823Y-125696434D01*
X119988007Y-126235250D01*
G37*
G36*
X119422321Y-126800935D02*
G01*
X118380611Y-125759225D01*
X118919427Y-125220409D01*
X119961137Y-126262119D01*
X119422321Y-126800935D01*
G37*
D44*
X168956100Y-133128600D03*
X169906100Y-133128600D03*
X170856100Y-133128600D03*
X170856100Y-130528600D03*
X169906100Y-130528600D03*
X168956100Y-130528600D03*
D33*
X172446100Y-130661100D03*
X172446100Y-132361100D03*
D34*
X178637350Y-133313600D03*
X178637350Y-131613600D03*
X174509850Y-130661100D03*
X174509850Y-132361100D03*
D33*
X176573600Y-132361100D03*
X176573600Y-130661100D03*
D34*
X169373600Y-121351100D03*
X171073600Y-121351100D03*
X170008600Y-124367350D03*
X171708600Y-124367350D03*
X182503600Y-129447350D03*
X180803600Y-129447350D03*
D45*
X171882350Y-127701100D03*
X168882350Y-127701100D03*
D46*
X134663600Y-105331100D03*
X134663600Y-109431100D03*
D33*
X183876100Y-100452350D03*
X183876100Y-98752350D03*
X166833600Y-88648600D03*
X168533600Y-88648600D03*
D35*
X159263600Y-100857350D03*
X159263600Y-101507350D03*
X159263600Y-102157350D03*
X160863600Y-102157350D03*
X160863600Y-101507350D03*
X160863600Y-100857350D03*
D33*
X150277350Y-95474850D03*
X148577350Y-95474850D03*
X151967350Y-96801100D03*
X151967350Y-95101100D03*
D47*
X154288600Y-95316100D03*
X159488600Y-95316100D03*
X154288600Y-94046100D03*
X154288600Y-96586100D03*
X154288600Y-97856100D03*
X159488600Y-94046100D03*
X159488600Y-96586100D03*
X159488600Y-97856100D03*
D34*
X154246100Y-115794850D03*
X152546100Y-115794850D03*
X154768600Y-101348600D03*
X156468600Y-101348600D03*
X154292350Y-114366100D03*
X155992350Y-114366100D03*
D48*
X118413600Y-88489850D03*
X112813600Y-88489850D03*
X118413600Y-89759850D03*
X118413600Y-87219850D03*
X118413600Y-85949850D03*
X112813600Y-89759850D03*
X112813600Y-87219850D03*
X112813600Y-85949850D03*
X118413600Y-83409850D03*
X112813600Y-83409850D03*
X118413600Y-84679850D03*
X118413600Y-82139850D03*
X118413600Y-80869850D03*
X112813600Y-84679850D03*
X112813600Y-82139850D03*
X112813600Y-80869850D03*
D49*
X121953600Y-85721100D03*
X121953600Y-84921100D03*
X121953600Y-84121100D03*
X121953600Y-83321100D03*
X120703600Y-83321100D03*
X120703600Y-84121100D03*
X120703600Y-84921100D03*
X120703600Y-85721100D03*
D50*
X114184850Y-124151100D03*
X114184850Y-118551100D03*
X112914850Y-124151100D03*
X115454850Y-124151100D03*
X116724850Y-124151100D03*
X112914850Y-118551100D03*
X115454850Y-118551100D03*
X116724850Y-118551100D03*
D33*
X124979850Y-100769850D03*
X124979850Y-99069850D03*
D34*
X113811100Y-96109850D03*
X115511100Y-96109850D03*
D33*
X115874850Y-91982350D03*
X117574850Y-91982350D03*
X142544850Y-133892350D03*
X144244850Y-133892350D03*
X144244850Y-129764850D03*
X142544850Y-129764850D03*
D34*
X123289850Y-99443600D03*
X121589850Y-99443600D03*
X113811100Y-98173600D03*
X115511100Y-98173600D03*
X113811100Y-94046100D03*
X115511100Y-94046100D03*
X123448600Y-95474850D03*
X121748600Y-95474850D03*
X113811100Y-100237350D03*
X115511100Y-100237350D03*
X123289850Y-97379850D03*
X121589850Y-97379850D03*
X144244850Y-131828600D03*
X142544850Y-131828600D03*
X146887350Y-97118600D03*
X146887350Y-95418600D03*
D35*
X117988600Y-96571100D03*
X117988600Y-97221100D03*
X117988600Y-97871100D03*
X119588600Y-97871100D03*
X119588600Y-97221100D03*
X119588600Y-96571100D03*
X117988600Y-94031100D03*
X117988600Y-94681100D03*
X117988600Y-95331100D03*
X119588600Y-95331100D03*
X119588600Y-94681100D03*
X119588600Y-94031100D03*
D51*
X137738600Y-101539850D03*
X137738600Y-102039850D03*
X137738600Y-102539850D03*
X137738600Y-103039850D03*
X137738600Y-103539850D03*
X137738600Y-104039850D03*
X137738600Y-104539850D03*
X137738600Y-105039850D03*
X137738600Y-105539850D03*
X137738600Y-106039850D03*
X137738600Y-106539850D03*
X137738600Y-107039850D03*
X137738600Y-107539850D03*
X137738600Y-108039850D03*
X137738600Y-108539850D03*
X137738600Y-109039850D03*
X137738600Y-109539850D03*
X137738600Y-110039850D03*
X137738600Y-110539850D03*
X137738600Y-111039850D03*
X137738600Y-111539850D03*
X137738600Y-112039850D03*
X137738600Y-112539850D03*
X137738600Y-113039850D03*
X137738600Y-113539850D03*
D52*
X139458600Y-115259850D03*
X139958600Y-115259850D03*
X140458600Y-115259850D03*
X140958600Y-115259850D03*
X141458600Y-115259850D03*
X141958600Y-115259850D03*
X142458600Y-115259850D03*
X142958600Y-115259850D03*
X143458600Y-115259850D03*
X143958600Y-115259850D03*
X144458600Y-115259850D03*
X144958600Y-115259850D03*
X145458600Y-115259850D03*
X145958600Y-115259850D03*
X146458600Y-115259850D03*
X146958600Y-115259850D03*
X147458600Y-115259850D03*
X147958600Y-115259850D03*
X148458600Y-115259850D03*
X148958600Y-115259850D03*
X149458600Y-115259850D03*
X149958600Y-115259850D03*
X150458600Y-115259850D03*
X150958600Y-115259850D03*
X151458600Y-115259850D03*
D51*
X153178600Y-113539850D03*
X153178600Y-113039850D03*
X153178600Y-112539850D03*
X153178600Y-112039850D03*
X153178600Y-111539850D03*
X153178600Y-111039850D03*
X153178600Y-110539850D03*
X153178600Y-110039850D03*
X153178600Y-109539850D03*
X153178600Y-109039850D03*
X153178600Y-108539850D03*
X153178600Y-108039850D03*
X153178600Y-107539850D03*
X153178600Y-107039850D03*
X153178600Y-106539850D03*
X153178600Y-106039850D03*
X153178600Y-105539850D03*
X153178600Y-105039850D03*
X153178600Y-104539850D03*
X153178600Y-104039850D03*
X153178600Y-103539850D03*
X153178600Y-103039850D03*
X153178600Y-102539850D03*
X153178600Y-102039850D03*
X153178600Y-101539850D03*
D52*
X151458600Y-99819850D03*
X150958600Y-99819850D03*
X150458600Y-99819850D03*
X149958600Y-99819850D03*
X149458600Y-99819850D03*
X148958600Y-99819850D03*
X148458600Y-99819850D03*
X147958600Y-99819850D03*
X147458600Y-99819850D03*
X146958600Y-99819850D03*
X146458600Y-99819850D03*
X145958600Y-99819850D03*
X145458600Y-99819850D03*
X144958600Y-99819850D03*
X144458600Y-99819850D03*
X143958600Y-99819850D03*
X143458600Y-99819850D03*
X142958600Y-99819850D03*
X142458600Y-99819850D03*
X141958600Y-99819850D03*
X141458600Y-99819850D03*
X140958600Y-99819850D03*
X140458600Y-99819850D03*
X139958600Y-99819850D03*
X139458600Y-99819850D03*
G36*
X136668913Y-92933454D02*
G01*
X137519704Y-92082663D01*
X138441205Y-93004164D01*
X137590414Y-93854955D01*
X136668913Y-92933454D01*
G37*
G36*
X137870995Y-94135536D02*
G01*
X138721786Y-93284745D01*
X139643287Y-94206246D01*
X138792496Y-95057037D01*
X137870995Y-94135536D01*
G37*
D34*
X142862350Y-88966100D03*
X144562350Y-88966100D03*
G36*
X140697496Y-92108705D02*
G01*
X139775995Y-91187204D01*
X140626786Y-90336413D01*
X141548287Y-91257914D01*
X140697496Y-92108705D01*
G37*
G36*
X139495414Y-93310787D02*
G01*
X138573913Y-92389286D01*
X139424704Y-91538495D01*
X140346205Y-92459996D01*
X139495414Y-93310787D01*
G37*
D33*
X144562350Y-76266100D03*
X142862350Y-76266100D03*
G36*
X134662204Y-89792245D02*
G01*
X135583705Y-90713746D01*
X134732914Y-91564537D01*
X133811413Y-90643036D01*
X134662204Y-89792245D01*
G37*
G36*
X135864286Y-88590163D02*
G01*
X136785787Y-89511664D01*
X135934996Y-90362455D01*
X135013495Y-89440954D01*
X135864286Y-88590163D01*
G37*
G36*
X136090954Y-91220995D02*
G01*
X137012455Y-92142496D01*
X136161664Y-92993287D01*
X135240163Y-92071786D01*
X136090954Y-91220995D01*
G37*
G36*
X137293036Y-90018913D02*
G01*
X138214537Y-90940414D01*
X137363746Y-91791205D01*
X136442245Y-90869704D01*
X137293036Y-90018913D01*
G37*
X143656100Y-91029850D03*
X145356100Y-91029850D03*
X133926100Y-88966100D03*
X132226100Y-88966100D03*
D34*
X137838600Y-86164850D03*
X137838600Y-84464850D03*
X128313600Y-85053600D03*
X128313600Y-83353600D03*
D48*
X130276100Y-84679850D03*
X135876100Y-84679850D03*
X130276100Y-83409850D03*
X130276100Y-85949850D03*
X130276100Y-87219850D03*
X135876100Y-83409850D03*
X135876100Y-85949850D03*
X135876100Y-87219850D03*
G36*
X142126246Y-93537455D02*
G01*
X141204745Y-92615954D01*
X142055536Y-91765163D01*
X142977037Y-92686664D01*
X142126246Y-93537455D01*
G37*
G36*
X140924164Y-94739537D02*
G01*
X140002663Y-93818036D01*
X140853454Y-92967245D01*
X141774955Y-93888746D01*
X140924164Y-94739537D01*
G37*
G36*
X143554996Y-93193913D02*
G01*
X144405787Y-94044704D01*
X143484286Y-94966205D01*
X142633495Y-94115414D01*
X143554996Y-93193913D01*
G37*
G36*
X142352914Y-94395995D02*
G01*
X143203705Y-95246786D01*
X142282204Y-96168287D01*
X141431413Y-95317496D01*
X142352914Y-94395995D01*
G37*
D33*
X175560000Y-76556600D03*
X175560000Y-78256600D03*
X178735000Y-76556600D03*
X178735000Y-78256600D03*
D34*
X139052350Y-76266100D03*
X140752350Y-76266100D03*
D53*
X177526100Y-101031100D03*
D54*
X175026100Y-106031100D03*
X176026100Y-106031100D03*
X177026100Y-106031100D03*
X178026100Y-106031100D03*
X179026100Y-106031100D03*
X180026100Y-106031100D03*
X180026100Y-96031100D03*
X179026100Y-96031100D03*
X178026100Y-96031100D03*
X177026100Y-96031100D03*
X176026100Y-96031100D03*
X175026100Y-96031100D03*
D55*
X131791100Y-92038600D03*
X132441100Y-92038600D03*
X133091100Y-92038600D03*
X133091100Y-90338600D03*
X131791100Y-90338600D03*
D34*
X130909850Y-88966100D03*
X129209850Y-88966100D03*
X155936100Y-128868600D03*
X155936100Y-127168600D03*
X157999850Y-128868600D03*
X157999850Y-127168600D03*
D33*
X112858600Y-91982350D03*
X114558600Y-91982350D03*
G36*
X135424955Y-93568454D02*
G01*
X134503454Y-94489955D01*
X133652663Y-93639164D01*
X134574164Y-92717663D01*
X135424955Y-93568454D01*
G37*
G36*
X136627037Y-94770536D02*
G01*
X135705536Y-95692037D01*
X134854745Y-94841246D01*
X135776246Y-93919745D01*
X136627037Y-94770536D01*
G37*
D56*
X145084850Y-92602350D03*
X145084850Y-93252350D03*
X145084850Y-93902350D03*
X146784850Y-93902350D03*
X146784850Y-92602350D03*
D34*
X148577350Y-93252350D03*
X150277350Y-93252350D03*
D57*
X135354850Y-100569850D03*
X135354850Y-99269850D03*
X133654850Y-99269850D03*
X133654850Y-99919850D03*
X133654850Y-100569850D03*
D34*
X105771100Y-102357350D03*
X105771100Y-100657350D03*
X105771100Y-83671100D03*
X105771100Y-85371100D03*
X105771100Y-97323600D03*
X105771100Y-99023600D03*
X105771100Y-93513600D03*
X105771100Y-95213600D03*
X105700000Y-108650000D03*
X105700000Y-110350000D03*
D33*
X141909850Y-86743600D03*
X143609850Y-86743600D03*
X145878600Y-76266100D03*
X147578600Y-76266100D03*
G36*
X145949432Y-116333508D02*
G01*
X146113418Y-116393195D01*
X146259220Y-116489090D01*
X146378977Y-116616025D01*
X146466232Y-116767155D01*
X146516283Y-116934335D01*
X146527701Y-117064849D01*
X146527701Y-117064851D01*
X146507442Y-117238182D01*
X146447755Y-117402168D01*
X146351860Y-117547970D01*
X146224925Y-117667727D01*
X146073795Y-117754982D01*
X145906615Y-117805033D01*
X145776101Y-117816451D01*
X145776099Y-117816451D01*
X145602768Y-117796192D01*
X145438782Y-117736505D01*
X145292980Y-117640610D01*
X145173223Y-117513675D01*
X145085968Y-117362545D01*
X145035917Y-117195365D01*
X145024499Y-117064851D01*
X145024499Y-117064849D01*
X145044758Y-116891518D01*
X145104445Y-116727532D01*
X145200340Y-116581730D01*
X145327275Y-116461973D01*
X145478405Y-116374718D01*
X145645585Y-116324667D01*
X145776099Y-116313249D01*
X145776101Y-116313249D01*
X145949432Y-116333508D01*
G37*
D34*
X123289850Y-93252350D03*
X121589850Y-93252350D03*
X120273600Y-100554850D03*
X118573600Y-100554850D03*
X132067350Y-121192350D03*
X133767350Y-121192350D03*
X136512350Y-99443600D03*
X138212350Y-99443600D03*
D33*
X165937350Y-83671100D03*
X165937350Y-85371100D03*
X156309850Y-89601100D03*
X154609850Y-89601100D03*
G36*
X144507496Y-119413705D02*
G01*
X143585995Y-118492204D01*
X144436786Y-117641413D01*
X145358287Y-118562914D01*
X144507496Y-119413705D01*
G37*
G36*
X143305414Y-120615787D02*
G01*
X142383913Y-119694286D01*
X143234704Y-118843495D01*
X144156205Y-119764996D01*
X143305414Y-120615787D01*
G37*
M02*
