G04 #@! TF.GenerationSoftware,KiCad,Pcbnew,(5.99.0-296-g10468236c)*
G04 #@! TF.CreationDate,2020-04-10T19:10:07+02:00*
G04 #@! TF.ProjectId,kimkong,6b696d6b-6f6e-4672-9e6b-696361645f70,rev?*
G04 #@! TF.SameCoordinates,Original*
G04 #@! TF.FileFunction,Legend,Bot*
G04 #@! TF.FilePolarity,Positive*
%FSLAX46Y46*%
G04 Gerber Fmt 4.6, Leading zero omitted, Abs format (unit mm)*
G04 Created by KiCad (PCBNEW (5.99.0-296-g10468236c)) date 2020-04-10 19:10:07*
%MOMM*%
%LPD*%
G04 APERTURE LIST*
%ADD10C,0.250000*%
%ADD11C,0.152400*%
%ADD12C,0.127000*%
%ADD13C,0.200000*%
%ADD14C,0.150000*%
%ADD15C,0.203200*%
%ADD16C,0.050800*%
%ADD17C,0.101600*%
%ADD18C,2.000000*%
%ADD19R,0.902000X1.702000*%
%ADD20R,0.752000X0.852000*%
%ADD21R,1.303200X1.203200*%
%ADD22R,1.203200X1.303200*%
%ADD23R,1.703200X1.503200*%
%ADD24R,1.803200X2.003200*%
%ADD25R,2.203200X2.703200*%
%ADD26R,1.203200X1.603200*%
%ADD27R,2.006200X1.803200*%
%ADD28R,2.003200X1.803200*%
%ADD29R,1.503200X1.703200*%
%ADD30R,0.853200X0.703200*%
%ADD31R,1.203200X1.203200*%
%ADD32R,0.903200X0.603200*%
%ADD33R,0.965200X1.727200*%
%ADD34R,0.903200X1.203200*%
%ADD35R,0.603200X0.903200*%
%ADD36R,2.103200X2.603200*%
%ADD37R,0.553200X1.003200*%
%ADD38R,1.193800X0.508000*%
%ADD39R,1.003200X0.603200*%
%ADD40R,0.603200X1.003200*%
%ADD41R,0.903200X1.953200*%
%ADD42R,1.003200X1.703200*%
%ADD43R,1.203200X1.703200*%
%ADD44R,1.703200X1.203200*%
G04 APERTURE END LIST*
D10*
X183939600Y-76456600D02*
X183939600Y-76710600D01*
X184828600Y-76710600D02*
X183939600Y-76710600D01*
X184828600Y-76456600D02*
X184828600Y-76710600D01*
X183939600Y-76456600D02*
X184828600Y-76456600D01*
X183812600Y-75821600D02*
X185971600Y-75821600D01*
X183812600Y-77345600D02*
X185844600Y-77345600D01*
X176245400Y-78758000D02*
X178277400Y-78758000D01*
X176245400Y-76218000D02*
X176245400Y-78758000D01*
X178277400Y-76218000D02*
X176245400Y-76218000D01*
X178277400Y-78758000D02*
X178277400Y-76218000D01*
X138791100Y-98999100D02*
X141331100Y-98999100D01*
X138791100Y-100523100D02*
X141331100Y-100523100D01*
X154380350Y-123414850D02*
X154380350Y-120874850D01*
X155904350Y-123414850D02*
X155904350Y-120874850D01*
X164445100Y-116144100D02*
X164445100Y-113223100D01*
X166477100Y-116144100D02*
X166477100Y-113223100D01*
X153586600Y-102142350D02*
X153586600Y-99602350D01*
X155110600Y-102142350D02*
X155110600Y-99602350D01*
X164159350Y-113254850D02*
X164159350Y-115794850D01*
X162635350Y-113254850D02*
X162635350Y-115794850D01*
X160984350Y-95792350D02*
X160984350Y-98332350D01*
X159460350Y-95792350D02*
X159460350Y-98332350D01*
X158920600Y-95792350D02*
X158920600Y-98332350D01*
X157396600Y-95792350D02*
X157396600Y-98332350D01*
X152316600Y-123414850D02*
X152316600Y-120874850D01*
X153840600Y-123414850D02*
X153840600Y-120874850D01*
X161270100Y-100427850D02*
X158857100Y-100427850D01*
X158984100Y-98776850D02*
X158857100Y-98776850D01*
X161270100Y-98776850D02*
X158984100Y-98776850D01*
X158857100Y-100840600D02*
X161270100Y-100840600D01*
X161143100Y-102491600D02*
X161270100Y-102491600D01*
X158857100Y-102491600D02*
X161143100Y-102491600D01*
X155682100Y-98776850D02*
X158095100Y-98776850D01*
X157968100Y-100427850D02*
X158095100Y-100427850D01*
X155682100Y-100427850D02*
X157968100Y-100427850D01*
X158095100Y-102491600D02*
X155682100Y-102491600D01*
X155809100Y-100840600D02*
X155682100Y-100840600D01*
X158095100Y-100840600D02*
X155809100Y-100840600D01*
D11*
X107596100Y-130403600D02*
X106961100Y-129768600D01*
X106961100Y-129768600D02*
X106961100Y-128498600D01*
X106961100Y-128498600D02*
X107596100Y-127863600D01*
X107596100Y-127863600D02*
X106961100Y-127228600D01*
X106961100Y-127228600D02*
X106961100Y-125958600D01*
X106961100Y-125958600D02*
X107596100Y-125323600D01*
X107596100Y-125323600D02*
X106961100Y-124688600D01*
X106961100Y-124688600D02*
X106961100Y-123418600D01*
X106961100Y-123418600D02*
X107596100Y-122783600D01*
X107596100Y-122783600D02*
X106961100Y-122148600D01*
X106961100Y-122148600D02*
X106961100Y-120878600D01*
X106961100Y-120878600D02*
X107596100Y-120243600D01*
X107596100Y-120243600D02*
X106961100Y-119608600D01*
X106961100Y-119608600D02*
X106961100Y-118338600D01*
X106961100Y-118338600D02*
X107596100Y-117703600D01*
X107596100Y-117703600D02*
X106961100Y-117068600D01*
X106961100Y-117068600D02*
X106961100Y-115798600D01*
X106961100Y-115798600D02*
X107596100Y-115163600D01*
X107596100Y-130403600D02*
X111406100Y-130403600D01*
X111406100Y-130403600D02*
X112041100Y-129768600D01*
X112041100Y-129768600D02*
X112041100Y-128498600D01*
X112041100Y-128498600D02*
X111406100Y-127863600D01*
X111406100Y-127863600D02*
X112041100Y-127228600D01*
X112041100Y-127228600D02*
X112041100Y-125958600D01*
X112041100Y-125958600D02*
X111406100Y-125323600D01*
X111406100Y-125323600D02*
X112041100Y-124688600D01*
X112041100Y-124688600D02*
X112041100Y-123418600D01*
X112041100Y-123418600D02*
X111406100Y-122783600D01*
X111406100Y-122783600D02*
X112041100Y-122148600D01*
X112041100Y-122148600D02*
X112041100Y-120878600D01*
X112041100Y-120878600D02*
X111406100Y-120243600D01*
X111406100Y-120243600D02*
X112041100Y-119608600D01*
X112041100Y-119608600D02*
X112041100Y-118338600D01*
X112041100Y-118338600D02*
X111406100Y-117703600D01*
X111406100Y-117703600D02*
X112041100Y-117068600D01*
X112041100Y-117068600D02*
X112041100Y-115798600D01*
X112041100Y-115798600D02*
X111406100Y-115163600D01*
X111406100Y-115163600D02*
X112041100Y-114528600D01*
X112041100Y-114528600D02*
X112041100Y-113258600D01*
X112041100Y-113258600D02*
X111406100Y-112623600D01*
X111406100Y-112623600D02*
X112041100Y-111988600D01*
X112041100Y-111988600D02*
X112041100Y-110718600D01*
X112041100Y-110718600D02*
X111406100Y-110083600D01*
X111406100Y-110083600D02*
X112041100Y-109448600D01*
X112041100Y-109448600D02*
X112041100Y-108178600D01*
X112041100Y-108178600D02*
X111406100Y-107543600D01*
X111406100Y-107543600D02*
X112041100Y-106908600D01*
X112041100Y-106908600D02*
X112041100Y-105638600D01*
X112041100Y-105638600D02*
X111406100Y-105003600D01*
X111406100Y-105003600D02*
X112041100Y-104368600D01*
X112041100Y-104368600D02*
X112041100Y-103098600D01*
X112041100Y-103098600D02*
X111406100Y-102463600D01*
X111406100Y-102463600D02*
X112041100Y-101828600D01*
X112041100Y-101828600D02*
X112041100Y-100558600D01*
X111406100Y-99923600D02*
X112041100Y-100558600D01*
X111406100Y-99923600D02*
X112041100Y-99288600D01*
X112041100Y-98018600D02*
X112041100Y-99288600D01*
X112041100Y-98018600D02*
X111406100Y-97383600D01*
X111406100Y-97383600D02*
X112041100Y-96748600D01*
X112041100Y-95478600D02*
X112041100Y-96748600D01*
X112041100Y-95478600D02*
X111406100Y-94843600D01*
X111406100Y-94843600D02*
X112041100Y-94208600D01*
X112041100Y-92938600D02*
X112041100Y-94208600D01*
X112041100Y-92938600D02*
X111406100Y-92303600D01*
X111406100Y-92303600D02*
X112041100Y-91668600D01*
X112041100Y-90398600D02*
X112041100Y-91668600D01*
X112041100Y-90398600D02*
X111406100Y-89763600D01*
X111406100Y-89763600D02*
X112041100Y-89128600D01*
X112041100Y-87858600D02*
X112041100Y-89128600D01*
X112041100Y-87858600D02*
X111406100Y-87223600D01*
X111406100Y-87223600D02*
X112041100Y-86588600D01*
X112041100Y-85318600D02*
X112041100Y-86588600D01*
X112041100Y-85318600D02*
X111406100Y-84683600D01*
X111406100Y-84683600D02*
X112041100Y-84048600D01*
X112041100Y-82778600D02*
X112041100Y-84048600D01*
X112041100Y-82778600D02*
X111406100Y-82143600D01*
X107596100Y-82143600D02*
X106961100Y-82778600D01*
X106961100Y-82778600D02*
X106961100Y-84048600D01*
X107596100Y-84683600D02*
X106961100Y-84048600D01*
X107596100Y-84683600D02*
X106961100Y-85318600D01*
X106961100Y-85318600D02*
X106961100Y-86588600D01*
X107596100Y-87223600D02*
X106961100Y-86588600D01*
X107596100Y-87223600D02*
X106961100Y-87858600D01*
X106961100Y-87858600D02*
X106961100Y-89128600D01*
X107596100Y-89763600D02*
X106961100Y-89128600D01*
X107596100Y-89763600D02*
X106961100Y-90398600D01*
X106961100Y-91668600D02*
X106961100Y-90398600D01*
X106961100Y-91668600D02*
X107596100Y-92303600D01*
X107596100Y-92303600D02*
X106961100Y-92938600D01*
X106961100Y-94208600D02*
X106961100Y-92938600D01*
X106961100Y-94208600D02*
X107596100Y-94843600D01*
X107596100Y-94843600D02*
X106961100Y-95478600D01*
X106961100Y-95478600D02*
X106961100Y-96748600D01*
X107596100Y-97383600D02*
X106961100Y-96748600D01*
X107596100Y-97383600D02*
X106961100Y-98018600D01*
X106961100Y-98018600D02*
X106961100Y-99288600D01*
X107596100Y-99923600D02*
X106961100Y-99288600D01*
X107596100Y-99923600D02*
X106961100Y-100558600D01*
X106961100Y-100558600D02*
X106961100Y-101828600D01*
X107596100Y-102463600D02*
X106961100Y-101828600D01*
X107596100Y-102463600D02*
X106961100Y-103098600D01*
X106961100Y-103098600D02*
X106961100Y-104368600D01*
X107596100Y-105003600D02*
X106961100Y-104368600D01*
X107596100Y-105003600D02*
X106961100Y-105638600D01*
X106961100Y-105638600D02*
X106961100Y-106908600D01*
X107596100Y-107543600D02*
X106961100Y-106908600D01*
X107596100Y-107543600D02*
X106961100Y-108178600D01*
X106961100Y-108178600D02*
X106961100Y-109448600D01*
X107596100Y-110083600D02*
X106961100Y-109448600D01*
X107596100Y-110083600D02*
X106961100Y-110718600D01*
X106961100Y-110718600D02*
X106961100Y-111988600D01*
X107596100Y-112623600D02*
X106961100Y-111988600D01*
X107596100Y-112623600D02*
X106961100Y-113258600D01*
X106961100Y-113258600D02*
X106961100Y-114528600D01*
X107596100Y-115163600D02*
X106961100Y-114528600D01*
X111406100Y-127863600D02*
X107596100Y-127863600D01*
X111406100Y-125323600D02*
X107596100Y-125323600D01*
X111406100Y-122783600D02*
X107596100Y-122783600D01*
X111406100Y-120243600D02*
X107596100Y-120243600D01*
X111406100Y-117703600D02*
X107596100Y-117703600D01*
X111406100Y-115163600D02*
X107596100Y-115163600D01*
X111406100Y-112623600D02*
X107596100Y-112623600D01*
X111406100Y-110083600D02*
X107596100Y-110083600D01*
X111406100Y-107543600D02*
X107596100Y-107543600D01*
X111406100Y-105003600D02*
X107596100Y-105003600D01*
X111406100Y-102463600D02*
X107596100Y-102463600D01*
X111406100Y-99923600D02*
X107596100Y-99923600D01*
X111406100Y-97383600D02*
X107596100Y-97383600D01*
X111406100Y-94843600D02*
X107596100Y-94843600D01*
X111406100Y-92303600D02*
X107596100Y-92303600D01*
X111406100Y-89763600D02*
X107596100Y-89763600D01*
X111406100Y-87223600D02*
X107596100Y-87223600D01*
X111406100Y-84683600D02*
X107596100Y-84683600D01*
X111406100Y-82143600D02*
X107596100Y-82143600D01*
X111406100Y-82143600D02*
X112041100Y-81508600D01*
X112041100Y-80238600D02*
X112041100Y-81508600D01*
X112041100Y-80238600D02*
X111406100Y-79603600D01*
X107596100Y-79603600D02*
X106961100Y-80238600D01*
X106961100Y-80238600D02*
X106961100Y-81508600D01*
X107596100Y-82143600D02*
X106961100Y-81508600D01*
X111406100Y-79603600D02*
X107596100Y-79603600D01*
X169901100Y-81908600D02*
X169266100Y-82543600D01*
X169266100Y-82543600D02*
X167996100Y-82543600D01*
X167996100Y-82543600D02*
X167361100Y-81908600D01*
X167361100Y-81908600D02*
X166726100Y-82543600D01*
X166726100Y-82543600D02*
X165456100Y-82543600D01*
X165456100Y-82543600D02*
X164821100Y-81908600D01*
X164821100Y-81908600D02*
X164186100Y-82543600D01*
X164186100Y-82543600D02*
X162916100Y-82543600D01*
X162916100Y-82543600D02*
X162281100Y-81908600D01*
X162281100Y-81908600D02*
X161646100Y-82543600D01*
X161646100Y-82543600D02*
X160376100Y-82543600D01*
X160376100Y-82543600D02*
X159741100Y-81908600D01*
X159741100Y-81908600D02*
X159106100Y-82543600D01*
X159106100Y-82543600D02*
X157836100Y-82543600D01*
X157836100Y-82543600D02*
X157201100Y-81908600D01*
X157201100Y-81908600D02*
X156566100Y-82543600D01*
X156566100Y-82543600D02*
X155296100Y-82543600D01*
X155296100Y-82543600D02*
X154661100Y-81908600D01*
X169901100Y-81908600D02*
X169901100Y-78098600D01*
X169901100Y-78098600D02*
X169266100Y-77463600D01*
X169266100Y-77463600D02*
X167996100Y-77463600D01*
X167996100Y-77463600D02*
X167361100Y-78098600D01*
X167361100Y-78098600D02*
X166726100Y-77463600D01*
X166726100Y-77463600D02*
X165456100Y-77463600D01*
X165456100Y-77463600D02*
X164821100Y-78098600D01*
X164821100Y-78098600D02*
X164186100Y-77463600D01*
X164186100Y-77463600D02*
X162916100Y-77463600D01*
X162916100Y-77463600D02*
X162281100Y-78098600D01*
X162281100Y-78098600D02*
X161646100Y-77463600D01*
X161646100Y-77463600D02*
X160376100Y-77463600D01*
X160376100Y-77463600D02*
X159741100Y-78098600D01*
X159741100Y-78098600D02*
X159106100Y-77463600D01*
X159106100Y-77463600D02*
X157836100Y-77463600D01*
X157836100Y-77463600D02*
X157201100Y-78098600D01*
X157201100Y-78098600D02*
X156566100Y-77463600D01*
X156566100Y-77463600D02*
X155296100Y-77463600D01*
X155296100Y-77463600D02*
X154661100Y-78098600D01*
X154661100Y-78098600D02*
X154026100Y-77463600D01*
X154026100Y-77463600D02*
X152756100Y-77463600D01*
X152756100Y-77463600D02*
X152121100Y-78098600D01*
X152121100Y-78098600D02*
X151486100Y-77463600D01*
X151486100Y-77463600D02*
X150216100Y-77463600D01*
X150216100Y-77463600D02*
X149581100Y-78098600D01*
X149581100Y-78098600D02*
X148946100Y-77463600D01*
X148946100Y-77463600D02*
X147676100Y-77463600D01*
X147676100Y-77463600D02*
X147041100Y-78098600D01*
X147041100Y-78098600D02*
X146406100Y-77463600D01*
X146406100Y-77463600D02*
X145136100Y-77463600D01*
X145136100Y-77463600D02*
X144501100Y-78098600D01*
X144501100Y-78098600D02*
X143866100Y-77463600D01*
X143866100Y-77463600D02*
X142596100Y-77463600D01*
X142596100Y-77463600D02*
X141961100Y-78098600D01*
X141961100Y-78098600D02*
X141326100Y-77463600D01*
X141326100Y-77463600D02*
X140056100Y-77463600D01*
X139421100Y-78098600D02*
X140056100Y-77463600D01*
X139421100Y-78098600D02*
X138786100Y-77463600D01*
X137516100Y-77463600D02*
X138786100Y-77463600D01*
X137516100Y-77463600D02*
X136881100Y-78098600D01*
X136881100Y-78098600D02*
X136246100Y-77463600D01*
X134976100Y-77463600D02*
X136246100Y-77463600D01*
X134976100Y-77463600D02*
X134341100Y-78098600D01*
X134341100Y-78098600D02*
X133706100Y-77463600D01*
X132436100Y-77463600D02*
X133706100Y-77463600D01*
X132436100Y-77463600D02*
X131801100Y-78098600D01*
X131801100Y-78098600D02*
X131166100Y-77463600D01*
X129896100Y-77463600D02*
X131166100Y-77463600D01*
X129896100Y-77463600D02*
X129261100Y-78098600D01*
X129261100Y-78098600D02*
X128626100Y-77463600D01*
X127356100Y-77463600D02*
X128626100Y-77463600D01*
X127356100Y-77463600D02*
X126721100Y-78098600D01*
X126721100Y-78098600D02*
X126086100Y-77463600D01*
X124816100Y-77463600D02*
X126086100Y-77463600D01*
X124816100Y-77463600D02*
X124181100Y-78098600D01*
X124181100Y-78098600D02*
X123546100Y-77463600D01*
X122276100Y-77463600D02*
X123546100Y-77463600D01*
X122276100Y-77463600D02*
X121641100Y-78098600D01*
X121641100Y-81908600D02*
X122276100Y-82543600D01*
X122276100Y-82543600D02*
X123546100Y-82543600D01*
X124181100Y-81908600D02*
X123546100Y-82543600D01*
X124181100Y-81908600D02*
X124816100Y-82543600D01*
X124816100Y-82543600D02*
X126086100Y-82543600D01*
X126721100Y-81908600D02*
X126086100Y-82543600D01*
X126721100Y-81908600D02*
X127356100Y-82543600D01*
X127356100Y-82543600D02*
X128626100Y-82543600D01*
X129261100Y-81908600D02*
X128626100Y-82543600D01*
X129261100Y-81908600D02*
X129896100Y-82543600D01*
X131166100Y-82543600D02*
X129896100Y-82543600D01*
X131166100Y-82543600D02*
X131801100Y-81908600D01*
X131801100Y-81908600D02*
X132436100Y-82543600D01*
X133706100Y-82543600D02*
X132436100Y-82543600D01*
X133706100Y-82543600D02*
X134341100Y-81908600D01*
X134341100Y-81908600D02*
X134976100Y-82543600D01*
X134976100Y-82543600D02*
X136246100Y-82543600D01*
X136881100Y-81908600D02*
X136246100Y-82543600D01*
X136881100Y-81908600D02*
X137516100Y-82543600D01*
X137516100Y-82543600D02*
X138786100Y-82543600D01*
X139421100Y-81908600D02*
X138786100Y-82543600D01*
X139421100Y-81908600D02*
X140056100Y-82543600D01*
X140056100Y-82543600D02*
X141326100Y-82543600D01*
X141961100Y-81908600D02*
X141326100Y-82543600D01*
X141961100Y-81908600D02*
X142596100Y-82543600D01*
X142596100Y-82543600D02*
X143866100Y-82543600D01*
X144501100Y-81908600D02*
X143866100Y-82543600D01*
X144501100Y-81908600D02*
X145136100Y-82543600D01*
X145136100Y-82543600D02*
X146406100Y-82543600D01*
X147041100Y-81908600D02*
X146406100Y-82543600D01*
X147041100Y-81908600D02*
X147676100Y-82543600D01*
X147676100Y-82543600D02*
X148946100Y-82543600D01*
X149581100Y-81908600D02*
X148946100Y-82543600D01*
X149581100Y-81908600D02*
X150216100Y-82543600D01*
X150216100Y-82543600D02*
X151486100Y-82543600D01*
X152121100Y-81908600D02*
X151486100Y-82543600D01*
X152121100Y-81908600D02*
X152756100Y-82543600D01*
X152756100Y-82543600D02*
X154026100Y-82543600D01*
X154661100Y-81908600D02*
X154026100Y-82543600D01*
X167361100Y-78098600D02*
X167361100Y-81908600D01*
X164821100Y-78098600D02*
X164821100Y-81908600D01*
X162281100Y-78098600D02*
X162281100Y-81908600D01*
X159741100Y-78098600D02*
X159741100Y-81908600D01*
X157201100Y-78098600D02*
X157201100Y-81908600D01*
X154661100Y-78098600D02*
X154661100Y-81908600D01*
X152121100Y-78098600D02*
X152121100Y-81908600D01*
X149581100Y-78098600D02*
X149581100Y-81908600D01*
X147041100Y-78098600D02*
X147041100Y-81908600D01*
X144501100Y-78098600D02*
X144501100Y-81908600D01*
X141961100Y-78098600D02*
X141961100Y-81908600D01*
X139421100Y-78098600D02*
X139421100Y-81908600D01*
X136881100Y-78098600D02*
X136881100Y-81908600D01*
X134341100Y-78098600D02*
X134341100Y-81908600D01*
X131801100Y-78098600D02*
X131801100Y-81908600D01*
X129261100Y-78098600D02*
X129261100Y-81908600D01*
X126721100Y-78098600D02*
X126721100Y-81908600D01*
X124181100Y-78098600D02*
X124181100Y-81908600D01*
X121641100Y-78098600D02*
X121641100Y-81908600D01*
X121641100Y-78098600D02*
X121006100Y-77463600D01*
X119736100Y-77463600D02*
X121006100Y-77463600D01*
X119736100Y-77463600D02*
X119101100Y-78098600D01*
X119101100Y-81908600D02*
X119736100Y-82543600D01*
X119736100Y-82543600D02*
X121006100Y-82543600D01*
X121641100Y-81908600D02*
X121006100Y-82543600D01*
X119101100Y-78098600D02*
X119101100Y-81908600D01*
X185596100Y-130403600D02*
X184961100Y-129768600D01*
X184961100Y-129768600D02*
X184961100Y-128498600D01*
X184961100Y-128498600D02*
X185596100Y-127863600D01*
X185596100Y-127863600D02*
X184961100Y-127228600D01*
X184961100Y-127228600D02*
X184961100Y-125958600D01*
X184961100Y-125958600D02*
X185596100Y-125323600D01*
X185596100Y-125323600D02*
X184961100Y-124688600D01*
X184961100Y-124688600D02*
X184961100Y-123418600D01*
X184961100Y-123418600D02*
X185596100Y-122783600D01*
X185596100Y-122783600D02*
X184961100Y-122148600D01*
X184961100Y-122148600D02*
X184961100Y-120878600D01*
X184961100Y-120878600D02*
X185596100Y-120243600D01*
X185596100Y-120243600D02*
X184961100Y-119608600D01*
X184961100Y-119608600D02*
X184961100Y-118338600D01*
X184961100Y-118338600D02*
X185596100Y-117703600D01*
X185596100Y-117703600D02*
X184961100Y-117068600D01*
X184961100Y-117068600D02*
X184961100Y-115798600D01*
X184961100Y-115798600D02*
X185596100Y-115163600D01*
X185596100Y-130403600D02*
X189406100Y-130403600D01*
X189406100Y-130403600D02*
X190041100Y-129768600D01*
X190041100Y-129768600D02*
X190041100Y-128498600D01*
X190041100Y-128498600D02*
X189406100Y-127863600D01*
X189406100Y-127863600D02*
X190041100Y-127228600D01*
X190041100Y-127228600D02*
X190041100Y-125958600D01*
X190041100Y-125958600D02*
X189406100Y-125323600D01*
X189406100Y-125323600D02*
X190041100Y-124688600D01*
X190041100Y-124688600D02*
X190041100Y-123418600D01*
X190041100Y-123418600D02*
X189406100Y-122783600D01*
X189406100Y-122783600D02*
X190041100Y-122148600D01*
X190041100Y-122148600D02*
X190041100Y-120878600D01*
X190041100Y-120878600D02*
X189406100Y-120243600D01*
X189406100Y-120243600D02*
X190041100Y-119608600D01*
X190041100Y-119608600D02*
X190041100Y-118338600D01*
X190041100Y-118338600D02*
X189406100Y-117703600D01*
X189406100Y-117703600D02*
X190041100Y-117068600D01*
X190041100Y-117068600D02*
X190041100Y-115798600D01*
X190041100Y-115798600D02*
X189406100Y-115163600D01*
X189406100Y-115163600D02*
X190041100Y-114528600D01*
X190041100Y-114528600D02*
X190041100Y-113258600D01*
X190041100Y-113258600D02*
X189406100Y-112623600D01*
X189406100Y-112623600D02*
X190041100Y-111988600D01*
X190041100Y-111988600D02*
X190041100Y-110718600D01*
X190041100Y-110718600D02*
X189406100Y-110083600D01*
X189406100Y-110083600D02*
X190041100Y-109448600D01*
X190041100Y-109448600D02*
X190041100Y-108178600D01*
X190041100Y-108178600D02*
X189406100Y-107543600D01*
X189406100Y-107543600D02*
X190041100Y-106908600D01*
X190041100Y-106908600D02*
X190041100Y-105638600D01*
X190041100Y-105638600D02*
X189406100Y-105003600D01*
X189406100Y-105003600D02*
X190041100Y-104368600D01*
X190041100Y-104368600D02*
X190041100Y-103098600D01*
X190041100Y-103098600D02*
X189406100Y-102463600D01*
X189406100Y-102463600D02*
X190041100Y-101828600D01*
X190041100Y-101828600D02*
X190041100Y-100558600D01*
X189406100Y-99923600D02*
X190041100Y-100558600D01*
X189406100Y-99923600D02*
X190041100Y-99288600D01*
X190041100Y-98018600D02*
X190041100Y-99288600D01*
X190041100Y-98018600D02*
X189406100Y-97383600D01*
X189406100Y-97383600D02*
X190041100Y-96748600D01*
X190041100Y-95478600D02*
X190041100Y-96748600D01*
X190041100Y-95478600D02*
X189406100Y-94843600D01*
X189406100Y-94843600D02*
X190041100Y-94208600D01*
X190041100Y-92938600D02*
X190041100Y-94208600D01*
X190041100Y-92938600D02*
X189406100Y-92303600D01*
X189406100Y-92303600D02*
X190041100Y-91668600D01*
X190041100Y-90398600D02*
X190041100Y-91668600D01*
X190041100Y-90398600D02*
X189406100Y-89763600D01*
X189406100Y-89763600D02*
X190041100Y-89128600D01*
X190041100Y-87858600D02*
X190041100Y-89128600D01*
X190041100Y-87858600D02*
X189406100Y-87223600D01*
X189406100Y-87223600D02*
X190041100Y-86588600D01*
X190041100Y-85318600D02*
X190041100Y-86588600D01*
X190041100Y-85318600D02*
X189406100Y-84683600D01*
X189406100Y-84683600D02*
X190041100Y-84048600D01*
X190041100Y-82778600D02*
X190041100Y-84048600D01*
X190041100Y-82778600D02*
X189406100Y-82143600D01*
X185596100Y-82143600D02*
X184961100Y-82778600D01*
X184961100Y-82778600D02*
X184961100Y-84048600D01*
X185596100Y-84683600D02*
X184961100Y-84048600D01*
X185596100Y-84683600D02*
X184961100Y-85318600D01*
X184961100Y-85318600D02*
X184961100Y-86588600D01*
X185596100Y-87223600D02*
X184961100Y-86588600D01*
X185596100Y-87223600D02*
X184961100Y-87858600D01*
X184961100Y-87858600D02*
X184961100Y-89128600D01*
X185596100Y-89763600D02*
X184961100Y-89128600D01*
X185596100Y-89763600D02*
X184961100Y-90398600D01*
X184961100Y-91668600D02*
X184961100Y-90398600D01*
X184961100Y-91668600D02*
X185596100Y-92303600D01*
X185596100Y-92303600D02*
X184961100Y-92938600D01*
X184961100Y-94208600D02*
X184961100Y-92938600D01*
X184961100Y-94208600D02*
X185596100Y-94843600D01*
X185596100Y-94843600D02*
X184961100Y-95478600D01*
X184961100Y-95478600D02*
X184961100Y-96748600D01*
X185596100Y-97383600D02*
X184961100Y-96748600D01*
X185596100Y-97383600D02*
X184961100Y-98018600D01*
X184961100Y-98018600D02*
X184961100Y-99288600D01*
X185596100Y-99923600D02*
X184961100Y-99288600D01*
X185596100Y-99923600D02*
X184961100Y-100558600D01*
X184961100Y-100558600D02*
X184961100Y-101828600D01*
X185596100Y-102463600D02*
X184961100Y-101828600D01*
X185596100Y-102463600D02*
X184961100Y-103098600D01*
X184961100Y-103098600D02*
X184961100Y-104368600D01*
X185596100Y-105003600D02*
X184961100Y-104368600D01*
X185596100Y-105003600D02*
X184961100Y-105638600D01*
X184961100Y-105638600D02*
X184961100Y-106908600D01*
X185596100Y-107543600D02*
X184961100Y-106908600D01*
X185596100Y-107543600D02*
X184961100Y-108178600D01*
X184961100Y-108178600D02*
X184961100Y-109448600D01*
X185596100Y-110083600D02*
X184961100Y-109448600D01*
X185596100Y-110083600D02*
X184961100Y-110718600D01*
X184961100Y-110718600D02*
X184961100Y-111988600D01*
X185596100Y-112623600D02*
X184961100Y-111988600D01*
X185596100Y-112623600D02*
X184961100Y-113258600D01*
X184961100Y-113258600D02*
X184961100Y-114528600D01*
X185596100Y-115163600D02*
X184961100Y-114528600D01*
X189406100Y-127863600D02*
X185596100Y-127863600D01*
X189406100Y-125323600D02*
X185596100Y-125323600D01*
X189406100Y-122783600D02*
X185596100Y-122783600D01*
X189406100Y-120243600D02*
X185596100Y-120243600D01*
X189406100Y-117703600D02*
X185596100Y-117703600D01*
X189406100Y-115163600D02*
X185596100Y-115163600D01*
X189406100Y-112623600D02*
X185596100Y-112623600D01*
X189406100Y-110083600D02*
X185596100Y-110083600D01*
X189406100Y-107543600D02*
X185596100Y-107543600D01*
X189406100Y-105003600D02*
X185596100Y-105003600D01*
X189406100Y-102463600D02*
X185596100Y-102463600D01*
X189406100Y-99923600D02*
X185596100Y-99923600D01*
X189406100Y-97383600D02*
X185596100Y-97383600D01*
X189406100Y-94843600D02*
X185596100Y-94843600D01*
X189406100Y-92303600D02*
X185596100Y-92303600D01*
X189406100Y-89763600D02*
X185596100Y-89763600D01*
X189406100Y-87223600D02*
X185596100Y-87223600D01*
X189406100Y-84683600D02*
X185596100Y-84683600D01*
X189406100Y-82143600D02*
X185596100Y-82143600D01*
X189406100Y-82143600D02*
X190041100Y-81508600D01*
X190041100Y-80238600D02*
X190041100Y-81508600D01*
X190041100Y-80238600D02*
X189406100Y-79603600D01*
X185596100Y-79603600D02*
X184961100Y-80238600D01*
X184961100Y-80238600D02*
X184961100Y-81508600D01*
X185596100Y-82143600D02*
X184961100Y-81508600D01*
X189406100Y-79603600D02*
X185596100Y-79603600D01*
X162096100Y-102353600D02*
X161461100Y-101718600D01*
X161461100Y-100448600D02*
X162096100Y-99813600D01*
X162096100Y-99813600D02*
X161461100Y-99178600D01*
X161461100Y-97908600D02*
X162096100Y-97273600D01*
X162096100Y-97273600D02*
X161461100Y-96638600D01*
X161461100Y-95368600D02*
X162096100Y-94733600D01*
X162096100Y-94733600D02*
X161461100Y-94098600D01*
X161461100Y-92828600D02*
X162096100Y-92193600D01*
X162096100Y-102353600D02*
X165906100Y-102353600D01*
X165906100Y-102353600D02*
X166541100Y-101718600D01*
X166541100Y-101718600D02*
X166541100Y-100448600D01*
X166541100Y-100448600D02*
X165906100Y-99813600D01*
X165906100Y-99813600D02*
X166541100Y-99178600D01*
X166541100Y-99178600D02*
X166541100Y-97908600D01*
X166541100Y-97908600D02*
X165906100Y-97273600D01*
X165906100Y-97273600D02*
X166541100Y-96638600D01*
X166541100Y-96638600D02*
X166541100Y-95368600D01*
X166541100Y-95368600D02*
X165906100Y-94733600D01*
X165906100Y-94733600D02*
X166541100Y-94098600D01*
X166541100Y-94098600D02*
X166541100Y-92828600D01*
X166541100Y-92828600D02*
X165906100Y-92193600D01*
X165906100Y-99813600D02*
X162096100Y-99813600D01*
X165906100Y-97273600D02*
X162096100Y-97273600D01*
X165906100Y-94733600D02*
X162096100Y-94733600D01*
X165906100Y-92193600D02*
X162096100Y-92193600D01*
X161461100Y-94098600D02*
X161461100Y-92828600D01*
X161461100Y-96638600D02*
X161461100Y-95368600D01*
X161461100Y-99178600D02*
X161461100Y-97908600D01*
X161461100Y-101718600D02*
X161461100Y-100448600D01*
X162096100Y-92193600D02*
X161461100Y-91558600D01*
X161461100Y-90288600D02*
X162096100Y-89653600D01*
X165906100Y-92193600D02*
X166541100Y-91558600D01*
X166541100Y-91558600D02*
X166541100Y-90288600D01*
X166541100Y-90288600D02*
X165906100Y-89653600D01*
X165906100Y-89653600D02*
X162096100Y-89653600D01*
X161461100Y-91558600D02*
X161461100Y-90288600D01*
X162096100Y-130353600D02*
X161461100Y-129718600D01*
X161461100Y-128448600D02*
X162096100Y-127813600D01*
X162096100Y-127813600D02*
X161461100Y-127178600D01*
X161461100Y-125908600D02*
X162096100Y-125273600D01*
X162096100Y-125273600D02*
X161461100Y-124638600D01*
X161461100Y-123368600D02*
X162096100Y-122733600D01*
X162096100Y-122733600D02*
X161461100Y-122098600D01*
X161461100Y-120828600D02*
X162096100Y-120193600D01*
X162096100Y-130353600D02*
X165906100Y-130353600D01*
X165906100Y-130353600D02*
X166541100Y-129718600D01*
X166541100Y-129718600D02*
X166541100Y-128448600D01*
X166541100Y-128448600D02*
X165906100Y-127813600D01*
X165906100Y-127813600D02*
X166541100Y-127178600D01*
X166541100Y-127178600D02*
X166541100Y-125908600D01*
X166541100Y-125908600D02*
X165906100Y-125273600D01*
X165906100Y-125273600D02*
X166541100Y-124638600D01*
X166541100Y-124638600D02*
X166541100Y-123368600D01*
X166541100Y-123368600D02*
X165906100Y-122733600D01*
X165906100Y-122733600D02*
X166541100Y-122098600D01*
X166541100Y-122098600D02*
X166541100Y-120828600D01*
X166541100Y-120828600D02*
X165906100Y-120193600D01*
X165906100Y-127813600D02*
X162096100Y-127813600D01*
X165906100Y-125273600D02*
X162096100Y-125273600D01*
X165906100Y-122733600D02*
X162096100Y-122733600D01*
X165906100Y-120193600D02*
X162096100Y-120193600D01*
X161461100Y-122098600D02*
X161461100Y-120828600D01*
X161461100Y-124638600D02*
X161461100Y-123368600D01*
X161461100Y-127178600D02*
X161461100Y-125908600D01*
X161461100Y-129718600D02*
X161461100Y-128448600D01*
X162096100Y-120193600D02*
X161461100Y-119558600D01*
X161461100Y-118288600D02*
X162096100Y-117653600D01*
X165906100Y-120193600D02*
X166541100Y-119558600D01*
X166541100Y-119558600D02*
X166541100Y-118288600D01*
X166541100Y-118288600D02*
X165906100Y-117653600D01*
X165906100Y-117653600D02*
X162096100Y-117653600D01*
X161461100Y-119558600D02*
X161461100Y-118288600D01*
D10*
X181145600Y-114302600D02*
X177081600Y-114302600D01*
X181145600Y-111889600D02*
X177081600Y-111889600D01*
X171620600Y-87696100D02*
X171620600Y-90236100D01*
X170096600Y-87696100D02*
X170096600Y-90236100D01*
X172636600Y-114842350D02*
X172636600Y-112302350D01*
X174160600Y-114842350D02*
X174160600Y-112302350D01*
X172192100Y-115604350D02*
X174605100Y-115604350D01*
X174478100Y-117255350D02*
X174605100Y-117255350D01*
X172192100Y-117255350D02*
X174478100Y-117255350D01*
D12*
X153494850Y-134681100D02*
X153494850Y-130881100D01*
X153494850Y-130881100D02*
X158694850Y-130881100D01*
X158694850Y-130881100D02*
X158694850Y-134681100D01*
X158694850Y-134681100D02*
X153494850Y-134681100D01*
G36*
X157858350Y-134744600D02*
G01*
X157131350Y-134744600D01*
X157131350Y-130817600D01*
X157858350Y-130817600D01*
X157858350Y-134744600D01*
G37*
X156094850Y-133581100D02*
X156094850Y-131981100D01*
X156094850Y-131981100D02*
X157194850Y-132781100D01*
X157194850Y-132781100D02*
X156094850Y-133581100D01*
G36*
X158958350Y-134044600D02*
G01*
X158631350Y-134044600D01*
X158631350Y-131517600D01*
X158958350Y-131517600D01*
X158958350Y-134044600D01*
G37*
G36*
X153558350Y-134044600D02*
G01*
X153231350Y-134044600D01*
X153231350Y-131517600D01*
X153558350Y-131517600D01*
X153558350Y-134044600D01*
G37*
D10*
X127043600Y-126621600D02*
X129583600Y-126621600D01*
X127043600Y-128145600D02*
X129583600Y-128145600D01*
X112565600Y-113508850D02*
X112565600Y-111095850D01*
X114216600Y-111222850D02*
X114216600Y-111095850D01*
X114216600Y-113508850D02*
X114216600Y-111222850D01*
X112502100Y-114016850D02*
X114915100Y-114016850D01*
X114788100Y-115667850D02*
X114915100Y-115667850D01*
X112502100Y-115667850D02*
X114788100Y-115667850D01*
X116280350Y-111095850D02*
X116280350Y-113508850D01*
X114629350Y-113381850D02*
X114629350Y-113508850D01*
X114629350Y-111095850D02*
X114629350Y-113381850D01*
X126821350Y-132495350D02*
X124408350Y-132495350D01*
X124535350Y-130844350D02*
X124408350Y-130844350D01*
X126821350Y-130844350D02*
X124535350Y-130844350D01*
X162063850Y-132495350D02*
X159650850Y-132495350D01*
X159777850Y-130844350D02*
X159650850Y-130844350D01*
X162063850Y-130844350D02*
X159777850Y-130844350D01*
X119931600Y-83790850D02*
X119931600Y-86203850D01*
X118280600Y-86076850D02*
X118280600Y-86203850D01*
X118280600Y-83790850D02*
X118280600Y-86076850D01*
X115296100Y-85187850D02*
X117836100Y-85187850D01*
X115296100Y-86711850D02*
X117836100Y-86711850D01*
X117470508Y-80242941D02*
X115764259Y-78536692D01*
X117021495Y-77459062D02*
X116931692Y-77369259D01*
X118637941Y-79075508D02*
X117021495Y-77459062D01*
X162063850Y-134559100D02*
X159650850Y-134559100D01*
X159777850Y-132908100D02*
X159650850Y-132908100D01*
X162063850Y-132908100D02*
X159777850Y-132908100D01*
D11*
X121017450Y-85638700D02*
X121017450Y-86451500D01*
X121017450Y-86451500D02*
X121576250Y-86451500D01*
X123862250Y-86451500D02*
X123862250Y-85638700D01*
X123303450Y-86451500D02*
X123862250Y-86451500D01*
D10*
X184923850Y-99157850D02*
X184923850Y-103221850D01*
X182510850Y-99157850D02*
X182510850Y-103221850D01*
X182860100Y-99157850D02*
X182860100Y-103221850D01*
X180447100Y-99157850D02*
X180447100Y-103221850D01*
X176859350Y-92776100D02*
X174065350Y-92776100D01*
X176859350Y-90871100D02*
X174065350Y-90871100D01*
X138759350Y-105476100D02*
X138759350Y-108016100D01*
X137235350Y-105476100D02*
X137235350Y-108016100D01*
X141870850Y-98935600D02*
X144283850Y-98935600D01*
X144156850Y-100586600D02*
X144283850Y-100586600D01*
X141870850Y-100586600D02*
X144156850Y-100586600D01*
X139648350Y-103539350D02*
X142061350Y-103539350D01*
X141934350Y-105190350D02*
X142061350Y-105190350D01*
X139648350Y-105190350D02*
X141934350Y-105190350D01*
X153046850Y-99126100D02*
X153046850Y-101666100D01*
X151522850Y-99126100D02*
X151522850Y-101666100D01*
X138632350Y-114080350D02*
X141172350Y-114080350D01*
X138632350Y-115604350D02*
X141172350Y-115604350D01*
X142442350Y-112746850D02*
X139902350Y-112746850D01*
X142442350Y-111222850D02*
X139902350Y-111222850D01*
X112565600Y-79536350D02*
X112565600Y-77123350D01*
X114216600Y-77250350D02*
X114216600Y-77123350D01*
X114216600Y-79536350D02*
X114216600Y-77250350D01*
X111422600Y-78679100D02*
X109009600Y-78679100D01*
X109136600Y-77028100D02*
X109009600Y-77028100D01*
X111422600Y-77028100D02*
X109136600Y-77028100D01*
X112188339Y-82022810D02*
X113984390Y-83818861D01*
X114657909Y-79553240D02*
X112188339Y-82022810D01*
X116453960Y-81349291D02*
X114657909Y-79553240D01*
X114029291Y-83773960D02*
X116453960Y-81349291D01*
X115169100Y-90140850D02*
X115169100Y-92553850D01*
X113518100Y-92426850D02*
X113518100Y-92553850D01*
X113518100Y-90140850D02*
X113518100Y-92426850D01*
X141045350Y-130241100D02*
X141045350Y-127701100D01*
X142569350Y-130241100D02*
X142569350Y-127701100D01*
X117169350Y-107381100D02*
X117169350Y-109921100D01*
X115645350Y-107381100D02*
X115645350Y-109921100D01*
X131901350Y-124399100D02*
X129488350Y-124399100D01*
X129615350Y-122748100D02*
X129488350Y-122748100D01*
X131901350Y-122748100D02*
X129615350Y-122748100D01*
X130059850Y-124875350D02*
X132599850Y-124875350D01*
X130059850Y-126399350D02*
X132599850Y-126399350D01*
X127932600Y-124399100D02*
X125519600Y-124399100D01*
X125646600Y-122748100D02*
X125519600Y-122748100D01*
X127932600Y-122748100D02*
X125646600Y-122748100D01*
X124979850Y-120747850D02*
X127519850Y-120747850D01*
X124979850Y-122271850D02*
X127519850Y-122271850D01*
X134695350Y-124907100D02*
X134695350Y-127320100D01*
X133044350Y-127193100D02*
X133044350Y-127320100D01*
X133044350Y-124907100D02*
X133044350Y-127193100D01*
X156348850Y-116779100D02*
X153935850Y-116779100D01*
X154062850Y-115128100D02*
X153935850Y-115128100D01*
X156348850Y-115128100D02*
X154062850Y-115128100D01*
X156348850Y-119001600D02*
X153935850Y-119001600D01*
X154062850Y-117350600D02*
X153935850Y-117350600D01*
X156348850Y-117350600D02*
X154062850Y-117350600D01*
X145585600Y-102872600D02*
X145585600Y-100459600D01*
X147236600Y-100586600D02*
X147236600Y-100459600D01*
X147236600Y-102872600D02*
X147236600Y-100586600D01*
X143585350Y-106111100D02*
X143585350Y-103571100D01*
X145109350Y-106111100D02*
X145109350Y-103571100D01*
X115296100Y-93061850D02*
X112756100Y-93061850D01*
X115296100Y-96554350D02*
X115296100Y-93061850D01*
X112756100Y-96554350D02*
X115296100Y-96554350D01*
X112756100Y-93125350D02*
X112756100Y-96554350D01*
X115296100Y-96395600D02*
X112756100Y-96395600D01*
X115296100Y-99888100D02*
X115296100Y-96395600D01*
X112756100Y-99888100D02*
X115296100Y-99888100D01*
X112756100Y-96459100D02*
X112756100Y-99888100D01*
X134973009Y-84562810D02*
X136769060Y-82766759D01*
X136050640Y-85640441D02*
X137846691Y-83844390D01*
X144750390Y-86597424D02*
X143074180Y-84861657D01*
X144350031Y-83806132D02*
X144261810Y-83714776D01*
X145938020Y-85450543D02*
X144350031Y-83806132D01*
X147729192Y-90863009D02*
X149435441Y-92569258D01*
X148178205Y-93646888D02*
X148268008Y-93736691D01*
X146561759Y-92030442D02*
X148178205Y-93646888D01*
X146210640Y-92291759D02*
X148006691Y-94087810D01*
X145133009Y-93369390D02*
X146929060Y-95165441D01*
X133226759Y-86854258D02*
X134933008Y-85148009D01*
X136010638Y-86405245D02*
X136100441Y-86315442D01*
X134394192Y-88021691D02*
X136010638Y-86405245D01*
X134671691Y-84796890D02*
X132875640Y-86592941D01*
X133594060Y-83719259D02*
X131798009Y-85515310D01*
X135029192Y-91656759D02*
X136735441Y-93363008D01*
X135478205Y-94440638D02*
X135568008Y-94530441D01*
X133861759Y-92824192D02*
X135478205Y-94440638D01*
D11*
X135421781Y-89601100D02*
X140378600Y-94557919D01*
X140378600Y-94557919D02*
X145335419Y-89601100D01*
X145335419Y-89601100D02*
X140629623Y-84895304D01*
X140127577Y-84895304D02*
X135421781Y-89601100D01*
X140127577Y-84895304D02*
X140629623Y-84895304D01*
X140737800Y-85721629D02*
G75*
G03X140737800Y-85721629I-359200J0D01*
G01*
D10*
X136949600Y-95601850D02*
X139362600Y-95601850D01*
X139235600Y-97252850D02*
X139362600Y-97252850D01*
X136949600Y-97252850D02*
X139235600Y-97252850D01*
X133933350Y-96554350D02*
X136346350Y-96554350D01*
X136219350Y-98205350D02*
X136346350Y-98205350D01*
X133933350Y-98205350D02*
X136219350Y-98205350D01*
X131837850Y-98332350D02*
X131837850Y-95792350D01*
X133361850Y-98332350D02*
X133361850Y-95792350D01*
X136854350Y-131130100D02*
X136854350Y-128717100D01*
X138505350Y-128844100D02*
X138505350Y-128717100D01*
X138505350Y-131130100D02*
X138505350Y-128844100D01*
X172795510Y-83409850D02*
X173154721Y-83050640D01*
X173199622Y-83813962D02*
X172795510Y-83409850D01*
X175938600Y-86552940D02*
X175579390Y-86193729D01*
X176297810Y-86193729D02*
X175938600Y-86552940D01*
X179081690Y-83409850D02*
X178722479Y-83769060D01*
X178677578Y-83005738D02*
X179081690Y-83409850D01*
X175938600Y-80895378D02*
X175669192Y-80625971D01*
X176208008Y-80625971D02*
X175938600Y-80895378D01*
X180510600Y-83568600D02*
X180510600Y-86108600D01*
X178986600Y-83568600D02*
X178986600Y-86108600D01*
X174001850Y-86426100D02*
X174001850Y-88966100D01*
X172477850Y-86426100D02*
X172477850Y-88966100D01*
X173122810Y-86116691D02*
X171326759Y-84320640D01*
X174200441Y-85039060D02*
X172404390Y-83243009D01*
X181463100Y-79758600D02*
X181463100Y-82298600D01*
X179939100Y-79758600D02*
X179939100Y-82298600D01*
X180066100Y-79187100D02*
X181399600Y-79187100D01*
X180066100Y-75885100D02*
X180066100Y-79187100D01*
X181399600Y-75885100D02*
X180066100Y-75885100D01*
X181399600Y-79187100D02*
X181399600Y-75885100D01*
X183399850Y-79853850D02*
X182066350Y-79853850D01*
X183399850Y-83155850D02*
X183399850Y-79853850D01*
X182066350Y-83155850D02*
X183399850Y-83155850D01*
X182066350Y-79853850D02*
X182066350Y-83155850D01*
X179589850Y-90045600D02*
X177049850Y-90045600D01*
X179589850Y-88521600D02*
X177049850Y-88521600D01*
X117709100Y-128336100D02*
X117709100Y-125796100D01*
X119233100Y-128336100D02*
X119233100Y-125796100D01*
X175335350Y-106269850D02*
X175335350Y-103729850D01*
X176859350Y-106269850D02*
X176859350Y-103729850D01*
X167810600Y-97475100D02*
X167810600Y-95062100D01*
X169461600Y-95189100D02*
X169461600Y-95062100D01*
X169461600Y-97475100D02*
X169461600Y-95189100D01*
X167810600Y-100491350D02*
X167810600Y-98078350D01*
X169461600Y-98205350D02*
X169461600Y-98078350D01*
X169461600Y-100491350D02*
X169461600Y-98205350D01*
D12*
X124736100Y-128383600D02*
X123636100Y-128383600D01*
X123636100Y-126304100D02*
X125456100Y-126304100D01*
X123636100Y-128383600D02*
X123636100Y-126304100D01*
D10*
X123233600Y-124557850D02*
X125773600Y-124557850D01*
X123233600Y-126081850D02*
X125773600Y-126081850D01*
D13*
X162209900Y-112969100D02*
X149662300Y-112969100D01*
X149662300Y-112969100D02*
X149662300Y-105628500D01*
X149662300Y-105628500D02*
X162209900Y-105628500D01*
X162209900Y-105628500D02*
X162209900Y-112969100D01*
X161854300Y-112054700D02*
G75*
G03X161854300Y-112054700I-533400J0D01*
G01*
D10*
X115073850Y-108365350D02*
X112660850Y-108365350D01*
X112787850Y-106714350D02*
X112660850Y-106714350D01*
X115073850Y-106714350D02*
X112787850Y-106714350D01*
X125360850Y-128621850D02*
X127773850Y-128621850D01*
X127646850Y-130272850D02*
X127773850Y-130272850D01*
X125360850Y-130272850D02*
X127646850Y-130272850D01*
D11*
X137527850Y-120899850D02*
X140371850Y-120899850D01*
X137527850Y-119579850D02*
X137527850Y-120899850D01*
X140371850Y-119579850D02*
X137527850Y-119579850D01*
X140371850Y-120899850D02*
X140371850Y-119579850D01*
D10*
X141140600Y-120970100D02*
X141140600Y-118557100D01*
X142791600Y-118684100D02*
X142791600Y-118557100D01*
X142791600Y-120970100D02*
X142791600Y-118684100D01*
D12*
X147411100Y-104449850D02*
X147411100Y-105549850D01*
X145331600Y-105549850D02*
X145331600Y-103729850D01*
X147411100Y-105549850D02*
X145331600Y-105549850D01*
D10*
X148824100Y-112683350D02*
X148824100Y-115096350D01*
X147173100Y-114969350D02*
X147173100Y-115096350D01*
X147173100Y-112683350D02*
X147173100Y-114969350D01*
X150094100Y-121509850D02*
X150094100Y-118969850D01*
X151618100Y-121509850D02*
X151618100Y-118969850D01*
X147554100Y-121509850D02*
X147554100Y-118969850D01*
X149078100Y-121509850D02*
X149078100Y-118969850D01*
D14*
X143326100Y-107739850D02*
G75*
G03X143326100Y-107739850I-75000J0D01*
G01*
D15*
X141501100Y-107039850D02*
X141501100Y-108039850D01*
X143701100Y-108746350D02*
X143701100Y-107039850D01*
D10*
X139394350Y-110175100D02*
X139394350Y-107762100D01*
X141045350Y-107889100D02*
X141045350Y-107762100D01*
X141045350Y-110175100D02*
X141045350Y-107889100D01*
X143966350Y-110746600D02*
X141553350Y-110746600D01*
X141680350Y-109095600D02*
X141553350Y-109095600D01*
X143966350Y-109095600D02*
X141680350Y-109095600D01*
X136663850Y-103285350D02*
X134250850Y-103285350D01*
X134377850Y-101634350D02*
X134250850Y-101634350D01*
X136663850Y-101634350D02*
X134377850Y-101634350D01*
X139680100Y-103126600D02*
X137267100Y-103126600D01*
X137394100Y-101475600D02*
X137267100Y-101475600D01*
X139680100Y-101475600D02*
X137394100Y-101475600D01*
X116153350Y-91633100D02*
X118566350Y-91633100D01*
X118439350Y-93284100D02*
X118566350Y-93284100D01*
X116153350Y-93284100D02*
X118439350Y-93284100D01*
X117391600Y-88712100D02*
X117391600Y-91125100D01*
X115740600Y-90998100D02*
X115740600Y-91125100D01*
X115740600Y-88712100D02*
X115740600Y-90998100D01*
X119415509Y-90505508D02*
X121121758Y-88799259D01*
X122199388Y-90056495D02*
X122289191Y-89966692D01*
X120582942Y-91672941D02*
X122199388Y-90056495D01*
X119455350Y-87283350D02*
X119455350Y-89696350D01*
X117804350Y-89569350D02*
X117804350Y-89696350D01*
X117804350Y-87283350D02*
X117804350Y-89569350D01*
X126186350Y-99316600D02*
X123773350Y-99316600D01*
X123900350Y-97665600D02*
X123773350Y-97665600D01*
X126186350Y-97665600D02*
X123900350Y-97665600D01*
X127742100Y-100523100D02*
X130155100Y-100523100D01*
X130028100Y-102174100D02*
X130155100Y-102174100D01*
X127742100Y-102174100D02*
X130028100Y-102174100D01*
X129202600Y-98046600D02*
X126789600Y-98046600D01*
X126916600Y-96395600D02*
X126789600Y-96395600D01*
X129202600Y-96395600D02*
X126916600Y-96395600D01*
X126789600Y-98618100D02*
X129202600Y-98618100D01*
X129075600Y-100269100D02*
X129202600Y-100269100D01*
X126789600Y-100269100D02*
X129075600Y-100269100D01*
X138918100Y-131130100D02*
X138918100Y-128717100D01*
X140569100Y-128844100D02*
X140569100Y-128717100D01*
X140569100Y-131130100D02*
X140569100Y-128844100D01*
X133488850Y-129479100D02*
X131075850Y-129479100D01*
X131202850Y-127828100D02*
X131075850Y-127828100D01*
X133488850Y-127828100D02*
X131202850Y-127828100D01*
X121550850Y-122430600D02*
X123963850Y-122430600D01*
X123836850Y-124081600D02*
X123963850Y-124081600D01*
X121550850Y-124081600D02*
X123836850Y-124081600D01*
D11*
X127260874Y-93247193D02*
X123704693Y-96803374D01*
X120476326Y-93575007D02*
X123704693Y-96803374D01*
X120476326Y-93575007D02*
X124032507Y-90018826D01*
X127260874Y-93247193D02*
X124032507Y-90018826D01*
D16*
X126937585Y-93247193D02*
X123704693Y-96480085D01*
X120799615Y-93575007D02*
X123704693Y-96480085D01*
X120799615Y-93575007D02*
X124032507Y-90342115D01*
X126937585Y-93247193D02*
X124032507Y-90342115D01*
D11*
X126337377Y-93123732D02*
G75*
G03X126337377Y-93123732I-457200J0D01*
G01*
D10*
X114248350Y-102586850D02*
X116661350Y-102586850D01*
X116534350Y-104237850D02*
X116661350Y-104237850D01*
X114248350Y-104237850D02*
X116534350Y-104237850D01*
X112660850Y-104650600D02*
X115073850Y-104650600D01*
X114946850Y-106301600D02*
X115073850Y-106301600D01*
X112660850Y-106301600D02*
X114946850Y-106301600D01*
X114248350Y-100205600D02*
X116661350Y-100205600D01*
X116534350Y-101856600D02*
X116661350Y-101856600D01*
X114248350Y-101856600D02*
X116534350Y-101856600D01*
X112089350Y-103348850D02*
X112089350Y-100935850D01*
X113740350Y-101062850D02*
X113740350Y-100935850D01*
X113740350Y-103348850D02*
X113740350Y-101062850D01*
X126980100Y-106460350D02*
X124567100Y-106460350D01*
X124694100Y-104809350D02*
X124567100Y-104809350D01*
X126980100Y-104809350D02*
X124694100Y-104809350D01*
X130409100Y-103634600D02*
X130409100Y-106047600D01*
X128758100Y-105920600D02*
X128758100Y-106047600D01*
X128758100Y-103634600D02*
X128758100Y-105920600D01*
X124630600Y-102237600D02*
X124630600Y-99824600D01*
X126281600Y-99951600D02*
X126281600Y-99824600D01*
X126281600Y-102237600D02*
X126281600Y-99951600D01*
X125837100Y-102745600D02*
X128250100Y-102745600D01*
X128123100Y-104396600D02*
X128250100Y-104396600D01*
X125837100Y-104396600D02*
X128123100Y-104396600D01*
D11*
X122976400Y-99151500D02*
X122976400Y-104180700D01*
X118410800Y-104180700D02*
X122976400Y-104180700D01*
X118410800Y-104180700D02*
X118410800Y-99151500D01*
X122976400Y-99151500D02*
X118410800Y-99151500D01*
D16*
X122747800Y-99380100D02*
X122747800Y-103952100D01*
X118639400Y-103952100D02*
X122747800Y-103952100D01*
X118639400Y-103952100D02*
X118639400Y-99380100D01*
X122747800Y-99380100D02*
X118639400Y-99380100D01*
D11*
X122370000Y-100040500D02*
G75*
G03X122370000Y-100040500I-457200J0D01*
G01*
D10*
X115073850Y-110429100D02*
X112660850Y-110429100D01*
X112787850Y-108778100D02*
X112660850Y-108778100D01*
X115073850Y-108778100D02*
X112787850Y-108778100D01*
X135012850Y-114588350D02*
X135012850Y-117001350D01*
X133361850Y-116874350D02*
X133361850Y-117001350D01*
X133361850Y-114588350D02*
X133361850Y-116874350D01*
X131298100Y-117001350D02*
X131298100Y-114588350D01*
X132949100Y-114715350D02*
X132949100Y-114588350D01*
X132949100Y-117001350D02*
X132949100Y-114715350D01*
X136822600Y-124399100D02*
X134409600Y-124399100D01*
X134536600Y-122748100D02*
X134409600Y-122748100D01*
X136822600Y-122748100D02*
X134536600Y-122748100D01*
X139838850Y-124399100D02*
X137425850Y-124399100D01*
X137552850Y-122748100D02*
X137425850Y-122748100D01*
X139838850Y-122748100D02*
X137552850Y-122748100D01*
X129615350Y-116493350D02*
X129615350Y-118906350D01*
X127964350Y-118779350D02*
X127964350Y-118906350D01*
X127964350Y-116493350D02*
X127964350Y-118779350D01*
X124567100Y-116556850D02*
X126980100Y-116556850D01*
X126853100Y-118207850D02*
X126980100Y-118207850D01*
X124567100Y-118207850D02*
X126853100Y-118207850D01*
X129615350Y-119509600D02*
X129615350Y-121922600D01*
X127964350Y-121795600D02*
X127964350Y-121922600D01*
X127964350Y-119509600D02*
X127964350Y-121795600D01*
X125043350Y-118620600D02*
X127456350Y-118620600D01*
X127329350Y-120271600D02*
X127456350Y-120271600D01*
X125043350Y-120271600D02*
X127329350Y-120271600D01*
D11*
X131110800Y-122595700D02*
X131110800Y-117566500D01*
X135676400Y-117566500D02*
X131110800Y-117566500D01*
X135676400Y-117566500D02*
X135676400Y-122595700D01*
X131110800Y-122595700D02*
X135676400Y-122595700D01*
D16*
X131339400Y-122367100D02*
X131339400Y-117795100D01*
X135447800Y-117795100D02*
X131339400Y-117795100D01*
X135447800Y-117795100D02*
X135447800Y-122367100D01*
X131339400Y-122367100D02*
X135447800Y-122367100D01*
D11*
X132631600Y-121706700D02*
G75*
G03X132631600Y-121706700I-457200J0D01*
G01*
D10*
X119296600Y-107444600D02*
X119296600Y-109857600D01*
X117645600Y-109730600D02*
X117645600Y-109857600D01*
X117645600Y-107444600D02*
X117645600Y-109730600D01*
D14*
X118848600Y-111943600D02*
G75*
G03X118848600Y-111943600I-75000J0D01*
G01*
D15*
X120523600Y-112643600D02*
X120523600Y-111643600D01*
X118323600Y-110937100D02*
X118323600Y-112643600D01*
D10*
X123487600Y-113762850D02*
X121074600Y-113762850D01*
X121201600Y-112111850D02*
X121074600Y-112111850D01*
X123487600Y-112111850D02*
X121201600Y-112111850D01*
X121074600Y-110048100D02*
X123487600Y-110048100D01*
X123360600Y-111699100D02*
X123487600Y-111699100D01*
X121074600Y-111699100D02*
X123360600Y-111699100D01*
D14*
X145918600Y-109192350D02*
G75*
G03X145918600Y-109192350I-75000J0D01*
G01*
D15*
X144887100Y-109492350D02*
X146643600Y-109492350D01*
X146643600Y-107492350D02*
X145543600Y-107492350D01*
D14*
X120068600Y-108242350D02*
G75*
G03X120068600Y-108242350I-75000J0D01*
G01*
D15*
X119693600Y-107285850D02*
X119693600Y-109042350D01*
X121693600Y-109042350D02*
X121693600Y-107942350D01*
D10*
X122122350Y-107412850D02*
X124662350Y-107412850D01*
X122122350Y-108936850D02*
X124662350Y-108936850D01*
G36*
X180066100Y-125506100D02*
G01*
X171566100Y-125506100D01*
X171566100Y-123506100D01*
X180066100Y-123506100D01*
X180066100Y-125506100D01*
G37*
G36*
X177466100Y-121906100D02*
G01*
X174966100Y-121906100D01*
X174966100Y-119906100D01*
X177466100Y-119906100D01*
X177466100Y-121906100D01*
G37*
X167175600Y-120017600D02*
X167175600Y-117604600D01*
X168826600Y-117731600D02*
X168826600Y-117604600D01*
X168826600Y-120017600D02*
X168826600Y-117731600D01*
D17*
X147421052Y-115848794D02*
X147995576Y-116250961D01*
X147421052Y-116538223D02*
X148627552Y-116538223D01*
X148627552Y-116078604D01*
X148570100Y-115963699D01*
X148512647Y-115906247D01*
X148397742Y-115848794D01*
X148225385Y-115848794D01*
X148110480Y-115906247D01*
X148053028Y-115963699D01*
X147995576Y-116078604D01*
X147995576Y-116538223D01*
X148627552Y-115446628D02*
X148627552Y-114642294D01*
X147421052Y-115159366D01*
X148512647Y-114240128D02*
X148570100Y-114182675D01*
X148627552Y-114067770D01*
X148627552Y-113780509D01*
X148570100Y-113665604D01*
X148512647Y-113608151D01*
X148397742Y-113550699D01*
X148282838Y-113550699D01*
X148110480Y-113608151D01*
X147421052Y-114297580D01*
X147421052Y-113550699D01*
%LPC*%
D18*
X151509975Y-131000000D02*
G75*
G03X151509975Y-131000000I-2009975J0D01*
G01*
X151509975Y-88500000D02*
G75*
G03X151509975Y-88500000I-2009975J0D01*
G01*
D19*
X186528600Y-76583600D03*
X183128600Y-76583600D03*
D20*
X177761400Y-78188000D03*
X177761400Y-76788000D03*
X176761400Y-78188000D03*
X176761400Y-76788000D03*
D21*
X139211100Y-99761100D03*
X140911100Y-99761100D03*
D22*
X155142350Y-122994850D03*
X155142350Y-121294850D03*
D23*
X165461100Y-115633600D03*
X165461100Y-113733600D03*
D22*
X154348600Y-101722350D03*
X154348600Y-100022350D03*
X163397350Y-113674850D03*
X163397350Y-115374850D03*
X160222350Y-96212350D03*
X160222350Y-97912350D03*
X158158600Y-96212350D03*
X158158600Y-97912350D03*
X153078600Y-122994850D03*
X153078600Y-121294850D03*
X159213600Y-99602350D03*
X160913600Y-99602350D03*
X160913600Y-101666100D03*
X159213600Y-101666100D03*
X157738600Y-99602350D03*
X156038600Y-99602350D03*
X156038600Y-101666100D03*
X157738600Y-101666100D03*
G36*
X109094700Y-128701801D02*
G01*
X109094700Y-129565400D01*
X108662899Y-129997200D01*
X107799300Y-129997200D01*
X107367500Y-129565399D01*
X107367500Y-128701800D01*
X107799301Y-128270000D01*
X108662900Y-128270000D01*
X109094700Y-128701801D01*
G37*
G36*
X111634700Y-128701801D02*
G01*
X111634700Y-129565400D01*
X111202899Y-129997200D01*
X110339300Y-129997200D01*
X109907500Y-129565399D01*
X109907500Y-128701800D01*
X110339301Y-128270000D01*
X111202900Y-128270000D01*
X111634700Y-128701801D01*
G37*
G36*
X109094700Y-126161801D02*
G01*
X109094700Y-127025400D01*
X108662899Y-127457200D01*
X107799300Y-127457200D01*
X107367500Y-127025399D01*
X107367500Y-126161800D01*
X107799301Y-125730000D01*
X108662900Y-125730000D01*
X109094700Y-126161801D01*
G37*
G36*
X111634700Y-126161801D02*
G01*
X111634700Y-127025400D01*
X111202899Y-127457200D01*
X110339300Y-127457200D01*
X109907500Y-127025399D01*
X109907500Y-126161800D01*
X110339301Y-125730000D01*
X111202900Y-125730000D01*
X111634700Y-126161801D01*
G37*
G36*
X109094700Y-123621801D02*
G01*
X109094700Y-124485400D01*
X108662899Y-124917200D01*
X107799300Y-124917200D01*
X107367500Y-124485399D01*
X107367500Y-123621800D01*
X107799301Y-123190000D01*
X108662900Y-123190000D01*
X109094700Y-123621801D01*
G37*
G36*
X111634700Y-123621801D02*
G01*
X111634700Y-124485400D01*
X111202899Y-124917200D01*
X110339300Y-124917200D01*
X109907500Y-124485399D01*
X109907500Y-123621800D01*
X110339301Y-123190000D01*
X111202900Y-123190000D01*
X111634700Y-123621801D01*
G37*
G36*
X109094700Y-121081801D02*
G01*
X109094700Y-121945400D01*
X108662899Y-122377200D01*
X107799300Y-122377200D01*
X107367500Y-121945399D01*
X107367500Y-121081800D01*
X107799301Y-120650000D01*
X108662900Y-120650000D01*
X109094700Y-121081801D01*
G37*
G36*
X111634700Y-121081801D02*
G01*
X111634700Y-121945400D01*
X111202899Y-122377200D01*
X110339300Y-122377200D01*
X109907500Y-121945399D01*
X109907500Y-121081800D01*
X110339301Y-120650000D01*
X111202900Y-120650000D01*
X111634700Y-121081801D01*
G37*
G36*
X109094700Y-118541801D02*
G01*
X109094700Y-119405400D01*
X108662899Y-119837200D01*
X107799300Y-119837200D01*
X107367500Y-119405399D01*
X107367500Y-118541800D01*
X107799301Y-118110000D01*
X108662900Y-118110000D01*
X109094700Y-118541801D01*
G37*
G36*
X111634700Y-118541801D02*
G01*
X111634700Y-119405400D01*
X111202899Y-119837200D01*
X110339300Y-119837200D01*
X109907500Y-119405399D01*
X109907500Y-118541800D01*
X110339301Y-118110000D01*
X111202900Y-118110000D01*
X111634700Y-118541801D01*
G37*
G36*
X109094700Y-116001801D02*
G01*
X109094700Y-116865400D01*
X108662899Y-117297200D01*
X107799300Y-117297200D01*
X107367500Y-116865399D01*
X107367500Y-116001800D01*
X107799301Y-115570000D01*
X108662900Y-115570000D01*
X109094700Y-116001801D01*
G37*
G36*
X111634700Y-116001801D02*
G01*
X111634700Y-116865400D01*
X111202899Y-117297200D01*
X110339300Y-117297200D01*
X109907500Y-116865399D01*
X109907500Y-116001800D01*
X110339301Y-115570000D01*
X111202900Y-115570000D01*
X111634700Y-116001801D01*
G37*
G36*
X109094700Y-113461801D02*
G01*
X109094700Y-114325400D01*
X108662899Y-114757200D01*
X107799300Y-114757200D01*
X107367500Y-114325399D01*
X107367500Y-113461800D01*
X107799301Y-113030000D01*
X108662900Y-113030000D01*
X109094700Y-113461801D01*
G37*
G36*
X111634700Y-113461801D02*
G01*
X111634700Y-114325400D01*
X111202899Y-114757200D01*
X110339300Y-114757200D01*
X109907500Y-114325399D01*
X109907500Y-113461800D01*
X110339301Y-113030000D01*
X111202900Y-113030000D01*
X111634700Y-113461801D01*
G37*
G36*
X109094700Y-110921801D02*
G01*
X109094700Y-111785400D01*
X108662899Y-112217200D01*
X107799300Y-112217200D01*
X107367500Y-111785399D01*
X107367500Y-110921800D01*
X107799301Y-110490000D01*
X108662900Y-110490000D01*
X109094700Y-110921801D01*
G37*
G36*
X111634700Y-110921801D02*
G01*
X111634700Y-111785400D01*
X111202899Y-112217200D01*
X110339300Y-112217200D01*
X109907500Y-111785399D01*
X109907500Y-110921800D01*
X110339301Y-110490000D01*
X111202900Y-110490000D01*
X111634700Y-110921801D01*
G37*
G36*
X109094700Y-108381801D02*
G01*
X109094700Y-109245400D01*
X108662899Y-109677200D01*
X107799300Y-109677200D01*
X107367500Y-109245399D01*
X107367500Y-108381800D01*
X107799301Y-107950000D01*
X108662900Y-107950000D01*
X109094700Y-108381801D01*
G37*
G36*
X111634700Y-108381801D02*
G01*
X111634700Y-109245400D01*
X111202899Y-109677200D01*
X110339300Y-109677200D01*
X109907500Y-109245399D01*
X109907500Y-108381800D01*
X110339301Y-107950000D01*
X111202900Y-107950000D01*
X111634700Y-108381801D01*
G37*
G36*
X109094700Y-105841801D02*
G01*
X109094700Y-106705400D01*
X108662899Y-107137200D01*
X107799300Y-107137200D01*
X107367500Y-106705399D01*
X107367500Y-105841800D01*
X107799301Y-105410000D01*
X108662900Y-105410000D01*
X109094700Y-105841801D01*
G37*
G36*
X111634700Y-105841801D02*
G01*
X111634700Y-106705400D01*
X111202899Y-107137200D01*
X110339300Y-107137200D01*
X109907500Y-106705399D01*
X109907500Y-105841800D01*
X110339301Y-105410000D01*
X111202900Y-105410000D01*
X111634700Y-105841801D01*
G37*
G36*
X109094700Y-103301801D02*
G01*
X109094700Y-104165400D01*
X108662899Y-104597200D01*
X107799300Y-104597200D01*
X107367500Y-104165399D01*
X107367500Y-103301800D01*
X107799301Y-102870000D01*
X108662900Y-102870000D01*
X109094700Y-103301801D01*
G37*
G36*
X111634700Y-103301801D02*
G01*
X111634700Y-104165400D01*
X111202899Y-104597200D01*
X110339300Y-104597200D01*
X109907500Y-104165399D01*
X109907500Y-103301800D01*
X110339301Y-102870000D01*
X111202900Y-102870000D01*
X111634700Y-103301801D01*
G37*
G36*
X109094700Y-100761801D02*
G01*
X109094700Y-101625400D01*
X108662899Y-102057200D01*
X107799300Y-102057200D01*
X107367500Y-101625399D01*
X107367500Y-100761800D01*
X107799301Y-100330000D01*
X108662900Y-100330000D01*
X109094700Y-100761801D01*
G37*
G36*
X111634700Y-100761801D02*
G01*
X111634700Y-101625400D01*
X111202899Y-102057200D01*
X110339300Y-102057200D01*
X109907500Y-101625399D01*
X109907500Y-100761800D01*
X110339301Y-100330000D01*
X111202900Y-100330000D01*
X111634700Y-100761801D01*
G37*
G36*
X109094700Y-98221801D02*
G01*
X109094700Y-99085400D01*
X108662899Y-99517200D01*
X107799300Y-99517200D01*
X107367500Y-99085399D01*
X107367500Y-98221800D01*
X107799301Y-97790000D01*
X108662900Y-97790000D01*
X109094700Y-98221801D01*
G37*
G36*
X111634700Y-98221801D02*
G01*
X111634700Y-99085400D01*
X111202899Y-99517200D01*
X110339300Y-99517200D01*
X109907500Y-99085399D01*
X109907500Y-98221800D01*
X110339301Y-97790000D01*
X111202900Y-97790000D01*
X111634700Y-98221801D01*
G37*
G36*
X109094700Y-95681801D02*
G01*
X109094700Y-96545400D01*
X108662899Y-96977200D01*
X107799300Y-96977200D01*
X107367500Y-96545399D01*
X107367500Y-95681800D01*
X107799301Y-95250000D01*
X108662900Y-95250000D01*
X109094700Y-95681801D01*
G37*
G36*
X111634700Y-95681801D02*
G01*
X111634700Y-96545400D01*
X111202899Y-96977200D01*
X110339300Y-96977200D01*
X109907500Y-96545399D01*
X109907500Y-95681800D01*
X110339301Y-95250000D01*
X111202900Y-95250000D01*
X111634700Y-95681801D01*
G37*
G36*
X109094700Y-93141801D02*
G01*
X109094700Y-94005400D01*
X108662899Y-94437200D01*
X107799300Y-94437200D01*
X107367500Y-94005399D01*
X107367500Y-93141800D01*
X107799301Y-92710000D01*
X108662900Y-92710000D01*
X109094700Y-93141801D01*
G37*
G36*
X111634700Y-93141801D02*
G01*
X111634700Y-94005400D01*
X111202899Y-94437200D01*
X110339300Y-94437200D01*
X109907500Y-94005399D01*
X109907500Y-93141800D01*
X110339301Y-92710000D01*
X111202900Y-92710000D01*
X111634700Y-93141801D01*
G37*
G36*
X109094700Y-90601801D02*
G01*
X109094700Y-91465400D01*
X108662899Y-91897200D01*
X107799300Y-91897200D01*
X107367500Y-91465399D01*
X107367500Y-90601800D01*
X107799301Y-90170000D01*
X108662900Y-90170000D01*
X109094700Y-90601801D01*
G37*
G36*
X111634700Y-90601801D02*
G01*
X111634700Y-91465400D01*
X111202899Y-91897200D01*
X110339300Y-91897200D01*
X109907500Y-91465399D01*
X109907500Y-90601800D01*
X110339301Y-90170000D01*
X111202900Y-90170000D01*
X111634700Y-90601801D01*
G37*
G36*
X109094700Y-88061801D02*
G01*
X109094700Y-88925400D01*
X108662899Y-89357200D01*
X107799300Y-89357200D01*
X107367500Y-88925399D01*
X107367500Y-88061800D01*
X107799301Y-87630000D01*
X108662900Y-87630000D01*
X109094700Y-88061801D01*
G37*
G36*
X111634700Y-88061801D02*
G01*
X111634700Y-88925400D01*
X111202899Y-89357200D01*
X110339300Y-89357200D01*
X109907500Y-88925399D01*
X109907500Y-88061800D01*
X110339301Y-87630000D01*
X111202900Y-87630000D01*
X111634700Y-88061801D01*
G37*
G36*
X109094700Y-85521801D02*
G01*
X109094700Y-86385400D01*
X108662899Y-86817200D01*
X107799300Y-86817200D01*
X107367500Y-86385399D01*
X107367500Y-85521800D01*
X107799301Y-85090000D01*
X108662900Y-85090000D01*
X109094700Y-85521801D01*
G37*
G36*
X111634700Y-85521801D02*
G01*
X111634700Y-86385400D01*
X111202899Y-86817200D01*
X110339300Y-86817200D01*
X109907500Y-86385399D01*
X109907500Y-85521800D01*
X110339301Y-85090000D01*
X111202900Y-85090000D01*
X111634700Y-85521801D01*
G37*
G36*
X109094700Y-82981801D02*
G01*
X109094700Y-83845400D01*
X108662899Y-84277200D01*
X107799300Y-84277200D01*
X107367500Y-83845399D01*
X107367500Y-82981800D01*
X107799301Y-82550000D01*
X108662900Y-82550000D01*
X109094700Y-82981801D01*
G37*
G36*
X111634700Y-82981801D02*
G01*
X111634700Y-83845400D01*
X111202899Y-84277200D01*
X110339300Y-84277200D01*
X109907500Y-83845399D01*
X109907500Y-82981800D01*
X110339301Y-82550000D01*
X111202900Y-82550000D01*
X111634700Y-82981801D01*
G37*
G36*
X109094700Y-80441801D02*
G01*
X109094700Y-81305400D01*
X108662899Y-81737200D01*
X107799300Y-81737200D01*
X107367500Y-81305399D01*
X107367500Y-80441800D01*
X107799301Y-80010000D01*
X108662900Y-80010000D01*
X109094700Y-80441801D01*
G37*
G36*
X111634700Y-80441801D02*
G01*
X111634700Y-81305400D01*
X111202899Y-81737200D01*
X110339300Y-81737200D01*
X109907500Y-81305399D01*
X109907500Y-80441800D01*
X110339301Y-80010000D01*
X111202900Y-80010000D01*
X111634700Y-80441801D01*
G37*
G36*
X168199301Y-80410000D02*
G01*
X169062900Y-80410000D01*
X169494700Y-80841801D01*
X169494700Y-81705400D01*
X169062899Y-82137200D01*
X168199300Y-82137200D01*
X167767500Y-81705399D01*
X167767500Y-80841800D01*
X168199301Y-80410000D01*
G37*
G36*
X168199301Y-77870000D02*
G01*
X169062900Y-77870000D01*
X169494700Y-78301801D01*
X169494700Y-79165400D01*
X169062899Y-79597200D01*
X168199300Y-79597200D01*
X167767500Y-79165399D01*
X167767500Y-78301800D01*
X168199301Y-77870000D01*
G37*
G36*
X165659301Y-80410000D02*
G01*
X166522900Y-80410000D01*
X166954700Y-80841801D01*
X166954700Y-81705400D01*
X166522899Y-82137200D01*
X165659300Y-82137200D01*
X165227500Y-81705399D01*
X165227500Y-80841800D01*
X165659301Y-80410000D01*
G37*
G36*
X165659301Y-77870000D02*
G01*
X166522900Y-77870000D01*
X166954700Y-78301801D01*
X166954700Y-79165400D01*
X166522899Y-79597200D01*
X165659300Y-79597200D01*
X165227500Y-79165399D01*
X165227500Y-78301800D01*
X165659301Y-77870000D01*
G37*
G36*
X163119301Y-80410000D02*
G01*
X163982900Y-80410000D01*
X164414700Y-80841801D01*
X164414700Y-81705400D01*
X163982899Y-82137200D01*
X163119300Y-82137200D01*
X162687500Y-81705399D01*
X162687500Y-80841800D01*
X163119301Y-80410000D01*
G37*
G36*
X163119301Y-77870000D02*
G01*
X163982900Y-77870000D01*
X164414700Y-78301801D01*
X164414700Y-79165400D01*
X163982899Y-79597200D01*
X163119300Y-79597200D01*
X162687500Y-79165399D01*
X162687500Y-78301800D01*
X163119301Y-77870000D01*
G37*
G36*
X160579301Y-80410000D02*
G01*
X161442900Y-80410000D01*
X161874700Y-80841801D01*
X161874700Y-81705400D01*
X161442899Y-82137200D01*
X160579300Y-82137200D01*
X160147500Y-81705399D01*
X160147500Y-80841800D01*
X160579301Y-80410000D01*
G37*
G36*
X160579301Y-77870000D02*
G01*
X161442900Y-77870000D01*
X161874700Y-78301801D01*
X161874700Y-79165400D01*
X161442899Y-79597200D01*
X160579300Y-79597200D01*
X160147500Y-79165399D01*
X160147500Y-78301800D01*
X160579301Y-77870000D01*
G37*
G36*
X158039301Y-80410000D02*
G01*
X158902900Y-80410000D01*
X159334700Y-80841801D01*
X159334700Y-81705400D01*
X158902899Y-82137200D01*
X158039300Y-82137200D01*
X157607500Y-81705399D01*
X157607500Y-80841800D01*
X158039301Y-80410000D01*
G37*
G36*
X158039301Y-77870000D02*
G01*
X158902900Y-77870000D01*
X159334700Y-78301801D01*
X159334700Y-79165400D01*
X158902899Y-79597200D01*
X158039300Y-79597200D01*
X157607500Y-79165399D01*
X157607500Y-78301800D01*
X158039301Y-77870000D01*
G37*
G36*
X155499301Y-80410000D02*
G01*
X156362900Y-80410000D01*
X156794700Y-80841801D01*
X156794700Y-81705400D01*
X156362899Y-82137200D01*
X155499300Y-82137200D01*
X155067500Y-81705399D01*
X155067500Y-80841800D01*
X155499301Y-80410000D01*
G37*
G36*
X155499301Y-77870000D02*
G01*
X156362900Y-77870000D01*
X156794700Y-78301801D01*
X156794700Y-79165400D01*
X156362899Y-79597200D01*
X155499300Y-79597200D01*
X155067500Y-79165399D01*
X155067500Y-78301800D01*
X155499301Y-77870000D01*
G37*
G36*
X152959301Y-80410000D02*
G01*
X153822900Y-80410000D01*
X154254700Y-80841801D01*
X154254700Y-81705400D01*
X153822899Y-82137200D01*
X152959300Y-82137200D01*
X152527500Y-81705399D01*
X152527500Y-80841800D01*
X152959301Y-80410000D01*
G37*
G36*
X152959301Y-77870000D02*
G01*
X153822900Y-77870000D01*
X154254700Y-78301801D01*
X154254700Y-79165400D01*
X153822899Y-79597200D01*
X152959300Y-79597200D01*
X152527500Y-79165399D01*
X152527500Y-78301800D01*
X152959301Y-77870000D01*
G37*
G36*
X150419301Y-80410000D02*
G01*
X151282900Y-80410000D01*
X151714700Y-80841801D01*
X151714700Y-81705400D01*
X151282899Y-82137200D01*
X150419300Y-82137200D01*
X149987500Y-81705399D01*
X149987500Y-80841800D01*
X150419301Y-80410000D01*
G37*
G36*
X150419301Y-77870000D02*
G01*
X151282900Y-77870000D01*
X151714700Y-78301801D01*
X151714700Y-79165400D01*
X151282899Y-79597200D01*
X150419300Y-79597200D01*
X149987500Y-79165399D01*
X149987500Y-78301800D01*
X150419301Y-77870000D01*
G37*
G36*
X147879301Y-80410000D02*
G01*
X148742900Y-80410000D01*
X149174700Y-80841801D01*
X149174700Y-81705400D01*
X148742899Y-82137200D01*
X147879300Y-82137200D01*
X147447500Y-81705399D01*
X147447500Y-80841800D01*
X147879301Y-80410000D01*
G37*
G36*
X147879301Y-77870000D02*
G01*
X148742900Y-77870000D01*
X149174700Y-78301801D01*
X149174700Y-79165400D01*
X148742899Y-79597200D01*
X147879300Y-79597200D01*
X147447500Y-79165399D01*
X147447500Y-78301800D01*
X147879301Y-77870000D01*
G37*
G36*
X145339301Y-80410000D02*
G01*
X146202900Y-80410000D01*
X146634700Y-80841801D01*
X146634700Y-81705400D01*
X146202899Y-82137200D01*
X145339300Y-82137200D01*
X144907500Y-81705399D01*
X144907500Y-80841800D01*
X145339301Y-80410000D01*
G37*
G36*
X145339301Y-77870000D02*
G01*
X146202900Y-77870000D01*
X146634700Y-78301801D01*
X146634700Y-79165400D01*
X146202899Y-79597200D01*
X145339300Y-79597200D01*
X144907500Y-79165399D01*
X144907500Y-78301800D01*
X145339301Y-77870000D01*
G37*
G36*
X142799301Y-80410000D02*
G01*
X143662900Y-80410000D01*
X144094700Y-80841801D01*
X144094700Y-81705400D01*
X143662899Y-82137200D01*
X142799300Y-82137200D01*
X142367500Y-81705399D01*
X142367500Y-80841800D01*
X142799301Y-80410000D01*
G37*
G36*
X142799301Y-77870000D02*
G01*
X143662900Y-77870000D01*
X144094700Y-78301801D01*
X144094700Y-79165400D01*
X143662899Y-79597200D01*
X142799300Y-79597200D01*
X142367500Y-79165399D01*
X142367500Y-78301800D01*
X142799301Y-77870000D01*
G37*
G36*
X140259301Y-80410000D02*
G01*
X141122900Y-80410000D01*
X141554700Y-80841801D01*
X141554700Y-81705400D01*
X141122899Y-82137200D01*
X140259300Y-82137200D01*
X139827500Y-81705399D01*
X139827500Y-80841800D01*
X140259301Y-80410000D01*
G37*
G36*
X140259301Y-77870000D02*
G01*
X141122900Y-77870000D01*
X141554700Y-78301801D01*
X141554700Y-79165400D01*
X141122899Y-79597200D01*
X140259300Y-79597200D01*
X139827500Y-79165399D01*
X139827500Y-78301800D01*
X140259301Y-77870000D01*
G37*
G36*
X137719301Y-80410000D02*
G01*
X138582900Y-80410000D01*
X139014700Y-80841801D01*
X139014700Y-81705400D01*
X138582899Y-82137200D01*
X137719300Y-82137200D01*
X137287500Y-81705399D01*
X137287500Y-80841800D01*
X137719301Y-80410000D01*
G37*
G36*
X137719301Y-77870000D02*
G01*
X138582900Y-77870000D01*
X139014700Y-78301801D01*
X139014700Y-79165400D01*
X138582899Y-79597200D01*
X137719300Y-79597200D01*
X137287500Y-79165399D01*
X137287500Y-78301800D01*
X137719301Y-77870000D01*
G37*
G36*
X135179301Y-80410000D02*
G01*
X136042900Y-80410000D01*
X136474700Y-80841801D01*
X136474700Y-81705400D01*
X136042899Y-82137200D01*
X135179300Y-82137200D01*
X134747500Y-81705399D01*
X134747500Y-80841800D01*
X135179301Y-80410000D01*
G37*
G36*
X135179301Y-77870000D02*
G01*
X136042900Y-77870000D01*
X136474700Y-78301801D01*
X136474700Y-79165400D01*
X136042899Y-79597200D01*
X135179300Y-79597200D01*
X134747500Y-79165399D01*
X134747500Y-78301800D01*
X135179301Y-77870000D01*
G37*
G36*
X132639301Y-80410000D02*
G01*
X133502900Y-80410000D01*
X133934700Y-80841801D01*
X133934700Y-81705400D01*
X133502899Y-82137200D01*
X132639300Y-82137200D01*
X132207500Y-81705399D01*
X132207500Y-80841800D01*
X132639301Y-80410000D01*
G37*
G36*
X132639301Y-77870000D02*
G01*
X133502900Y-77870000D01*
X133934700Y-78301801D01*
X133934700Y-79165400D01*
X133502899Y-79597200D01*
X132639300Y-79597200D01*
X132207500Y-79165399D01*
X132207500Y-78301800D01*
X132639301Y-77870000D01*
G37*
G36*
X130099301Y-80410000D02*
G01*
X130962900Y-80410000D01*
X131394700Y-80841801D01*
X131394700Y-81705400D01*
X130962899Y-82137200D01*
X130099300Y-82137200D01*
X129667500Y-81705399D01*
X129667500Y-80841800D01*
X130099301Y-80410000D01*
G37*
G36*
X130099301Y-77870000D02*
G01*
X130962900Y-77870000D01*
X131394700Y-78301801D01*
X131394700Y-79165400D01*
X130962899Y-79597200D01*
X130099300Y-79597200D01*
X129667500Y-79165399D01*
X129667500Y-78301800D01*
X130099301Y-77870000D01*
G37*
G36*
X127559301Y-80410000D02*
G01*
X128422900Y-80410000D01*
X128854700Y-80841801D01*
X128854700Y-81705400D01*
X128422899Y-82137200D01*
X127559300Y-82137200D01*
X127127500Y-81705399D01*
X127127500Y-80841800D01*
X127559301Y-80410000D01*
G37*
G36*
X127559301Y-77870000D02*
G01*
X128422900Y-77870000D01*
X128854700Y-78301801D01*
X128854700Y-79165400D01*
X128422899Y-79597200D01*
X127559300Y-79597200D01*
X127127500Y-79165399D01*
X127127500Y-78301800D01*
X127559301Y-77870000D01*
G37*
G36*
X125019301Y-80410000D02*
G01*
X125882900Y-80410000D01*
X126314700Y-80841801D01*
X126314700Y-81705400D01*
X125882899Y-82137200D01*
X125019300Y-82137200D01*
X124587500Y-81705399D01*
X124587500Y-80841800D01*
X125019301Y-80410000D01*
G37*
G36*
X125019301Y-77870000D02*
G01*
X125882900Y-77870000D01*
X126314700Y-78301801D01*
X126314700Y-79165400D01*
X125882899Y-79597200D01*
X125019300Y-79597200D01*
X124587500Y-79165399D01*
X124587500Y-78301800D01*
X125019301Y-77870000D01*
G37*
G36*
X122479301Y-80410000D02*
G01*
X123342900Y-80410000D01*
X123774700Y-80841801D01*
X123774700Y-81705400D01*
X123342899Y-82137200D01*
X122479300Y-82137200D01*
X122047500Y-81705399D01*
X122047500Y-80841800D01*
X122479301Y-80410000D01*
G37*
G36*
X122479301Y-77870000D02*
G01*
X123342900Y-77870000D01*
X123774700Y-78301801D01*
X123774700Y-79165400D01*
X123342899Y-79597200D01*
X122479300Y-79597200D01*
X122047500Y-79165399D01*
X122047500Y-78301800D01*
X122479301Y-77870000D01*
G37*
G36*
X119939301Y-80410000D02*
G01*
X120802900Y-80410000D01*
X121234700Y-80841801D01*
X121234700Y-81705400D01*
X120802899Y-82137200D01*
X119939300Y-82137200D01*
X119507500Y-81705399D01*
X119507500Y-80841800D01*
X119939301Y-80410000D01*
G37*
G36*
X119939301Y-77870000D02*
G01*
X120802900Y-77870000D01*
X121234700Y-78301801D01*
X121234700Y-79165400D01*
X120802899Y-79597200D01*
X119939300Y-79597200D01*
X119507500Y-79165399D01*
X119507500Y-78301800D01*
X119939301Y-77870000D01*
G37*
G36*
X187094700Y-128701801D02*
G01*
X187094700Y-129565400D01*
X186662899Y-129997200D01*
X185799300Y-129997200D01*
X185367500Y-129565399D01*
X185367500Y-128701800D01*
X185799301Y-128270000D01*
X186662900Y-128270000D01*
X187094700Y-128701801D01*
G37*
G36*
X189634700Y-128701801D02*
G01*
X189634700Y-129565400D01*
X189202899Y-129997200D01*
X188339300Y-129997200D01*
X187907500Y-129565399D01*
X187907500Y-128701800D01*
X188339301Y-128270000D01*
X189202900Y-128270000D01*
X189634700Y-128701801D01*
G37*
G36*
X187094700Y-126161801D02*
G01*
X187094700Y-127025400D01*
X186662899Y-127457200D01*
X185799300Y-127457200D01*
X185367500Y-127025399D01*
X185367500Y-126161800D01*
X185799301Y-125730000D01*
X186662900Y-125730000D01*
X187094700Y-126161801D01*
G37*
G36*
X189634700Y-126161801D02*
G01*
X189634700Y-127025400D01*
X189202899Y-127457200D01*
X188339300Y-127457200D01*
X187907500Y-127025399D01*
X187907500Y-126161800D01*
X188339301Y-125730000D01*
X189202900Y-125730000D01*
X189634700Y-126161801D01*
G37*
G36*
X187094700Y-123621801D02*
G01*
X187094700Y-124485400D01*
X186662899Y-124917200D01*
X185799300Y-124917200D01*
X185367500Y-124485399D01*
X185367500Y-123621800D01*
X185799301Y-123190000D01*
X186662900Y-123190000D01*
X187094700Y-123621801D01*
G37*
G36*
X189634700Y-123621801D02*
G01*
X189634700Y-124485400D01*
X189202899Y-124917200D01*
X188339300Y-124917200D01*
X187907500Y-124485399D01*
X187907500Y-123621800D01*
X188339301Y-123190000D01*
X189202900Y-123190000D01*
X189634700Y-123621801D01*
G37*
G36*
X187094700Y-121081801D02*
G01*
X187094700Y-121945400D01*
X186662899Y-122377200D01*
X185799300Y-122377200D01*
X185367500Y-121945399D01*
X185367500Y-121081800D01*
X185799301Y-120650000D01*
X186662900Y-120650000D01*
X187094700Y-121081801D01*
G37*
G36*
X189634700Y-121081801D02*
G01*
X189634700Y-121945400D01*
X189202899Y-122377200D01*
X188339300Y-122377200D01*
X187907500Y-121945399D01*
X187907500Y-121081800D01*
X188339301Y-120650000D01*
X189202900Y-120650000D01*
X189634700Y-121081801D01*
G37*
G36*
X187094700Y-118541801D02*
G01*
X187094700Y-119405400D01*
X186662899Y-119837200D01*
X185799300Y-119837200D01*
X185367500Y-119405399D01*
X185367500Y-118541800D01*
X185799301Y-118110000D01*
X186662900Y-118110000D01*
X187094700Y-118541801D01*
G37*
G36*
X189634700Y-118541801D02*
G01*
X189634700Y-119405400D01*
X189202899Y-119837200D01*
X188339300Y-119837200D01*
X187907500Y-119405399D01*
X187907500Y-118541800D01*
X188339301Y-118110000D01*
X189202900Y-118110000D01*
X189634700Y-118541801D01*
G37*
G36*
X187094700Y-116001801D02*
G01*
X187094700Y-116865400D01*
X186662899Y-117297200D01*
X185799300Y-117297200D01*
X185367500Y-116865399D01*
X185367500Y-116001800D01*
X185799301Y-115570000D01*
X186662900Y-115570000D01*
X187094700Y-116001801D01*
G37*
G36*
X189634700Y-116001801D02*
G01*
X189634700Y-116865400D01*
X189202899Y-117297200D01*
X188339300Y-117297200D01*
X187907500Y-116865399D01*
X187907500Y-116001800D01*
X188339301Y-115570000D01*
X189202900Y-115570000D01*
X189634700Y-116001801D01*
G37*
G36*
X187094700Y-113461801D02*
G01*
X187094700Y-114325400D01*
X186662899Y-114757200D01*
X185799300Y-114757200D01*
X185367500Y-114325399D01*
X185367500Y-113461800D01*
X185799301Y-113030000D01*
X186662900Y-113030000D01*
X187094700Y-113461801D01*
G37*
G36*
X189634700Y-113461801D02*
G01*
X189634700Y-114325400D01*
X189202899Y-114757200D01*
X188339300Y-114757200D01*
X187907500Y-114325399D01*
X187907500Y-113461800D01*
X188339301Y-113030000D01*
X189202900Y-113030000D01*
X189634700Y-113461801D01*
G37*
G36*
X187094700Y-110921801D02*
G01*
X187094700Y-111785400D01*
X186662899Y-112217200D01*
X185799300Y-112217200D01*
X185367500Y-111785399D01*
X185367500Y-110921800D01*
X185799301Y-110490000D01*
X186662900Y-110490000D01*
X187094700Y-110921801D01*
G37*
G36*
X189634700Y-110921801D02*
G01*
X189634700Y-111785400D01*
X189202899Y-112217200D01*
X188339300Y-112217200D01*
X187907500Y-111785399D01*
X187907500Y-110921800D01*
X188339301Y-110490000D01*
X189202900Y-110490000D01*
X189634700Y-110921801D01*
G37*
G36*
X187094700Y-108381801D02*
G01*
X187094700Y-109245400D01*
X186662899Y-109677200D01*
X185799300Y-109677200D01*
X185367500Y-109245399D01*
X185367500Y-108381800D01*
X185799301Y-107950000D01*
X186662900Y-107950000D01*
X187094700Y-108381801D01*
G37*
G36*
X189634700Y-108381801D02*
G01*
X189634700Y-109245400D01*
X189202899Y-109677200D01*
X188339300Y-109677200D01*
X187907500Y-109245399D01*
X187907500Y-108381800D01*
X188339301Y-107950000D01*
X189202900Y-107950000D01*
X189634700Y-108381801D01*
G37*
G36*
X187094700Y-105841801D02*
G01*
X187094700Y-106705400D01*
X186662899Y-107137200D01*
X185799300Y-107137200D01*
X185367500Y-106705399D01*
X185367500Y-105841800D01*
X185799301Y-105410000D01*
X186662900Y-105410000D01*
X187094700Y-105841801D01*
G37*
G36*
X189634700Y-105841801D02*
G01*
X189634700Y-106705400D01*
X189202899Y-107137200D01*
X188339300Y-107137200D01*
X187907500Y-106705399D01*
X187907500Y-105841800D01*
X188339301Y-105410000D01*
X189202900Y-105410000D01*
X189634700Y-105841801D01*
G37*
G36*
X187094700Y-103301801D02*
G01*
X187094700Y-104165400D01*
X186662899Y-104597200D01*
X185799300Y-104597200D01*
X185367500Y-104165399D01*
X185367500Y-103301800D01*
X185799301Y-102870000D01*
X186662900Y-102870000D01*
X187094700Y-103301801D01*
G37*
G36*
X189634700Y-103301801D02*
G01*
X189634700Y-104165400D01*
X189202899Y-104597200D01*
X188339300Y-104597200D01*
X187907500Y-104165399D01*
X187907500Y-103301800D01*
X188339301Y-102870000D01*
X189202900Y-102870000D01*
X189634700Y-103301801D01*
G37*
G36*
X187094700Y-100761801D02*
G01*
X187094700Y-101625400D01*
X186662899Y-102057200D01*
X185799300Y-102057200D01*
X185367500Y-101625399D01*
X185367500Y-100761800D01*
X185799301Y-100330000D01*
X186662900Y-100330000D01*
X187094700Y-100761801D01*
G37*
G36*
X189634700Y-100761801D02*
G01*
X189634700Y-101625400D01*
X189202899Y-102057200D01*
X188339300Y-102057200D01*
X187907500Y-101625399D01*
X187907500Y-100761800D01*
X188339301Y-100330000D01*
X189202900Y-100330000D01*
X189634700Y-100761801D01*
G37*
G36*
X187094700Y-98221801D02*
G01*
X187094700Y-99085400D01*
X186662899Y-99517200D01*
X185799300Y-99517200D01*
X185367500Y-99085399D01*
X185367500Y-98221800D01*
X185799301Y-97790000D01*
X186662900Y-97790000D01*
X187094700Y-98221801D01*
G37*
G36*
X189634700Y-98221801D02*
G01*
X189634700Y-99085400D01*
X189202899Y-99517200D01*
X188339300Y-99517200D01*
X187907500Y-99085399D01*
X187907500Y-98221800D01*
X188339301Y-97790000D01*
X189202900Y-97790000D01*
X189634700Y-98221801D01*
G37*
G36*
X187094700Y-95681801D02*
G01*
X187094700Y-96545400D01*
X186662899Y-96977200D01*
X185799300Y-96977200D01*
X185367500Y-96545399D01*
X185367500Y-95681800D01*
X185799301Y-95250000D01*
X186662900Y-95250000D01*
X187094700Y-95681801D01*
G37*
G36*
X189634700Y-95681801D02*
G01*
X189634700Y-96545400D01*
X189202899Y-96977200D01*
X188339300Y-96977200D01*
X187907500Y-96545399D01*
X187907500Y-95681800D01*
X188339301Y-95250000D01*
X189202900Y-95250000D01*
X189634700Y-95681801D01*
G37*
G36*
X187094700Y-93141801D02*
G01*
X187094700Y-94005400D01*
X186662899Y-94437200D01*
X185799300Y-94437200D01*
X185367500Y-94005399D01*
X185367500Y-93141800D01*
X185799301Y-92710000D01*
X186662900Y-92710000D01*
X187094700Y-93141801D01*
G37*
G36*
X189634700Y-93141801D02*
G01*
X189634700Y-94005400D01*
X189202899Y-94437200D01*
X188339300Y-94437200D01*
X187907500Y-94005399D01*
X187907500Y-93141800D01*
X188339301Y-92710000D01*
X189202900Y-92710000D01*
X189634700Y-93141801D01*
G37*
G36*
X187094700Y-90601801D02*
G01*
X187094700Y-91465400D01*
X186662899Y-91897200D01*
X185799300Y-91897200D01*
X185367500Y-91465399D01*
X185367500Y-90601800D01*
X185799301Y-90170000D01*
X186662900Y-90170000D01*
X187094700Y-90601801D01*
G37*
G36*
X189634700Y-90601801D02*
G01*
X189634700Y-91465400D01*
X189202899Y-91897200D01*
X188339300Y-91897200D01*
X187907500Y-91465399D01*
X187907500Y-90601800D01*
X188339301Y-90170000D01*
X189202900Y-90170000D01*
X189634700Y-90601801D01*
G37*
G36*
X187094700Y-88061801D02*
G01*
X187094700Y-88925400D01*
X186662899Y-89357200D01*
X185799300Y-89357200D01*
X185367500Y-88925399D01*
X185367500Y-88061800D01*
X185799301Y-87630000D01*
X186662900Y-87630000D01*
X187094700Y-88061801D01*
G37*
G36*
X189634700Y-88061801D02*
G01*
X189634700Y-88925400D01*
X189202899Y-89357200D01*
X188339300Y-89357200D01*
X187907500Y-88925399D01*
X187907500Y-88061800D01*
X188339301Y-87630000D01*
X189202900Y-87630000D01*
X189634700Y-88061801D01*
G37*
G36*
X187094700Y-85521801D02*
G01*
X187094700Y-86385400D01*
X186662899Y-86817200D01*
X185799300Y-86817200D01*
X185367500Y-86385399D01*
X185367500Y-85521800D01*
X185799301Y-85090000D01*
X186662900Y-85090000D01*
X187094700Y-85521801D01*
G37*
G36*
X189634700Y-85521801D02*
G01*
X189634700Y-86385400D01*
X189202899Y-86817200D01*
X188339300Y-86817200D01*
X187907500Y-86385399D01*
X187907500Y-85521800D01*
X188339301Y-85090000D01*
X189202900Y-85090000D01*
X189634700Y-85521801D01*
G37*
G36*
X187094700Y-82981801D02*
G01*
X187094700Y-83845400D01*
X186662899Y-84277200D01*
X185799300Y-84277200D01*
X185367500Y-83845399D01*
X185367500Y-82981800D01*
X185799301Y-82550000D01*
X186662900Y-82550000D01*
X187094700Y-82981801D01*
G37*
G36*
X189634700Y-82981801D02*
G01*
X189634700Y-83845400D01*
X189202899Y-84277200D01*
X188339300Y-84277200D01*
X187907500Y-83845399D01*
X187907500Y-82981800D01*
X188339301Y-82550000D01*
X189202900Y-82550000D01*
X189634700Y-82981801D01*
G37*
G36*
X187094700Y-80441801D02*
G01*
X187094700Y-81305400D01*
X186662899Y-81737200D01*
X185799300Y-81737200D01*
X185367500Y-81305399D01*
X185367500Y-80441800D01*
X185799301Y-80010000D01*
X186662900Y-80010000D01*
X187094700Y-80441801D01*
G37*
G36*
X189634700Y-80441801D02*
G01*
X189634700Y-81305400D01*
X189202899Y-81737200D01*
X188339300Y-81737200D01*
X187907500Y-81305399D01*
X187907500Y-80441800D01*
X188339301Y-80010000D01*
X189202900Y-80010000D01*
X189634700Y-80441801D01*
G37*
G36*
X163594700Y-100651801D02*
G01*
X163594700Y-101515400D01*
X163162899Y-101947200D01*
X162299300Y-101947200D01*
X161867500Y-101515399D01*
X161867500Y-100651800D01*
X162299301Y-100220000D01*
X163162900Y-100220000D01*
X163594700Y-100651801D01*
G37*
G36*
X166134700Y-100651801D02*
G01*
X166134700Y-101515400D01*
X165702899Y-101947200D01*
X164839300Y-101947200D01*
X164407500Y-101515399D01*
X164407500Y-100651800D01*
X164839301Y-100220000D01*
X165702900Y-100220000D01*
X166134700Y-100651801D01*
G37*
G36*
X163594700Y-98111801D02*
G01*
X163594700Y-98975400D01*
X163162899Y-99407200D01*
X162299300Y-99407200D01*
X161867500Y-98975399D01*
X161867500Y-98111800D01*
X162299301Y-97680000D01*
X163162900Y-97680000D01*
X163594700Y-98111801D01*
G37*
G36*
X166134700Y-98111801D02*
G01*
X166134700Y-98975400D01*
X165702899Y-99407200D01*
X164839300Y-99407200D01*
X164407500Y-98975399D01*
X164407500Y-98111800D01*
X164839301Y-97680000D01*
X165702900Y-97680000D01*
X166134700Y-98111801D01*
G37*
G36*
X163594700Y-95571801D02*
G01*
X163594700Y-96435400D01*
X163162899Y-96867200D01*
X162299300Y-96867200D01*
X161867500Y-96435399D01*
X161867500Y-95571800D01*
X162299301Y-95140000D01*
X163162900Y-95140000D01*
X163594700Y-95571801D01*
G37*
G36*
X166134700Y-95571801D02*
G01*
X166134700Y-96435400D01*
X165702899Y-96867200D01*
X164839300Y-96867200D01*
X164407500Y-96435399D01*
X164407500Y-95571800D01*
X164839301Y-95140000D01*
X165702900Y-95140000D01*
X166134700Y-95571801D01*
G37*
G36*
X163594700Y-93031801D02*
G01*
X163594700Y-93895400D01*
X163162899Y-94327200D01*
X162299300Y-94327200D01*
X161867500Y-93895399D01*
X161867500Y-93031800D01*
X162299301Y-92600000D01*
X163162900Y-92600000D01*
X163594700Y-93031801D01*
G37*
G36*
X166134700Y-93031801D02*
G01*
X166134700Y-93895400D01*
X165702899Y-94327200D01*
X164839300Y-94327200D01*
X164407500Y-93895399D01*
X164407500Y-93031800D01*
X164839301Y-92600000D01*
X165702900Y-92600000D01*
X166134700Y-93031801D01*
G37*
G36*
X163594700Y-90491801D02*
G01*
X163594700Y-91355400D01*
X163162899Y-91787200D01*
X162299300Y-91787200D01*
X161867500Y-91355399D01*
X161867500Y-90491800D01*
X162299301Y-90060000D01*
X163162900Y-90060000D01*
X163594700Y-90491801D01*
G37*
G36*
X166134700Y-90491801D02*
G01*
X166134700Y-91355400D01*
X165702899Y-91787200D01*
X164839300Y-91787200D01*
X164407500Y-91355399D01*
X164407500Y-90491800D01*
X164839301Y-90060000D01*
X165702900Y-90060000D01*
X166134700Y-90491801D01*
G37*
G36*
X163594700Y-128651801D02*
G01*
X163594700Y-129515400D01*
X163162899Y-129947200D01*
X162299300Y-129947200D01*
X161867500Y-129515399D01*
X161867500Y-128651800D01*
X162299301Y-128220000D01*
X163162900Y-128220000D01*
X163594700Y-128651801D01*
G37*
G36*
X166134700Y-128651801D02*
G01*
X166134700Y-129515400D01*
X165702899Y-129947200D01*
X164839300Y-129947200D01*
X164407500Y-129515399D01*
X164407500Y-128651800D01*
X164839301Y-128220000D01*
X165702900Y-128220000D01*
X166134700Y-128651801D01*
G37*
G36*
X163594700Y-126111801D02*
G01*
X163594700Y-126975400D01*
X163162899Y-127407200D01*
X162299300Y-127407200D01*
X161867500Y-126975399D01*
X161867500Y-126111800D01*
X162299301Y-125680000D01*
X163162900Y-125680000D01*
X163594700Y-126111801D01*
G37*
G36*
X166134700Y-126111801D02*
G01*
X166134700Y-126975400D01*
X165702899Y-127407200D01*
X164839300Y-127407200D01*
X164407500Y-126975399D01*
X164407500Y-126111800D01*
X164839301Y-125680000D01*
X165702900Y-125680000D01*
X166134700Y-126111801D01*
G37*
G36*
X163594700Y-123571801D02*
G01*
X163594700Y-124435400D01*
X163162899Y-124867200D01*
X162299300Y-124867200D01*
X161867500Y-124435399D01*
X161867500Y-123571800D01*
X162299301Y-123140000D01*
X163162900Y-123140000D01*
X163594700Y-123571801D01*
G37*
G36*
X166134700Y-123571801D02*
G01*
X166134700Y-124435400D01*
X165702899Y-124867200D01*
X164839300Y-124867200D01*
X164407500Y-124435399D01*
X164407500Y-123571800D01*
X164839301Y-123140000D01*
X165702900Y-123140000D01*
X166134700Y-123571801D01*
G37*
G36*
X163594700Y-121031801D02*
G01*
X163594700Y-121895400D01*
X163162899Y-122327200D01*
X162299300Y-122327200D01*
X161867500Y-121895399D01*
X161867500Y-121031800D01*
X162299301Y-120600000D01*
X163162900Y-120600000D01*
X163594700Y-121031801D01*
G37*
G36*
X166134700Y-121031801D02*
G01*
X166134700Y-121895400D01*
X165702899Y-122327200D01*
X164839300Y-122327200D01*
X164407500Y-121895399D01*
X164407500Y-121031800D01*
X164839301Y-120600000D01*
X165702900Y-120600000D01*
X166134700Y-121031801D01*
G37*
G36*
X163594700Y-118491801D02*
G01*
X163594700Y-119355400D01*
X163162899Y-119787200D01*
X162299300Y-119787200D01*
X161867500Y-119355399D01*
X161867500Y-118491800D01*
X162299301Y-118060000D01*
X163162900Y-118060000D01*
X163594700Y-118491801D01*
G37*
G36*
X166134700Y-118491801D02*
G01*
X166134700Y-119355400D01*
X165702899Y-119787200D01*
X164839300Y-119787200D01*
X164407500Y-119355399D01*
X164407500Y-118491800D01*
X164839301Y-118060000D01*
X165702900Y-118060000D01*
X166134700Y-118491801D01*
G37*
D24*
X180513600Y-113096100D03*
X177713600Y-113096100D03*
D22*
X170858600Y-88116100D03*
X170858600Y-89816100D03*
X173398600Y-114422350D03*
X173398600Y-112722350D03*
X174248600Y-116429850D03*
X172548600Y-116429850D03*
D25*
X154094850Y-132781100D03*
X158094850Y-132781100D03*
D21*
X127463600Y-127383600D03*
X129163600Y-127383600D03*
X113391100Y-111452350D03*
X113391100Y-113152350D03*
D22*
X114558600Y-114842350D03*
X112858600Y-114842350D03*
D21*
X115454850Y-113152350D03*
X115454850Y-111452350D03*
D22*
X124764850Y-131669850D03*
X126464850Y-131669850D03*
X160007350Y-131669850D03*
X161707350Y-131669850D03*
D21*
X119106100Y-85847350D03*
X119106100Y-84147350D03*
X115716100Y-85949850D03*
X117416100Y-85949850D03*
G36*
X117486205Y-78169704D02*
G01*
X116564704Y-79091205D01*
X115713913Y-78240414D01*
X116635414Y-77318913D01*
X117486205Y-78169704D01*
G37*
G36*
X118688287Y-79371786D02*
G01*
X117766786Y-80293287D01*
X116915995Y-79442496D01*
X117837496Y-78520995D01*
X118688287Y-79371786D01*
G37*
D22*
X160007350Y-133733600D03*
X161707350Y-133733600D03*
D26*
X122439850Y-86891100D03*
X123389850Y-84691100D03*
X121489850Y-84691100D03*
D27*
X183717350Y-102611850D03*
X183717350Y-99767850D03*
D28*
X181653600Y-99789850D03*
X181653600Y-102589850D03*
D29*
X176312350Y-91823600D03*
X174612350Y-91823600D03*
D22*
X137997350Y-105896100D03*
X137997350Y-107596100D03*
X143927350Y-99761100D03*
X142227350Y-99761100D03*
X141704850Y-104364850D03*
X140004850Y-104364850D03*
X152284850Y-99546100D03*
X152284850Y-101246100D03*
D21*
X139052350Y-114842350D03*
X140752350Y-114842350D03*
X142022350Y-111984850D03*
X140322350Y-111984850D03*
X113391100Y-77479850D03*
X113391100Y-79179850D03*
D22*
X109366100Y-77853600D03*
X111066100Y-77853600D03*
G36*
X113106163Y-82620456D02*
G01*
X112502860Y-82017153D01*
X113000097Y-81519916D01*
X113603400Y-82123219D01*
X113106163Y-82620456D01*
G37*
G36*
X113671849Y-82054771D02*
G01*
X113068546Y-81451468D01*
X113565783Y-80954231D01*
X114169086Y-81557534D01*
X113671849Y-82054771D01*
G37*
G36*
X114237534Y-81489086D02*
G01*
X113634231Y-80885783D01*
X114131468Y-80388546D01*
X114734771Y-80991849D01*
X114237534Y-81489086D01*
G37*
G36*
X114803219Y-80923400D02*
G01*
X114199916Y-80320097D01*
X114697153Y-79822860D01*
X115300456Y-80426163D01*
X114803219Y-80923400D01*
G37*
G36*
X115687103Y-81807284D02*
G01*
X115083800Y-81203981D01*
X115581037Y-80706744D01*
X116184340Y-81310047D01*
X115687103Y-81807284D01*
G37*
G36*
X115121417Y-82372969D02*
G01*
X114518114Y-81769666D01*
X115015351Y-81272429D01*
X115618654Y-81875732D01*
X115121417Y-82372969D01*
G37*
G36*
X114555732Y-82938654D02*
G01*
X113952429Y-82335351D01*
X114449666Y-81838114D01*
X115052969Y-82441417D01*
X114555732Y-82938654D01*
G37*
G36*
X113990047Y-83504340D02*
G01*
X113386744Y-82901037D01*
X113883981Y-82403800D01*
X114487284Y-83007103D01*
X113990047Y-83504340D01*
G37*
D21*
X114343600Y-92197350D03*
X114343600Y-90497350D03*
D22*
X141807350Y-129821100D03*
X141807350Y-128121100D03*
X116407350Y-107801100D03*
X116407350Y-109501100D03*
X129844850Y-123573600D03*
X131544850Y-123573600D03*
D21*
X130479850Y-125637350D03*
X132179850Y-125637350D03*
D22*
X125876100Y-123573600D03*
X127576100Y-123573600D03*
D21*
X125399850Y-121509850D03*
X127099850Y-121509850D03*
X133869850Y-126963600D03*
X133869850Y-125263600D03*
D22*
X154292350Y-115953600D03*
X155992350Y-115953600D03*
X154292350Y-118176100D03*
X155992350Y-118176100D03*
D21*
X146411100Y-100816100D03*
X146411100Y-102516100D03*
D22*
X144347350Y-105691100D03*
X144347350Y-103991100D03*
D30*
X114651100Y-93639850D03*
X114651100Y-94439850D03*
X114651100Y-95239850D03*
X114651100Y-96039850D03*
X113401100Y-96039850D03*
X113401100Y-95239850D03*
X113401100Y-94439850D03*
X113401100Y-93639850D03*
X114651100Y-96973600D03*
X114651100Y-97773600D03*
X114651100Y-98573600D03*
X114651100Y-99373600D03*
X113401100Y-99373600D03*
X113401100Y-98573600D03*
X113401100Y-97773600D03*
X113401100Y-96973600D03*
G36*
X135773454Y-85690787D02*
G01*
X134922663Y-84839996D01*
X135844164Y-83918495D01*
X136694955Y-84769286D01*
X135773454Y-85690787D01*
G37*
G36*
X136975536Y-84488705D02*
G01*
X136124745Y-83637914D01*
X137046246Y-82716413D01*
X137897037Y-83567204D01*
X136975536Y-84488705D01*
G37*
G36*
X144802268Y-84524776D02*
G01*
X143864825Y-85430055D01*
X143029012Y-84564546D01*
X143966455Y-83659267D01*
X144802268Y-84524776D01*
G37*
G36*
X145983188Y-85747654D02*
G01*
X145045745Y-86652933D01*
X144209932Y-85787424D01*
X145147375Y-84882145D01*
X145983188Y-85747654D01*
G37*
G36*
X147713495Y-92936246D02*
G01*
X148634996Y-92014745D01*
X149485787Y-92865536D01*
X148564286Y-93787037D01*
X147713495Y-92936246D01*
G37*
G36*
X146511413Y-91734164D02*
G01*
X147432914Y-90812663D01*
X148283705Y-91663454D01*
X147362204Y-92584955D01*
X146511413Y-91734164D01*
G37*
G36*
X145082663Y-93092204D02*
G01*
X145933454Y-92241413D01*
X146854955Y-93162914D01*
X146004164Y-94013705D01*
X145082663Y-93092204D01*
G37*
G36*
X146284745Y-94294286D02*
G01*
X147135536Y-93443495D01*
X148057037Y-94364996D01*
X147206246Y-95215787D01*
X146284745Y-94294286D01*
G37*
G36*
X135299996Y-86869955D02*
G01*
X134378495Y-85948454D01*
X135229286Y-85097663D01*
X136150787Y-86019164D01*
X135299996Y-86869955D01*
G37*
G36*
X134097914Y-88072037D02*
G01*
X133176413Y-87150536D01*
X134027204Y-86299745D01*
X134948705Y-87221246D01*
X134097914Y-88072037D01*
G37*
G36*
X133871246Y-83668913D02*
G01*
X134722037Y-84519704D01*
X133800536Y-85441205D01*
X132949745Y-84590414D01*
X133871246Y-83668913D01*
G37*
G36*
X132669164Y-84870995D02*
G01*
X133519955Y-85721786D01*
X132598454Y-86643287D01*
X131747663Y-85792496D01*
X132669164Y-84870995D01*
G37*
G36*
X135013495Y-93729996D02*
G01*
X135934996Y-92808495D01*
X136785787Y-93659286D01*
X135864286Y-94580787D01*
X135013495Y-93729996D01*
G37*
G36*
X133811413Y-92527914D02*
G01*
X134732914Y-91606413D01*
X135583705Y-92457204D01*
X134662204Y-93378705D01*
X133811413Y-92527914D01*
G37*
G36*
X141685475Y-83795611D02*
G01*
X142224291Y-84334427D01*
X141182581Y-85376137D01*
X140643765Y-84837321D01*
X141685475Y-83795611D01*
G37*
G36*
X142251160Y-84361297D02*
G01*
X142789976Y-84900113D01*
X141748266Y-85941823D01*
X141209450Y-85403007D01*
X142251160Y-84361297D01*
G37*
G36*
X142816845Y-84926982D02*
G01*
X143355661Y-85465798D01*
X142313951Y-86507508D01*
X141775135Y-85968692D01*
X142816845Y-84926982D01*
G37*
G36*
X143382531Y-85492668D02*
G01*
X143921347Y-86031484D01*
X142879637Y-87073194D01*
X142340821Y-86534378D01*
X143382531Y-85492668D01*
G37*
G36*
X143948216Y-86058353D02*
G01*
X144487032Y-86597169D01*
X143445322Y-87638879D01*
X142906506Y-87100063D01*
X143948216Y-86058353D01*
G37*
G36*
X144513902Y-86624039D02*
G01*
X145052718Y-87162855D01*
X144011008Y-88204565D01*
X143472192Y-87665749D01*
X144513902Y-86624039D01*
G37*
G36*
X145079587Y-87189724D02*
G01*
X145618403Y-87728540D01*
X144576693Y-88770250D01*
X144037877Y-88231434D01*
X145079587Y-87189724D01*
G37*
G36*
X145645273Y-87755409D02*
G01*
X146184089Y-88294225D01*
X145142379Y-89335935D01*
X144603563Y-88797119D01*
X145645273Y-87755409D01*
G37*
G36*
X145142379Y-89866265D02*
G01*
X146184089Y-90907975D01*
X145645273Y-91446791D01*
X144603563Y-90405081D01*
X145142379Y-89866265D01*
G37*
G36*
X144576693Y-90431950D02*
G01*
X145618403Y-91473660D01*
X145079587Y-92012476D01*
X144037877Y-90970766D01*
X144576693Y-90431950D01*
G37*
G36*
X144011008Y-90997635D02*
G01*
X145052718Y-92039345D01*
X144513902Y-92578161D01*
X143472192Y-91536451D01*
X144011008Y-90997635D01*
G37*
G36*
X143445322Y-91563321D02*
G01*
X144487032Y-92605031D01*
X143948216Y-93143847D01*
X142906506Y-92102137D01*
X143445322Y-91563321D01*
G37*
G36*
X142879637Y-92129006D02*
G01*
X143921347Y-93170716D01*
X143382531Y-93709532D01*
X142340821Y-92667822D01*
X142879637Y-92129006D01*
G37*
G36*
X142313951Y-92694692D02*
G01*
X143355661Y-93736402D01*
X142816845Y-94275218D01*
X141775135Y-93233508D01*
X142313951Y-92694692D01*
G37*
G36*
X141748266Y-93260377D02*
G01*
X142789976Y-94302087D01*
X142251160Y-94840903D01*
X141209450Y-93799193D01*
X141748266Y-93260377D01*
G37*
G36*
X141182581Y-93826063D02*
G01*
X142224291Y-94867773D01*
X141685475Y-95406589D01*
X140643765Y-94364879D01*
X141182581Y-93826063D01*
G37*
G36*
X139574619Y-93826063D02*
G01*
X140113435Y-94364879D01*
X139071725Y-95406589D01*
X138532909Y-94867773D01*
X139574619Y-93826063D01*
G37*
G36*
X139008934Y-93260377D02*
G01*
X139547750Y-93799193D01*
X138506040Y-94840903D01*
X137967224Y-94302087D01*
X139008934Y-93260377D01*
G37*
G36*
X138443249Y-92694692D02*
G01*
X138982065Y-93233508D01*
X137940355Y-94275218D01*
X137401539Y-93736402D01*
X138443249Y-92694692D01*
G37*
G36*
X137877563Y-92129006D02*
G01*
X138416379Y-92667822D01*
X137374669Y-93709532D01*
X136835853Y-93170716D01*
X137877563Y-92129006D01*
G37*
G36*
X137311878Y-91563321D02*
G01*
X137850694Y-92102137D01*
X136808984Y-93143847D01*
X136270168Y-92605031D01*
X137311878Y-91563321D01*
G37*
G36*
X136746192Y-90997635D02*
G01*
X137285008Y-91536451D01*
X136243298Y-92578161D01*
X135704482Y-92039345D01*
X136746192Y-90997635D01*
G37*
G36*
X136180507Y-90431950D02*
G01*
X136719323Y-90970766D01*
X135677613Y-92012476D01*
X135138797Y-91473660D01*
X136180507Y-90431950D01*
G37*
G36*
X135614821Y-89866265D02*
G01*
X136153637Y-90405081D01*
X135111927Y-91446791D01*
X134573111Y-90907975D01*
X135614821Y-89866265D01*
G37*
G36*
X135111927Y-87755409D02*
G01*
X136153637Y-88797119D01*
X135614821Y-89335935D01*
X134573111Y-88294225D01*
X135111927Y-87755409D01*
G37*
G36*
X135677613Y-87189724D02*
G01*
X136719323Y-88231434D01*
X136180507Y-88770250D01*
X135138797Y-87728540D01*
X135677613Y-87189724D01*
G37*
G36*
X136243298Y-86624039D02*
G01*
X137285008Y-87665749D01*
X136746192Y-88204565D01*
X135704482Y-87162855D01*
X136243298Y-86624039D01*
G37*
G36*
X136808984Y-86058353D02*
G01*
X137850694Y-87100063D01*
X137311878Y-87638879D01*
X136270168Y-86597169D01*
X136808984Y-86058353D01*
G37*
G36*
X137374669Y-85492668D02*
G01*
X138416379Y-86534378D01*
X137877563Y-87073194D01*
X136835853Y-86031484D01*
X137374669Y-85492668D01*
G37*
G36*
X137940355Y-84926982D02*
G01*
X138982065Y-85968692D01*
X138443249Y-86507508D01*
X137401539Y-85465798D01*
X137940355Y-84926982D01*
G37*
G36*
X138506040Y-84361297D02*
G01*
X139547750Y-85403007D01*
X139008934Y-85941823D01*
X137967224Y-84900113D01*
X138506040Y-84361297D01*
G37*
G36*
X139071725Y-83795611D02*
G01*
X140113435Y-84837321D01*
X139574619Y-85376137D01*
X138532909Y-84334427D01*
X139071725Y-83795611D01*
G37*
D22*
X139006100Y-96427350D03*
X137306100Y-96427350D03*
X135989850Y-97379850D03*
X134289850Y-97379850D03*
X132599850Y-97912350D03*
X132599850Y-96212350D03*
D21*
X137679850Y-129073600D03*
X137679850Y-130773600D03*
G36*
X176433574Y-80649871D02*
G01*
X176718680Y-80934977D01*
X176150732Y-81502925D01*
X175865626Y-81217819D01*
X176433574Y-80649871D01*
G37*
G36*
X176716417Y-80932713D02*
G01*
X177001523Y-81217819D01*
X176433575Y-81785767D01*
X176148469Y-81500661D01*
X176716417Y-80932713D01*
G37*
G36*
X176999260Y-81215556D02*
G01*
X177284366Y-81500662D01*
X176716418Y-82068610D01*
X176431312Y-81783504D01*
X176999260Y-81215556D01*
G37*
G36*
X177282103Y-81498399D02*
G01*
X177567209Y-81783505D01*
X176999261Y-82351453D01*
X176714155Y-82066347D01*
X177282103Y-81498399D01*
G37*
G36*
X177564945Y-81781241D02*
G01*
X177850051Y-82066347D01*
X177282103Y-82634295D01*
X176996997Y-82349189D01*
X177564945Y-81781241D01*
G37*
G36*
X177847788Y-82064084D02*
G01*
X178132894Y-82349190D01*
X177564946Y-82917138D01*
X177279840Y-82632032D01*
X177847788Y-82064084D01*
G37*
G36*
X178130631Y-82346927D02*
G01*
X178415737Y-82632033D01*
X177847789Y-83199981D01*
X177562683Y-82914875D01*
X178130631Y-82346927D01*
G37*
G36*
X178413473Y-82629770D02*
G01*
X178698579Y-82914876D01*
X178130631Y-83482824D01*
X177845525Y-83197718D01*
X178413473Y-82629770D01*
G37*
G36*
X178698579Y-83904824D02*
G01*
X178413473Y-84189930D01*
X177845525Y-83621982D01*
X178130631Y-83336876D01*
X178698579Y-83904824D01*
G37*
G36*
X178415737Y-84187667D02*
G01*
X178130631Y-84472773D01*
X177562683Y-83904825D01*
X177847789Y-83619719D01*
X178415737Y-84187667D01*
G37*
G36*
X178132894Y-84470510D02*
G01*
X177847788Y-84755616D01*
X177279840Y-84187668D01*
X177564946Y-83902562D01*
X178132894Y-84470510D01*
G37*
G36*
X177850051Y-84753353D02*
G01*
X177564945Y-85038459D01*
X176996997Y-84470511D01*
X177282103Y-84185405D01*
X177850051Y-84753353D01*
G37*
G36*
X177567209Y-85036195D02*
G01*
X177282103Y-85321301D01*
X176714155Y-84753353D01*
X176999261Y-84468247D01*
X177567209Y-85036195D01*
G37*
G36*
X177284366Y-85319038D02*
G01*
X176999260Y-85604144D01*
X176431312Y-85036196D01*
X176716418Y-84751090D01*
X177284366Y-85319038D01*
G37*
G36*
X177001523Y-85601881D02*
G01*
X176716417Y-85886987D01*
X176148469Y-85319039D01*
X176433575Y-85033933D01*
X177001523Y-85601881D01*
G37*
G36*
X176718680Y-85884723D02*
G01*
X176433574Y-86169829D01*
X175865626Y-85601881D01*
X176150732Y-85316775D01*
X176718680Y-85884723D01*
G37*
G36*
X175443626Y-86169829D02*
G01*
X175158520Y-85884723D01*
X175726468Y-85316775D01*
X176011574Y-85601881D01*
X175443626Y-86169829D01*
G37*
G36*
X175160783Y-85886987D02*
G01*
X174875677Y-85601881D01*
X175443625Y-85033933D01*
X175728731Y-85319039D01*
X175160783Y-85886987D01*
G37*
G36*
X174877940Y-85604144D02*
G01*
X174592834Y-85319038D01*
X175160782Y-84751090D01*
X175445888Y-85036196D01*
X174877940Y-85604144D01*
G37*
G36*
X174595097Y-85321301D02*
G01*
X174309991Y-85036195D01*
X174877939Y-84468247D01*
X175163045Y-84753353D01*
X174595097Y-85321301D01*
G37*
G36*
X174312255Y-85038459D02*
G01*
X174027149Y-84753353D01*
X174595097Y-84185405D01*
X174880203Y-84470511D01*
X174312255Y-85038459D01*
G37*
G36*
X174029412Y-84755616D02*
G01*
X173744306Y-84470510D01*
X174312254Y-83902562D01*
X174597360Y-84187668D01*
X174029412Y-84755616D01*
G37*
G36*
X173746569Y-84472773D02*
G01*
X173461463Y-84187667D01*
X174029411Y-83619719D01*
X174314517Y-83904825D01*
X173746569Y-84472773D01*
G37*
G36*
X173463727Y-84189930D02*
G01*
X173178621Y-83904824D01*
X173746569Y-83336876D01*
X174031675Y-83621982D01*
X173463727Y-84189930D01*
G37*
G36*
X173178621Y-82914876D02*
G01*
X173463727Y-82629770D01*
X174031675Y-83197718D01*
X173746569Y-83482824D01*
X173178621Y-82914876D01*
G37*
G36*
X173461463Y-82632033D02*
G01*
X173746569Y-82346927D01*
X174314517Y-82914875D01*
X174029411Y-83199981D01*
X173461463Y-82632033D01*
G37*
G36*
X173744306Y-82349190D02*
G01*
X174029412Y-82064084D01*
X174597360Y-82632032D01*
X174312254Y-82917138D01*
X173744306Y-82349190D01*
G37*
G36*
X174027149Y-82066347D02*
G01*
X174312255Y-81781241D01*
X174880203Y-82349189D01*
X174595097Y-82634295D01*
X174027149Y-82066347D01*
G37*
G36*
X174309991Y-81783505D02*
G01*
X174595097Y-81498399D01*
X175163045Y-82066347D01*
X174877939Y-82351453D01*
X174309991Y-81783505D01*
G37*
G36*
X174592834Y-81500662D02*
G01*
X174877940Y-81215556D01*
X175445888Y-81783504D01*
X175160782Y-82068610D01*
X174592834Y-81500662D01*
G37*
G36*
X174875677Y-81217819D02*
G01*
X175160783Y-80932713D01*
X175728731Y-81500661D01*
X175443625Y-81785767D01*
X174875677Y-81217819D01*
G37*
G36*
X175158520Y-80934977D02*
G01*
X175443626Y-80649871D01*
X176011574Y-81217819D01*
X175726468Y-81502925D01*
X175158520Y-80934977D01*
G37*
G36*
X175938600Y-81356978D02*
G01*
X177991472Y-83409850D01*
X175938600Y-85462722D01*
X173885728Y-83409850D01*
X175938600Y-81356978D01*
G37*
D22*
X179748600Y-83988600D03*
X179748600Y-85688600D03*
X173239850Y-86846100D03*
X173239850Y-88546100D03*
G36*
X174250787Y-85316246D02*
G01*
X173399996Y-86167037D01*
X172478495Y-85245536D01*
X173329286Y-84394745D01*
X174250787Y-85316246D01*
G37*
G36*
X173048705Y-84114164D02*
G01*
X172197914Y-84964955D01*
X171276413Y-84043454D01*
X172127204Y-83192663D01*
X173048705Y-84114164D01*
G37*
X180701100Y-80178600D03*
X180701100Y-81878600D03*
D31*
X180701100Y-78536100D03*
X180701100Y-76536100D03*
X182764850Y-80504850D03*
X182764850Y-82504850D03*
D21*
X179169850Y-89283600D03*
X177469850Y-89283600D03*
D22*
X118471100Y-127916100D03*
X118471100Y-126216100D03*
X176097350Y-105849850D03*
X176097350Y-104149850D03*
D21*
X168636100Y-95418600D03*
X168636100Y-97118600D03*
X168636100Y-98434850D03*
X168636100Y-100134850D03*
D32*
X125036100Y-126733600D03*
X125036100Y-127383600D03*
X125036100Y-128033600D03*
X123336100Y-128033600D03*
X123336100Y-126733600D03*
D21*
X123653600Y-125319850D03*
X125353600Y-125319850D03*
D33*
X161651100Y-104510900D03*
X160381100Y-104510900D03*
X159111100Y-104510900D03*
X157841100Y-104510900D03*
X156571100Y-104510900D03*
X155301100Y-104510900D03*
X154031100Y-104510900D03*
X152761100Y-104510900D03*
X150221100Y-104536300D03*
X151491100Y-104510900D03*
X150221100Y-114061300D03*
X151491100Y-114061300D03*
X152761100Y-114061300D03*
X154031100Y-114061300D03*
X155301100Y-114061300D03*
X156571100Y-114061300D03*
X157841100Y-114061300D03*
X159111100Y-114061300D03*
X160381100Y-114061300D03*
X161651100Y-114061300D03*
D22*
X113017350Y-107539850D03*
X114717350Y-107539850D03*
X127417350Y-129447350D03*
X125717350Y-129447350D03*
D34*
X138949850Y-121339850D03*
X139899850Y-119139850D03*
X137999850Y-119139850D03*
D21*
X141966100Y-118913600D03*
X141966100Y-120613600D03*
D35*
X145761100Y-104149850D03*
X146411100Y-104149850D03*
X147061100Y-104149850D03*
X147061100Y-105849850D03*
X145761100Y-105849850D03*
D21*
X147998600Y-114739850D03*
X147998600Y-113039850D03*
D22*
X150856100Y-121089850D03*
X150856100Y-119389850D03*
X148316100Y-121089850D03*
X148316100Y-119389850D03*
D36*
X147853600Y-116906100D03*
X151953600Y-116906100D03*
D37*
X141951100Y-106689850D03*
X143251100Y-106689850D03*
X143251100Y-108389850D03*
X142601100Y-108389850D03*
X141951100Y-108389850D03*
D21*
X140219850Y-108118600D03*
X140219850Y-109818600D03*
D22*
X141909850Y-109921100D03*
X143609850Y-109921100D03*
X134607350Y-102459850D03*
X136307350Y-102459850D03*
X137623600Y-102301100D03*
X139323600Y-102301100D03*
X118209850Y-92458600D03*
X116509850Y-92458600D03*
D21*
X116566100Y-90768600D03*
X116566100Y-89068600D03*
G36*
X121488746Y-90521205D02*
G01*
X120567245Y-89599704D01*
X121418036Y-88748913D01*
X122339537Y-89670414D01*
X121488746Y-90521205D01*
G37*
G36*
X120286664Y-91723287D02*
G01*
X119365163Y-90801786D01*
X120215954Y-89950995D01*
X121137455Y-90872496D01*
X120286664Y-91723287D01*
G37*
X118629850Y-89339850D03*
X118629850Y-87639850D03*
D22*
X124129850Y-98491100D03*
X125829850Y-98491100D03*
X129798600Y-101348600D03*
X128098600Y-101348600D03*
X127146100Y-97221100D03*
X128846100Y-97221100D03*
X128846100Y-99443600D03*
X127146100Y-99443600D03*
D21*
X139743600Y-129073600D03*
X139743600Y-130773600D03*
D22*
X131432350Y-128653600D03*
X133132350Y-128653600D03*
X123607350Y-123256100D03*
X121907350Y-123256100D03*
G36*
X127068187Y-93493761D02*
G01*
X127912331Y-94337905D01*
X127553121Y-94697115D01*
X126708977Y-93852971D01*
X127068187Y-93493761D01*
G37*
G36*
X126608568Y-93953380D02*
G01*
X127452712Y-94797524D01*
X127093502Y-95156734D01*
X126249358Y-94312590D01*
X126608568Y-93953380D01*
G37*
G36*
X126148949Y-94413000D02*
G01*
X126993093Y-95257144D01*
X126633883Y-95616354D01*
X125789739Y-94772210D01*
X126148949Y-94413000D01*
G37*
G36*
X125689329Y-94872619D02*
G01*
X126533473Y-95716763D01*
X126174263Y-96075973D01*
X125330119Y-95231829D01*
X125689329Y-94872619D01*
G37*
G36*
X125229710Y-95332239D02*
G01*
X126073854Y-96176383D01*
X125714644Y-96535593D01*
X124870500Y-95691449D01*
X125229710Y-95332239D01*
G37*
G36*
X124770090Y-95791858D02*
G01*
X125614234Y-96636002D01*
X125255024Y-96995212D01*
X124410880Y-96151068D01*
X124770090Y-95791858D01*
G37*
G36*
X124310471Y-96251477D02*
G01*
X125154615Y-97095621D01*
X124795405Y-97454831D01*
X123951261Y-96610687D01*
X124310471Y-96251477D01*
G37*
G36*
X120184079Y-92125085D02*
G01*
X121028223Y-92969229D01*
X120669013Y-93328439D01*
X119824869Y-92484295D01*
X120184079Y-92125085D01*
G37*
G36*
X120643698Y-91665466D02*
G01*
X121487842Y-92509610D01*
X121128632Y-92868820D01*
X120284488Y-92024676D01*
X120643698Y-91665466D01*
G37*
G36*
X121103317Y-91205846D02*
G01*
X121947461Y-92049990D01*
X121588251Y-92409200D01*
X120744107Y-91565056D01*
X121103317Y-91205846D01*
G37*
G36*
X121562937Y-90746227D02*
G01*
X122407081Y-91590371D01*
X122047871Y-91949581D01*
X121203727Y-91105437D01*
X121562937Y-90746227D01*
G37*
G36*
X122022556Y-90286607D02*
G01*
X122866700Y-91130751D01*
X122507490Y-91489961D01*
X121663346Y-90645817D01*
X122022556Y-90286607D01*
G37*
G36*
X122482176Y-89826988D02*
G01*
X123326320Y-90671132D01*
X122967110Y-91030342D01*
X122122966Y-90186198D01*
X122482176Y-89826988D01*
G37*
G36*
X122941795Y-89367369D02*
G01*
X123785939Y-90211513D01*
X123426729Y-90570723D01*
X122582585Y-89726579D01*
X122941795Y-89367369D01*
G37*
X116304850Y-103412350D03*
X114604850Y-103412350D03*
X114717350Y-105476100D03*
X113017350Y-105476100D03*
X116304850Y-101031100D03*
X114604850Y-101031100D03*
D21*
X112914850Y-101292350D03*
X112914850Y-102992350D03*
D22*
X124923600Y-105634850D03*
X126623600Y-105634850D03*
D21*
X129583600Y-105691100D03*
X129583600Y-103991100D03*
X125456100Y-100181100D03*
X125456100Y-101881100D03*
D22*
X127893600Y-103571100D03*
X126193600Y-103571100D03*
D38*
X123611400Y-99716100D03*
X123611400Y-100366100D03*
X123611400Y-101016100D03*
X123611400Y-101666100D03*
X123611400Y-102316100D03*
X123611400Y-102966100D03*
X123611400Y-103616100D03*
X117775800Y-103616100D03*
X117775800Y-102966100D03*
X117775800Y-102316100D03*
X117775800Y-101666100D03*
X117775800Y-101016100D03*
X117775800Y-100366100D03*
X117775800Y-99716100D03*
D22*
X113017350Y-109603600D03*
X114717350Y-109603600D03*
D21*
X134187350Y-116644850D03*
X134187350Y-114944850D03*
X132123600Y-114944850D03*
X132123600Y-116644850D03*
D22*
X134766100Y-123573600D03*
X136466100Y-123573600D03*
X137782350Y-123573600D03*
X139482350Y-123573600D03*
D21*
X128789850Y-118549850D03*
X128789850Y-116849850D03*
D22*
X126623600Y-117382350D03*
X124923600Y-117382350D03*
D21*
X128789850Y-121566100D03*
X128789850Y-119866100D03*
D22*
X127099850Y-119446100D03*
X125399850Y-119446100D03*
D38*
X130475800Y-122031100D03*
X130475800Y-121381100D03*
X130475800Y-120731100D03*
X130475800Y-120081100D03*
X130475800Y-119431100D03*
X130475800Y-118781100D03*
X130475800Y-118131100D03*
X136311400Y-118131100D03*
X136311400Y-118781100D03*
X136311400Y-119431100D03*
X136311400Y-120081100D03*
X136311400Y-120731100D03*
X136311400Y-121381100D03*
X136311400Y-122031100D03*
D21*
X118471100Y-109501100D03*
X118471100Y-107801100D03*
D37*
X120073600Y-112993600D03*
X118773600Y-112993600D03*
X118773600Y-111293600D03*
X119423600Y-111293600D03*
X120073600Y-111293600D03*
D22*
X121431100Y-112937350D03*
X123131100Y-112937350D03*
X123131100Y-110873600D03*
X121431100Y-110873600D03*
D39*
X145293600Y-109142350D03*
X145293600Y-108492350D03*
X145293600Y-107842350D03*
X146893600Y-107842350D03*
X146893600Y-108492350D03*
X146893600Y-109142350D03*
D40*
X120043600Y-107692350D03*
X120693600Y-107692350D03*
X121343600Y-107692350D03*
X121343600Y-109292350D03*
X120693600Y-109292350D03*
X120043600Y-109292350D03*
D21*
X122542350Y-108174850D03*
X124242350Y-108174850D03*
D41*
X172366100Y-130506100D03*
X173466100Y-130506100D03*
X176766100Y-130506100D03*
X177866100Y-130506100D03*
X174566100Y-130506100D03*
X175666100Y-130506100D03*
X178966100Y-130506100D03*
X180066100Y-130506100D03*
D29*
X181266100Y-130356100D03*
X169816100Y-130356100D03*
D42*
X181516100Y-122756100D03*
X169566100Y-122106100D03*
D43*
X169816100Y-119706100D03*
D44*
X181166100Y-121256100D03*
D21*
X168001100Y-117961100D03*
X168001100Y-119661100D03*
G36*
X143091932Y-101887258D02*
G01*
X143255918Y-101946945D01*
X143401720Y-102042840D01*
X143521477Y-102169775D01*
X143608732Y-102320905D01*
X143658783Y-102488085D01*
X143670201Y-102618599D01*
X143670201Y-102618601D01*
X143649942Y-102791932D01*
X143590255Y-102955918D01*
X143494360Y-103101720D01*
X143367425Y-103221477D01*
X143216295Y-103308732D01*
X143049115Y-103358783D01*
X142918601Y-103370201D01*
X142918599Y-103370201D01*
X142745268Y-103349942D01*
X142581282Y-103290255D01*
X142435480Y-103194360D01*
X142315723Y-103067425D01*
X142228468Y-102916295D01*
X142178417Y-102749115D01*
X142166999Y-102618601D01*
X142166999Y-102618599D01*
X142187258Y-102445268D01*
X142246945Y-102281282D01*
X142342840Y-102135480D01*
X142469775Y-102015723D01*
X142620905Y-101928468D01*
X142788085Y-101878417D01*
X142918599Y-101866999D01*
X142918601Y-101866999D01*
X143091932Y-101887258D01*
G37*
M02*
